<svg width="35" height="17" viewBox="0 0 35 17" fill="none" xmlns="http://www.w3.org/2000/svg">
<g id="Battery">
<g id="Border" opacity="0.35">
<path id="Vector" opacity="0.35" d="M27.6004 1.45898H3.91557C2.21474 1.45898 0.835938 2.83778 0.835938 4.53862V13.0641C0.835938 14.7649 2.21474 16.1437 3.91557 16.1437H27.6004C29.3013 16.1437 30.6801 14.7649 30.6801 13.0641V4.53862C30.6801 2.83778 29.3013 1.45898 27.6004 1.45898Z" stroke="white" stroke-width="1.42115" stroke-miterlimit="10"/>
</g>
<path id="Cap" opacity="0.4" d="M32.8105 5.95898V11.6436C33.3699 11.4081 33.8473 11.0128 34.1831 10.5072C34.5188 10.0016 34.6978 9.40819 34.6978 8.80128C34.6978 8.19438 34.5188 7.60097 34.1831 7.09537C33.8473 6.58977 33.3699 6.19447 32.8105 5.95898" fill="#78707C"/>
<path id="Capacity" d="M26.6531 3.58887H4.86119C3.81495 3.58887 2.9668 4.43702 2.9668 5.48326V12.1158C2.9668 13.162 3.81495 14.0102 4.86119 14.0102H26.6531C27.6993 14.0102 28.5475 13.162 28.5475 12.1158V5.48326C28.5475 4.43702 27.6993 3.58887 26.6531 3.58887Z" fill="#78707C"/>
</g>
</svg>
