<svg width="25" height="16" viewBox="0 0 25 16" fill="none" xmlns="http://www.w3.org/2000/svg">
<path id="Cellular Connection" d="M21.9442 15.3811C21.5673 15.3811 21.2058 15.2314 20.9393 14.9648C20.6728 14.6983 20.523 14.3368 20.523 13.9599V1.64283C20.523 1.26592 20.6728 0.904442 20.9393 0.637925C21.2058 0.371408 21.5673 0.22168 21.9442 0.22168L23.3653 0.22168C23.7423 0.22168 24.1037 0.371408 24.3703 0.637925C24.6368 0.904442 24.7865 1.26592 24.7865 1.64283V13.9599C24.7865 14.3368 24.6368 14.6983 24.3703 14.9648C24.1037 15.2314 23.7423 15.3811 23.3653 15.3811H21.9442ZM15.3117 15.3811C14.9348 15.3811 14.5733 15.2314 14.3068 14.9648C14.0403 14.6983 13.8905 14.3368 13.8905 13.9599V4.95979C13.8905 4.58288 14.0403 4.22141 14.3068 3.95489C14.5733 3.68837 14.9348 3.53864 15.3117 3.53864H16.7328C17.1098 3.53864 17.4712 3.68837 17.7377 3.95489C18.0043 4.22141 18.154 4.58288 18.154 4.95979V13.9599C18.154 14.3368 18.0043 14.6983 17.7377 14.9648C17.4712 15.2314 17.1098 15.3811 16.7328 15.3811H15.3117ZM8.67919 15.3811C8.30227 15.3811 7.9408 15.2314 7.67428 14.9648C7.40777 14.6983 7.25804 14.3368 7.25804 13.9599V8.27533C7.25804 7.89842 7.40777 7.53695 7.67428 7.27043C7.9408 7.00391 8.30227 6.85418 8.67919 6.85418H10.1003C10.4772 6.85418 10.8387 7.00391 11.1052 7.27043C11.3718 7.53695 11.5215 7.89842 11.5215 8.27533V13.9599C11.5215 14.3368 11.3718 14.6983 11.1052 14.9648C10.8387 15.2314 10.4772 15.3811 10.1003 15.3811H8.67919ZM2.0481 15.3811C1.67119 15.3811 1.30972 15.2314 1.0432 14.9648C0.776681 14.6983 0.626953 14.3368 0.626953 13.9599V11.1176C0.626953 10.7407 0.776681 10.3792 1.0432 10.1127C1.30972 9.84621 1.67119 9.69648 2.0481 9.69648H3.46925C3.84616 9.69648 4.20764 9.84621 4.47416 10.1127C4.74067 10.3792 4.8904 10.7407 4.8904 11.1176V13.9599C4.8904 14.3368 4.74067 14.6983 4.47416 14.9648C4.20764 15.2314 3.84616 15.3811 3.46925 15.3811H2.0481Z" fill="#78707C"/>
</svg>
