<svg width="364" height="75" viewBox="0 0 364 75" fill="none" xmlns="http://www.w3.org/2000/svg">
<path d="M198.332 25.1797L245.332 25.1797" stroke="#4F0774" stroke-width="3"/>
<line x1="43.2734" y1="24.8193" x2="85.2734" y2="24.8193" stroke="#4F0774" stroke-width="3"/>
<line x1="120.332" y1="24.6797" x2="163.332" y2="24.6797" stroke="#4F0774" stroke-width="3"/>
<line x1="282.414" y1="24.8193" x2="324.414" y2="24.8193" stroke="#4F0774" stroke-width="3"/>
<path d="M21.5598 34.4484C21.0428 34.4484 20.5453 34.2337 20.1746 33.863L12.8874 26.4295C12.1362 25.6589 12.146 24.42 12.9167 23.6688C13.6873 22.9176 14.9262 22.9274 15.6774 23.6981L21.5793 29.7171L39.2851 12.0113C35.6367 7.8165 30.2615 5.14355 24.262 5.14355C13.2483 5.14355 4.33203 14.0599 4.33203 25.0736C4.33203 36.0872 13.2483 45.0036 24.262 45.0036C35.2757 45.0036 44.192 36.0872 44.192 25.0736C44.192 21.4934 43.236 18.1473 41.5874 15.25L22.9353 33.8826C22.5646 34.2533 22.0769 34.4581 21.5598 34.4581V34.4484Z" fill="#4F0774"/>
<path d="M44.6115 9.45545C43.8506 8.69454 42.6117 8.69454 41.8508 9.45545L39.2852 12.0211C40.1534 13.0161 40.924 14.099 41.5776 15.2501L44.6115 12.2162C45.3724 11.4553 45.3724 10.2164 44.6115 9.45545Z" fill="#4F0774"/>
<path d="M21.5684 29.7273L15.6665 23.7083C14.9153 22.9376 13.6764 22.9279 12.9057 23.679C12.1351 24.4302 12.1253 25.6691 12.8765 26.4398L20.1636 33.8733C20.5246 34.244 21.0221 34.4586 21.5489 34.4586C22.0659 34.4586 22.5634 34.2537 22.9244 33.883L41.5764 15.2407C40.9228 14.0896 40.1522 13.0068 39.284 12.0117L21.5684 29.7273Z" fill="white"/>
<path d="M99.5598 34.4122C99.0428 34.4122 98.5453 34.1976 98.1746 33.8269L90.8874 26.3934C90.1362 25.6227 90.146 24.3838 90.9167 23.6327C91.6873 22.8815 92.9262 22.8913 93.6774 23.6619L99.5793 29.6809L117.285 11.9751C113.637 7.78036 108.262 5.10742 102.262 5.10742C91.2483 5.10742 82.332 14.0237 82.332 25.0374C82.332 36.0511 91.2483 44.9674 102.262 44.9674C113.276 44.9674 122.192 36.0511 122.192 25.0374C122.192 21.4572 121.236 18.1112 119.587 15.2139L100.935 33.8464C100.565 34.2171 100.077 34.422 99.5598 34.422V34.4122Z" fill="#4F0774"/>
<path d="M122.612 9.41932C121.851 8.65841 120.612 8.65841 119.851 9.41932L117.285 11.9849C118.153 12.98 118.924 14.0628 119.578 15.2139L122.612 12.1801C123.372 11.4191 123.372 10.1802 122.612 9.41932Z" fill="#4F0774"/>
<path d="M99.5684 29.6911L93.6665 23.6721C92.9153 22.9015 91.6764 22.8917 90.9057 23.6429C90.1351 24.394 90.1253 25.633 90.8765 26.4036L98.1636 33.8371C98.5246 34.2078 99.0221 34.4224 99.5489 34.4224C100.066 34.4224 100.563 34.2176 100.924 33.8469L119.576 15.2046C118.923 14.0535 118.152 12.9706 117.284 11.9756L99.5684 29.6911Z" fill="white"/>
<path d="M177.56 34.3771C177.043 34.3771 176.545 34.1625 176.175 33.7918L168.887 26.3582C168.136 25.5876 168.146 24.3487 168.917 23.5975C169.687 22.8464 170.926 22.8561 171.677 23.6268L177.579 29.6458L195.285 11.94C191.637 7.74521 186.262 5.07227 180.262 5.07227C169.248 5.07227 160.332 13.9886 160.332 25.0023C160.332 36.016 169.248 44.9323 180.262 44.9323C191.276 44.9323 200.192 36.016 200.192 25.0023C200.192 21.4221 199.236 18.076 197.587 15.1787L178.935 33.8113C178.565 34.182 178.077 34.3868 177.56 34.3868V34.3771Z" fill="#4F0774"/>
<path d="M200.612 9.38416C199.851 8.62325 198.612 8.62325 197.851 9.38416L195.285 11.9498C196.153 12.9448 196.924 14.0277 197.578 15.1788L200.612 12.1449C201.372 11.384 201.372 10.1451 200.612 9.38416Z" fill="#4F0774"/>
<path d="M177.568 29.656L171.666 23.637C170.915 22.8663 169.676 22.8566 168.906 23.6077C168.135 24.3589 168.125 25.5978 168.876 26.3685L176.164 33.802C176.525 34.1727 177.022 34.3873 177.549 34.3873C178.066 34.3873 178.563 34.1824 178.924 33.8117L197.576 15.1694C196.923 14.0183 196.152 12.9355 195.284 11.9404L177.568 29.656Z" fill="white"/>
<path d="M260.56 34.3409C260.043 34.3409 259.545 34.1263 259.175 33.7556L251.887 26.3221C251.136 25.5514 251.146 24.3125 251.917 23.5614C252.687 22.8102 253.926 22.82 254.677 23.5906L260.579 29.6096L278.285 11.9038C274.637 7.70907 269.262 5.03613 263.262 5.03613C252.248 5.03613 243.332 13.9524 243.332 24.9661C243.332 35.9798 252.248 44.8961 263.262 44.8961C274.276 44.8961 283.192 35.9798 283.192 24.9661C283.192 21.386 282.236 18.0399 280.587 15.1426L261.935 33.7751C261.565 34.1458 261.077 34.3507 260.56 34.3507V34.3409Z" fill="#4F0774"/>
<path d="M283.612 9.34803C282.851 8.58712 281.612 8.58712 280.851 9.34803L278.285 11.9137C279.153 12.9087 279.924 13.9915 280.578 15.1427L283.612 12.1088C284.372 11.3479 284.372 10.1089 283.612 9.34803Z" fill="#4F0774"/>
<path d="M260.568 29.6199L254.666 23.6009C253.915 22.8302 252.676 22.8204 251.906 23.5716C251.135 24.3227 251.125 25.5617 251.876 26.3323L259.164 33.7658C259.525 34.1365 260.022 34.3512 260.549 34.3512C261.066 34.3512 261.563 34.1463 261.924 33.7756L280.576 15.1333C279.923 13.9822 279.152 12.8993 278.284 11.9043L260.568 29.6199Z" fill="white"/>
<path d="M339.56 34.3048C339.043 34.3048 338.545 34.0902 338.175 33.7195L330.887 26.286C330.136 25.5153 330.146 24.2764 330.917 23.5252C331.687 22.7741 332.926 22.7838 333.677 23.5545L339.579 29.5735L357.285 11.8677C353.637 7.67294 348.262 5 342.262 5C331.248 5 322.332 13.9163 322.332 24.93C322.332 35.9437 331.248 44.86 342.262 44.86C353.276 44.86 362.192 35.9437 362.192 24.93C362.192 21.3498 361.236 18.0038 359.587 15.1065L340.935 33.739C340.565 34.1097 340.077 34.3146 339.56 34.3146V34.3048Z" fill="#4F0774"/>
<path d="M362.612 9.31189C361.851 8.55098 360.612 8.55098 359.851 9.31189L357.285 11.8775C358.153 12.8726 358.924 13.9554 359.578 15.1065L362.612 12.0726C363.372 11.3117 363.372 10.0728 362.612 9.31189Z" fill="#4F0774"/>
<path d="M339.568 29.5837L333.666 23.5647C332.915 22.7941 331.676 22.7843 330.906 23.5355C330.135 24.2866 330.125 25.5255 330.876 26.2962L338.164 33.7297C338.525 34.1004 339.022 34.315 339.549 34.315C340.066 34.315 340.563 34.1102 340.924 33.7395L359.576 15.0972C358.923 13.946 358.152 12.8632 357.284 11.8682L339.568 29.5837Z" fill="white"/>
<path d="M3.03558 58.86C3.36758 58.86 3.65958 58.816 3.91158 58.728C4.16758 58.64 4.38158 58.518 4.55358 58.362C4.72958 58.202 4.86158 58.012 4.94958 57.792C5.03758 57.572 5.08158 57.33 5.08158 57.066C5.08158 56.518 4.91158 56.09 4.57158 55.782C4.23558 55.474 3.72358 55.32 3.03558 55.32H1.65558V58.86H3.03558ZM3.03558 54.402C3.57958 54.402 4.05158 54.466 4.45158 54.594C4.85558 54.718 5.18958 54.896 5.45358 55.128C5.71758 55.36 5.91358 55.64 6.04158 55.968C6.17358 56.296 6.23958 56.662 6.23958 57.066C6.23958 57.466 6.16958 57.832 6.02958 58.164C5.88958 58.496 5.68358 58.782 5.41158 59.022C5.14358 59.262 4.80958 59.45 4.40958 59.586C4.01358 59.718 3.55558 59.784 3.03558 59.784H1.65558V63H0.497578V54.402H3.03558ZM10.7962 59.298C10.7962 59.05 10.7602 58.824 10.6882 58.62C10.6202 58.412 10.5182 58.234 10.3822 58.086C10.2502 57.934 10.0882 57.818 9.8962 57.738C9.7042 57.654 9.4862 57.612 9.2422 57.612C8.7302 57.612 8.3242 57.762 8.0242 58.062C7.7282 58.358 7.5442 58.77 7.4722 59.298H10.7962ZM11.6602 62.148C11.5282 62.308 11.3702 62.448 11.1862 62.568C11.0022 62.684 10.8042 62.78 10.5922 62.856C10.3842 62.932 10.1682 62.988 9.9442 63.024C9.7202 63.064 9.4982 63.084 9.2782 63.084C8.8582 63.084 8.4702 63.014 8.1142 62.874C7.7622 62.73 7.4562 62.522 7.1962 62.25C6.9402 61.974 6.7402 61.634 6.5962 61.23C6.4522 60.826 6.3802 60.362 6.3802 59.838C6.3802 59.414 6.4442 59.018 6.5722 58.65C6.7042 58.282 6.8922 57.964 7.1362 57.696C7.3802 57.424 7.6782 57.212 8.0302 57.06C8.3822 56.904 8.7782 56.826 9.2182 56.826C9.5822 56.826 9.9182 56.888 10.2262 57.012C10.5382 57.132 10.8062 57.308 11.0302 57.54C11.2582 57.768 11.4362 58.052 11.5642 58.392C11.6922 58.728 11.7562 59.112 11.7562 59.544C11.7562 59.712 11.7382 59.824 11.7022 59.88C11.6662 59.936 11.5982 59.964 11.4982 59.964H7.4362C7.4482 60.348 7.5002 60.682 7.5922 60.966C7.6882 61.25 7.8202 61.488 7.9882 61.68C8.1562 61.868 8.3562 62.01 8.5882 62.106C8.8202 62.198 9.0802 62.244 9.3682 62.244C9.6362 62.244 9.8662 62.214 10.0582 62.154C10.2542 62.09 10.4222 62.022 10.5622 61.95C10.7022 61.878 10.8182 61.812 10.9102 61.752C11.0062 61.688 11.0882 61.656 11.1562 61.656C11.2442 61.656 11.3122 61.69 11.3602 61.758L11.6602 62.148ZM13.674 58.14C13.866 57.724 14.102 57.4 14.382 57.168C14.662 56.932 15.004 56.814 15.408 56.814C15.536 56.814 15.658 56.828 15.774 56.856C15.894 56.884 16 56.928 16.092 56.988L16.014 57.786C15.99 57.886 15.93 57.936 15.834 57.936C15.778 57.936 15.696 57.924 15.588 57.9C15.48 57.876 15.358 57.864 15.222 57.864C15.03 57.864 14.858 57.892 14.706 57.948C14.558 58.004 14.424 58.088 14.304 58.2C14.188 58.308 14.082 58.444 13.986 58.608C13.894 58.768 13.81 58.952 13.734 59.16V63H12.66V56.922H13.272C13.388 56.922 13.468 56.944 13.512 56.988C13.556 57.032 13.586 57.108 13.602 57.216L13.674 58.14ZM20.128 57.924C20.08 58.012 20.006 58.056 19.906 58.056C19.846 58.056 19.778 58.034 19.702 57.99C19.626 57.946 19.532 57.898 19.42 57.846C19.312 57.79 19.182 57.74 19.03 57.696C18.878 57.648 18.698 57.624 18.49 57.624C18.31 57.624 18.148 57.648 18.004 57.696C17.86 57.74 17.736 57.802 17.632 57.882C17.532 57.962 17.454 58.056 17.398 58.164C17.346 58.268 17.32 58.382 17.32 58.506C17.32 58.662 17.364 58.792 17.452 58.896C17.544 59 17.664 59.09 17.812 59.166C17.96 59.242 18.128 59.31 18.316 59.37C18.504 59.426 18.696 59.488 18.892 59.556C19.092 59.62 19.286 59.692 19.474 59.772C19.662 59.852 19.83 59.952 19.978 60.072C20.126 60.192 20.244 60.34 20.332 60.516C20.424 60.688 20.47 60.896 20.47 61.14C20.47 61.42 20.42 61.68 20.32 61.92C20.22 62.156 20.072 62.362 19.876 62.538C19.68 62.71 19.44 62.846 19.156 62.946C18.872 63.046 18.544 63.096 18.172 63.096C17.748 63.096 17.364 63.028 17.02 62.892C16.676 62.752 16.384 62.574 16.144 62.358L16.396 61.95C16.428 61.898 16.466 61.858 16.51 61.83C16.554 61.802 16.61 61.788 16.678 61.788C16.75 61.788 16.826 61.816 16.906 61.872C16.986 61.928 17.082 61.99 17.194 62.058C17.31 62.126 17.45 62.188 17.614 62.244C17.778 62.3 17.982 62.328 18.226 62.328C18.434 62.328 18.616 62.302 18.772 62.25C18.928 62.194 19.058 62.12 19.162 62.028C19.266 61.936 19.342 61.83 19.39 61.71C19.442 61.59 19.468 61.462 19.468 61.326C19.468 61.158 19.422 61.02 19.33 60.912C19.242 60.8 19.124 60.706 18.976 60.63C18.828 60.55 18.658 60.482 18.466 60.426C18.278 60.366 18.084 60.304 17.884 60.24C17.688 60.176 17.494 60.104 17.302 60.024C17.114 59.94 16.946 59.836 16.798 59.712C16.65 59.588 16.53 59.436 16.438 59.256C16.35 59.072 16.306 58.85 16.306 58.59C16.306 58.358 16.354 58.136 16.45 57.924C16.546 57.708 16.686 57.52 16.87 57.36C17.054 57.196 17.28 57.066 17.548 56.97C17.816 56.874 18.122 56.826 18.466 56.826C18.866 56.826 19.224 56.89 19.54 57.018C19.86 57.142 20.136 57.314 20.368 57.534L20.128 57.924ZM23.9334 56.826C24.3774 56.826 24.7774 56.9 25.1334 57.048C25.4894 57.196 25.7934 57.406 26.0454 57.678C26.2974 57.95 26.4894 58.28 26.6214 58.668C26.7574 59.052 26.8254 59.482 26.8254 59.958C26.8254 60.438 26.7574 60.87 26.6214 61.254C26.4894 61.638 26.2974 61.966 26.0454 62.238C25.7934 62.51 25.4894 62.72 25.1334 62.868C24.7774 63.012 24.3774 63.084 23.9334 63.084C23.4854 63.084 23.0814 63.012 22.7214 62.868C22.3654 62.72 22.0614 62.51 21.8094 62.238C21.5574 61.966 21.3634 61.638 21.2274 61.254C21.0954 60.87 21.0294 60.438 21.0294 59.958C21.0294 59.482 21.0954 59.052 21.2274 58.668C21.3634 58.28 21.5574 57.95 21.8094 57.678C22.0614 57.406 22.3654 57.196 22.7214 57.048C23.0814 56.9 23.4854 56.826 23.9334 56.826ZM23.9334 62.25C24.5334 62.25 24.9814 62.05 25.2774 61.65C25.5734 61.246 25.7214 60.684 25.7214 59.964C25.7214 59.24 25.5734 58.676 25.2774 58.272C24.9814 57.868 24.5334 57.666 23.9334 57.666C23.6294 57.666 23.3634 57.718 23.1354 57.822C22.9114 57.926 22.7234 58.076 22.5714 58.272C22.4234 58.468 22.3114 58.71 22.2354 58.998C22.1634 59.282 22.1274 59.604 22.1274 59.964C22.1274 60.684 22.2754 61.246 22.5714 61.65C22.8714 62.05 23.3254 62.25 23.9334 62.25ZM28.78 57.804C28.912 57.656 29.052 57.522 29.2 57.402C29.348 57.282 29.504 57.18 29.668 57.096C29.836 57.008 30.012 56.942 30.196 56.898C30.384 56.85 30.586 56.826 30.802 56.826C31.134 56.826 31.426 56.882 31.678 56.994C31.934 57.102 32.146 57.258 32.314 57.462C32.486 57.662 32.616 57.904 32.704 58.188C32.792 58.472 32.836 58.786 32.836 59.13V63H31.762V59.13C31.762 58.67 31.656 58.314 31.444 58.062C31.236 57.806 30.918 57.678 30.49 57.678C30.174 57.678 29.878 57.754 29.602 57.906C29.33 58.058 29.078 58.264 28.846 58.524V63H27.772V56.922H28.414C28.566 56.922 28.66 56.996 28.696 57.144L28.78 57.804ZM37.3494 60.264C36.8574 60.28 36.4374 60.32 36.0894 60.384C35.7454 60.444 35.4634 60.524 35.2434 60.624C35.0274 60.724 34.8694 60.842 34.7694 60.978C34.6734 61.114 34.6254 61.266 34.6254 61.434C34.6254 61.594 34.6514 61.732 34.7034 61.848C34.7554 61.964 34.8254 62.06 34.9134 62.136C35.0054 62.208 35.1114 62.262 35.2314 62.298C35.3554 62.33 35.4874 62.346 35.6274 62.346C35.8154 62.346 35.9874 62.328 36.1434 62.292C36.2994 62.252 36.4454 62.196 36.5814 62.124C36.7214 62.052 36.8534 61.966 36.9774 61.866C37.1054 61.766 37.2294 61.652 37.3494 61.524V60.264ZM33.8994 57.78C34.2354 57.456 34.5974 57.214 34.9854 57.054C35.3734 56.894 35.8034 56.814 36.2754 56.814C36.6154 56.814 36.9174 56.87 37.1814 56.982C37.4454 57.094 37.6674 57.25 37.8474 57.45C38.0274 57.65 38.1634 57.892 38.2554 58.176C38.3474 58.46 38.3934 58.772 38.3934 59.112V63H37.9194C37.8154 63 37.7354 62.984 37.6794 62.952C37.6234 62.916 37.5794 62.848 37.5474 62.748L37.4274 62.172C37.2674 62.32 37.1114 62.452 36.9594 62.568C36.8074 62.68 36.6474 62.776 36.4794 62.856C36.3114 62.932 36.1314 62.99 35.9394 63.03C35.7514 63.074 35.5414 63.096 35.3094 63.096C35.0734 63.096 34.8514 63.064 34.6434 63C34.4354 62.932 34.2534 62.832 34.0974 62.7C33.9454 62.568 33.8234 62.402 33.7314 62.202C33.6434 61.998 33.5994 61.758 33.5994 61.482C33.5994 61.242 33.6654 61.012 33.7974 60.792C33.9294 60.568 34.1434 60.37 34.4394 60.198C34.7354 60.026 35.1214 59.886 35.5974 59.778C36.0734 59.666 36.6574 59.602 37.3494 59.586V59.112C37.3494 58.64 37.2474 58.284 37.0434 58.044C36.8394 57.8 36.5414 57.678 36.1494 57.678C35.8854 57.678 35.6634 57.712 35.4834 57.78C35.3074 57.844 35.1534 57.918 35.0214 58.002C34.8934 58.082 34.7814 58.156 34.6854 58.224C34.5934 58.288 34.5014 58.32 34.4094 58.32C34.3374 58.32 34.2754 58.302 34.2234 58.266C34.1714 58.226 34.1274 58.178 34.0914 58.122L33.8994 57.78ZM40.7162 54.162V63H39.6482V54.162H40.7162ZM14.3642 74H13.2002V65.402H14.3642V74ZM16.8178 68.804C16.9498 68.656 17.0898 68.522 17.2378 68.402C17.3858 68.282 17.5418 68.18 17.7058 68.096C17.8738 68.008 18.0498 67.942 18.2338 67.898C18.4218 67.85 18.6238 67.826 18.8398 67.826C19.1718 67.826 19.4638 67.882 19.7158 67.994C19.9718 68.102 20.1838 68.258 20.3518 68.462C20.5238 68.662 20.6538 68.904 20.7418 69.188C20.8298 69.472 20.8738 69.786 20.8738 70.13V74H19.7998V70.13C19.7998 69.67 19.6938 69.314 19.4818 69.062C19.2738 68.806 18.9558 68.678 18.5278 68.678C18.2118 68.678 17.9158 68.754 17.6398 68.906C17.3678 69.058 17.1158 69.264 16.8838 69.524V74H15.8098V67.922H16.4518C16.6038 67.922 16.6978 67.996 16.7338 68.144L16.8178 68.804ZM22.3954 74V68.834L21.7234 68.756C21.6394 68.736 21.5694 68.706 21.5134 68.666C21.4614 68.622 21.4354 68.56 21.4354 68.48V68.042H22.3954V67.454C22.3954 67.106 22.4434 66.798 22.5394 66.53C22.6394 66.258 22.7794 66.03 22.9594 65.846C23.1434 65.658 23.3634 65.516 23.6194 65.42C23.8754 65.324 24.1634 65.276 24.4834 65.276C24.7554 65.276 25.0054 65.316 25.2334 65.396L25.2094 65.93C25.2014 66.026 25.1474 66.078 25.0474 66.086C24.9514 66.094 24.8214 66.098 24.6574 66.098C24.4734 66.098 24.3054 66.122 24.1534 66.17C24.0054 66.218 23.8774 66.296 23.7694 66.404C23.6614 66.512 23.5774 66.654 23.5174 66.83C23.4614 67.006 23.4334 67.224 23.4334 67.484V68.042H25.1854V68.816H23.4694V74H22.3954ZM28.1612 67.826C28.6052 67.826 29.0052 67.9 29.3612 68.048C29.7172 68.196 30.0212 68.406 30.2732 68.678C30.5252 68.95 30.7172 69.28 30.8492 69.668C30.9852 70.052 31.0532 70.482 31.0532 70.958C31.0532 71.438 30.9852 71.87 30.8492 72.254C30.7172 72.638 30.5252 72.966 30.2732 73.238C30.0212 73.51 29.7172 73.72 29.3612 73.868C29.0052 74.012 28.6052 74.084 28.1612 74.084C27.7132 74.084 27.3092 74.012 26.9492 73.868C26.5932 73.72 26.2892 73.51 26.0372 73.238C25.7852 72.966 25.5912 72.638 25.4552 72.254C25.3232 71.87 25.2572 71.438 25.2572 70.958C25.2572 70.482 25.3232 70.052 25.4552 69.668C25.5912 69.28 25.7852 68.95 26.0372 68.678C26.2892 68.406 26.5932 68.196 26.9492 68.048C27.3092 67.9 27.7132 67.826 28.1612 67.826ZM28.1612 73.25C28.7612 73.25 29.2092 73.05 29.5052 72.65C29.8012 72.246 29.9492 71.684 29.9492 70.964C29.9492 70.24 29.8012 69.676 29.5052 69.272C29.2092 68.868 28.7612 68.666 28.1612 68.666C27.8572 68.666 27.5912 68.718 27.3632 68.822C27.1392 68.926 26.9512 69.076 26.7992 69.272C26.6512 69.468 26.5392 69.71 26.4632 69.998C26.3912 70.282 26.3552 70.604 26.3552 70.964C26.3552 71.684 26.5032 72.246 26.7992 72.65C27.0992 73.05 27.5532 73.25 28.1612 73.25Z" fill="#767676"/>
<path d="M93.1264 55.38H90.3424V63H89.1844V55.38H86.3944V54.402H93.1264V55.38ZM96.3454 59.298C96.3454 59.05 96.3094 58.824 96.2374 58.62C96.1694 58.412 96.0674 58.234 95.9314 58.086C95.7994 57.934 95.6374 57.818 95.4454 57.738C95.2534 57.654 95.0354 57.612 94.7914 57.612C94.2794 57.612 93.8734 57.762 93.5734 58.062C93.2774 58.358 93.0934 58.77 93.0214 59.298H96.3454ZM97.2094 62.148C97.0774 62.308 96.9194 62.448 96.7354 62.568C96.5514 62.684 96.3534 62.78 96.1414 62.856C95.9334 62.932 95.7174 62.988 95.4934 63.024C95.2694 63.064 95.0474 63.084 94.8274 63.084C94.4074 63.084 94.0194 63.014 93.6634 62.874C93.3114 62.73 93.0054 62.522 92.7454 62.25C92.4894 61.974 92.2894 61.634 92.1454 61.23C92.0014 60.826 91.9294 60.362 91.9294 59.838C91.9294 59.414 91.9934 59.018 92.1214 58.65C92.2534 58.282 92.4414 57.964 92.6854 57.696C92.9294 57.424 93.2274 57.212 93.5794 57.06C93.9314 56.904 94.3274 56.826 94.7674 56.826C95.1314 56.826 95.4674 56.888 95.7754 57.012C96.0874 57.132 96.3554 57.308 96.5794 57.54C96.8074 57.768 96.9854 58.052 97.1134 58.392C97.2414 58.728 97.3054 59.112 97.3054 59.544C97.3054 59.712 97.2874 59.824 97.2514 59.88C97.2154 59.936 97.1474 59.964 97.0474 59.964H92.9854C92.9974 60.348 93.0494 60.682 93.1414 60.966C93.2374 61.25 93.3694 61.488 93.5374 61.68C93.7054 61.868 93.9054 62.01 94.1374 62.106C94.3694 62.198 94.6294 62.244 94.9174 62.244C95.1854 62.244 95.4154 62.214 95.6074 62.154C95.8034 62.09 95.9714 62.022 96.1114 61.95C96.2514 61.878 96.3674 61.812 96.4594 61.752C96.5554 61.688 96.6374 61.656 96.7054 61.656C96.7934 61.656 96.8614 61.69 96.9094 61.758L97.2094 62.148ZM101.503 60.264C101.011 60.28 100.591 60.32 100.243 60.384C99.8993 60.444 99.6173 60.524 99.3973 60.624C99.1813 60.724 99.0233 60.842 98.9233 60.978C98.8273 61.114 98.7793 61.266 98.7793 61.434C98.7793 61.594 98.8053 61.732 98.8573 61.848C98.9093 61.964 98.9793 62.06 99.0673 62.136C99.1593 62.208 99.2653 62.262 99.3853 62.298C99.5093 62.33 99.6413 62.346 99.7813 62.346C99.9693 62.346 100.141 62.328 100.297 62.292C100.453 62.252 100.599 62.196 100.735 62.124C100.875 62.052 101.007 61.966 101.131 61.866C101.259 61.766 101.383 61.652 101.503 61.524V60.264ZM98.0533 57.78C98.3893 57.456 98.7513 57.214 99.1393 57.054C99.5273 56.894 99.9573 56.814 100.429 56.814C100.769 56.814 101.071 56.87 101.335 56.982C101.599 57.094 101.821 57.25 102.001 57.45C102.181 57.65 102.317 57.892 102.409 58.176C102.501 58.46 102.547 58.772 102.547 59.112V63H102.073C101.969 63 101.889 62.984 101.833 62.952C101.777 62.916 101.733 62.848 101.701 62.748L101.581 62.172C101.421 62.32 101.265 62.452 101.113 62.568C100.961 62.68 100.801 62.776 100.633 62.856C100.465 62.932 100.285 62.99 100.093 63.03C99.9053 63.074 99.6953 63.096 99.4633 63.096C99.2273 63.096 99.0053 63.064 98.7973 63C98.5893 62.932 98.4073 62.832 98.2513 62.7C98.0993 62.568 97.9773 62.402 97.8853 62.202C97.7973 61.998 97.7533 61.758 97.7533 61.482C97.7533 61.242 97.8193 61.012 97.9513 60.792C98.0833 60.568 98.2973 60.37 98.5933 60.198C98.8893 60.026 99.2753 59.886 99.7513 59.778C100.227 59.666 100.811 59.602 101.503 59.586V59.112C101.503 58.64 101.401 58.284 101.197 58.044C100.993 57.8 100.695 57.678 100.303 57.678C100.039 57.678 99.8173 57.712 99.6373 57.78C99.4613 57.844 99.3073 57.918 99.1753 58.002C99.0473 58.082 98.9353 58.156 98.8393 58.224C98.7473 58.288 98.6553 58.32 98.5633 58.32C98.4913 58.32 98.4293 58.302 98.3773 58.266C98.3253 58.226 98.2813 58.178 98.2453 58.122L98.0533 57.78ZM103.766 63V56.922H104.408C104.56 56.922 104.654 56.996 104.69 57.144L104.768 57.768C104.992 57.492 105.244 57.266 105.524 57.09C105.804 56.914 106.128 56.826 106.496 56.826C106.904 56.826 107.234 56.94 107.486 57.168C107.742 57.396 107.926 57.704 108.038 58.092C108.126 57.872 108.238 57.682 108.374 57.522C108.514 57.362 108.67 57.23 108.842 57.126C109.014 57.022 109.196 56.946 109.388 56.898C109.584 56.85 109.782 56.826 109.982 56.826C110.302 56.826 110.586 56.878 110.834 56.982C111.086 57.082 111.298 57.23 111.47 57.426C111.646 57.622 111.78 57.864 111.872 58.152C111.964 58.436 112.01 58.762 112.01 59.13V63H110.936V59.13C110.936 58.654 110.832 58.294 110.624 58.05C110.416 57.802 110.116 57.678 109.724 57.678C109.548 57.678 109.38 57.71 109.22 57.774C109.064 57.834 108.926 57.924 108.806 58.044C108.686 58.164 108.59 58.316 108.518 58.5C108.45 58.68 108.416 58.89 108.416 59.13V63H107.342V59.13C107.342 58.642 107.244 58.278 107.048 58.038C106.852 57.798 106.566 57.678 106.19 57.678C105.926 57.678 105.682 57.75 105.458 57.894C105.234 58.034 105.028 58.226 104.84 58.47V63H103.766ZM93.3642 74H92.2002V65.402H93.3642V74ZM95.8178 68.804C95.9498 68.656 96.0898 68.522 96.2378 68.402C96.3858 68.282 96.5418 68.18 96.7058 68.096C96.8738 68.008 97.0498 67.942 97.2338 67.898C97.4218 67.85 97.6238 67.826 97.8398 67.826C98.1718 67.826 98.4638 67.882 98.7158 67.994C98.9718 68.102 99.1838 68.258 99.3518 68.462C99.5238 68.662 99.6538 68.904 99.7418 69.188C99.8298 69.472 99.8738 69.786 99.8738 70.13V74H98.7998V70.13C98.7998 69.67 98.6938 69.314 98.4818 69.062C98.2738 68.806 97.9558 68.678 97.5278 68.678C97.2118 68.678 96.9158 68.754 96.6398 68.906C96.3678 69.058 96.1158 69.264 95.8838 69.524V74H94.8098V67.922H95.4518C95.6038 67.922 95.6978 67.996 95.7338 68.144L95.8178 68.804ZM101.395 74V68.834L100.723 68.756C100.639 68.736 100.569 68.706 100.513 68.666C100.461 68.622 100.435 68.56 100.435 68.48V68.042H101.395V67.454C101.395 67.106 101.443 66.798 101.539 66.53C101.639 66.258 101.779 66.03 101.959 65.846C102.143 65.658 102.363 65.516 102.619 65.42C102.875 65.324 103.163 65.276 103.483 65.276C103.755 65.276 104.005 65.316 104.233 65.396L104.209 65.93C104.201 66.026 104.147 66.078 104.047 66.086C103.951 66.094 103.821 66.098 103.657 66.098C103.473 66.098 103.305 66.122 103.153 66.17C103.005 66.218 102.877 66.296 102.769 66.404C102.661 66.512 102.577 66.654 102.517 66.83C102.461 67.006 102.433 67.224 102.433 67.484V68.042H104.185V68.816H102.469V74H101.395ZM107.161 67.826C107.605 67.826 108.005 67.9 108.361 68.048C108.717 68.196 109.021 68.406 109.273 68.678C109.525 68.95 109.717 69.28 109.849 69.668C109.985 70.052 110.053 70.482 110.053 70.958C110.053 71.438 109.985 71.87 109.849 72.254C109.717 72.638 109.525 72.966 109.273 73.238C109.021 73.51 108.717 73.72 108.361 73.868C108.005 74.012 107.605 74.084 107.161 74.084C106.713 74.084 106.309 74.012 105.949 73.868C105.593 73.72 105.289 73.51 105.037 73.238C104.785 72.966 104.591 72.638 104.455 72.254C104.323 71.87 104.257 71.438 104.257 70.958C104.257 70.482 104.323 70.052 104.455 69.668C104.591 69.28 104.785 68.95 105.037 68.678C105.289 68.406 105.593 68.196 105.949 68.048C106.309 67.9 106.713 67.826 107.161 67.826ZM107.161 73.25C107.761 73.25 108.209 73.05 108.505 72.65C108.801 72.246 108.949 71.684 108.949 70.964C108.949 70.24 108.801 69.676 108.505 69.272C108.209 68.868 107.761 68.666 107.161 68.666C106.857 68.666 106.591 68.718 106.363 68.822C106.139 68.926 105.951 69.076 105.799 69.272C105.651 69.468 105.539 69.71 105.463 69.998C105.391 70.282 105.355 70.604 105.355 70.964C105.355 71.684 105.503 72.246 105.799 72.65C106.099 73.05 106.553 73.25 107.161 73.25Z" fill="#767676"/>
<path d="M165.618 61.224C165.682 61.224 165.738 61.25 165.786 61.302L166.248 61.8C165.896 62.208 165.468 62.526 164.964 62.754C164.464 62.982 163.858 63.096 163.146 63.096C162.53 63.096 161.97 62.99 161.466 62.778C160.962 62.562 160.532 62.262 160.176 61.878C159.82 61.49 159.544 61.026 159.348 60.486C159.152 59.946 159.054 59.352 159.054 58.704C159.054 58.056 159.156 57.462 159.36 56.922C159.564 56.382 159.85 55.918 160.218 55.53C160.59 55.142 161.034 54.842 161.55 54.63C162.066 54.414 162.636 54.306 163.26 54.306C163.872 54.306 164.412 54.404 164.88 54.6C165.348 54.796 165.76 55.062 166.116 55.398L165.732 55.932C165.708 55.972 165.676 56.006 165.636 56.034C165.6 56.058 165.55 56.07 165.486 56.07C165.414 56.07 165.326 56.032 165.222 55.956C165.118 55.876 164.982 55.788 164.814 55.692C164.646 55.596 164.436 55.51 164.184 55.434C163.932 55.354 163.622 55.314 163.254 55.314C162.81 55.314 162.404 55.392 162.036 55.548C161.668 55.7 161.35 55.922 161.082 56.214C160.818 56.506 160.612 56.862 160.464 57.282C160.316 57.702 160.242 58.176 160.242 58.704C160.242 59.24 160.318 59.718 160.47 60.138C160.626 60.558 160.836 60.914 161.1 61.206C161.368 61.494 161.682 61.714 162.042 61.866C162.406 62.018 162.798 62.094 163.218 62.094C163.474 62.094 163.704 62.08 163.908 62.052C164.116 62.02 164.306 61.972 164.478 61.908C164.654 61.844 164.816 61.764 164.964 61.668C165.116 61.568 165.266 61.45 165.414 61.314C165.482 61.254 165.55 61.224 165.618 61.224ZM169.382 56.826C169.826 56.826 170.226 56.9 170.582 57.048C170.938 57.196 171.242 57.406 171.494 57.678C171.746 57.95 171.938 58.28 172.07 58.668C172.206 59.052 172.274 59.482 172.274 59.958C172.274 60.438 172.206 60.87 172.07 61.254C171.938 61.638 171.746 61.966 171.494 62.238C171.242 62.51 170.938 62.72 170.582 62.868C170.226 63.012 169.826 63.084 169.382 63.084C168.934 63.084 168.53 63.012 168.17 62.868C167.814 62.72 167.51 62.51 167.258 62.238C167.006 61.966 166.812 61.638 166.676 61.254C166.544 60.87 166.478 60.438 166.478 59.958C166.478 59.482 166.544 59.052 166.676 58.668C166.812 58.28 167.006 57.95 167.258 57.678C167.51 57.406 167.814 57.196 168.17 57.048C168.53 56.9 168.934 56.826 169.382 56.826ZM169.382 62.25C169.982 62.25 170.43 62.05 170.726 61.65C171.022 61.246 171.17 60.684 171.17 59.964C171.17 59.24 171.022 58.676 170.726 58.272C170.43 57.868 169.982 57.666 169.382 57.666C169.078 57.666 168.812 57.718 168.584 57.822C168.36 57.926 168.172 58.076 168.02 58.272C167.872 58.468 167.76 58.71 167.684 58.998C167.612 59.282 167.576 59.604 167.576 59.964C167.576 60.684 167.724 61.246 168.02 61.65C168.32 62.05 168.774 62.25 169.382 62.25ZM174.229 57.804C174.361 57.656 174.501 57.522 174.649 57.402C174.797 57.282 174.953 57.18 175.117 57.096C175.285 57.008 175.461 56.942 175.645 56.898C175.833 56.85 176.035 56.826 176.251 56.826C176.583 56.826 176.875 56.882 177.127 56.994C177.383 57.102 177.595 57.258 177.763 57.462C177.935 57.662 178.065 57.904 178.153 58.188C178.241 58.472 178.285 58.786 178.285 59.13V63H177.211V59.13C177.211 58.67 177.105 58.314 176.893 58.062C176.685 57.806 176.367 57.678 175.939 57.678C175.623 57.678 175.327 57.754 175.051 57.906C174.779 58.058 174.527 58.264 174.295 58.524V63H173.221V56.922H173.863C174.015 56.922 174.109 56.996 174.145 57.144L174.229 57.804ZM181.288 63.096C180.808 63.096 180.438 62.962 180.178 62.694C179.922 62.426 179.794 62.04 179.794 61.536V57.816H179.062C178.998 57.816 178.944 57.798 178.9 57.762C178.856 57.722 178.834 57.662 178.834 57.582V57.156L179.83 57.03L180.076 55.152C180.088 55.092 180.114 55.044 180.154 55.008C180.198 54.968 180.254 54.948 180.322 54.948H180.862V57.042H182.62V57.816H180.862V61.464C180.862 61.72 180.924 61.91 181.048 62.034C181.172 62.158 181.332 62.22 181.528 62.22C181.64 62.22 181.736 62.206 181.816 62.178C181.9 62.146 181.972 62.112 182.032 62.076C182.092 62.04 182.142 62.008 182.182 61.98C182.226 61.948 182.264 61.932 182.296 61.932C182.352 61.932 182.402 61.966 182.446 62.034L182.758 62.544C182.574 62.716 182.352 62.852 182.092 62.952C181.832 63.048 181.564 63.096 181.288 63.096ZM184.329 58.14C184.521 57.724 184.757 57.4 185.037 57.168C185.317 56.932 185.659 56.814 186.063 56.814C186.191 56.814 186.313 56.828 186.429 56.856C186.549 56.884 186.655 56.928 186.747 56.988L186.669 57.786C186.645 57.886 186.585 57.936 186.489 57.936C186.433 57.936 186.351 57.924 186.243 57.9C186.135 57.876 186.013 57.864 185.877 57.864C185.685 57.864 185.513 57.892 185.361 57.948C185.213 58.004 185.079 58.088 184.959 58.2C184.843 58.308 184.737 58.444 184.641 58.608C184.549 58.768 184.465 58.952 184.389 59.16V63H183.315V56.922H183.927C184.043 56.922 184.123 56.944 184.167 56.988C184.211 57.032 184.241 57.108 184.257 57.216L184.329 58.14ZM190.478 60.264C189.986 60.28 189.566 60.32 189.218 60.384C188.874 60.444 188.592 60.524 188.372 60.624C188.156 60.724 187.998 60.842 187.898 60.978C187.802 61.114 187.754 61.266 187.754 61.434C187.754 61.594 187.78 61.732 187.832 61.848C187.884 61.964 187.954 62.06 188.042 62.136C188.134 62.208 188.24 62.262 188.36 62.298C188.484 62.33 188.616 62.346 188.756 62.346C188.944 62.346 189.116 62.328 189.272 62.292C189.428 62.252 189.574 62.196 189.71 62.124C189.85 62.052 189.982 61.966 190.106 61.866C190.234 61.766 190.358 61.652 190.478 61.524V60.264ZM187.028 57.78C187.364 57.456 187.726 57.214 188.114 57.054C188.502 56.894 188.932 56.814 189.404 56.814C189.744 56.814 190.046 56.87 190.31 56.982C190.574 57.094 190.796 57.25 190.976 57.45C191.156 57.65 191.292 57.892 191.384 58.176C191.476 58.46 191.522 58.772 191.522 59.112V63H191.048C190.944 63 190.864 62.984 190.808 62.952C190.752 62.916 190.708 62.848 190.676 62.748L190.556 62.172C190.396 62.32 190.24 62.452 190.088 62.568C189.936 62.68 189.776 62.776 189.608 62.856C189.44 62.932 189.26 62.99 189.068 63.03C188.88 63.074 188.67 63.096 188.438 63.096C188.202 63.096 187.98 63.064 187.772 63C187.564 62.932 187.382 62.832 187.226 62.7C187.074 62.568 186.952 62.402 186.86 62.202C186.772 61.998 186.728 61.758 186.728 61.482C186.728 61.242 186.794 61.012 186.926 60.792C187.058 60.568 187.272 60.37 187.568 60.198C187.864 60.026 188.25 59.886 188.726 59.778C189.202 59.666 189.786 59.602 190.478 59.586V59.112C190.478 58.64 190.376 58.284 190.172 58.044C189.968 57.8 189.67 57.678 189.278 57.678C189.014 57.678 188.792 57.712 188.612 57.78C188.436 57.844 188.282 57.918 188.15 58.002C188.022 58.082 187.91 58.156 187.814 58.224C187.722 58.288 187.63 58.32 187.538 58.32C187.466 58.32 187.404 58.302 187.352 58.266C187.3 58.226 187.256 58.178 187.22 58.122L187.028 57.78ZM196.971 58.002C196.939 58.046 196.907 58.08 196.875 58.104C196.843 58.128 196.799 58.14 196.743 58.14C196.683 58.14 196.617 58.116 196.545 58.068C196.473 58.016 196.383 57.96 196.275 57.9C196.171 57.84 196.041 57.786 195.885 57.738C195.733 57.686 195.545 57.66 195.321 57.66C195.021 57.66 194.757 57.714 194.529 57.822C194.301 57.926 194.109 58.078 193.953 58.278C193.801 58.478 193.685 58.72 193.605 59.004C193.529 59.288 193.491 59.606 193.491 59.958C193.491 60.326 193.533 60.654 193.617 60.942C193.701 61.226 193.819 61.466 193.971 61.662C194.127 61.854 194.313 62.002 194.529 62.106C194.749 62.206 194.995 62.256 195.267 62.256C195.527 62.256 195.741 62.226 195.909 62.166C196.077 62.102 196.215 62.032 196.323 61.956C196.435 61.88 196.527 61.812 196.599 61.752C196.675 61.688 196.749 61.656 196.821 61.656C196.909 61.656 196.977 61.69 197.025 61.758L197.325 62.148C197.193 62.312 197.043 62.452 196.875 62.568C196.707 62.684 196.525 62.782 196.329 62.862C196.137 62.938 195.935 62.994 195.723 63.03C195.511 63.066 195.295 63.084 195.075 63.084C194.695 63.084 194.341 63.014 194.013 62.874C193.689 62.734 193.407 62.532 193.167 62.268C192.927 62 192.739 61.672 192.603 61.284C192.467 60.896 192.399 60.454 192.399 59.958C192.399 59.506 192.461 59.088 192.585 58.704C192.713 58.32 192.897 57.99 193.137 57.714C193.381 57.434 193.679 57.216 194.031 57.06C194.387 56.904 194.795 56.826 195.255 56.826C195.683 56.826 196.059 56.896 196.383 57.036C196.711 57.172 197.001 57.366 197.253 57.618L196.971 58.002ZM199.929 63.096C199.449 63.096 199.079 62.962 198.819 62.694C198.563 62.426 198.435 62.04 198.435 61.536V57.816H197.703C197.639 57.816 197.585 57.798 197.541 57.762C197.497 57.722 197.475 57.662 197.475 57.582V57.156L198.471 57.03L198.717 55.152C198.729 55.092 198.755 55.044 198.795 55.008C198.839 54.968 198.895 54.948 198.963 54.948H199.503V57.042H201.261V57.816H199.503V61.464C199.503 61.72 199.565 61.91 199.689 62.034C199.813 62.158 199.973 62.22 200.169 62.22C200.281 62.22 200.377 62.206 200.457 62.178C200.541 62.146 200.613 62.112 200.673 62.076C200.733 62.04 200.783 62.008 200.823 61.98C200.867 61.948 200.905 61.932 200.937 61.932C200.993 61.932 201.043 61.966 201.087 62.034L201.399 62.544C201.215 62.716 200.993 62.852 200.733 62.952C200.473 63.048 200.205 63.096 199.929 63.096ZM173.864 74H172.7V65.402H173.864V74ZM176.318 68.804C176.45 68.656 176.59 68.522 176.738 68.402C176.886 68.282 177.042 68.18 177.206 68.096C177.374 68.008 177.55 67.942 177.734 67.898C177.922 67.85 178.124 67.826 178.34 67.826C178.672 67.826 178.964 67.882 179.216 67.994C179.472 68.102 179.684 68.258 179.852 68.462C180.024 68.662 180.154 68.904 180.242 69.188C180.33 69.472 180.374 69.786 180.374 70.13V74H179.3V70.13C179.3 69.67 179.194 69.314 178.982 69.062C178.774 68.806 178.456 68.678 178.028 68.678C177.712 68.678 177.416 68.754 177.14 68.906C176.868 69.058 176.616 69.264 176.384 69.524V74H175.31V67.922H175.952C176.104 67.922 176.198 67.996 176.234 68.144L176.318 68.804ZM181.895 74V68.834L181.223 68.756C181.139 68.736 181.069 68.706 181.013 68.666C180.961 68.622 180.935 68.56 180.935 68.48V68.042H181.895V67.454C181.895 67.106 181.943 66.798 182.039 66.53C182.139 66.258 182.279 66.03 182.459 65.846C182.643 65.658 182.863 65.516 183.119 65.42C183.375 65.324 183.663 65.276 183.983 65.276C184.255 65.276 184.505 65.316 184.733 65.396L184.709 65.93C184.701 66.026 184.647 66.078 184.547 66.086C184.451 66.094 184.321 66.098 184.157 66.098C183.973 66.098 183.805 66.122 183.653 66.17C183.505 66.218 183.377 66.296 183.269 66.404C183.161 66.512 183.077 66.654 183.017 66.83C182.961 67.006 182.933 67.224 182.933 67.484V68.042H184.685V68.816H182.969V74H181.895ZM187.661 67.826C188.105 67.826 188.505 67.9 188.861 68.048C189.217 68.196 189.521 68.406 189.773 68.678C190.025 68.95 190.217 69.28 190.349 69.668C190.485 70.052 190.553 70.482 190.553 70.958C190.553 71.438 190.485 71.87 190.349 72.254C190.217 72.638 190.025 72.966 189.773 73.238C189.521 73.51 189.217 73.72 188.861 73.868C188.505 74.012 188.105 74.084 187.661 74.084C187.213 74.084 186.809 74.012 186.449 73.868C186.093 73.72 185.789 73.51 185.537 73.238C185.285 72.966 185.091 72.638 184.955 72.254C184.823 71.87 184.757 71.438 184.757 70.958C184.757 70.482 184.823 70.052 184.955 69.668C185.091 69.28 185.285 68.95 185.537 68.678C185.789 68.406 186.093 68.196 186.449 68.048C186.809 67.9 187.213 67.826 187.661 67.826ZM187.661 73.25C188.261 73.25 188.709 73.05 189.005 72.65C189.301 72.246 189.449 71.684 189.449 70.964C189.449 70.24 189.301 69.676 189.005 69.272C188.709 68.868 188.261 68.666 187.661 68.666C187.357 68.666 187.091 68.718 186.863 68.822C186.639 68.926 186.451 69.076 186.299 69.272C186.151 69.468 186.039 69.71 185.963 69.998C185.891 70.282 185.855 70.604 185.855 70.964C185.855 71.684 186.003 72.246 186.299 72.65C186.599 73.05 187.053 73.25 187.661 73.25Z" fill="#767676"/>
<path d="M247.918 62.076C248.274 62.076 248.592 62.016 248.872 61.896C249.152 61.776 249.388 61.608 249.58 61.392C249.776 61.176 249.924 60.918 250.024 60.618C250.128 60.318 250.18 59.988 250.18 59.628V54.402H251.338V59.628C251.338 60.124 251.258 60.584 251.098 61.008C250.942 61.432 250.716 61.8 250.42 62.112C250.128 62.42 249.77 62.662 249.346 62.838C248.922 63.014 248.446 63.102 247.918 63.102C247.39 63.102 246.914 63.014 246.49 62.838C246.066 62.662 245.706 62.42 245.41 62.112C245.114 61.8 244.886 61.432 244.726 61.008C244.57 60.584 244.492 60.124 244.492 59.628V54.402H245.65V59.622C245.65 59.982 245.7 60.312 245.8 60.612C245.904 60.912 246.052 61.17 246.244 61.386C246.44 61.602 246.678 61.772 246.958 61.896C247.242 62.016 247.562 62.076 247.918 62.076ZM253.663 61.536C253.859 61.8 254.073 61.986 254.305 62.094C254.537 62.202 254.797 62.256 255.085 62.256C255.653 62.256 256.089 62.054 256.393 61.65C256.697 61.246 256.849 60.67 256.849 59.922C256.849 59.526 256.813 59.186 256.741 58.902C256.673 58.618 256.573 58.386 256.441 58.206C256.309 58.022 256.147 57.888 255.955 57.804C255.763 57.72 255.545 57.678 255.301 57.678C254.953 57.678 254.647 57.758 254.383 57.918C254.123 58.078 253.883 58.304 253.663 58.596V61.536ZM253.609 57.864C253.865 57.548 254.161 57.294 254.497 57.102C254.833 56.91 255.217 56.814 255.649 56.814C256.001 56.814 256.319 56.882 256.603 57.018C256.887 57.15 257.129 57.348 257.329 57.612C257.529 57.872 257.683 58.196 257.791 58.584C257.899 58.972 257.953 59.418 257.953 59.922C257.953 60.37 257.893 60.788 257.773 61.176C257.653 61.56 257.479 61.894 257.251 62.178C257.027 62.458 256.751 62.68 256.423 62.844C256.099 63.004 255.733 63.084 255.325 63.084C254.953 63.084 254.633 63.022 254.365 62.898C254.101 62.77 253.867 62.594 253.663 62.37V65.058H252.589V56.922H253.231C253.383 56.922 253.477 56.996 253.513 57.144L253.609 57.864ZM260.011 54.162V63H258.943V54.162H260.011ZM263.897 56.826C264.341 56.826 264.741 56.9 265.097 57.048C265.453 57.196 265.757 57.406 266.009 57.678C266.261 57.95 266.453 58.28 266.585 58.668C266.721 59.052 266.789 59.482 266.789 59.958C266.789 60.438 266.721 60.87 266.585 61.254C266.453 61.638 266.261 61.966 266.009 62.238C265.757 62.51 265.453 62.72 265.097 62.868C264.741 63.012 264.341 63.084 263.897 63.084C263.449 63.084 263.045 63.012 262.685 62.868C262.329 62.72 262.025 62.51 261.773 62.238C261.521 61.966 261.327 61.638 261.191 61.254C261.059 60.87 260.993 60.438 260.993 59.958C260.993 59.482 261.059 59.052 261.191 58.668C261.327 58.28 261.521 57.95 261.773 57.678C262.025 57.406 262.329 57.196 262.685 57.048C263.045 56.9 263.449 56.826 263.897 56.826ZM263.897 62.25C264.497 62.25 264.945 62.05 265.241 61.65C265.537 61.246 265.685 60.684 265.685 59.964C265.685 59.24 265.537 58.676 265.241 58.272C264.945 57.868 264.497 57.666 263.897 57.666C263.593 57.666 263.327 57.718 263.099 57.822C262.875 57.926 262.687 58.076 262.535 58.272C262.387 58.468 262.275 58.71 262.199 58.998C262.127 59.282 262.091 59.604 262.091 59.964C262.091 60.684 262.239 61.246 262.535 61.65C262.835 62.05 263.289 62.25 263.897 62.25ZM271.03 60.264C270.538 60.28 270.118 60.32 269.77 60.384C269.426 60.444 269.144 60.524 268.924 60.624C268.708 60.724 268.55 60.842 268.45 60.978C268.354 61.114 268.306 61.266 268.306 61.434C268.306 61.594 268.332 61.732 268.384 61.848C268.436 61.964 268.506 62.06 268.594 62.136C268.686 62.208 268.792 62.262 268.912 62.298C269.036 62.33 269.168 62.346 269.308 62.346C269.496 62.346 269.668 62.328 269.824 62.292C269.98 62.252 270.126 62.196 270.262 62.124C270.402 62.052 270.534 61.966 270.658 61.866C270.786 61.766 270.91 61.652 271.03 61.524V60.264ZM267.58 57.78C267.916 57.456 268.278 57.214 268.666 57.054C269.054 56.894 269.484 56.814 269.956 56.814C270.296 56.814 270.598 56.87 270.862 56.982C271.126 57.094 271.348 57.25 271.528 57.45C271.708 57.65 271.844 57.892 271.936 58.176C272.028 58.46 272.074 58.772 272.074 59.112V63H271.6C271.496 63 271.416 62.984 271.36 62.952C271.304 62.916 271.26 62.848 271.228 62.748L271.108 62.172C270.948 62.32 270.792 62.452 270.64 62.568C270.488 62.68 270.328 62.776 270.16 62.856C269.992 62.932 269.812 62.99 269.62 63.03C269.432 63.074 269.222 63.096 268.99 63.096C268.754 63.096 268.532 63.064 268.324 63C268.116 62.932 267.934 62.832 267.778 62.7C267.626 62.568 267.504 62.402 267.412 62.202C267.324 61.998 267.28 61.758 267.28 61.482C267.28 61.242 267.346 61.012 267.478 60.792C267.61 60.568 267.824 60.37 268.12 60.198C268.416 60.026 268.802 59.886 269.278 59.778C269.754 59.666 270.338 59.602 271.03 59.586V59.112C271.03 58.64 270.928 58.284 270.724 58.044C270.52 57.8 270.222 57.678 269.83 57.678C269.566 57.678 269.344 57.712 269.164 57.78C268.988 57.844 268.834 57.918 268.702 58.002C268.574 58.082 268.462 58.156 268.366 58.224C268.274 58.288 268.182 58.32 268.09 58.32C268.018 58.32 267.956 58.302 267.904 58.266C267.852 58.226 267.808 58.178 267.772 58.122L267.58 57.78ZM277.253 58.368C277.053 58.1 276.837 57.914 276.605 57.81C276.373 57.702 276.113 57.648 275.825 57.648C275.261 57.648 274.827 57.85 274.523 58.254C274.219 58.658 274.067 59.234 274.067 59.982C274.067 60.378 274.101 60.718 274.169 61.002C274.237 61.282 274.337 61.514 274.469 61.698C274.601 61.878 274.763 62.01 274.955 62.094C275.147 62.178 275.365 62.22 275.609 62.22C275.961 62.22 276.267 62.14 276.527 61.98C276.791 61.82 277.033 61.594 277.253 61.302V58.368ZM278.321 54.162V63H277.685C277.533 63 277.437 62.926 277.397 62.778L277.301 62.04C277.041 62.352 276.745 62.604 276.413 62.796C276.081 62.988 275.697 63.084 275.261 63.084C274.913 63.084 274.597 63.018 274.313 62.886C274.029 62.75 273.787 62.552 273.587 62.292C273.387 62.032 273.233 61.708 273.125 61.32C273.017 60.932 272.963 60.486 272.963 59.982C272.963 59.534 273.023 59.118 273.143 58.734C273.263 58.346 273.435 58.01 273.659 57.726C273.883 57.442 274.157 57.22 274.481 57.06C274.809 56.896 275.177 56.814 275.585 56.814C275.957 56.814 276.275 56.878 276.539 57.006C276.807 57.13 277.045 57.304 277.253 57.528V54.162H278.321ZM246.949 72.224C247.013 72.224 247.069 72.25 247.117 72.302L247.579 72.8C247.227 73.208 246.799 73.526 246.295 73.754C245.795 73.982 245.189 74.096 244.477 74.096C243.861 74.096 243.301 73.99 242.797 73.778C242.293 73.562 241.863 73.262 241.507 72.878C241.151 72.49 240.875 72.026 240.679 71.486C240.483 70.946 240.385 70.352 240.385 69.704C240.385 69.056 240.487 68.462 240.691 67.922C240.895 67.382 241.181 66.918 241.549 66.53C241.921 66.142 242.365 65.842 242.881 65.63C243.397 65.414 243.967 65.306 244.591 65.306C245.203 65.306 245.743 65.404 246.211 65.6C246.679 65.796 247.091 66.062 247.447 66.398L247.063 66.932C247.039 66.972 247.007 67.006 246.967 67.034C246.931 67.058 246.881 67.07 246.817 67.07C246.745 67.07 246.657 67.032 246.553 66.956C246.449 66.876 246.313 66.788 246.145 66.692C245.977 66.596 245.767 66.51 245.515 66.434C245.263 66.354 244.953 66.314 244.585 66.314C244.141 66.314 243.735 66.392 243.367 66.548C242.999 66.7 242.681 66.922 242.413 67.214C242.149 67.506 241.943 67.862 241.795 68.282C241.647 68.702 241.573 69.176 241.573 69.704C241.573 70.24 241.649 70.718 241.801 71.138C241.957 71.558 242.167 71.914 242.431 72.206C242.699 72.494 243.013 72.714 243.373 72.866C243.737 73.018 244.129 73.094 244.549 73.094C244.805 73.094 245.035 73.08 245.239 73.052C245.447 73.02 245.637 72.972 245.809 72.908C245.985 72.844 246.147 72.764 246.295 72.668C246.447 72.568 246.597 72.45 246.745 72.314C246.813 72.254 246.881 72.224 246.949 72.224ZM250.713 67.826C251.157 67.826 251.557 67.9 251.913 68.048C252.269 68.196 252.573 68.406 252.825 68.678C253.077 68.95 253.269 69.28 253.401 69.668C253.537 70.052 253.605 70.482 253.605 70.958C253.605 71.438 253.537 71.87 253.401 72.254C253.269 72.638 253.077 72.966 252.825 73.238C252.573 73.51 252.269 73.72 251.913 73.868C251.557 74.012 251.157 74.084 250.713 74.084C250.265 74.084 249.861 74.012 249.501 73.868C249.145 73.72 248.841 73.51 248.589 73.238C248.337 72.966 248.143 72.638 248.007 72.254C247.875 71.87 247.809 71.438 247.809 70.958C247.809 70.482 247.875 70.052 248.007 69.668C248.143 69.28 248.337 68.95 248.589 68.678C248.841 68.406 249.145 68.196 249.501 68.048C249.861 67.9 250.265 67.826 250.713 67.826ZM250.713 73.25C251.313 73.25 251.761 73.05 252.057 72.65C252.353 72.246 252.501 71.684 252.501 70.964C252.501 70.24 252.353 69.676 252.057 69.272C251.761 68.868 251.313 68.666 250.713 68.666C250.409 68.666 250.143 68.718 249.915 68.822C249.691 68.926 249.503 69.076 249.351 69.272C249.203 69.468 249.091 69.71 249.015 69.998C248.943 70.282 248.907 70.604 248.907 70.964C248.907 71.684 249.055 72.246 249.351 72.65C249.651 73.05 250.105 73.25 250.713 73.25ZM255.56 68.804C255.692 68.656 255.832 68.522 255.98 68.402C256.128 68.282 256.284 68.18 256.448 68.096C256.616 68.008 256.792 67.942 256.976 67.898C257.164 67.85 257.366 67.826 257.582 67.826C257.914 67.826 258.206 67.882 258.458 67.994C258.714 68.102 258.926 68.258 259.094 68.462C259.266 68.662 259.396 68.904 259.484 69.188C259.572 69.472 259.616 69.786 259.616 70.13V74H258.542V70.13C258.542 69.67 258.436 69.314 258.224 69.062C258.016 68.806 257.698 68.678 257.27 68.678C256.954 68.678 256.658 68.754 256.382 68.906C256.11 69.058 255.858 69.264 255.626 69.524V74H254.552V67.922H255.194C255.346 67.922 255.44 67.996 255.476 68.144L255.56 68.804ZM262.619 74.096C262.139 74.096 261.769 73.962 261.509 73.694C261.253 73.426 261.125 73.04 261.125 72.536V68.816H260.393C260.329 68.816 260.275 68.798 260.231 68.762C260.187 68.722 260.165 68.662 260.165 68.582V68.156L261.161 68.03L261.407 66.152C261.419 66.092 261.445 66.044 261.485 66.008C261.529 65.968 261.585 65.948 261.653 65.948H262.193V68.042H263.951V68.816H262.193V72.464C262.193 72.72 262.255 72.91 262.379 73.034C262.503 73.158 262.663 73.22 262.859 73.22C262.971 73.22 263.067 73.206 263.147 73.178C263.231 73.146 263.303 73.112 263.363 73.076C263.423 73.04 263.473 73.008 263.513 72.98C263.557 72.948 263.595 72.932 263.627 72.932C263.683 72.932 263.733 72.966 263.777 73.034L264.089 73.544C263.905 73.716 263.683 73.852 263.423 73.952C263.163 74.048 262.895 74.096 262.619 74.096ZM265.66 69.14C265.852 68.724 266.088 68.4 266.368 68.168C266.648 67.932 266.99 67.814 267.394 67.814C267.522 67.814 267.644 67.828 267.76 67.856C267.88 67.884 267.986 67.928 268.078 67.988L268 68.786C267.976 68.886 267.916 68.936 267.82 68.936C267.764 68.936 267.682 68.924 267.574 68.9C267.466 68.876 267.344 68.864 267.208 68.864C267.016 68.864 266.844 68.892 266.692 68.948C266.544 69.004 266.41 69.088 266.29 69.2C266.174 69.308 266.068 69.444 265.972 69.608C265.88 69.768 265.796 69.952 265.72 70.16V74H264.646V67.922H265.258C265.374 67.922 265.454 67.944 265.498 67.988C265.542 68.032 265.572 68.108 265.588 68.216L265.66 69.14ZM271.809 71.264C271.317 71.28 270.897 71.32 270.549 71.384C270.205 71.444 269.923 71.524 269.703 71.624C269.487 71.724 269.329 71.842 269.229 71.978C269.133 72.114 269.085 72.266 269.085 72.434C269.085 72.594 269.111 72.732 269.163 72.848C269.215 72.964 269.285 73.06 269.373 73.136C269.465 73.208 269.571 73.262 269.691 73.298C269.815 73.33 269.947 73.346 270.087 73.346C270.275 73.346 270.447 73.328 270.603 73.292C270.759 73.252 270.905 73.196 271.041 73.124C271.181 73.052 271.313 72.966 271.437 72.866C271.565 72.766 271.689 72.652 271.809 72.524V71.264ZM268.359 68.78C268.695 68.456 269.057 68.214 269.445 68.054C269.833 67.894 270.263 67.814 270.735 67.814C271.075 67.814 271.377 67.87 271.641 67.982C271.905 68.094 272.127 68.25 272.307 68.45C272.487 68.65 272.623 68.892 272.715 69.176C272.807 69.46 272.853 69.772 272.853 70.112V74H272.379C272.275 74 272.195 73.984 272.139 73.952C272.083 73.916 272.039 73.848 272.007 73.748L271.887 73.172C271.727 73.32 271.571 73.452 271.419 73.568C271.267 73.68 271.107 73.776 270.939 73.856C270.771 73.932 270.591 73.99 270.399 74.03C270.211 74.074 270.001 74.096 269.769 74.096C269.533 74.096 269.311 74.064 269.103 74C268.895 73.932 268.713 73.832 268.557 73.7C268.405 73.568 268.283 73.402 268.191 73.202C268.103 72.998 268.059 72.758 268.059 72.482C268.059 72.242 268.125 72.012 268.257 71.792C268.389 71.568 268.603 71.37 268.899 71.198C269.195 71.026 269.581 70.886 270.057 70.778C270.533 70.666 271.117 70.602 271.809 70.586V70.112C271.809 69.64 271.707 69.284 271.503 69.044C271.299 68.8 271.001 68.678 270.609 68.678C270.345 68.678 270.123 68.712 269.943 68.78C269.767 68.844 269.613 68.918 269.481 69.002C269.353 69.082 269.241 69.156 269.145 69.224C269.053 69.288 268.961 69.32 268.869 69.32C268.797 69.32 268.735 69.302 268.683 69.266C268.631 69.226 268.587 69.178 268.551 69.122L268.359 68.78ZM278.302 69.002C278.27 69.046 278.238 69.08 278.206 69.104C278.174 69.128 278.13 69.14 278.074 69.14C278.014 69.14 277.948 69.116 277.876 69.068C277.804 69.016 277.714 68.96 277.606 68.9C277.502 68.84 277.372 68.786 277.216 68.738C277.064 68.686 276.876 68.66 276.652 68.66C276.352 68.66 276.088 68.714 275.86 68.822C275.632 68.926 275.44 69.078 275.284 69.278C275.132 69.478 275.016 69.72 274.936 70.004C274.86 70.288 274.822 70.606 274.822 70.958C274.822 71.326 274.864 71.654 274.948 71.942C275.032 72.226 275.15 72.466 275.302 72.662C275.458 72.854 275.644 73.002 275.86 73.106C276.08 73.206 276.326 73.256 276.598 73.256C276.858 73.256 277.072 73.226 277.24 73.166C277.408 73.102 277.546 73.032 277.654 72.956C277.766 72.88 277.858 72.812 277.93 72.752C278.006 72.688 278.08 72.656 278.152 72.656C278.24 72.656 278.308 72.69 278.356 72.758L278.656 73.148C278.524 73.312 278.374 73.452 278.206 73.568C278.038 73.684 277.856 73.782 277.66 73.862C277.468 73.938 277.266 73.994 277.054 74.03C276.842 74.066 276.626 74.084 276.406 74.084C276.026 74.084 275.672 74.014 275.344 73.874C275.02 73.734 274.738 73.532 274.498 73.268C274.258 73 274.07 72.672 273.934 72.284C273.798 71.896 273.73 71.454 273.73 70.958C273.73 70.506 273.792 70.088 273.916 69.704C274.044 69.32 274.228 68.99 274.468 68.714C274.712 68.434 275.01 68.216 275.362 68.06C275.718 67.904 276.126 67.826 276.586 67.826C277.014 67.826 277.39 67.896 277.714 68.036C278.042 68.172 278.332 68.366 278.584 68.618L278.302 69.002ZM281.261 74.096C280.781 74.096 280.411 73.962 280.151 73.694C279.895 73.426 279.767 73.04 279.767 72.536V68.816H279.035C278.971 68.816 278.917 68.798 278.873 68.762C278.829 68.722 278.807 68.662 278.807 68.582V68.156L279.803 68.03L280.049 66.152C280.061 66.092 280.087 66.044 280.127 66.008C280.171 65.968 280.227 65.948 280.295 65.948H280.835V68.042H282.593V68.816H280.835V72.464C280.835 72.72 280.897 72.91 281.021 73.034C281.145 73.158 281.305 73.22 281.501 73.22C281.613 73.22 281.709 73.206 281.789 73.178C281.873 73.146 281.945 73.112 282.005 73.076C282.065 73.04 282.115 73.008 282.155 72.98C282.199 72.948 282.237 72.932 282.269 72.932C282.325 72.932 282.375 72.966 282.419 73.034L282.731 73.544C282.547 73.716 282.325 73.852 282.065 73.952C281.805 74.048 281.537 74.096 281.261 74.096Z" fill="#767676"/>
<path d="M325.998 60.03C325.998 60.51 325.938 60.94 325.818 61.32C325.702 61.7 325.528 62.022 325.296 62.286C325.068 62.546 324.786 62.746 324.45 62.886C324.114 63.026 323.728 63.096 323.292 63.096C322.896 63.096 322.492 63.04 322.08 62.928C322.088 62.812 322.098 62.698 322.11 62.586C322.122 62.47 322.132 62.356 322.14 62.244C322.148 62.176 322.172 62.122 322.212 62.082C322.256 62.038 322.322 62.016 322.41 62.016C322.482 62.016 322.576 62.034 322.692 62.07C322.812 62.106 322.972 62.124 323.172 62.124C323.436 62.124 323.672 62.084 323.88 62.004C324.088 61.924 324.262 61.8 324.402 61.632C324.542 61.464 324.648 61.25 324.72 60.99C324.796 60.726 324.834 60.414 324.834 60.054V54.402H325.998V60.03ZM329.799 56.826C330.243 56.826 330.643 56.9 330.999 57.048C331.355 57.196 331.659 57.406 331.911 57.678C332.163 57.95 332.355 58.28 332.487 58.668C332.623 59.052 332.691 59.482 332.691 59.958C332.691 60.438 332.623 60.87 332.487 61.254C332.355 61.638 332.163 61.966 331.911 62.238C331.659 62.51 331.355 62.72 330.999 62.868C330.643 63.012 330.243 63.084 329.799 63.084C329.351 63.084 328.947 63.012 328.587 62.868C328.231 62.72 327.927 62.51 327.675 62.238C327.423 61.966 327.229 61.638 327.093 61.254C326.961 60.87 326.895 60.438 326.895 59.958C326.895 59.482 326.961 59.052 327.093 58.668C327.229 58.28 327.423 57.95 327.675 57.678C327.927 57.406 328.231 57.196 328.587 57.048C328.947 56.9 329.351 56.826 329.799 56.826ZM329.799 62.25C330.399 62.25 330.847 62.05 331.143 61.65C331.439 61.246 331.587 60.684 331.587 59.964C331.587 59.24 331.439 58.676 331.143 58.272C330.847 57.868 330.399 57.666 329.799 57.666C329.495 57.666 329.229 57.718 329.001 57.822C328.777 57.926 328.589 58.076 328.437 58.272C328.289 58.468 328.177 58.71 328.101 58.998C328.029 59.282 327.993 59.604 327.993 59.964C327.993 60.684 328.141 61.246 328.437 61.65C328.737 62.05 329.191 62.25 329.799 62.25ZM334.766 56.922V63H333.698V56.922H334.766ZM334.994 55.014C334.994 55.118 334.972 55.216 334.928 55.308C334.888 55.396 334.832 55.476 334.76 55.548C334.692 55.616 334.61 55.67 334.514 55.71C334.422 55.75 334.324 55.77 334.22 55.77C334.116 55.77 334.018 55.75 333.926 55.71C333.838 55.67 333.76 55.616 333.692 55.548C333.624 55.476 333.57 55.396 333.53 55.308C333.49 55.216 333.47 55.118 333.47 55.014C333.47 54.91 333.49 54.812 333.53 54.72C333.57 54.624 333.624 54.542 333.692 54.474C333.76 54.402 333.838 54.346 333.926 54.306C334.018 54.266 334.116 54.246 334.22 54.246C334.324 54.246 334.422 54.266 334.514 54.306C334.61 54.346 334.692 54.402 334.76 54.474C334.832 54.542 334.888 54.624 334.928 54.72C334.972 54.812 334.994 54.91 334.994 55.014ZM337.12 57.804C337.252 57.656 337.392 57.522 337.54 57.402C337.688 57.282 337.844 57.18 338.008 57.096C338.176 57.008 338.352 56.942 338.536 56.898C338.724 56.85 338.926 56.826 339.142 56.826C339.474 56.826 339.766 56.882 340.018 56.994C340.274 57.102 340.486 57.258 340.654 57.462C340.826 57.662 340.956 57.904 341.044 58.188C341.132 58.472 341.176 58.786 341.176 59.13V63H340.102V59.13C340.102 58.67 339.996 58.314 339.784 58.062C339.576 57.806 339.258 57.678 338.83 57.678C338.514 57.678 338.218 57.754 337.942 57.906C337.67 58.058 337.418 58.264 337.186 58.524V63H336.112V56.922H336.754C336.906 56.922 337 56.996 337.036 57.144L337.12 57.804ZM346.924 63.096C346.444 63.096 346.074 62.962 345.814 62.694C345.558 62.426 345.43 62.04 345.43 61.536V57.816H344.698C344.634 57.816 344.58 57.798 344.536 57.762C344.492 57.722 344.47 57.662 344.47 57.582V57.156L345.466 57.03L345.712 55.152C345.724 55.092 345.75 55.044 345.79 55.008C345.834 54.968 345.89 54.948 345.958 54.948H346.498V57.042H348.256V57.816H346.498V61.464C346.498 61.72 346.56 61.91 346.684 62.034C346.808 62.158 346.968 62.22 347.164 62.22C347.276 62.22 347.372 62.206 347.452 62.178C347.536 62.146 347.608 62.112 347.668 62.076C347.728 62.04 347.778 62.008 347.818 61.98C347.862 61.948 347.9 61.932 347.932 61.932C347.988 61.932 348.038 61.966 348.082 62.034L348.394 62.544C348.21 62.716 347.988 62.852 347.728 62.952C347.468 63.048 347.2 63.096 346.924 63.096ZM350.025 57.732C350.285 57.456 350.573 57.236 350.889 57.072C351.205 56.908 351.569 56.826 351.981 56.826C352.313 56.826 352.605 56.882 352.857 56.994C353.113 57.102 353.325 57.258 353.493 57.462C353.665 57.662 353.795 57.904 353.883 58.188C353.971 58.472 354.015 58.786 354.015 59.13V63H352.941V59.13C352.941 58.67 352.835 58.314 352.623 58.062C352.415 57.806 352.097 57.678 351.669 57.678C351.353 57.678 351.057 57.754 350.781 57.906C350.509 58.058 350.257 58.264 350.025 58.524V63H348.951V54.162H350.025V57.732ZM359.302 59.298C359.302 59.05 359.266 58.824 359.194 58.62C359.126 58.412 359.024 58.234 358.888 58.086C358.756 57.934 358.594 57.818 358.402 57.738C358.21 57.654 357.992 57.612 357.748 57.612C357.236 57.612 356.83 57.762 356.53 58.062C356.234 58.358 356.05 58.77 355.978 59.298H359.302ZM360.166 62.148C360.034 62.308 359.876 62.448 359.692 62.568C359.508 62.684 359.31 62.78 359.098 62.856C358.89 62.932 358.674 62.988 358.45 63.024C358.226 63.064 358.004 63.084 357.784 63.084C357.364 63.084 356.976 63.014 356.62 62.874C356.268 62.73 355.962 62.522 355.702 62.25C355.446 61.974 355.246 61.634 355.102 61.23C354.958 60.826 354.886 60.362 354.886 59.838C354.886 59.414 354.95 59.018 355.078 58.65C355.21 58.282 355.398 57.964 355.642 57.696C355.886 57.424 356.184 57.212 356.536 57.06C356.888 56.904 357.284 56.826 357.724 56.826C358.088 56.826 358.424 56.888 358.732 57.012C359.044 57.132 359.312 57.308 359.536 57.54C359.764 57.768 359.942 58.052 360.07 58.392C360.198 58.728 360.262 59.112 360.262 59.544C360.262 59.712 360.244 59.824 360.208 59.88C360.172 59.936 360.104 59.964 360.004 59.964H355.942C355.954 60.348 356.006 60.682 356.098 60.966C356.194 61.25 356.326 61.488 356.494 61.68C356.662 61.868 356.862 62.01 357.094 62.106C357.326 62.198 357.586 62.244 357.874 62.244C358.142 62.244 358.372 62.214 358.564 62.154C358.76 62.09 358.928 62.022 359.068 61.95C359.208 61.878 359.324 61.812 359.416 61.752C359.512 61.688 359.594 61.656 359.662 61.656C359.75 61.656 359.818 61.69 359.866 61.758L360.166 62.148ZM326.561 72.224C326.625 72.224 326.681 72.25 326.729 72.302L327.191 72.8C326.839 73.208 326.411 73.526 325.907 73.754C325.407 73.982 324.801 74.096 324.089 74.096C323.473 74.096 322.913 73.99 322.409 73.778C321.905 73.562 321.475 73.262 321.119 72.878C320.763 72.49 320.487 72.026 320.291 71.486C320.095 70.946 319.997 70.352 319.997 69.704C319.997 69.056 320.099 68.462 320.303 67.922C320.507 67.382 320.793 66.918 321.161 66.53C321.533 66.142 321.977 65.842 322.493 65.63C323.009 65.414 323.579 65.306 324.203 65.306C324.815 65.306 325.355 65.404 325.823 65.6C326.291 65.796 326.703 66.062 327.059 66.398L326.675 66.932C326.651 66.972 326.619 67.006 326.579 67.034C326.543 67.058 326.493 67.07 326.429 67.07C326.357 67.07 326.269 67.032 326.165 66.956C326.061 66.876 325.925 66.788 325.757 66.692C325.589 66.596 325.379 66.51 325.127 66.434C324.875 66.354 324.565 66.314 324.197 66.314C323.753 66.314 323.347 66.392 322.979 66.548C322.611 66.7 322.293 66.922 322.025 67.214C321.761 67.506 321.555 67.862 321.407 68.282C321.259 68.702 321.185 69.176 321.185 69.704C321.185 70.24 321.261 70.718 321.413 71.138C321.569 71.558 321.779 71.914 322.043 72.206C322.311 72.494 322.625 72.714 322.985 72.866C323.349 73.018 323.741 73.094 324.161 73.094C324.417 73.094 324.647 73.08 324.851 73.052C325.059 73.02 325.249 72.972 325.421 72.908C325.597 72.844 325.759 72.764 325.907 72.668C326.059 72.568 326.209 72.45 326.357 72.314C326.425 72.254 326.493 72.224 326.561 72.224ZM330.325 67.826C330.769 67.826 331.169 67.9 331.525 68.048C331.881 68.196 332.185 68.406 332.437 68.678C332.689 68.95 332.881 69.28 333.013 69.668C333.149 70.052 333.217 70.482 333.217 70.958C333.217 71.438 333.149 71.87 333.013 72.254C332.881 72.638 332.689 72.966 332.437 73.238C332.185 73.51 331.881 73.72 331.525 73.868C331.169 74.012 330.769 74.084 330.325 74.084C329.877 74.084 329.473 74.012 329.113 73.868C328.757 73.72 328.453 73.51 328.201 73.238C327.949 72.966 327.755 72.638 327.619 72.254C327.487 71.87 327.421 71.438 327.421 70.958C327.421 70.482 327.487 70.052 327.619 69.668C327.755 69.28 327.949 68.95 328.201 68.678C328.453 68.406 328.757 68.196 329.113 68.048C329.473 67.9 329.877 67.826 330.325 67.826ZM330.325 73.25C330.925 73.25 331.373 73.05 331.669 72.65C331.965 72.246 332.113 71.684 332.113 70.964C332.113 70.24 331.965 69.676 331.669 69.272C331.373 68.868 330.925 68.666 330.325 68.666C330.021 68.666 329.755 68.718 329.527 68.822C329.303 68.926 329.115 69.076 328.963 69.272C328.815 69.468 328.703 69.71 328.627 69.998C328.555 70.282 328.519 70.604 328.519 70.964C328.519 71.684 328.667 72.246 328.963 72.65C329.263 73.05 329.717 73.25 330.325 73.25ZM337.458 71.264C336.966 71.28 336.546 71.32 336.198 71.384C335.854 71.444 335.572 71.524 335.352 71.624C335.136 71.724 334.978 71.842 334.878 71.978C334.782 72.114 334.734 72.266 334.734 72.434C334.734 72.594 334.76 72.732 334.812 72.848C334.864 72.964 334.934 73.06 335.022 73.136C335.114 73.208 335.22 73.262 335.34 73.298C335.464 73.33 335.596 73.346 335.736 73.346C335.924 73.346 336.096 73.328 336.252 73.292C336.408 73.252 336.554 73.196 336.69 73.124C336.83 73.052 336.962 72.966 337.086 72.866C337.214 72.766 337.338 72.652 337.458 72.524V71.264ZM334.008 68.78C334.344 68.456 334.706 68.214 335.094 68.054C335.482 67.894 335.912 67.814 336.384 67.814C336.724 67.814 337.026 67.87 337.29 67.982C337.554 68.094 337.776 68.25 337.956 68.45C338.136 68.65 338.272 68.892 338.364 69.176C338.456 69.46 338.502 69.772 338.502 70.112V74H338.028C337.924 74 337.844 73.984 337.788 73.952C337.732 73.916 337.688 73.848 337.656 73.748L337.536 73.172C337.376 73.32 337.22 73.452 337.068 73.568C336.916 73.68 336.756 73.776 336.588 73.856C336.42 73.932 336.24 73.99 336.048 74.03C335.86 74.074 335.65 74.096 335.418 74.096C335.182 74.096 334.96 74.064 334.752 74C334.544 73.932 334.362 73.832 334.206 73.7C334.054 73.568 333.932 73.402 333.84 73.202C333.752 72.998 333.708 72.758 333.708 72.482C333.708 72.242 333.774 72.012 333.906 71.792C334.038 71.568 334.252 71.37 334.548 71.198C334.844 71.026 335.23 70.886 335.706 70.778C336.182 70.666 336.766 70.602 337.458 70.586V70.112C337.458 69.64 337.356 69.284 337.152 69.044C336.948 68.8 336.65 68.678 336.258 68.678C335.994 68.678 335.772 68.712 335.592 68.78C335.416 68.844 335.262 68.918 335.13 69.002C335.002 69.082 334.89 69.156 334.794 69.224C334.702 69.288 334.61 69.32 334.518 69.32C334.446 69.32 334.384 69.302 334.332 69.266C334.28 69.226 334.236 69.178 334.2 69.122L334.008 68.78ZM340.825 65.162V74H339.757V65.162H340.825ZM343.277 67.922V74H342.209V67.922H343.277ZM343.505 66.014C343.505 66.118 343.483 66.216 343.439 66.308C343.399 66.396 343.343 66.476 343.271 66.548C343.203 66.616 343.121 66.67 343.025 66.71C342.933 66.75 342.835 66.77 342.731 66.77C342.627 66.77 342.529 66.75 342.437 66.71C342.349 66.67 342.271 66.616 342.203 66.548C342.135 66.476 342.081 66.396 342.041 66.308C342.001 66.216 341.981 66.118 341.981 66.014C341.981 65.91 342.001 65.812 342.041 65.72C342.081 65.624 342.135 65.542 342.203 65.474C342.271 65.402 342.349 65.346 342.437 65.306C342.529 65.266 342.627 65.246 342.731 65.246C342.835 65.246 342.933 65.266 343.025 65.306C343.121 65.346 343.203 65.402 343.271 65.474C343.343 65.542 343.399 65.624 343.439 65.72C343.483 65.812 343.505 65.91 343.505 66.014ZM346.49 74.096C346.01 74.096 345.64 73.962 345.38 73.694C345.124 73.426 344.996 73.04 344.996 72.536V68.816H344.264C344.2 68.816 344.146 68.798 344.102 68.762C344.058 68.722 344.036 68.662 344.036 68.582V68.156L345.032 68.03L345.278 66.152C345.29 66.092 345.316 66.044 345.356 66.008C345.4 65.968 345.456 65.948 345.524 65.948H346.064V68.042H347.822V68.816H346.064V72.464C346.064 72.72 346.126 72.91 346.25 73.034C346.374 73.158 346.534 73.22 346.73 73.22C346.842 73.22 346.938 73.206 347.018 73.178C347.102 73.146 347.174 73.112 347.234 73.076C347.294 73.04 347.344 73.008 347.384 72.98C347.428 72.948 347.466 72.932 347.498 72.932C347.554 72.932 347.604 72.966 347.648 73.034L347.96 73.544C347.776 73.716 347.554 73.852 347.294 73.952C347.034 74.048 346.766 74.096 346.49 74.096ZM349.644 67.922V74H348.576V67.922H349.644ZM349.872 66.014C349.872 66.118 349.85 66.216 349.806 66.308C349.766 66.396 349.71 66.476 349.638 66.548C349.57 66.616 349.488 66.67 349.392 66.71C349.3 66.75 349.202 66.77 349.098 66.77C348.994 66.77 348.896 66.75 348.804 66.71C348.716 66.67 348.638 66.616 348.57 66.548C348.502 66.476 348.448 66.396 348.408 66.308C348.368 66.216 348.348 66.118 348.348 66.014C348.348 65.91 348.368 65.812 348.408 65.72C348.448 65.624 348.502 65.542 348.57 65.474C348.638 65.402 348.716 65.346 348.804 65.306C348.896 65.266 348.994 65.246 349.098 65.246C349.202 65.246 349.3 65.266 349.392 65.306C349.488 65.346 349.57 65.402 349.638 65.474C349.71 65.542 349.766 65.624 349.806 65.72C349.85 65.812 349.872 65.91 349.872 66.014ZM353.553 67.826C353.997 67.826 354.397 67.9 354.753 68.048C355.109 68.196 355.413 68.406 355.665 68.678C355.917 68.95 356.109 69.28 356.241 69.668C356.377 70.052 356.445 70.482 356.445 70.958C356.445 71.438 356.377 71.87 356.241 72.254C356.109 72.638 355.917 72.966 355.665 73.238C355.413 73.51 355.109 73.72 354.753 73.868C354.397 74.012 353.997 74.084 353.553 74.084C353.105 74.084 352.701 74.012 352.341 73.868C351.985 73.72 351.681 73.51 351.429 73.238C351.177 72.966 350.983 72.638 350.847 72.254C350.715 71.87 350.649 71.438 350.649 70.958C350.649 70.482 350.715 70.052 350.847 69.668C350.983 69.28 351.177 68.95 351.429 68.678C351.681 68.406 351.985 68.196 352.341 68.048C352.701 67.9 353.105 67.826 353.553 67.826ZM353.553 73.25C354.153 73.25 354.601 73.05 354.897 72.65C355.193 72.246 355.341 71.684 355.341 70.964C355.341 70.24 355.193 69.676 354.897 69.272C354.601 68.868 354.153 68.666 353.553 68.666C353.249 68.666 352.983 68.718 352.755 68.822C352.531 68.926 352.343 69.076 352.191 69.272C352.043 69.468 351.931 69.71 351.855 69.998C351.783 70.282 351.747 70.604 351.747 70.964C351.747 71.684 351.895 72.246 352.191 72.65C352.491 73.05 352.945 73.25 353.553 73.25ZM358.4 68.804C358.532 68.656 358.672 68.522 358.82 68.402C358.968 68.282 359.124 68.18 359.288 68.096C359.456 68.008 359.632 67.942 359.816 67.898C360.004 67.85 360.206 67.826 360.422 67.826C360.754 67.826 361.046 67.882 361.298 67.994C361.554 68.102 361.766 68.258 361.934 68.462C362.106 68.662 362.236 68.904 362.324 69.188C362.412 69.472 362.456 69.786 362.456 70.13V74H361.382V70.13C361.382 69.67 361.276 69.314 361.064 69.062C360.856 68.806 360.538 68.678 360.11 68.678C359.794 68.678 359.498 68.754 359.222 68.906C358.95 69.058 358.698 69.264 358.466 69.524V74H357.392V67.922H358.034C358.186 67.922 358.28 67.996 358.316 68.144L358.4 68.804Z" fill="#767676"/>
</svg>
