<svg width="363" height="75" viewBox="0 0 363 75" fill="none" xmlns="http://www.w3.org/2000/svg">
<path d="M20.5598 34.4132C20.0428 34.4132 19.5453 34.1986 19.1746 33.8279L11.8874 26.3944C11.1362 25.6237 11.146 24.3848 11.9167 23.6336C12.6873 22.8825 13.9262 22.8922 14.6774 23.6629L20.5793 29.6819L38.2851 11.9761C34.6367 7.78134 29.2615 5.1084 23.262 5.1084C12.2483 5.1084 3.33203 14.0247 3.33203 25.0384C3.33203 36.0521 12.2483 44.9684 23.262 44.9684C34.2757 44.9684 43.192 36.0521 43.192 25.0384C43.192 21.4582 42.236 18.1122 40.5874 15.2148L21.9353 33.8474C21.5646 34.2181 21.0769 34.423 20.5598 34.423V34.4132Z" fill="#4F0774"/>
<path d="M43.6115 9.42029C42.8506 8.65938 41.6117 8.65938 40.8508 9.42029L38.2852 11.9859C39.1534 12.981 39.924 14.0638 40.5776 15.2149L43.6115 12.181C44.3724 11.4201 44.3724 10.1812 43.6115 9.42029Z" fill="#4F0774"/>
<path d="M20.5684 29.6921L14.6665 23.6731C13.9153 22.9025 12.6764 22.8927 11.9057 23.6439C11.1351 24.395 11.1253 25.6339 11.8765 26.4046L19.1636 33.8381C19.5246 34.2088 20.0221 34.4234 20.5489 34.4234C21.0659 34.4234 21.5634 34.2186 21.9244 33.8479L40.5764 15.2056C39.9228 14.0544 39.1522 12.9716 38.284 11.9766L20.5684 29.6921Z" fill="white"/>
<path d="M98.5598 34.3771C98.0428 34.3771 97.5453 34.1625 97.1746 33.7918L89.8874 26.3582C89.1362 25.5876 89.146 24.3487 89.9167 23.5975C90.6873 22.8464 91.9262 22.8561 92.6774 23.6268L98.5793 29.6458L116.285 11.94C112.637 7.74521 107.262 5.07227 101.262 5.07227C90.2483 5.07227 81.332 13.9886 81.332 25.0023C81.332 36.016 90.2483 44.9323 101.262 44.9323C112.276 44.9323 121.192 36.016 121.192 25.0023C121.192 21.4221 120.236 18.076 118.587 15.1787L99.9353 33.8113C99.5646 34.182 99.0769 34.3868 98.5598 34.3868V34.3771Z" fill="#4F0774"/>
<path d="M121.612 9.38416C120.851 8.62325 119.612 8.62325 118.851 9.38416L116.285 11.9498C117.153 12.9448 117.924 14.0277 118.578 15.1788L121.612 12.1449C122.372 11.384 122.372 10.1451 121.612 9.38416Z" fill="#4F0774"/>
<path d="M98.5684 29.656L92.6665 23.637C91.9153 22.8663 90.6764 22.8566 89.9057 23.6077C89.1351 24.3589 89.1253 25.5978 89.8765 26.3685L97.1636 33.802C97.5246 34.1727 98.0221 34.3873 98.5489 34.3873C99.0659 34.3873 99.5634 34.1824 99.9244 33.8117L118.576 15.1694C117.923 14.0183 117.152 12.9355 116.284 11.9404L98.5684 29.656Z" fill="white"/>
<path d="M176.56 34.3419C176.043 34.3419 175.545 34.1273 175.175 33.7566L167.887 26.3231C167.136 25.5524 167.146 24.3135 167.917 23.5624C168.687 22.8112 169.926 22.821 170.677 23.5916L176.579 29.6106L194.285 11.9048C190.637 7.71005 185.262 5.03711 179.262 5.03711C168.248 5.03711 159.332 13.9534 159.332 24.9671C159.332 35.9808 168.248 44.8971 179.262 44.8971C190.276 44.8971 199.192 35.9808 199.192 24.9671C199.192 21.3869 198.236 18.0409 196.587 15.1436L177.935 33.7761C177.565 34.1468 177.077 34.3517 176.56 34.3517V34.3419Z" fill="#4F0774"/>
<path d="M199.612 9.349C198.851 8.58809 197.612 8.58809 196.851 9.349L194.285 11.9146C195.153 12.9097 195.924 13.9925 196.578 15.1436L199.612 12.1097C200.372 11.3488 200.372 10.1099 199.612 9.349Z" fill="#4F0774"/>
<path d="M176.568 29.6208L170.666 23.6018C169.915 22.8312 168.676 22.8214 167.906 23.5726C167.135 24.3237 167.125 25.5626 167.876 26.3333L175.164 33.7668C175.525 34.1375 176.022 34.3521 176.549 34.3521C177.066 34.3521 177.563 34.1473 177.924 33.7766L196.576 15.1343C195.923 13.9831 195.152 12.9003 194.284 11.9053L176.568 29.6208Z" fill="white"/>
<path d="M259.56 34.3058C259.043 34.3058 258.545 34.0912 258.175 33.7205L250.887 26.287C250.136 25.5163 250.146 24.2774 250.917 23.5262C251.687 22.7751 252.926 22.7848 253.677 23.5555L259.579 29.5745L277.285 11.8687C273.637 7.67392 268.262 5.00098 262.262 5.00098C251.248 5.00098 242.332 13.9173 242.332 24.931C242.332 35.9447 251.248 44.861 262.262 44.861C273.276 44.861 282.192 35.9447 282.192 24.931C282.192 21.3508 281.236 18.0047 279.587 15.1074L260.935 33.74C260.565 34.1107 260.077 34.3155 259.56 34.3155V34.3058Z" fill="#4F0774"/>
<path d="M282.612 9.31287C281.851 8.55196 280.612 8.55196 279.851 9.31287L277.285 11.8785C278.153 12.8735 278.924 13.9564 279.578 15.1075L282.612 12.0736C283.372 11.3127 283.372 10.0738 282.612 9.31287Z" fill="#4F0774"/>
<path d="M259.568 29.5847L253.666 23.5657C252.915 22.795 251.676 22.7853 250.906 23.5364C250.135 24.2876 250.125 25.5265 250.876 26.2972L258.164 33.7307C258.525 34.1014 259.022 34.316 259.549 34.316C260.066 34.316 260.563 34.1111 260.924 33.7404L279.576 15.0981C278.923 13.947 278.152 12.8642 277.284 11.8691L259.568 29.5847Z" fill="white"/>
<path d="M3.03558 58.861C3.36758 58.861 3.65958 58.817 3.91158 58.729C4.16758 58.641 4.38158 58.519 4.55358 58.363C4.72958 58.203 4.86158 58.013 4.94958 57.793C5.03758 57.573 5.08158 57.331 5.08158 57.067C5.08158 56.519 4.91158 56.091 4.57158 55.783C4.23558 55.475 3.72358 55.321 3.03558 55.321H1.65558V58.861H3.03558ZM3.03558 54.403C3.57958 54.403 4.05158 54.467 4.45158 54.595C4.85558 54.719 5.18958 54.897 5.45358 55.129C5.71758 55.361 5.91358 55.641 6.04158 55.969C6.17358 56.297 6.23958 56.663 6.23958 57.067C6.23958 57.467 6.16958 57.833 6.02958 58.165C5.88958 58.497 5.68358 58.783 5.41158 59.023C5.14358 59.263 4.80958 59.451 4.40958 59.587C4.01358 59.719 3.55558 59.785 3.03558 59.785H1.65558V63.001H0.497578V54.403H3.03558ZM10.7962 59.299C10.7962 59.051 10.7602 58.825 10.6882 58.621C10.6202 58.413 10.5182 58.235 10.3822 58.087C10.2502 57.935 10.0882 57.819 9.8962 57.739C9.7042 57.655 9.4862 57.613 9.2422 57.613C8.7302 57.613 8.3242 57.763 8.0242 58.063C7.7282 58.359 7.5442 58.771 7.4722 59.299H10.7962ZM11.6602 62.149C11.5282 62.309 11.3702 62.449 11.1862 62.569C11.0022 62.685 10.8042 62.781 10.5922 62.857C10.3842 62.933 10.1682 62.989 9.9442 63.025C9.7202 63.065 9.4982 63.085 9.2782 63.085C8.8582 63.085 8.4702 63.015 8.1142 62.875C7.7622 62.731 7.4562 62.523 7.1962 62.251C6.9402 61.975 6.7402 61.635 6.5962 61.231C6.4522 60.827 6.3802 60.363 6.3802 59.839C6.3802 59.415 6.4442 59.019 6.5722 58.651C6.7042 58.283 6.8922 57.965 7.1362 57.697C7.3802 57.425 7.6782 57.213 8.0302 57.061C8.3822 56.905 8.7782 56.827 9.2182 56.827C9.5822 56.827 9.9182 56.889 10.2262 57.013C10.5382 57.133 10.8062 57.309 11.0302 57.541C11.2582 57.769 11.4362 58.053 11.5642 58.393C11.6922 58.729 11.7562 59.113 11.7562 59.545C11.7562 59.713 11.7382 59.825 11.7022 59.881C11.6662 59.937 11.5982 59.965 11.4982 59.965H7.4362C7.4482 60.349 7.5002 60.683 7.5922 60.967C7.6882 61.251 7.8202 61.489 7.9882 61.681C8.1562 61.869 8.3562 62.011 8.5882 62.107C8.8202 62.199 9.0802 62.245 9.3682 62.245C9.6362 62.245 9.8662 62.215 10.0582 62.155C10.2542 62.091 10.4222 62.023 10.5622 61.951C10.7022 61.879 10.8182 61.813 10.9102 61.753C11.0062 61.689 11.0882 61.657 11.1562 61.657C11.2442 61.657 11.3122 61.691 11.3602 61.759L11.6602 62.149ZM13.674 58.141C13.866 57.725 14.102 57.401 14.382 57.169C14.662 56.933 15.004 56.815 15.408 56.815C15.536 56.815 15.658 56.829 15.774 56.857C15.894 56.885 16 56.929 16.092 56.989L16.014 57.787C15.99 57.887 15.93 57.937 15.834 57.937C15.778 57.937 15.696 57.925 15.588 57.901C15.48 57.877 15.358 57.865 15.222 57.865C15.03 57.865 14.858 57.893 14.706 57.949C14.558 58.005 14.424 58.089 14.304 58.201C14.188 58.309 14.082 58.445 13.986 58.609C13.894 58.769 13.81 58.953 13.734 59.161V63.001H12.66V56.923H13.272C13.388 56.923 13.468 56.945 13.512 56.989C13.556 57.033 13.586 57.109 13.602 57.217L13.674 58.141ZM20.128 57.925C20.08 58.013 20.006 58.057 19.906 58.057C19.846 58.057 19.778 58.035 19.702 57.991C19.626 57.947 19.532 57.899 19.42 57.847C19.312 57.791 19.182 57.741 19.03 57.697C18.878 57.649 18.698 57.625 18.49 57.625C18.31 57.625 18.148 57.649 18.004 57.697C17.86 57.741 17.736 57.803 17.632 57.883C17.532 57.963 17.454 58.057 17.398 58.165C17.346 58.269 17.32 58.383 17.32 58.507C17.32 58.663 17.364 58.793 17.452 58.897C17.544 59.001 17.664 59.091 17.812 59.167C17.96 59.243 18.128 59.311 18.316 59.371C18.504 59.427 18.696 59.489 18.892 59.557C19.092 59.621 19.286 59.693 19.474 59.773C19.662 59.853 19.83 59.953 19.978 60.073C20.126 60.193 20.244 60.341 20.332 60.517C20.424 60.689 20.47 60.897 20.47 61.141C20.47 61.421 20.42 61.681 20.32 61.921C20.22 62.157 20.072 62.363 19.876 62.539C19.68 62.711 19.44 62.847 19.156 62.947C18.872 63.047 18.544 63.097 18.172 63.097C17.748 63.097 17.364 63.029 17.02 62.893C16.676 62.753 16.384 62.575 16.144 62.359L16.396 61.951C16.428 61.899 16.466 61.859 16.51 61.831C16.554 61.803 16.61 61.789 16.678 61.789C16.75 61.789 16.826 61.817 16.906 61.873C16.986 61.929 17.082 61.991 17.194 62.059C17.31 62.127 17.45 62.189 17.614 62.245C17.778 62.301 17.982 62.329 18.226 62.329C18.434 62.329 18.616 62.303 18.772 62.251C18.928 62.195 19.058 62.121 19.162 62.029C19.266 61.937 19.342 61.831 19.39 61.711C19.442 61.591 19.468 61.463 19.468 61.327C19.468 61.159 19.422 61.021 19.33 60.913C19.242 60.801 19.124 60.707 18.976 60.631C18.828 60.551 18.658 60.483 18.466 60.427C18.278 60.367 18.084 60.305 17.884 60.241C17.688 60.177 17.494 60.105 17.302 60.025C17.114 59.941 16.946 59.837 16.798 59.713C16.65 59.589 16.53 59.437 16.438 59.257C16.35 59.073 16.306 58.851 16.306 58.591C16.306 58.359 16.354 58.137 16.45 57.925C16.546 57.709 16.686 57.521 16.87 57.361C17.054 57.197 17.28 57.067 17.548 56.971C17.816 56.875 18.122 56.827 18.466 56.827C18.866 56.827 19.224 56.891 19.54 57.019C19.86 57.143 20.136 57.315 20.368 57.535L20.128 57.925ZM23.9334 56.827C24.3774 56.827 24.7774 56.901 25.1334 57.049C25.4894 57.197 25.7934 57.407 26.0454 57.679C26.2974 57.951 26.4894 58.281 26.6214 58.669C26.7574 59.053 26.8254 59.483 26.8254 59.959C26.8254 60.439 26.7574 60.871 26.6214 61.255C26.4894 61.639 26.2974 61.967 26.0454 62.239C25.7934 62.511 25.4894 62.721 25.1334 62.869C24.7774 63.013 24.3774 63.085 23.9334 63.085C23.4854 63.085 23.0814 63.013 22.7214 62.869C22.3654 62.721 22.0614 62.511 21.8094 62.239C21.5574 61.967 21.3634 61.639 21.2274 61.255C21.0954 60.871 21.0294 60.439 21.0294 59.959C21.0294 59.483 21.0954 59.053 21.2274 58.669C21.3634 58.281 21.5574 57.951 21.8094 57.679C22.0614 57.407 22.3654 57.197 22.7214 57.049C23.0814 56.901 23.4854 56.827 23.9334 56.827ZM23.9334 62.251C24.5334 62.251 24.9814 62.051 25.2774 61.651C25.5734 61.247 25.7214 60.685 25.7214 59.965C25.7214 59.241 25.5734 58.677 25.2774 58.273C24.9814 57.869 24.5334 57.667 23.9334 57.667C23.6294 57.667 23.3634 57.719 23.1354 57.823C22.9114 57.927 22.7234 58.077 22.5714 58.273C22.4234 58.469 22.3114 58.711 22.2354 58.999C22.1634 59.283 22.1274 59.605 22.1274 59.965C22.1274 60.685 22.2754 61.247 22.5714 61.651C22.8714 62.051 23.3254 62.251 23.9334 62.251ZM28.78 57.805C28.912 57.657 29.052 57.523 29.2 57.403C29.348 57.283 29.504 57.181 29.668 57.097C29.836 57.009 30.012 56.943 30.196 56.899C30.384 56.851 30.586 56.827 30.802 56.827C31.134 56.827 31.426 56.883 31.678 56.995C31.934 57.103 32.146 57.259 32.314 57.463C32.486 57.663 32.616 57.905 32.704 58.189C32.792 58.473 32.836 58.787 32.836 59.131V63.001H31.762V59.131C31.762 58.671 31.656 58.315 31.444 58.063C31.236 57.807 30.918 57.679 30.49 57.679C30.174 57.679 29.878 57.755 29.602 57.907C29.33 58.059 29.078 58.265 28.846 58.525V63.001H27.772V56.923H28.414C28.566 56.923 28.66 56.997 28.696 57.145L28.78 57.805ZM37.3494 60.265C36.8574 60.281 36.4374 60.321 36.0894 60.385C35.7454 60.445 35.4634 60.525 35.2434 60.625C35.0274 60.725 34.8694 60.843 34.7694 60.979C34.6734 61.115 34.6254 61.267 34.6254 61.435C34.6254 61.595 34.6514 61.733 34.7034 61.849C34.7554 61.965 34.8254 62.061 34.9134 62.137C35.0054 62.209 35.1114 62.263 35.2314 62.299C35.3554 62.331 35.4874 62.347 35.6274 62.347C35.8154 62.347 35.9874 62.329 36.1434 62.293C36.2994 62.253 36.4454 62.197 36.5814 62.125C36.7214 62.053 36.8534 61.967 36.9774 61.867C37.1054 61.767 37.2294 61.653 37.3494 61.525V60.265ZM33.8994 57.781C34.2354 57.457 34.5974 57.215 34.9854 57.055C35.3734 56.895 35.8034 56.815 36.2754 56.815C36.6154 56.815 36.9174 56.871 37.1814 56.983C37.4454 57.095 37.6674 57.251 37.8474 57.451C38.0274 57.651 38.1634 57.893 38.2554 58.177C38.3474 58.461 38.3934 58.773 38.3934 59.113V63.001H37.9194C37.8154 63.001 37.7354 62.985 37.6794 62.953C37.6234 62.917 37.5794 62.849 37.5474 62.749L37.4274 62.173C37.2674 62.321 37.1114 62.453 36.9594 62.569C36.8074 62.681 36.6474 62.777 36.4794 62.857C36.3114 62.933 36.1314 62.991 35.9394 63.031C35.7514 63.075 35.5414 63.097 35.3094 63.097C35.0734 63.097 34.8514 63.065 34.6434 63.001C34.4354 62.933 34.2534 62.833 34.0974 62.701C33.9454 62.569 33.8234 62.403 33.7314 62.203C33.6434 61.999 33.5994 61.759 33.5994 61.483C33.5994 61.243 33.6654 61.013 33.7974 60.793C33.9294 60.569 34.1434 60.371 34.4394 60.199C34.7354 60.027 35.1214 59.887 35.5974 59.779C36.0734 59.667 36.6574 59.603 37.3494 59.587V59.113C37.3494 58.641 37.2474 58.285 37.0434 58.045C36.8394 57.801 36.5414 57.679 36.1494 57.679C35.8854 57.679 35.6634 57.713 35.4834 57.781C35.3074 57.845 35.1534 57.919 35.0214 58.003C34.8934 58.083 34.7814 58.157 34.6854 58.225C34.5934 58.289 34.5014 58.321 34.4094 58.321C34.3374 58.321 34.2754 58.303 34.2234 58.267C34.1714 58.227 34.1274 58.179 34.0914 58.123L33.8994 57.781ZM40.7162 54.163V63.001H39.6482V54.163H40.7162ZM14.3642 74.001H13.2002V65.403H14.3642V74.001ZM16.8178 68.805C16.9498 68.657 17.0898 68.523 17.2378 68.403C17.3858 68.283 17.5418 68.181 17.7058 68.097C17.8738 68.009 18.0498 67.943 18.2338 67.899C18.4218 67.851 18.6238 67.827 18.8398 67.827C19.1718 67.827 19.4638 67.883 19.7158 67.995C19.9718 68.103 20.1838 68.259 20.3518 68.463C20.5238 68.663 20.6538 68.905 20.7418 69.189C20.8298 69.473 20.8738 69.787 20.8738 70.131V74.001H19.7998V70.131C19.7998 69.671 19.6938 69.315 19.4818 69.063C19.2738 68.807 18.9558 68.679 18.5278 68.679C18.2118 68.679 17.9158 68.755 17.6398 68.907C17.3678 69.059 17.1158 69.265 16.8838 69.525V74.001H15.8098V67.923H16.4518C16.6038 67.923 16.6978 67.997 16.7338 68.145L16.8178 68.805ZM22.3954 74.001V68.835L21.7234 68.757C21.6394 68.737 21.5694 68.707 21.5134 68.667C21.4614 68.623 21.4354 68.561 21.4354 68.481V68.043H22.3954V67.455C22.3954 67.107 22.4434 66.799 22.5394 66.531C22.6394 66.259 22.7794 66.031 22.9594 65.847C23.1434 65.659 23.3634 65.517 23.6194 65.421C23.8754 65.325 24.1634 65.277 24.4834 65.277C24.7554 65.277 25.0054 65.317 25.2334 65.397L25.2094 65.931C25.2014 66.027 25.1474 66.079 25.0474 66.087C24.9514 66.095 24.8214 66.099 24.6574 66.099C24.4734 66.099 24.3054 66.123 24.1534 66.171C24.0054 66.219 23.8774 66.297 23.7694 66.405C23.6614 66.513 23.5774 66.655 23.5174 66.831C23.4614 67.007 23.4334 67.225 23.4334 67.485V68.043H25.1854V68.817H23.4694V74.001H22.3954ZM28.1612 67.827C28.6052 67.827 29.0052 67.901 29.3612 68.049C29.7172 68.197 30.0212 68.407 30.2732 68.679C30.5252 68.951 30.7172 69.281 30.8492 69.669C30.9852 70.053 31.0532 70.483 31.0532 70.959C31.0532 71.439 30.9852 71.871 30.8492 72.255C30.7172 72.639 30.5252 72.967 30.2732 73.239C30.0212 73.511 29.7172 73.721 29.3612 73.869C29.0052 74.013 28.6052 74.085 28.1612 74.085C27.7132 74.085 27.3092 74.013 26.9492 73.869C26.5932 73.721 26.2892 73.511 26.0372 73.239C25.7852 72.967 25.5912 72.639 25.4552 72.255C25.3232 71.871 25.2572 71.439 25.2572 70.959C25.2572 70.483 25.3232 70.053 25.4552 69.669C25.5912 69.281 25.7852 68.951 26.0372 68.679C26.2892 68.407 26.5932 68.197 26.9492 68.049C27.3092 67.901 27.7132 67.827 28.1612 67.827ZM28.1612 73.251C28.7612 73.251 29.2092 73.051 29.5052 72.651C29.8012 72.247 29.9492 71.685 29.9492 70.965C29.9492 70.241 29.8012 69.677 29.5052 69.273C29.2092 68.869 28.7612 68.667 28.1612 68.667C27.8572 68.667 27.5912 68.719 27.3632 68.823C27.1392 68.927 26.9512 69.077 26.7992 69.273C26.6512 69.469 26.5392 69.711 26.4632 69.999C26.3912 70.283 26.3552 70.605 26.3552 70.965C26.3552 71.685 26.5032 72.247 26.7992 72.651C27.0992 73.051 27.5532 73.251 28.1612 73.251Z" fill="#767676"/>
<path d="M93.1264 55.381H90.3424V63.001H89.1844V55.381H86.3944V54.403H93.1264V55.381ZM96.3454 59.299C96.3454 59.051 96.3094 58.825 96.2374 58.621C96.1694 58.413 96.0674 58.235 95.9314 58.087C95.7994 57.935 95.6374 57.819 95.4454 57.739C95.2534 57.655 95.0354 57.613 94.7914 57.613C94.2794 57.613 93.8734 57.763 93.5734 58.063C93.2774 58.359 93.0934 58.771 93.0214 59.299H96.3454ZM97.2094 62.149C97.0774 62.309 96.9194 62.449 96.7354 62.569C96.5514 62.685 96.3534 62.781 96.1414 62.857C95.9334 62.933 95.7174 62.989 95.4934 63.025C95.2694 63.065 95.0474 63.085 94.8274 63.085C94.4074 63.085 94.0194 63.015 93.6634 62.875C93.3114 62.731 93.0054 62.523 92.7454 62.251C92.4894 61.975 92.2894 61.635 92.1454 61.231C92.0014 60.827 91.9294 60.363 91.9294 59.839C91.9294 59.415 91.9934 59.019 92.1214 58.651C92.2534 58.283 92.4414 57.965 92.6854 57.697C92.9294 57.425 93.2274 57.213 93.5794 57.061C93.9314 56.905 94.3274 56.827 94.7674 56.827C95.1314 56.827 95.4674 56.889 95.7754 57.013C96.0874 57.133 96.3554 57.309 96.5794 57.541C96.8074 57.769 96.9854 58.053 97.1134 58.393C97.2414 58.729 97.3054 59.113 97.3054 59.545C97.3054 59.713 97.2874 59.825 97.2514 59.881C97.2154 59.937 97.1474 59.965 97.0474 59.965H92.9854C92.9974 60.349 93.0494 60.683 93.1414 60.967C93.2374 61.251 93.3694 61.489 93.5374 61.681C93.7054 61.869 93.9054 62.011 94.1374 62.107C94.3694 62.199 94.6294 62.245 94.9174 62.245C95.1854 62.245 95.4154 62.215 95.6074 62.155C95.8034 62.091 95.9714 62.023 96.1114 61.951C96.2514 61.879 96.3674 61.813 96.4594 61.753C96.5554 61.689 96.6374 61.657 96.7054 61.657C96.7934 61.657 96.8614 61.691 96.9094 61.759L97.2094 62.149ZM101.503 60.265C101.011 60.281 100.591 60.321 100.243 60.385C99.8993 60.445 99.6173 60.525 99.3973 60.625C99.1813 60.725 99.0233 60.843 98.9233 60.979C98.8273 61.115 98.7793 61.267 98.7793 61.435C98.7793 61.595 98.8053 61.733 98.8573 61.849C98.9093 61.965 98.9793 62.061 99.0673 62.137C99.1593 62.209 99.2653 62.263 99.3853 62.299C99.5093 62.331 99.6413 62.347 99.7813 62.347C99.9693 62.347 100.141 62.329 100.297 62.293C100.453 62.253 100.599 62.197 100.735 62.125C100.875 62.053 101.007 61.967 101.131 61.867C101.259 61.767 101.383 61.653 101.503 61.525V60.265ZM98.0533 57.781C98.3893 57.457 98.7513 57.215 99.1393 57.055C99.5273 56.895 99.9573 56.815 100.429 56.815C100.769 56.815 101.071 56.871 101.335 56.983C101.599 57.095 101.821 57.251 102.001 57.451C102.181 57.651 102.317 57.893 102.409 58.177C102.501 58.461 102.547 58.773 102.547 59.113V63.001H102.073C101.969 63.001 101.889 62.985 101.833 62.953C101.777 62.917 101.733 62.849 101.701 62.749L101.581 62.173C101.421 62.321 101.265 62.453 101.113 62.569C100.961 62.681 100.801 62.777 100.633 62.857C100.465 62.933 100.285 62.991 100.093 63.031C99.9053 63.075 99.6953 63.097 99.4633 63.097C99.2273 63.097 99.0053 63.065 98.7973 63.001C98.5893 62.933 98.4073 62.833 98.2513 62.701C98.0993 62.569 97.9773 62.403 97.8853 62.203C97.7973 61.999 97.7533 61.759 97.7533 61.483C97.7533 61.243 97.8193 61.013 97.9513 60.793C98.0833 60.569 98.2973 60.371 98.5933 60.199C98.8893 60.027 99.2753 59.887 99.7513 59.779C100.227 59.667 100.811 59.603 101.503 59.587V59.113C101.503 58.641 101.401 58.285 101.197 58.045C100.993 57.801 100.695 57.679 100.303 57.679C100.039 57.679 99.8173 57.713 99.6373 57.781C99.4613 57.845 99.3073 57.919 99.1753 58.003C99.0473 58.083 98.9353 58.157 98.8393 58.225C98.7473 58.289 98.6553 58.321 98.5633 58.321C98.4913 58.321 98.4293 58.303 98.3773 58.267C98.3253 58.227 98.2813 58.179 98.2453 58.123L98.0533 57.781ZM103.766 63.001V56.923H104.408C104.56 56.923 104.654 56.997 104.69 57.145L104.768 57.769C104.992 57.493 105.244 57.267 105.524 57.091C105.804 56.915 106.128 56.827 106.496 56.827C106.904 56.827 107.234 56.941 107.486 57.169C107.742 57.397 107.926 57.705 108.038 58.093C108.126 57.873 108.238 57.683 108.374 57.523C108.514 57.363 108.67 57.231 108.842 57.127C109.014 57.023 109.196 56.947 109.388 56.899C109.584 56.851 109.782 56.827 109.982 56.827C110.302 56.827 110.586 56.879 110.834 56.983C111.086 57.083 111.298 57.231 111.47 57.427C111.646 57.623 111.78 57.865 111.872 58.153C111.964 58.437 112.01 58.763 112.01 59.131V63.001H110.936V59.131C110.936 58.655 110.832 58.295 110.624 58.051C110.416 57.803 110.116 57.679 109.724 57.679C109.548 57.679 109.38 57.711 109.22 57.775C109.064 57.835 108.926 57.925 108.806 58.045C108.686 58.165 108.59 58.317 108.518 58.501C108.45 58.681 108.416 58.891 108.416 59.131V63.001H107.342V59.131C107.342 58.643 107.244 58.279 107.048 58.039C106.852 57.799 106.566 57.679 106.19 57.679C105.926 57.679 105.682 57.751 105.458 57.895C105.234 58.035 105.028 58.227 104.84 58.471V63.001H103.766ZM93.3642 74.001H92.2002V65.403H93.3642V74.001ZM95.8178 68.805C95.9498 68.657 96.0898 68.523 96.2378 68.403C96.3858 68.283 96.5418 68.181 96.7058 68.097C96.8738 68.009 97.0498 67.943 97.2338 67.899C97.4218 67.851 97.6238 67.827 97.8398 67.827C98.1718 67.827 98.4638 67.883 98.7158 67.995C98.9718 68.103 99.1838 68.259 99.3518 68.463C99.5238 68.663 99.6538 68.905 99.7418 69.189C99.8298 69.473 99.8738 69.787 99.8738 70.131V74.001H98.7998V70.131C98.7998 69.671 98.6938 69.315 98.4818 69.063C98.2738 68.807 97.9558 68.679 97.5278 68.679C97.2118 68.679 96.9158 68.755 96.6398 68.907C96.3678 69.059 96.1158 69.265 95.8838 69.525V74.001H94.8098V67.923H95.4518C95.6038 67.923 95.6978 67.997 95.7338 68.145L95.8178 68.805ZM101.395 74.001V68.835L100.723 68.757C100.639 68.737 100.569 68.707 100.513 68.667C100.461 68.623 100.435 68.561 100.435 68.481V68.043H101.395V67.455C101.395 67.107 101.443 66.799 101.539 66.531C101.639 66.259 101.779 66.031 101.959 65.847C102.143 65.659 102.363 65.517 102.619 65.421C102.875 65.325 103.163 65.277 103.483 65.277C103.755 65.277 104.005 65.317 104.233 65.397L104.209 65.931C104.201 66.027 104.147 66.079 104.047 66.087C103.951 66.095 103.821 66.099 103.657 66.099C103.473 66.099 103.305 66.123 103.153 66.171C103.005 66.219 102.877 66.297 102.769 66.405C102.661 66.513 102.577 66.655 102.517 66.831C102.461 67.007 102.433 67.225 102.433 67.485V68.043H104.185V68.817H102.469V74.001H101.395ZM107.161 67.827C107.605 67.827 108.005 67.901 108.361 68.049C108.717 68.197 109.021 68.407 109.273 68.679C109.525 68.951 109.717 69.281 109.849 69.669C109.985 70.053 110.053 70.483 110.053 70.959C110.053 71.439 109.985 71.871 109.849 72.255C109.717 72.639 109.525 72.967 109.273 73.239C109.021 73.511 108.717 73.721 108.361 73.869C108.005 74.013 107.605 74.085 107.161 74.085C106.713 74.085 106.309 74.013 105.949 73.869C105.593 73.721 105.289 73.511 105.037 73.239C104.785 72.967 104.591 72.639 104.455 72.255C104.323 71.871 104.257 71.439 104.257 70.959C104.257 70.483 104.323 70.053 104.455 69.669C104.591 69.281 104.785 68.951 105.037 68.679C105.289 68.407 105.593 68.197 105.949 68.049C106.309 67.901 106.713 67.827 107.161 67.827ZM107.161 73.251C107.761 73.251 108.209 73.051 108.505 72.651C108.801 72.247 108.949 71.685 108.949 70.965C108.949 70.241 108.801 69.677 108.505 69.273C108.209 68.869 107.761 68.667 107.161 68.667C106.857 68.667 106.591 68.719 106.363 68.823C106.139 68.927 105.951 69.077 105.799 69.273C105.651 69.469 105.539 69.711 105.463 69.999C105.391 70.283 105.355 70.605 105.355 70.965C105.355 71.685 105.503 72.247 105.799 72.651C106.099 73.051 106.553 73.251 107.161 73.251Z" fill="#767676"/>
<path d="M165.618 61.225C165.682 61.225 165.738 61.251 165.786 61.303L166.248 61.801C165.896 62.209 165.468 62.527 164.964 62.755C164.464 62.983 163.858 63.097 163.146 63.097C162.53 63.097 161.97 62.991 161.466 62.779C160.962 62.563 160.532 62.263 160.176 61.879C159.82 61.491 159.544 61.027 159.348 60.487C159.152 59.947 159.054 59.353 159.054 58.705C159.054 58.057 159.156 57.463 159.36 56.923C159.564 56.383 159.85 55.919 160.218 55.531C160.59 55.143 161.034 54.843 161.55 54.631C162.066 54.415 162.636 54.307 163.26 54.307C163.872 54.307 164.412 54.405 164.88 54.601C165.348 54.797 165.76 55.063 166.116 55.399L165.732 55.933C165.708 55.973 165.676 56.007 165.636 56.035C165.6 56.059 165.55 56.071 165.486 56.071C165.414 56.071 165.326 56.033 165.222 55.957C165.118 55.877 164.982 55.789 164.814 55.693C164.646 55.597 164.436 55.511 164.184 55.435C163.932 55.355 163.622 55.315 163.254 55.315C162.81 55.315 162.404 55.393 162.036 55.549C161.668 55.701 161.35 55.923 161.082 56.215C160.818 56.507 160.612 56.863 160.464 57.283C160.316 57.703 160.242 58.177 160.242 58.705C160.242 59.241 160.318 59.719 160.47 60.139C160.626 60.559 160.836 60.915 161.1 61.207C161.368 61.495 161.682 61.715 162.042 61.867C162.406 62.019 162.798 62.095 163.218 62.095C163.474 62.095 163.704 62.081 163.908 62.053C164.116 62.021 164.306 61.973 164.478 61.909C164.654 61.845 164.816 61.765 164.964 61.669C165.116 61.569 165.266 61.451 165.414 61.315C165.482 61.255 165.55 61.225 165.618 61.225ZM169.382 56.827C169.826 56.827 170.226 56.901 170.582 57.049C170.938 57.197 171.242 57.407 171.494 57.679C171.746 57.951 171.938 58.281 172.07 58.669C172.206 59.053 172.274 59.483 172.274 59.959C172.274 60.439 172.206 60.871 172.07 61.255C171.938 61.639 171.746 61.967 171.494 62.239C171.242 62.511 170.938 62.721 170.582 62.869C170.226 63.013 169.826 63.085 169.382 63.085C168.934 63.085 168.53 63.013 168.17 62.869C167.814 62.721 167.51 62.511 167.258 62.239C167.006 61.967 166.812 61.639 166.676 61.255C166.544 60.871 166.478 60.439 166.478 59.959C166.478 59.483 166.544 59.053 166.676 58.669C166.812 58.281 167.006 57.951 167.258 57.679C167.51 57.407 167.814 57.197 168.17 57.049C168.53 56.901 168.934 56.827 169.382 56.827ZM169.382 62.251C169.982 62.251 170.43 62.051 170.726 61.651C171.022 61.247 171.17 60.685 171.17 59.965C171.17 59.241 171.022 58.677 170.726 58.273C170.43 57.869 169.982 57.667 169.382 57.667C169.078 57.667 168.812 57.719 168.584 57.823C168.36 57.927 168.172 58.077 168.02 58.273C167.872 58.469 167.76 58.711 167.684 58.999C167.612 59.283 167.576 59.605 167.576 59.965C167.576 60.685 167.724 61.247 168.02 61.651C168.32 62.051 168.774 62.251 169.382 62.251ZM174.229 57.805C174.361 57.657 174.501 57.523 174.649 57.403C174.797 57.283 174.953 57.181 175.117 57.097C175.285 57.009 175.461 56.943 175.645 56.899C175.833 56.851 176.035 56.827 176.251 56.827C176.583 56.827 176.875 56.883 177.127 56.995C177.383 57.103 177.595 57.259 177.763 57.463C177.935 57.663 178.065 57.905 178.153 58.189C178.241 58.473 178.285 58.787 178.285 59.131V63.001H177.211V59.131C177.211 58.671 177.105 58.315 176.893 58.063C176.685 57.807 176.367 57.679 175.939 57.679C175.623 57.679 175.327 57.755 175.051 57.907C174.779 58.059 174.527 58.265 174.295 58.525V63.001H173.221V56.923H173.863C174.015 56.923 174.109 56.997 174.145 57.145L174.229 57.805ZM181.288 63.097C180.808 63.097 180.438 62.963 180.178 62.695C179.922 62.427 179.794 62.041 179.794 61.537V57.817H179.062C178.998 57.817 178.944 57.799 178.9 57.763C178.856 57.723 178.834 57.663 178.834 57.583V57.157L179.83 57.031L180.076 55.153C180.088 55.093 180.114 55.045 180.154 55.009C180.198 54.969 180.254 54.949 180.322 54.949H180.862V57.043H182.62V57.817H180.862V61.465C180.862 61.721 180.924 61.911 181.048 62.035C181.172 62.159 181.332 62.221 181.528 62.221C181.64 62.221 181.736 62.207 181.816 62.179C181.9 62.147 181.972 62.113 182.032 62.077C182.092 62.041 182.142 62.009 182.182 61.981C182.226 61.949 182.264 61.933 182.296 61.933C182.352 61.933 182.402 61.967 182.446 62.035L182.758 62.545C182.574 62.717 182.352 62.853 182.092 62.953C181.832 63.049 181.564 63.097 181.288 63.097ZM184.329 58.141C184.521 57.725 184.757 57.401 185.037 57.169C185.317 56.933 185.659 56.815 186.063 56.815C186.191 56.815 186.313 56.829 186.429 56.857C186.549 56.885 186.655 56.929 186.747 56.989L186.669 57.787C186.645 57.887 186.585 57.937 186.489 57.937C186.433 57.937 186.351 57.925 186.243 57.901C186.135 57.877 186.013 57.865 185.877 57.865C185.685 57.865 185.513 57.893 185.361 57.949C185.213 58.005 185.079 58.089 184.959 58.201C184.843 58.309 184.737 58.445 184.641 58.609C184.549 58.769 184.465 58.953 184.389 59.161V63.001H183.315V56.923H183.927C184.043 56.923 184.123 56.945 184.167 56.989C184.211 57.033 184.241 57.109 184.257 57.217L184.329 58.141ZM190.478 60.265C189.986 60.281 189.566 60.321 189.218 60.385C188.874 60.445 188.592 60.525 188.372 60.625C188.156 60.725 187.998 60.843 187.898 60.979C187.802 61.115 187.754 61.267 187.754 61.435C187.754 61.595 187.78 61.733 187.832 61.849C187.884 61.965 187.954 62.061 188.042 62.137C188.134 62.209 188.24 62.263 188.36 62.299C188.484 62.331 188.616 62.347 188.756 62.347C188.944 62.347 189.116 62.329 189.272 62.293C189.428 62.253 189.574 62.197 189.71 62.125C189.85 62.053 189.982 61.967 190.106 61.867C190.234 61.767 190.358 61.653 190.478 61.525V60.265ZM187.028 57.781C187.364 57.457 187.726 57.215 188.114 57.055C188.502 56.895 188.932 56.815 189.404 56.815C189.744 56.815 190.046 56.871 190.31 56.983C190.574 57.095 190.796 57.251 190.976 57.451C191.156 57.651 191.292 57.893 191.384 58.177C191.476 58.461 191.522 58.773 191.522 59.113V63.001H191.048C190.944 63.001 190.864 62.985 190.808 62.953C190.752 62.917 190.708 62.849 190.676 62.749L190.556 62.173C190.396 62.321 190.24 62.453 190.088 62.569C189.936 62.681 189.776 62.777 189.608 62.857C189.44 62.933 189.26 62.991 189.068 63.031C188.88 63.075 188.67 63.097 188.438 63.097C188.202 63.097 187.98 63.065 187.772 63.001C187.564 62.933 187.382 62.833 187.226 62.701C187.074 62.569 186.952 62.403 186.86 62.203C186.772 61.999 186.728 61.759 186.728 61.483C186.728 61.243 186.794 61.013 186.926 60.793C187.058 60.569 187.272 60.371 187.568 60.199C187.864 60.027 188.25 59.887 188.726 59.779C189.202 59.667 189.786 59.603 190.478 59.587V59.113C190.478 58.641 190.376 58.285 190.172 58.045C189.968 57.801 189.67 57.679 189.278 57.679C189.014 57.679 188.792 57.713 188.612 57.781C188.436 57.845 188.282 57.919 188.15 58.003C188.022 58.083 187.91 58.157 187.814 58.225C187.722 58.289 187.63 58.321 187.538 58.321C187.466 58.321 187.404 58.303 187.352 58.267C187.3 58.227 187.256 58.179 187.22 58.123L187.028 57.781ZM196.971 58.003C196.939 58.047 196.907 58.081 196.875 58.105C196.843 58.129 196.799 58.141 196.743 58.141C196.683 58.141 196.617 58.117 196.545 58.069C196.473 58.017 196.383 57.961 196.275 57.901C196.171 57.841 196.041 57.787 195.885 57.739C195.733 57.687 195.545 57.661 195.321 57.661C195.021 57.661 194.757 57.715 194.529 57.823C194.301 57.927 194.109 58.079 193.953 58.279C193.801 58.479 193.685 58.721 193.605 59.005C193.529 59.289 193.491 59.607 193.491 59.959C193.491 60.327 193.533 60.655 193.617 60.943C193.701 61.227 193.819 61.467 193.971 61.663C194.127 61.855 194.313 62.003 194.529 62.107C194.749 62.207 194.995 62.257 195.267 62.257C195.527 62.257 195.741 62.227 195.909 62.167C196.077 62.103 196.215 62.033 196.323 61.957C196.435 61.881 196.527 61.813 196.599 61.753C196.675 61.689 196.749 61.657 196.821 61.657C196.909 61.657 196.977 61.691 197.025 61.759L197.325 62.149C197.193 62.313 197.043 62.453 196.875 62.569C196.707 62.685 196.525 62.783 196.329 62.863C196.137 62.939 195.935 62.995 195.723 63.031C195.511 63.067 195.295 63.085 195.075 63.085C194.695 63.085 194.341 63.015 194.013 62.875C193.689 62.735 193.407 62.533 193.167 62.269C192.927 62.001 192.739 61.673 192.603 61.285C192.467 60.897 192.399 60.455 192.399 59.959C192.399 59.507 192.461 59.089 192.585 58.705C192.713 58.321 192.897 57.991 193.137 57.715C193.381 57.435 193.679 57.217 194.031 57.061C194.387 56.905 194.795 56.827 195.255 56.827C195.683 56.827 196.059 56.897 196.383 57.037C196.711 57.173 197.001 57.367 197.253 57.619L196.971 58.003ZM199.929 63.097C199.449 63.097 199.079 62.963 198.819 62.695C198.563 62.427 198.435 62.041 198.435 61.537V57.817H197.703C197.639 57.817 197.585 57.799 197.541 57.763C197.497 57.723 197.475 57.663 197.475 57.583V57.157L198.471 57.031L198.717 55.153C198.729 55.093 198.755 55.045 198.795 55.009C198.839 54.969 198.895 54.949 198.963 54.949H199.503V57.043H201.261V57.817H199.503V61.465C199.503 61.721 199.565 61.911 199.689 62.035C199.813 62.159 199.973 62.221 200.169 62.221C200.281 62.221 200.377 62.207 200.457 62.179C200.541 62.147 200.613 62.113 200.673 62.077C200.733 62.041 200.783 62.009 200.823 61.981C200.867 61.949 200.905 61.933 200.937 61.933C200.993 61.933 201.043 61.967 201.087 62.035L201.399 62.545C201.215 62.717 200.993 62.853 200.733 62.953C200.473 63.049 200.205 63.097 199.929 63.097ZM173.864 74.001H172.7V65.403H173.864V74.001ZM176.318 68.805C176.45 68.657 176.59 68.523 176.738 68.403C176.886 68.283 177.042 68.181 177.206 68.097C177.374 68.009 177.55 67.943 177.734 67.899C177.922 67.851 178.124 67.827 178.34 67.827C178.672 67.827 178.964 67.883 179.216 67.995C179.472 68.103 179.684 68.259 179.852 68.463C180.024 68.663 180.154 68.905 180.242 69.189C180.33 69.473 180.374 69.787 180.374 70.131V74.001H179.3V70.131C179.3 69.671 179.194 69.315 178.982 69.063C178.774 68.807 178.456 68.679 178.028 68.679C177.712 68.679 177.416 68.755 177.14 68.907C176.868 69.059 176.616 69.265 176.384 69.525V74.001H175.31V67.923H175.952C176.104 67.923 176.198 67.997 176.234 68.145L176.318 68.805ZM181.895 74.001V68.835L181.223 68.757C181.139 68.737 181.069 68.707 181.013 68.667C180.961 68.623 180.935 68.561 180.935 68.481V68.043H181.895V67.455C181.895 67.107 181.943 66.799 182.039 66.531C182.139 66.259 182.279 66.031 182.459 65.847C182.643 65.659 182.863 65.517 183.119 65.421C183.375 65.325 183.663 65.277 183.983 65.277C184.255 65.277 184.505 65.317 184.733 65.397L184.709 65.931C184.701 66.027 184.647 66.079 184.547 66.087C184.451 66.095 184.321 66.099 184.157 66.099C183.973 66.099 183.805 66.123 183.653 66.171C183.505 66.219 183.377 66.297 183.269 66.405C183.161 66.513 183.077 66.655 183.017 66.831C182.961 67.007 182.933 67.225 182.933 67.485V68.043H184.685V68.817H182.969V74.001H181.895ZM187.661 67.827C188.105 67.827 188.505 67.901 188.861 68.049C189.217 68.197 189.521 68.407 189.773 68.679C190.025 68.951 190.217 69.281 190.349 69.669C190.485 70.053 190.553 70.483 190.553 70.959C190.553 71.439 190.485 71.871 190.349 72.255C190.217 72.639 190.025 72.967 189.773 73.239C189.521 73.511 189.217 73.721 188.861 73.869C188.505 74.013 188.105 74.085 187.661 74.085C187.213 74.085 186.809 74.013 186.449 73.869C186.093 73.721 185.789 73.511 185.537 73.239C185.285 72.967 185.091 72.639 184.955 72.255C184.823 71.871 184.757 71.439 184.757 70.959C184.757 70.483 184.823 70.053 184.955 69.669C185.091 69.281 185.285 68.951 185.537 68.679C185.789 68.407 186.093 68.197 186.449 68.049C186.809 67.901 187.213 67.827 187.661 67.827ZM187.661 73.251C188.261 73.251 188.709 73.051 189.005 72.651C189.301 72.247 189.449 71.685 189.449 70.965C189.449 70.241 189.301 69.677 189.005 69.273C188.709 68.869 188.261 68.667 187.661 68.667C187.357 68.667 187.091 68.719 186.863 68.823C186.639 68.927 186.451 69.077 186.299 69.273C186.151 69.469 186.039 69.711 185.963 69.999C185.891 70.283 185.855 70.605 185.855 70.965C185.855 71.685 186.003 72.247 186.299 72.651C186.599 73.051 187.053 73.251 187.661 73.251Z" fill="#767676"/>
<path d="M247.918 62.077C248.274 62.077 248.592 62.017 248.872 61.897C249.152 61.777 249.388 61.609 249.58 61.393C249.776 61.177 249.924 60.919 250.024 60.619C250.128 60.319 250.18 59.989 250.18 59.629V54.403H251.338V59.629C251.338 60.125 251.258 60.585 251.098 61.009C250.942 61.433 250.716 61.801 250.42 62.113C250.128 62.421 249.77 62.663 249.346 62.839C248.922 63.015 248.446 63.103 247.918 63.103C247.39 63.103 246.914 63.015 246.49 62.839C246.066 62.663 245.706 62.421 245.41 62.113C245.114 61.801 244.886 61.433 244.726 61.009C244.57 60.585 244.492 60.125 244.492 59.629V54.403H245.65V59.623C245.65 59.983 245.7 60.313 245.8 60.613C245.904 60.913 246.052 61.171 246.244 61.387C246.44 61.603 246.678 61.773 246.958 61.897C247.242 62.017 247.562 62.077 247.918 62.077ZM253.663 61.537C253.859 61.801 254.073 61.987 254.305 62.095C254.537 62.203 254.797 62.257 255.085 62.257C255.653 62.257 256.089 62.055 256.393 61.651C256.697 61.247 256.849 60.671 256.849 59.923C256.849 59.527 256.813 59.187 256.741 58.903C256.673 58.619 256.573 58.387 256.441 58.207C256.309 58.023 256.147 57.889 255.955 57.805C255.763 57.721 255.545 57.679 255.301 57.679C254.953 57.679 254.647 57.759 254.383 57.919C254.123 58.079 253.883 58.305 253.663 58.597V61.537ZM253.609 57.865C253.865 57.549 254.161 57.295 254.497 57.103C254.833 56.911 255.217 56.815 255.649 56.815C256.001 56.815 256.319 56.883 256.603 57.019C256.887 57.151 257.129 57.349 257.329 57.613C257.529 57.873 257.683 58.197 257.791 58.585C257.899 58.973 257.953 59.419 257.953 59.923C257.953 60.371 257.893 60.789 257.773 61.177C257.653 61.561 257.479 61.895 257.251 62.179C257.027 62.459 256.751 62.681 256.423 62.845C256.099 63.005 255.733 63.085 255.325 63.085C254.953 63.085 254.633 63.023 254.365 62.899C254.101 62.771 253.867 62.595 253.663 62.371V65.059H252.589V56.923H253.231C253.383 56.923 253.477 56.997 253.513 57.145L253.609 57.865ZM260.011 54.163V63.001H258.943V54.163H260.011ZM263.897 56.827C264.341 56.827 264.741 56.901 265.097 57.049C265.453 57.197 265.757 57.407 266.009 57.679C266.261 57.951 266.453 58.281 266.585 58.669C266.721 59.053 266.789 59.483 266.789 59.959C266.789 60.439 266.721 60.871 266.585 61.255C266.453 61.639 266.261 61.967 266.009 62.239C265.757 62.511 265.453 62.721 265.097 62.869C264.741 63.013 264.341 63.085 263.897 63.085C263.449 63.085 263.045 63.013 262.685 62.869C262.329 62.721 262.025 62.511 261.773 62.239C261.521 61.967 261.327 61.639 261.191 61.255C261.059 60.871 260.993 60.439 260.993 59.959C260.993 59.483 261.059 59.053 261.191 58.669C261.327 58.281 261.521 57.951 261.773 57.679C262.025 57.407 262.329 57.197 262.685 57.049C263.045 56.901 263.449 56.827 263.897 56.827ZM263.897 62.251C264.497 62.251 264.945 62.051 265.241 61.651C265.537 61.247 265.685 60.685 265.685 59.965C265.685 59.241 265.537 58.677 265.241 58.273C264.945 57.869 264.497 57.667 263.897 57.667C263.593 57.667 263.327 57.719 263.099 57.823C262.875 57.927 262.687 58.077 262.535 58.273C262.387 58.469 262.275 58.711 262.199 58.999C262.127 59.283 262.091 59.605 262.091 59.965C262.091 60.685 262.239 61.247 262.535 61.651C262.835 62.051 263.289 62.251 263.897 62.251ZM271.03 60.265C270.538 60.281 270.118 60.321 269.77 60.385C269.426 60.445 269.144 60.525 268.924 60.625C268.708 60.725 268.55 60.843 268.45 60.979C268.354 61.115 268.306 61.267 268.306 61.435C268.306 61.595 268.332 61.733 268.384 61.849C268.436 61.965 268.506 62.061 268.594 62.137C268.686 62.209 268.792 62.263 268.912 62.299C269.036 62.331 269.168 62.347 269.308 62.347C269.496 62.347 269.668 62.329 269.824 62.293C269.98 62.253 270.126 62.197 270.262 62.125C270.402 62.053 270.534 61.967 270.658 61.867C270.786 61.767 270.91 61.653 271.03 61.525V60.265ZM267.58 57.781C267.916 57.457 268.278 57.215 268.666 57.055C269.054 56.895 269.484 56.815 269.956 56.815C270.296 56.815 270.598 56.871 270.862 56.983C271.126 57.095 271.348 57.251 271.528 57.451C271.708 57.651 271.844 57.893 271.936 58.177C272.028 58.461 272.074 58.773 272.074 59.113V63.001H271.6C271.496 63.001 271.416 62.985 271.36 62.953C271.304 62.917 271.26 62.849 271.228 62.749L271.108 62.173C270.948 62.321 270.792 62.453 270.64 62.569C270.488 62.681 270.328 62.777 270.16 62.857C269.992 62.933 269.812 62.991 269.62 63.031C269.432 63.075 269.222 63.097 268.99 63.097C268.754 63.097 268.532 63.065 268.324 63.001C268.116 62.933 267.934 62.833 267.778 62.701C267.626 62.569 267.504 62.403 267.412 62.203C267.324 61.999 267.28 61.759 267.28 61.483C267.28 61.243 267.346 61.013 267.478 60.793C267.61 60.569 267.824 60.371 268.12 60.199C268.416 60.027 268.802 59.887 269.278 59.779C269.754 59.667 270.338 59.603 271.03 59.587V59.113C271.03 58.641 270.928 58.285 270.724 58.045C270.52 57.801 270.222 57.679 269.83 57.679C269.566 57.679 269.344 57.713 269.164 57.781C268.988 57.845 268.834 57.919 268.702 58.003C268.574 58.083 268.462 58.157 268.366 58.225C268.274 58.289 268.182 58.321 268.09 58.321C268.018 58.321 267.956 58.303 267.904 58.267C267.852 58.227 267.808 58.179 267.772 58.123L267.58 57.781ZM277.253 58.369C277.053 58.101 276.837 57.915 276.605 57.811C276.373 57.703 276.113 57.649 275.825 57.649C275.261 57.649 274.827 57.851 274.523 58.255C274.219 58.659 274.067 59.235 274.067 59.983C274.067 60.379 274.101 60.719 274.169 61.003C274.237 61.283 274.337 61.515 274.469 61.699C274.601 61.879 274.763 62.011 274.955 62.095C275.147 62.179 275.365 62.221 275.609 62.221C275.961 62.221 276.267 62.141 276.527 61.981C276.791 61.821 277.033 61.595 277.253 61.303V58.369ZM278.321 54.163V63.001H277.685C277.533 63.001 277.437 62.927 277.397 62.779L277.301 62.041C277.041 62.353 276.745 62.605 276.413 62.797C276.081 62.989 275.697 63.085 275.261 63.085C274.913 63.085 274.597 63.019 274.313 62.887C274.029 62.751 273.787 62.553 273.587 62.293C273.387 62.033 273.233 61.709 273.125 61.321C273.017 60.933 272.963 60.487 272.963 59.983C272.963 59.535 273.023 59.119 273.143 58.735C273.263 58.347 273.435 58.011 273.659 57.727C273.883 57.443 274.157 57.221 274.481 57.061C274.809 56.897 275.177 56.815 275.585 56.815C275.957 56.815 276.275 56.879 276.539 57.007C276.807 57.131 277.045 57.305 277.253 57.529V54.163H278.321ZM246.949 72.225C247.013 72.225 247.069 72.251 247.117 72.303L247.579 72.801C247.227 73.209 246.799 73.527 246.295 73.755C245.795 73.983 245.189 74.097 244.477 74.097C243.861 74.097 243.301 73.991 242.797 73.779C242.293 73.563 241.863 73.263 241.507 72.879C241.151 72.491 240.875 72.027 240.679 71.487C240.483 70.947 240.385 70.353 240.385 69.705C240.385 69.057 240.487 68.463 240.691 67.923C240.895 67.383 241.181 66.919 241.549 66.531C241.921 66.143 242.365 65.843 242.881 65.631C243.397 65.415 243.967 65.307 244.591 65.307C245.203 65.307 245.743 65.405 246.211 65.601C246.679 65.797 247.091 66.063 247.447 66.399L247.063 66.933C247.039 66.973 247.007 67.007 246.967 67.035C246.931 67.059 246.881 67.071 246.817 67.071C246.745 67.071 246.657 67.033 246.553 66.957C246.449 66.877 246.313 66.789 246.145 66.693C245.977 66.597 245.767 66.511 245.515 66.435C245.263 66.355 244.953 66.315 244.585 66.315C244.141 66.315 243.735 66.393 243.367 66.549C242.999 66.701 242.681 66.923 242.413 67.215C242.149 67.507 241.943 67.863 241.795 68.283C241.647 68.703 241.573 69.177 241.573 69.705C241.573 70.241 241.649 70.719 241.801 71.139C241.957 71.559 242.167 71.915 242.431 72.207C242.699 72.495 243.013 72.715 243.373 72.867C243.737 73.019 244.129 73.095 244.549 73.095C244.805 73.095 245.035 73.081 245.239 73.053C245.447 73.021 245.637 72.973 245.809 72.909C245.985 72.845 246.147 72.765 246.295 72.669C246.447 72.569 246.597 72.451 246.745 72.315C246.813 72.255 246.881 72.225 246.949 72.225ZM250.713 67.827C251.157 67.827 251.557 67.901 251.913 68.049C252.269 68.197 252.573 68.407 252.825 68.679C253.077 68.951 253.269 69.281 253.401 69.669C253.537 70.053 253.605 70.483 253.605 70.959C253.605 71.439 253.537 71.871 253.401 72.255C253.269 72.639 253.077 72.967 252.825 73.239C252.573 73.511 252.269 73.721 251.913 73.869C251.557 74.013 251.157 74.085 250.713 74.085C250.265 74.085 249.861 74.013 249.501 73.869C249.145 73.721 248.841 73.511 248.589 73.239C248.337 72.967 248.143 72.639 248.007 72.255C247.875 71.871 247.809 71.439 247.809 70.959C247.809 70.483 247.875 70.053 248.007 69.669C248.143 69.281 248.337 68.951 248.589 68.679C248.841 68.407 249.145 68.197 249.501 68.049C249.861 67.901 250.265 67.827 250.713 67.827ZM250.713 73.251C251.313 73.251 251.761 73.051 252.057 72.651C252.353 72.247 252.501 71.685 252.501 70.965C252.501 70.241 252.353 69.677 252.057 69.273C251.761 68.869 251.313 68.667 250.713 68.667C250.409 68.667 250.143 68.719 249.915 68.823C249.691 68.927 249.503 69.077 249.351 69.273C249.203 69.469 249.091 69.711 249.015 69.999C248.943 70.283 248.907 70.605 248.907 70.965C248.907 71.685 249.055 72.247 249.351 72.651C249.651 73.051 250.105 73.251 250.713 73.251ZM255.56 68.805C255.692 68.657 255.832 68.523 255.98 68.403C256.128 68.283 256.284 68.181 256.448 68.097C256.616 68.009 256.792 67.943 256.976 67.899C257.164 67.851 257.366 67.827 257.582 67.827C257.914 67.827 258.206 67.883 258.458 67.995C258.714 68.103 258.926 68.259 259.094 68.463C259.266 68.663 259.396 68.905 259.484 69.189C259.572 69.473 259.616 69.787 259.616 70.131V74.001H258.542V70.131C258.542 69.671 258.436 69.315 258.224 69.063C258.016 68.807 257.698 68.679 257.27 68.679C256.954 68.679 256.658 68.755 256.382 68.907C256.11 69.059 255.858 69.265 255.626 69.525V74.001H254.552V67.923H255.194C255.346 67.923 255.44 67.997 255.476 68.145L255.56 68.805ZM262.619 74.097C262.139 74.097 261.769 73.963 261.509 73.695C261.253 73.427 261.125 73.041 261.125 72.537V68.817H260.393C260.329 68.817 260.275 68.799 260.231 68.763C260.187 68.723 260.165 68.663 260.165 68.583V68.157L261.161 68.031L261.407 66.153C261.419 66.093 261.445 66.045 261.485 66.009C261.529 65.969 261.585 65.949 261.653 65.949H262.193V68.043H263.951V68.817H262.193V72.465C262.193 72.721 262.255 72.911 262.379 73.035C262.503 73.159 262.663 73.221 262.859 73.221C262.971 73.221 263.067 73.207 263.147 73.179C263.231 73.147 263.303 73.113 263.363 73.077C263.423 73.041 263.473 73.009 263.513 72.981C263.557 72.949 263.595 72.933 263.627 72.933C263.683 72.933 263.733 72.967 263.777 73.035L264.089 73.545C263.905 73.717 263.683 73.853 263.423 73.953C263.163 74.049 262.895 74.097 262.619 74.097ZM265.66 69.141C265.852 68.725 266.088 68.401 266.368 68.169C266.648 67.933 266.99 67.815 267.394 67.815C267.522 67.815 267.644 67.829 267.76 67.857C267.88 67.885 267.986 67.929 268.078 67.989L268 68.787C267.976 68.887 267.916 68.937 267.82 68.937C267.764 68.937 267.682 68.925 267.574 68.901C267.466 68.877 267.344 68.865 267.208 68.865C267.016 68.865 266.844 68.893 266.692 68.949C266.544 69.005 266.41 69.089 266.29 69.201C266.174 69.309 266.068 69.445 265.972 69.609C265.88 69.769 265.796 69.953 265.72 70.161V74.001H264.646V67.923H265.258C265.374 67.923 265.454 67.945 265.498 67.989C265.542 68.033 265.572 68.109 265.588 68.217L265.66 69.141ZM271.809 71.265C271.317 71.281 270.897 71.321 270.549 71.385C270.205 71.445 269.923 71.525 269.703 71.625C269.487 71.725 269.329 71.843 269.229 71.979C269.133 72.115 269.085 72.267 269.085 72.435C269.085 72.595 269.111 72.733 269.163 72.849C269.215 72.965 269.285 73.061 269.373 73.137C269.465 73.209 269.571 73.263 269.691 73.299C269.815 73.331 269.947 73.347 270.087 73.347C270.275 73.347 270.447 73.329 270.603 73.293C270.759 73.253 270.905 73.197 271.041 73.125C271.181 73.053 271.313 72.967 271.437 72.867C271.565 72.767 271.689 72.653 271.809 72.525V71.265ZM268.359 68.781C268.695 68.457 269.057 68.215 269.445 68.055C269.833 67.895 270.263 67.815 270.735 67.815C271.075 67.815 271.377 67.871 271.641 67.983C271.905 68.095 272.127 68.251 272.307 68.451C272.487 68.651 272.623 68.893 272.715 69.177C272.807 69.461 272.853 69.773 272.853 70.113V74.001H272.379C272.275 74.001 272.195 73.985 272.139 73.953C272.083 73.917 272.039 73.849 272.007 73.749L271.887 73.173C271.727 73.321 271.571 73.453 271.419 73.569C271.267 73.681 271.107 73.777 270.939 73.857C270.771 73.933 270.591 73.991 270.399 74.031C270.211 74.075 270.001 74.097 269.769 74.097C269.533 74.097 269.311 74.065 269.103 74.001C268.895 73.933 268.713 73.833 268.557 73.701C268.405 73.569 268.283 73.403 268.191 73.203C268.103 72.999 268.059 72.759 268.059 72.483C268.059 72.243 268.125 72.013 268.257 71.793C268.389 71.569 268.603 71.371 268.899 71.199C269.195 71.027 269.581 70.887 270.057 70.779C270.533 70.667 271.117 70.603 271.809 70.587V70.113C271.809 69.641 271.707 69.285 271.503 69.045C271.299 68.801 271.001 68.679 270.609 68.679C270.345 68.679 270.123 68.713 269.943 68.781C269.767 68.845 269.613 68.919 269.481 69.003C269.353 69.083 269.241 69.157 269.145 69.225C269.053 69.289 268.961 69.321 268.869 69.321C268.797 69.321 268.735 69.303 268.683 69.267C268.631 69.227 268.587 69.179 268.551 69.123L268.359 68.781ZM278.302 69.003C278.27 69.047 278.238 69.081 278.206 69.105C278.174 69.129 278.13 69.141 278.074 69.141C278.014 69.141 277.948 69.117 277.876 69.069C277.804 69.017 277.714 68.961 277.606 68.901C277.502 68.841 277.372 68.787 277.216 68.739C277.064 68.687 276.876 68.661 276.652 68.661C276.352 68.661 276.088 68.715 275.86 68.823C275.632 68.927 275.44 69.079 275.284 69.279C275.132 69.479 275.016 69.721 274.936 70.005C274.86 70.289 274.822 70.607 274.822 70.959C274.822 71.327 274.864 71.655 274.948 71.943C275.032 72.227 275.15 72.467 275.302 72.663C275.458 72.855 275.644 73.003 275.86 73.107C276.08 73.207 276.326 73.257 276.598 73.257C276.858 73.257 277.072 73.227 277.24 73.167C277.408 73.103 277.546 73.033 277.654 72.957C277.766 72.881 277.858 72.813 277.93 72.753C278.006 72.689 278.08 72.657 278.152 72.657C278.24 72.657 278.308 72.691 278.356 72.759L278.656 73.149C278.524 73.313 278.374 73.453 278.206 73.569C278.038 73.685 277.856 73.783 277.66 73.863C277.468 73.939 277.266 73.995 277.054 74.031C276.842 74.067 276.626 74.085 276.406 74.085C276.026 74.085 275.672 74.015 275.344 73.875C275.02 73.735 274.738 73.533 274.498 73.269C274.258 73.001 274.07 72.673 273.934 72.285C273.798 71.897 273.73 71.455 273.73 70.959C273.73 70.507 273.792 70.089 273.916 69.705C274.044 69.321 274.228 68.991 274.468 68.715C274.712 68.435 275.01 68.217 275.362 68.061C275.718 67.905 276.126 67.827 276.586 67.827C277.014 67.827 277.39 67.897 277.714 68.037C278.042 68.173 278.332 68.367 278.584 68.619L278.302 69.003ZM281.261 74.097C280.781 74.097 280.411 73.963 280.151 73.695C279.895 73.427 279.767 73.041 279.767 72.537V68.817H279.035C278.971 68.817 278.917 68.799 278.873 68.763C278.829 68.723 278.807 68.663 278.807 68.583V68.157L279.803 68.031L280.049 66.153C280.061 66.093 280.087 66.045 280.127 66.009C280.171 65.969 280.227 65.949 280.295 65.949H280.835V68.043H282.593V68.817H280.835V72.465C280.835 72.721 280.897 72.911 281.021 73.035C281.145 73.159 281.305 73.221 281.501 73.221C281.613 73.221 281.709 73.207 281.789 73.179C281.873 73.147 281.945 73.113 282.005 73.077C282.065 73.041 282.115 73.009 282.155 72.981C282.199 72.949 282.237 72.933 282.269 72.933C282.325 72.933 282.375 72.967 282.419 73.035L282.731 73.545C282.547 73.717 282.325 73.853 282.065 73.953C281.805 74.049 281.537 74.097 281.261 74.097Z" fill="#767676"/>
<path d="M325.998 60.031C325.998 60.511 325.938 60.941 325.818 61.321C325.702 61.701 325.528 62.023 325.296 62.287C325.068 62.547 324.786 62.747 324.45 62.887C324.114 63.027 323.728 63.097 323.292 63.097C322.896 63.097 322.492 63.041 322.08 62.929C322.088 62.813 322.098 62.699 322.11 62.587C322.122 62.471 322.132 62.357 322.14 62.245C322.148 62.177 322.172 62.123 322.212 62.083C322.256 62.039 322.322 62.017 322.41 62.017C322.482 62.017 322.576 62.035 322.692 62.071C322.812 62.107 322.972 62.125 323.172 62.125C323.436 62.125 323.672 62.085 323.88 62.005C324.088 61.925 324.262 61.801 324.402 61.633C324.542 61.465 324.648 61.251 324.72 60.991C324.796 60.727 324.834 60.415 324.834 60.055V54.403H325.998V60.031ZM329.799 56.827C330.243 56.827 330.643 56.901 330.999 57.049C331.355 57.197 331.659 57.407 331.911 57.679C332.163 57.951 332.355 58.281 332.487 58.669C332.623 59.053 332.691 59.483 332.691 59.959C332.691 60.439 332.623 60.871 332.487 61.255C332.355 61.639 332.163 61.967 331.911 62.239C331.659 62.511 331.355 62.721 330.999 62.869C330.643 63.013 330.243 63.085 329.799 63.085C329.351 63.085 328.947 63.013 328.587 62.869C328.231 62.721 327.927 62.511 327.675 62.239C327.423 61.967 327.229 61.639 327.093 61.255C326.961 60.871 326.895 60.439 326.895 59.959C326.895 59.483 326.961 59.053 327.093 58.669C327.229 58.281 327.423 57.951 327.675 57.679C327.927 57.407 328.231 57.197 328.587 57.049C328.947 56.901 329.351 56.827 329.799 56.827ZM329.799 62.251C330.399 62.251 330.847 62.051 331.143 61.651C331.439 61.247 331.587 60.685 331.587 59.965C331.587 59.241 331.439 58.677 331.143 58.273C330.847 57.869 330.399 57.667 329.799 57.667C329.495 57.667 329.229 57.719 329.001 57.823C328.777 57.927 328.589 58.077 328.437 58.273C328.289 58.469 328.177 58.711 328.101 58.999C328.029 59.283 327.993 59.605 327.993 59.965C327.993 60.685 328.141 61.247 328.437 61.651C328.737 62.051 329.191 62.251 329.799 62.251ZM334.766 56.923V63.001H333.698V56.923H334.766ZM334.994 55.015C334.994 55.119 334.972 55.217 334.928 55.309C334.888 55.397 334.832 55.477 334.76 55.549C334.692 55.617 334.61 55.671 334.514 55.711C334.422 55.751 334.324 55.771 334.22 55.771C334.116 55.771 334.018 55.751 333.926 55.711C333.838 55.671 333.76 55.617 333.692 55.549C333.624 55.477 333.57 55.397 333.53 55.309C333.49 55.217 333.47 55.119 333.47 55.015C333.47 54.911 333.49 54.813 333.53 54.721C333.57 54.625 333.624 54.543 333.692 54.475C333.76 54.403 333.838 54.347 333.926 54.307C334.018 54.267 334.116 54.247 334.22 54.247C334.324 54.247 334.422 54.267 334.514 54.307C334.61 54.347 334.692 54.403 334.76 54.475C334.832 54.543 334.888 54.625 334.928 54.721C334.972 54.813 334.994 54.911 334.994 55.015ZM337.12 57.805C337.252 57.657 337.392 57.523 337.54 57.403C337.688 57.283 337.844 57.181 338.008 57.097C338.176 57.009 338.352 56.943 338.536 56.899C338.724 56.851 338.926 56.827 339.142 56.827C339.474 56.827 339.766 56.883 340.018 56.995C340.274 57.103 340.486 57.259 340.654 57.463C340.826 57.663 340.956 57.905 341.044 58.189C341.132 58.473 341.176 58.787 341.176 59.131V63.001H340.102V59.131C340.102 58.671 339.996 58.315 339.784 58.063C339.576 57.807 339.258 57.679 338.83 57.679C338.514 57.679 338.218 57.755 337.942 57.907C337.67 58.059 337.418 58.265 337.186 58.525V63.001H336.112V56.923H336.754C336.906 56.923 337 56.997 337.036 57.145L337.12 57.805ZM346.924 63.097C346.444 63.097 346.074 62.963 345.814 62.695C345.558 62.427 345.43 62.041 345.43 61.537V57.817H344.698C344.634 57.817 344.58 57.799 344.536 57.763C344.492 57.723 344.47 57.663 344.47 57.583V57.157L345.466 57.031L345.712 55.153C345.724 55.093 345.75 55.045 345.79 55.009C345.834 54.969 345.89 54.949 345.958 54.949H346.498V57.043H348.256V57.817H346.498V61.465C346.498 61.721 346.56 61.911 346.684 62.035C346.808 62.159 346.968 62.221 347.164 62.221C347.276 62.221 347.372 62.207 347.452 62.179C347.536 62.147 347.608 62.113 347.668 62.077C347.728 62.041 347.778 62.009 347.818 61.981C347.862 61.949 347.9 61.933 347.932 61.933C347.988 61.933 348.038 61.967 348.082 62.035L348.394 62.545C348.21 62.717 347.988 62.853 347.728 62.953C347.468 63.049 347.2 63.097 346.924 63.097ZM350.025 57.733C350.285 57.457 350.573 57.237 350.889 57.073C351.205 56.909 351.569 56.827 351.981 56.827C352.313 56.827 352.605 56.883 352.857 56.995C353.113 57.103 353.325 57.259 353.493 57.463C353.665 57.663 353.795 57.905 353.883 58.189C353.971 58.473 354.015 58.787 354.015 59.131V63.001H352.941V59.131C352.941 58.671 352.835 58.315 352.623 58.063C352.415 57.807 352.097 57.679 351.669 57.679C351.353 57.679 351.057 57.755 350.781 57.907C350.509 58.059 350.257 58.265 350.025 58.525V63.001H348.951V54.163H350.025V57.733ZM359.302 59.299C359.302 59.051 359.266 58.825 359.194 58.621C359.126 58.413 359.024 58.235 358.888 58.087C358.756 57.935 358.594 57.819 358.402 57.739C358.21 57.655 357.992 57.613 357.748 57.613C357.236 57.613 356.83 57.763 356.53 58.063C356.234 58.359 356.05 58.771 355.978 59.299H359.302ZM360.166 62.149C360.034 62.309 359.876 62.449 359.692 62.569C359.508 62.685 359.31 62.781 359.098 62.857C358.89 62.933 358.674 62.989 358.45 63.025C358.226 63.065 358.004 63.085 357.784 63.085C357.364 63.085 356.976 63.015 356.62 62.875C356.268 62.731 355.962 62.523 355.702 62.251C355.446 61.975 355.246 61.635 355.102 61.231C354.958 60.827 354.886 60.363 354.886 59.839C354.886 59.415 354.95 59.019 355.078 58.651C355.21 58.283 355.398 57.965 355.642 57.697C355.886 57.425 356.184 57.213 356.536 57.061C356.888 56.905 357.284 56.827 357.724 56.827C358.088 56.827 358.424 56.889 358.732 57.013C359.044 57.133 359.312 57.309 359.536 57.541C359.764 57.769 359.942 58.053 360.07 58.393C360.198 58.729 360.262 59.113 360.262 59.545C360.262 59.713 360.244 59.825 360.208 59.881C360.172 59.937 360.104 59.965 360.004 59.965H355.942C355.954 60.349 356.006 60.683 356.098 60.967C356.194 61.251 356.326 61.489 356.494 61.681C356.662 61.869 356.862 62.011 357.094 62.107C357.326 62.199 357.586 62.245 357.874 62.245C358.142 62.245 358.372 62.215 358.564 62.155C358.76 62.091 358.928 62.023 359.068 61.951C359.208 61.879 359.324 61.813 359.416 61.753C359.512 61.689 359.594 61.657 359.662 61.657C359.75 61.657 359.818 61.691 359.866 61.759L360.166 62.149ZM326.561 72.225C326.625 72.225 326.681 72.251 326.729 72.303L327.191 72.801C326.839 73.209 326.411 73.527 325.907 73.755C325.407 73.983 324.801 74.097 324.089 74.097C323.473 74.097 322.913 73.991 322.409 73.779C321.905 73.563 321.475 73.263 321.119 72.879C320.763 72.491 320.487 72.027 320.291 71.487C320.095 70.947 319.997 70.353 319.997 69.705C319.997 69.057 320.099 68.463 320.303 67.923C320.507 67.383 320.793 66.919 321.161 66.531C321.533 66.143 321.977 65.843 322.493 65.631C323.009 65.415 323.579 65.307 324.203 65.307C324.815 65.307 325.355 65.405 325.823 65.601C326.291 65.797 326.703 66.063 327.059 66.399L326.675 66.933C326.651 66.973 326.619 67.007 326.579 67.035C326.543 67.059 326.493 67.071 326.429 67.071C326.357 67.071 326.269 67.033 326.165 66.957C326.061 66.877 325.925 66.789 325.757 66.693C325.589 66.597 325.379 66.511 325.127 66.435C324.875 66.355 324.565 66.315 324.197 66.315C323.753 66.315 323.347 66.393 322.979 66.549C322.611 66.701 322.293 66.923 322.025 67.215C321.761 67.507 321.555 67.863 321.407 68.283C321.259 68.703 321.185 69.177 321.185 69.705C321.185 70.241 321.261 70.719 321.413 71.139C321.569 71.559 321.779 71.915 322.043 72.207C322.311 72.495 322.625 72.715 322.985 72.867C323.349 73.019 323.741 73.095 324.161 73.095C324.417 73.095 324.647 73.081 324.851 73.053C325.059 73.021 325.249 72.973 325.421 72.909C325.597 72.845 325.759 72.765 325.907 72.669C326.059 72.569 326.209 72.451 326.357 72.315C326.425 72.255 326.493 72.225 326.561 72.225ZM330.325 67.827C330.769 67.827 331.169 67.901 331.525 68.049C331.881 68.197 332.185 68.407 332.437 68.679C332.689 68.951 332.881 69.281 333.013 69.669C333.149 70.053 333.217 70.483 333.217 70.959C333.217 71.439 333.149 71.871 333.013 72.255C332.881 72.639 332.689 72.967 332.437 73.239C332.185 73.511 331.881 73.721 331.525 73.869C331.169 74.013 330.769 74.085 330.325 74.085C329.877 74.085 329.473 74.013 329.113 73.869C328.757 73.721 328.453 73.511 328.201 73.239C327.949 72.967 327.755 72.639 327.619 72.255C327.487 71.871 327.421 71.439 327.421 70.959C327.421 70.483 327.487 70.053 327.619 69.669C327.755 69.281 327.949 68.951 328.201 68.679C328.453 68.407 328.757 68.197 329.113 68.049C329.473 67.901 329.877 67.827 330.325 67.827ZM330.325 73.251C330.925 73.251 331.373 73.051 331.669 72.651C331.965 72.247 332.113 71.685 332.113 70.965C332.113 70.241 331.965 69.677 331.669 69.273C331.373 68.869 330.925 68.667 330.325 68.667C330.021 68.667 329.755 68.719 329.527 68.823C329.303 68.927 329.115 69.077 328.963 69.273C328.815 69.469 328.703 69.711 328.627 69.999C328.555 70.283 328.519 70.605 328.519 70.965C328.519 71.685 328.667 72.247 328.963 72.651C329.263 73.051 329.717 73.251 330.325 73.251ZM337.458 71.265C336.966 71.281 336.546 71.321 336.198 71.385C335.854 71.445 335.572 71.525 335.352 71.625C335.136 71.725 334.978 71.843 334.878 71.979C334.782 72.115 334.734 72.267 334.734 72.435C334.734 72.595 334.76 72.733 334.812 72.849C334.864 72.965 334.934 73.061 335.022 73.137C335.114 73.209 335.22 73.263 335.34 73.299C335.464 73.331 335.596 73.347 335.736 73.347C335.924 73.347 336.096 73.329 336.252 73.293C336.408 73.253 336.554 73.197 336.69 73.125C336.83 73.053 336.962 72.967 337.086 72.867C337.214 72.767 337.338 72.653 337.458 72.525V71.265ZM334.008 68.781C334.344 68.457 334.706 68.215 335.094 68.055C335.482 67.895 335.912 67.815 336.384 67.815C336.724 67.815 337.026 67.871 337.29 67.983C337.554 68.095 337.776 68.251 337.956 68.451C338.136 68.651 338.272 68.893 338.364 69.177C338.456 69.461 338.502 69.773 338.502 70.113V74.001H338.028C337.924 74.001 337.844 73.985 337.788 73.953C337.732 73.917 337.688 73.849 337.656 73.749L337.536 73.173C337.376 73.321 337.22 73.453 337.068 73.569C336.916 73.681 336.756 73.777 336.588 73.857C336.42 73.933 336.24 73.991 336.048 74.031C335.86 74.075 335.65 74.097 335.418 74.097C335.182 74.097 334.96 74.065 334.752 74.001C334.544 73.933 334.362 73.833 334.206 73.701C334.054 73.569 333.932 73.403 333.84 73.203C333.752 72.999 333.708 72.759 333.708 72.483C333.708 72.243 333.774 72.013 333.906 71.793C334.038 71.569 334.252 71.371 334.548 71.199C334.844 71.027 335.23 70.887 335.706 70.779C336.182 70.667 336.766 70.603 337.458 70.587V70.113C337.458 69.641 337.356 69.285 337.152 69.045C336.948 68.801 336.65 68.679 336.258 68.679C335.994 68.679 335.772 68.713 335.592 68.781C335.416 68.845 335.262 68.919 335.13 69.003C335.002 69.083 334.89 69.157 334.794 69.225C334.702 69.289 334.61 69.321 334.518 69.321C334.446 69.321 334.384 69.303 334.332 69.267C334.28 69.227 334.236 69.179 334.2 69.123L334.008 68.781ZM340.825 65.163V74.001H339.757V65.163H340.825ZM343.277 67.923V74.001H342.209V67.923H343.277ZM343.505 66.015C343.505 66.119 343.483 66.217 343.439 66.309C343.399 66.397 343.343 66.477 343.271 66.549C343.203 66.617 343.121 66.671 343.025 66.711C342.933 66.751 342.835 66.771 342.731 66.771C342.627 66.771 342.529 66.751 342.437 66.711C342.349 66.671 342.271 66.617 342.203 66.549C342.135 66.477 342.081 66.397 342.041 66.309C342.001 66.217 341.981 66.119 341.981 66.015C341.981 65.911 342.001 65.813 342.041 65.721C342.081 65.625 342.135 65.543 342.203 65.475C342.271 65.403 342.349 65.347 342.437 65.307C342.529 65.267 342.627 65.247 342.731 65.247C342.835 65.247 342.933 65.267 343.025 65.307C343.121 65.347 343.203 65.403 343.271 65.475C343.343 65.543 343.399 65.625 343.439 65.721C343.483 65.813 343.505 65.911 343.505 66.015ZM346.49 74.097C346.01 74.097 345.64 73.963 345.38 73.695C345.124 73.427 344.996 73.041 344.996 72.537V68.817H344.264C344.2 68.817 344.146 68.799 344.102 68.763C344.058 68.723 344.036 68.663 344.036 68.583V68.157L345.032 68.031L345.278 66.153C345.29 66.093 345.316 66.045 345.356 66.009C345.4 65.969 345.456 65.949 345.524 65.949H346.064V68.043H347.822V68.817H346.064V72.465C346.064 72.721 346.126 72.911 346.25 73.035C346.374 73.159 346.534 73.221 346.73 73.221C346.842 73.221 346.938 73.207 347.018 73.179C347.102 73.147 347.174 73.113 347.234 73.077C347.294 73.041 347.344 73.009 347.384 72.981C347.428 72.949 347.466 72.933 347.498 72.933C347.554 72.933 347.604 72.967 347.648 73.035L347.96 73.545C347.776 73.717 347.554 73.853 347.294 73.953C347.034 74.049 346.766 74.097 346.49 74.097ZM349.644 67.923V74.001H348.576V67.923H349.644ZM349.872 66.015C349.872 66.119 349.85 66.217 349.806 66.309C349.766 66.397 349.71 66.477 349.638 66.549C349.57 66.617 349.488 66.671 349.392 66.711C349.3 66.751 349.202 66.771 349.098 66.771C348.994 66.771 348.896 66.751 348.804 66.711C348.716 66.671 348.638 66.617 348.57 66.549C348.502 66.477 348.448 66.397 348.408 66.309C348.368 66.217 348.348 66.119 348.348 66.015C348.348 65.911 348.368 65.813 348.408 65.721C348.448 65.625 348.502 65.543 348.57 65.475C348.638 65.403 348.716 65.347 348.804 65.307C348.896 65.267 348.994 65.247 349.098 65.247C349.202 65.247 349.3 65.267 349.392 65.307C349.488 65.347 349.57 65.403 349.638 65.475C349.71 65.543 349.766 65.625 349.806 65.721C349.85 65.813 349.872 65.911 349.872 66.015ZM353.553 67.827C353.997 67.827 354.397 67.901 354.753 68.049C355.109 68.197 355.413 68.407 355.665 68.679C355.917 68.951 356.109 69.281 356.241 69.669C356.377 70.053 356.445 70.483 356.445 70.959C356.445 71.439 356.377 71.871 356.241 72.255C356.109 72.639 355.917 72.967 355.665 73.239C355.413 73.511 355.109 73.721 354.753 73.869C354.397 74.013 353.997 74.085 353.553 74.085C353.105 74.085 352.701 74.013 352.341 73.869C351.985 73.721 351.681 73.511 351.429 73.239C351.177 72.967 350.983 72.639 350.847 72.255C350.715 71.871 350.649 71.439 350.649 70.959C350.649 70.483 350.715 70.053 350.847 69.669C350.983 69.281 351.177 68.951 351.429 68.679C351.681 68.407 351.985 68.197 352.341 68.049C352.701 67.901 353.105 67.827 353.553 67.827ZM353.553 73.251C354.153 73.251 354.601 73.051 354.897 72.651C355.193 72.247 355.341 71.685 355.341 70.965C355.341 70.241 355.193 69.677 354.897 69.273C354.601 68.869 354.153 68.667 353.553 68.667C353.249 68.667 352.983 68.719 352.755 68.823C352.531 68.927 352.343 69.077 352.191 69.273C352.043 69.469 351.931 69.711 351.855 69.999C351.783 70.283 351.747 70.605 351.747 70.965C351.747 71.685 351.895 72.247 352.191 72.651C352.491 73.051 352.945 73.251 353.553 73.251ZM358.4 68.805C358.532 68.657 358.672 68.523 358.82 68.403C358.968 68.283 359.124 68.181 359.288 68.097C359.456 68.009 359.632 67.943 359.816 67.899C360.004 67.851 360.206 67.827 360.422 67.827C360.754 67.827 361.046 67.883 361.298 67.995C361.554 68.103 361.766 68.259 361.934 68.463C362.106 68.663 362.236 68.905 362.324 69.189C362.412 69.473 362.456 69.787 362.456 70.131V74.001H361.382V70.131C361.382 69.671 361.276 69.315 361.064 69.063C360.856 68.807 360.538 68.679 360.11 68.679C359.794 68.679 359.498 68.755 359.222 68.907C358.95 69.059 358.698 69.265 358.466 69.525V74.001H357.392V67.923H358.034C358.186 67.923 358.28 67.997 358.316 68.145L358.4 68.805Z" fill="#767676"/>
<path d="M197.332 25.1445L244.332 25.1445" stroke="#4F0774" stroke-width="3"/>
<line x1="42.2734" y1="24.7842" x2="84.2734" y2="24.7842" stroke="#4F0774" stroke-width="3"/>
<line x1="119.332" y1="24.6445" x2="162.332" y2="24.6445" stroke="#4F0774" stroke-width="3"/>
<line x1="281.414" y1="24.7842" x2="323.414" y2="24.7842" stroke="#4F0774" stroke-width="3"/>
<circle cx="341.286" cy="25.0986" r="18.4541" stroke="#7B7B7B" stroke-width="3"/>
<g clip-path="url(#clip0_738_43821)">
<path d="M336.314 15.2958C337.46 15.2958 338.39 14.3665 338.39 13.2202C338.39 12.0738 337.46 11.1445 336.314 11.1445C335.168 11.1445 334.238 12.0738 334.238 13.2202C334.238 14.3665 335.168 15.2958 336.314 15.2958Z" fill="#7B7B7B"/>
<path d="M345.365 20.0702C346.511 20.0702 347.44 19.1409 347.44 17.9946C347.44 16.8482 346.511 15.9189 345.365 15.9189C344.218 15.9189 343.289 16.8482 343.289 17.9946C343.289 19.1409 344.218 20.0702 345.365 20.0702Z" fill="#7B7B7B"/>
<path fill-rule="evenodd" clip-rule="evenodd" d="M340.506 35.6024C340.504 35.6026 340.502 35.6027 340.501 35.6028L340.501 35.6028M340.501 35.6028L340.503 35.6026L340.505 35.6025L340.506 35.6024M340.501 35.6028L340.501 35.6028C340.476 35.6046 340.451 35.6055 340.425 35.6055H328.366C327.793 35.6055 327.328 35.1409 327.328 34.5677C327.328 33.9945 327.793 33.5299 328.366 33.5299H340.394C340.4 33.5295 340.408 33.5292 340.416 33.5288C340.452 33.5271 340.502 33.5254 340.562 33.5247C340.683 33.5234 340.849 33.5262 341.047 33.5417C341.437 33.5722 341.977 33.6542 342.538 33.8705C343.103 34.088 343.718 34.4535 344.203 35.0658C344.696 35.6876 345.001 36.4966 345.043 37.5032C345.067 38.0759 344.622 38.5594 344.049 38.5832C343.476 38.607 342.993 38.162 342.969 37.5893C342.943 36.9717 342.767 36.5964 342.576 36.3551C342.378 36.1044 342.106 35.9283 341.792 35.8072C341.475 35.6849 341.145 35.6314 340.885 35.611C340.757 35.601 340.653 35.5995 340.585 35.6002C340.551 35.6006 340.526 35.6015 340.513 35.6022L340.501 35.6028Z" fill="#7B7B7B"/>
<path d="M331.207 26.0172C330.937 27.8023 328.82 32.2441 328.82 32.2441L328.862 32.2649C328.841 32.3375 328.82 32.4102 328.82 32.4932C328.82 33.0433 329.267 33.4895 329.817 33.4895C330.336 33.4895 330.74 33.0952 330.792 32.5866L333.252 27.6674L331.197 26.0068L331.207 26.0172Z" fill="#7B7B7B"/>
<path d="M354.612 23.142C354.539 22.8826 354.144 22.5504 353.978 22.3325L353.376 21.5749C353.096 21.222 352.93 20.9003 352.494 20.7862C351.737 20.5786 350.969 20.3918 350.201 20.1946C350.004 20.1427 349.806 20.0908 349.609 20.1012C349.454 20.1012 349.298 20.1531 349.153 20.1946C347.928 20.5267 346.734 20.8899 345.572 21.3985C344.929 21.6787 344.285 21.99 343.611 22.1872C343.102 22.3325 342.573 22.4155 342.054 22.374C341.493 22.3221 341.338 22.1457 340.985 21.7306C339.947 20.5163 338.92 19.3021 337.882 18.0878C337.757 17.9425 337.633 17.7972 337.477 17.6934C337.353 17.6104 337.207 17.5481 337.062 17.4963C335.941 17.0396 334.924 16.0226 333.71 15.8461C332.506 15.6801 331.333 16.2716 330.223 16.6452C330.077 16.6971 329.942 16.7386 329.828 16.8321C329.735 16.9047 329.662 17.0085 329.59 17.1019C329.299 17.517 328.998 17.9321 328.707 18.3473C328.635 18.4511 328.344 18.752 328.272 18.9285C327.981 19.0841 327.773 19.3851 327.773 19.7483C327.773 20.2672 328.199 20.6927 328.718 20.6927C329.206 20.6927 329.6 20.3191 329.642 19.8314L330.648 18.3369C330.7 18.2642 330.742 18.1916 330.804 18.1397C330.877 18.0774 330.97 18.0463 331.063 18.0152C331.458 17.8803 331.862 17.7453 332.267 17.6416C332.713 17.517 332.931 17.3717 332.859 17.9218C332.776 18.6275 332.433 19.2606 332.215 19.9248C331.935 20.7965 331.655 21.6683 331.406 22.5401C331.364 22.6957 331.323 22.8514 331.333 23.0071C331.333 23.1213 331.375 23.2354 331.416 23.3392C331.634 23.9826 331.925 24.6676 332.485 25.0931C333.606 25.9441 334.685 26.8678 335.775 27.7707C335.837 27.8226 335.9 27.8745 335.951 27.9471C336.003 28.0198 336.014 28.1132 336.034 28.1962C336.346 29.6388 336.668 31.071 336.979 32.5135C336.979 32.5239 336.979 32.5343 336.979 32.5447C336.979 33.0636 337.342 33.4787 337.788 33.4787C338.235 33.4787 338.598 33.0636 338.598 32.5447C338.598 32.2852 338.505 32.0465 338.359 31.8805C338.245 31.1021 338.121 30.3237 338.006 29.5454C337.913 28.9123 337.871 28.2481 337.726 27.6254C337.56 26.9093 337.166 26.2762 336.813 25.6432C336.45 25.0205 336.097 24.3563 335.993 23.6402C335.92 23.1005 336.066 22.6335 336.201 22.1249C336.346 21.5438 336.418 20.5786 336.761 20.1012C337.674 20.7965 338.473 21.7928 339.293 22.6127C339.439 22.758 339.594 22.9137 339.698 23.1005C339.74 23.1731 339.823 24.1072 339.75 24.0864L340.414 24.2525L344.69 23.6194L345.977 23.7751C346.496 24.7091 346.932 25.7677 347.565 26.6291C347.679 26.7951 347.783 26.9923 347.731 27.1895C347.658 27.4282 347.388 27.5216 347.16 27.5943L345.261 28.1547C344.306 28.4349 343.87 29.1925 343.247 29.919C342.645 30.6247 342.043 31.3408 341.369 31.9739C340.424 32.8664 340.362 33.6344 340.362 33.6344H342.116C342.863 33.0428 343.611 32.4409 344.358 31.8493C344.856 31.455 345.333 30.9568 345.873 30.6351C346.485 30.2718 347.201 30.1369 347.886 30.0228C349.153 30.0228 350.606 29.535 351.861 29.317C351.934 29.3067 352.017 29.2859 352.069 29.234C352.121 29.1821 352.141 29.1199 352.152 29.0472C352.505 27.5839 351.975 26.7536 351.29 25.5498C350.844 24.761 350.388 23.9723 349.941 23.1835C349.879 23.0797 349.827 22.976 349.796 22.8618C349.568 21.6372 351.28 22.3533 351.83 22.4363C351.913 22.4467 351.996 22.4674 352.058 22.5089C352.131 22.5504 352.173 22.6127 352.225 22.675C352.515 23.0486 352.806 23.4845 353.117 23.8789C353.159 24.3459 353.532 24.7091 354.01 24.7091C354.508 24.7091 354.923 24.3044 354.923 23.7958C354.923 23.5468 354.819 23.3184 354.653 23.1524L354.612 23.142Z" fill="#7B7B7B"/>
<path d="M353.541 36.4362C352.898 35.1908 352.275 33.9454 351.6 32.7208C351.549 32.6378 351.507 32.5443 351.497 32.4509C351.497 32.3679 351.507 32.2953 351.528 32.2122C351.6 31.8905 351.673 31.548 351.787 31.2471C351.735 31.382 349.38 31.5584 349.089 31.6311C349.079 32.1707 349.006 32.7415 349.193 33.2708C349.514 34.1841 350.272 35.0974 350.781 35.938C351.082 36.4362 351.383 36.9447 351.694 37.4429C351.829 37.8684 352.223 38.1901 352.69 38.1901C353.282 38.1901 353.759 37.7127 353.759 37.1211C353.759 36.8721 353.655 36.6541 353.52 36.4673L353.552 36.4362H353.541Z" fill="#7B7B7B"/>
</g>
<defs>
<clipPath id="clip0_738_43821">
<rect width="27.5645" height="27.44" fill="white" transform="translate(327.328 11.1445)"/>
</clipPath>
</defs>
</svg>
