<svg width="33" height="35" viewBox="0 0 33 35" fill="none" xmlns="http://www.w3.org/2000/svg">
<g id="Frame" clip-path="url(#clip0_738_42323)">
<path id="Vector" d="M29.8384 34.3384C29.2394 34.3384 28.6245 34.0847 28.1673 33.5943L1.09801 4.55976C0.16785 3.56207 0.16785 1.95562 1.09801 0.974833C2.02817 -0.0228608 3.51013 -0.0228608 4.44029 0.974833L31.5096 30.0094C32.4397 31.0071 32.4397 32.6136 31.5096 33.5943C31.0524 34.0847 30.4375 34.3384 29.8384 34.3384Z" fill="black"/>
<path id="Vector_2" d="M2.76915 34.3384C2.17006 34.3384 1.55521 34.0847 1.09801 33.5943C0.16785 32.5966 0.16785 30.9902 1.09801 30.0094L28.1673 0.974833C29.0975 -0.0228608 30.5952 -0.0228608 31.5096 0.974833C32.4397 1.97253 32.4397 3.57898 31.5096 4.55976L4.44029 33.5943C3.98309 34.0847 3.36824 34.3384 2.76915 34.3384Z" fill="black"/>
</g>
<defs>
<clipPath id="clip0_738_42323">
<rect width="31.7989" height="34.1076" fill="white" transform="translate(0.404297 0.231445)"/>
</clipPath>
</defs>
</svg>
