<svg xmlns="http://www.w3.org/2000/svg" width="103" height="103" viewBox="0 0 103 103" fill="none">
<path d="M86.7683 0.34082H15.7108C7.0771 0.34082 0.078125 7.33979 0.078125 15.9735V87.031C0.078125 95.6646 7.0771 102.664 15.7108 102.664H86.7683C95.4019 102.664 102.401 95.6646 102.401 87.031V15.9735C102.401 7.33979 95.4019 0.34082 86.7683 0.34082Z" fill="#1A80D5"/>
<path d="M29.1367 23.0668V79.9412H72.469V33.8959H62.9899C62.6307 33.8959 62.2862 33.7532 62.0323 33.4992C61.7783 33.2453 61.6356 32.9007 61.6356 32.5415V23.0625L29.1367 23.0668ZM64.3443 24.4211V31.1914H71.1146L64.3443 24.4211ZM40.648 27.1298C41.0072 27.1298 41.3517 27.2725 41.6057 27.5265C41.8597 27.7805 42.0024 28.125 42.0024 28.4842V29.3368C42.7979 29.5093 43.5506 29.8398 44.2158 30.3088C44.8811 30.7777 45.4453 31.3756 45.875 32.0669C46.0603 32.3756 46.1153 32.7452 46.028 33.0945C45.9407 33.4438 45.7183 33.744 45.4096 33.9293C45.1009 34.1146 44.7313 34.1696 44.382 34.0823C44.0327 33.995 43.7324 33.7725 43.5472 33.4639C43.2334 32.9797 42.8041 32.5811 42.2981 32.3041C41.792 32.027 41.225 31.88 40.648 31.8764C39.9214 31.8473 39.206 32.0635 38.6172 32.4904C38.3968 32.6538 38.2198 32.8689 38.1019 33.1167C37.9839 33.3645 37.9286 33.6374 37.9407 33.9115C37.9493 35.0982 39.9232 35.5345 41.1568 36.0276C42.1876 36.3515 43.1866 36.7692 44.1412 37.2754C44.7241 37.6351 45.2063 38.1366 45.543 38.733C45.8798 39.3294 46.06 40.0013 46.0669 40.6862C46.0669 41.3589 45.9169 42.0232 45.6278 42.6307C45.3386 43.2382 44.9177 43.7736 44.3956 44.1979C43.6995 44.7524 42.8793 45.1299 42.0052 45.2978V46.1021C42.0052 46.4613 41.8625 46.8059 41.6085 47.0598C41.3546 47.3138 41.0101 47.4565 40.6509 47.4565C40.2917 47.4565 39.9472 47.3138 39.6932 47.0598C39.4392 46.8059 39.2965 46.4613 39.2965 46.1021V45.2495C38.5003 45.0724 37.7475 44.7379 37.0825 44.2657C36.4174 43.7934 35.8535 43.1929 35.4239 42.4996C35.2386 42.1909 35.1836 41.8212 35.2709 41.472C35.3582 41.1227 35.5806 40.8224 35.8893 40.6372C36.198 40.4519 36.5676 40.3969 36.9169 40.4842C37.2662 40.5714 37.5665 40.7938 37.7517 41.1025C38.064 41.5898 38.4923 41.9919 38.9984 42.2727C39.5044 42.5534 40.0722 42.7042 40.6509 42.7113C41.3801 42.7344 42.0957 42.5105 42.6817 42.076C42.9011 41.9172 43.0778 41.7066 43.1958 41.4628C43.3139 41.219 43.3697 40.9497 43.3582 40.6791C43.3496 39.4682 41.3856 39.0362 40.1421 38.5473C39.1113 38.2233 38.1124 37.8056 37.1577 37.2996C36.5761 36.9448 36.0943 36.4479 35.7574 35.8558C35.4206 35.2636 35.2398 34.5956 35.232 33.9144C35.2319 33.2385 35.3817 32.5711 35.6707 31.9601C35.9597 31.3492 36.3807 30.8099 36.9033 30.3814C37.5994 29.8309 38.4204 29.4604 39.2937 29.3028V28.4984C39.2918 28.3194 39.3254 28.1417 39.3927 27.9757C39.4599 27.8098 39.5593 27.6588 39.6853 27.5315C39.8112 27.4043 39.9612 27.3032 40.1264 27.2343C40.2917 27.1653 40.469 27.1298 40.648 27.1298ZM53.5123 40.672H64.3457C64.7049 40.672 65.0494 40.8146 65.3034 41.0686C65.5574 41.3226 65.7001 41.6671 65.7001 42.0263C65.7001 42.3855 65.5574 42.73 65.3034 42.984C65.0494 43.238 64.7049 43.3807 64.3457 43.3807H53.5109C53.1517 43.3807 52.8072 43.238 52.5532 42.984C52.2992 42.73 52.1565 42.3855 52.1565 42.0263C52.1565 41.6671 52.2992 41.3226 52.5532 41.0686C52.8072 40.8146 53.1517 40.672 53.5109 40.672H53.5123ZM37.2629 50.151H64.3443C64.7035 50.151 65.048 50.2938 65.302 50.5477C65.5559 50.8017 65.6986 51.1462 65.6986 51.5054C65.6986 51.8646 65.5559 52.2091 65.302 52.4631C65.048 52.717 64.7035 52.8597 64.3443 52.8597H37.2614C36.9022 52.8597 36.5577 52.717 36.3038 52.4631C36.0498 52.2091 35.9071 51.8646 35.9071 51.5054C35.9071 51.1462 36.0498 50.8017 36.3038 50.5477C36.5577 50.2938 36.9022 50.151 37.2614 50.151H37.2629ZM37.2629 59.6301H64.3443C64.7035 59.6301 65.048 59.7728 65.302 60.0268C65.5559 60.2808 65.6986 60.6253 65.6986 60.9845C65.6986 61.3437 65.5559 61.6881 65.302 61.9421C65.048 62.1961 64.7035 62.3388 64.3443 62.3388H37.2614C36.9022 62.3388 36.5577 62.1961 36.3038 61.9421C36.0498 61.6881 35.9071 61.3437 35.9071 60.9845C35.9071 60.6253 36.0498 60.2808 36.3038 60.0268C36.5577 59.7728 36.9022 59.6301 37.2614 59.6301H37.2629ZM37.2629 69.1092H64.3443C64.7035 69.1092 65.048 69.2518 65.302 69.5058C65.5559 69.7598 65.6986 70.1043 65.6986 70.4635C65.6986 70.8227 65.5559 71.1672 65.302 71.4212C65.048 71.6752 64.7035 71.8179 64.3443 71.8179H37.2614C36.9022 71.8179 36.5577 71.6752 36.3038 71.4212C36.0498 71.1672 35.9071 70.8227 35.9071 70.4635C35.9071 70.1043 36.0498 69.7598 36.3038 69.5058C36.5577 69.2518 36.9022 69.1092 37.2614 69.1092H37.2629Z" fill="#F9FAF9"/>
</svg>
