<svg width="609" height="1317" viewBox="0 0 609 1317" fill="none" xmlns="http://www.w3.org/2000/svg">
<g clip-path="url(#clip0_738_44335)">
<rect width="608.252" height="1315.98" transform="translate(0.699219 0.371094)" fill="#3C1550"/>
<rect x="-94.5176" y="483.561" width="217.436" height="8.5269" rx="4.26345" fill="#F2F2F2" fill-opacity="0.2"/>
<rect x="-122.941" y="503.457" width="217.436" height="8.5269" rx="4.26345" fill="#F2F2F2" fill-opacity="0.2"/>
<rect x="-110.15" y="523.353" width="217.436" height="8.5269" rx="4.26345" fill="#F2F2F2" fill-opacity="0.2"/>
<rect x="508.762" y="140.354" width="217.436" height="8.5269" rx="4.26345" transform="rotate(-90 508.762 140.354)" fill="#F2F2F2" fill-opacity="0.2"/>
<rect x="528.656" y="168.776" width="217.436" height="8.5269" rx="4.26345" transform="rotate(-90 528.656 168.776)" fill="#F2F2F2" fill-opacity="0.2"/>
<rect x="548.555" y="155.986" width="217.436" height="8.5269" rx="4.26345" transform="rotate(-90 548.555 155.986)" fill="#F2F2F2" fill-opacity="0.2"/>
<path d="M186.551 -81.7943H125.318L18.5468 40.1035L-119.851 -126.04H-187.453L18.5694 120.094L186.551 -81.7943Z" fill="white" fill-opacity="0.12"/>
<path d="M168.004 -0.68457L19.5788 176.815L-85.277 54.7521H-148.377L19.5448 256.619L237.51 -0.658742L168.004 -0.68457Z" fill="white" fill-opacity="0.12"/>
<path d="M770.473 326.616H709.24L602.469 448.514L464.071 282.371H396.469L602.491 528.505L770.473 326.616Z" fill="white" fill-opacity="0.12"/>
<path d="M751.926 407.726L603.501 585.226L498.645 463.163H435.545L603.467 665.03L821.432 407.752L751.926 407.726Z" fill="white" fill-opacity="0.12"/>
<path d="M273.801 1057.9H212.568L105.797 1179.8L-32.6009 1013.65H-100.203L105.819 1259.79L273.801 1057.9Z" fill="white" fill-opacity="0.12"/>
<path d="M255.254 1139.01L106.829 1316.51L1.97297 1194.44H-61.127L106.795 1396.31L324.76 1139.03L255.254 1139.01Z" fill="white" fill-opacity="0.12"/>
<path d="M465.656 662.815H404.423L297.652 784.712L159.255 618.569H91.6523L297.675 864.703L465.656 662.815Z" fill="white"/>
<path d="M429.35 462.242L280.924 639.742L176.069 517.679H112.969L280.89 719.546L498.856 462.268L429.35 462.242Z" fill="white"/>
</g>
<defs>
<clipPath id="clip0_738_44335">
<rect width="608.252" height="1315.98" fill="white" transform="translate(0.699219 0.371094)"/>
</clipPath>
</defs>
</svg>
