<svg width="609" height="1317" viewBox="0 0 609 1317" fill="none" xmlns="http://www.w3.org/2000/svg">
<g clip-path="url(#clip0_738_44293)">
<rect width="608.252" height="1315.98" transform="translate(0.601562 0.371094)" fill="#3C1550"/>
<rect x="-94.6133" y="483.561" width="217.436" height="8.5269" rx="4.26345" fill="#F2F2F2" fill-opacity="0.2"/>
<rect x="-123.037" y="503.457" width="217.436" height="8.5269" rx="4.26345" fill="#F2F2F2" fill-opacity="0.2"/>
<rect x="-110.246" y="523.353" width="217.436" height="8.5269" rx="4.26345" fill="#F2F2F2" fill-opacity="0.2"/>
<rect x="508.662" y="140.354" width="217.436" height="8.5269" rx="4.26345" transform="rotate(-90 508.662 140.354)" fill="#F2F2F2" fill-opacity="0.2"/>
<rect x="528.559" y="168.776" width="217.436" height="8.5269" rx="4.26345" transform="rotate(-90 528.559 168.776)" fill="#F2F2F2" fill-opacity="0.2"/>
<rect x="548.455" y="155.986" width="217.436" height="8.5269" rx="4.26345" transform="rotate(-90 548.455 155.986)" fill="#F2F2F2" fill-opacity="0.2"/>
<path d="M186.453 -81.7943H125.22L18.4491 40.1035L-119.949 -126.04H-187.551L18.4718 120.094L186.453 -81.7943Z" fill="white" fill-opacity="0.12"/>
<path d="M167.906 -0.68457L19.4811 176.815L-85.3747 54.7521H-148.475L19.4471 256.619L237.412 -0.658742L167.906 -0.68457Z" fill="white" fill-opacity="0.12"/>
<path d="M770.375 326.616H709.142L602.371 448.514L463.973 282.371H396.371L602.394 528.505L770.375 326.616Z" fill="white" fill-opacity="0.12"/>
<path d="M751.828 407.726L603.403 585.226L498.547 463.163H435.447L603.369 665.03L821.334 407.752L751.828 407.726Z" fill="white" fill-opacity="0.12"/>
<path d="M272.283 1057.9H211.05L104.279 1179.8L-34.1185 1013.65H-101.721L104.302 1259.79L272.283 1057.9Z" fill="white" fill-opacity="0.12"/>
<path d="M253.736 1139.01L105.311 1316.51L0.455395 1194.44H-62.6445L105.277 1396.31L323.243 1139.03L253.736 1139.01Z" fill="white" fill-opacity="0.12"/>
<path d="M326.287 518.987H265.054L158.283 640.885L19.8854 474.742H-47.7168L158.306 720.876L326.287 518.987Z" fill="#F9FAF9"/>
<path d="M429.961 463.667L281.536 641.166L176.68 519.103H113.58L281.502 720.97L499.467 463.692L429.961 463.667Z" fill="#F9FAF9"/>
</g>
<defs>
<clipPath id="clip0_738_44293">
<rect width="608.252" height="1315.98" fill="white" transform="translate(0.601562 0.371094)"/>
</clipPath>
</defs>
</svg>
