<svg width="610" height="1317" viewBox="0 0 610 1317" fill="none" xmlns="http://www.w3.org/2000/svg">
<g clip-path="url(#clip0_738_44377)">
<rect width="608.252" height="1315.98" transform="translate(0.796875 0.371094)" fill="#3C1550"/>
<rect x="-94.4219" y="483.561" width="217.436" height="8.5269" rx="4.26345" fill="#F2F2F2" fill-opacity="0.2"/>
<rect x="-122.844" y="503.457" width="217.436" height="8.5269" rx="4.26345" fill="#F2F2F2" fill-opacity="0.2"/>
<rect x="-110.055" y="523.353" width="217.436" height="8.5269" rx="4.26345" fill="#F2F2F2" fill-opacity="0.2"/>
<rect x="508.859" y="140.354" width="217.436" height="8.5269" rx="4.26345" transform="rotate(-90 508.859 140.354)" fill="#F2F2F2" fill-opacity="0.2"/>
<rect x="528.754" y="168.776" width="217.436" height="8.5269" rx="4.26345" transform="rotate(-90 528.754 168.776)" fill="#F2F2F2" fill-opacity="0.2"/>
<rect x="548.652" y="155.986" width="217.436" height="8.5269" rx="4.26345" transform="rotate(-90 548.652 155.986)" fill="#F2F2F2" fill-opacity="0.2"/>
<path d="M186.648 -81.7943H125.416L18.6444 40.1035L-119.753 -126.04H-187.355L18.6671 120.094L186.648 -81.7943Z" fill="white" fill-opacity="0.12"/>
<path d="M168.103 -0.68457L19.6784 176.815L-85.1774 54.7521H-148.277L19.6444 256.619L237.61 -0.658742L168.103 -0.68457Z" fill="white" fill-opacity="0.12"/>
<path d="M770.57 326.616H709.338L602.566 448.514L464.169 282.371H396.566L602.589 528.505L770.57 326.616Z" fill="white" fill-opacity="0.12"/>
<path d="M752.025 407.726L603.6 585.226L498.744 463.163H435.645L603.566 665.03L821.532 407.752L752.025 407.726Z" fill="white" fill-opacity="0.12"/>
<path d="M275.32 1057.9H214.088L107.316 1179.8L-31.0814 1013.65H-98.6836L107.339 1259.79L275.32 1057.9Z" fill="white" fill-opacity="0.12"/>
<path d="M256.775 1139.01L108.35 1316.51L3.49446 1194.44H-59.6055L108.316 1396.31L326.282 1139.03L256.775 1139.01Z" fill="white" fill-opacity="0.12"/>
<path d="M663.293 560.495H602.06L495.289 682.393L356.891 516.249H289.289L495.312 762.383L663.293 560.495Z" fill="white"/>
<path d="M432.291 463.667L283.866 641.166L179.01 519.103H115.91L283.832 720.97L501.797 463.692L432.291 463.667Z" fill="white"/>
</g>
<defs>
<clipPath id="clip0_738_44377">
<rect width="608.252" height="1315.98" fill="white" transform="translate(0.796875 0.371094)"/>
</clipPath>
</defs>
</svg>
