<svg width="609" height="1317" viewBox="0 0 609 1317" fill="none" xmlns="http://www.w3.org/2000/svg">
<g clip-path="url(#clip0_738_44272)">
<rect width="608.252" height="1315.98" transform="translate(0.503906 0.371094)" fill="#3C1550"/>
<rect x="-94.7129" y="483.561" width="217.436" height="8.5269" rx="4.26345" fill="#F2F2F2" fill-opacity="0.2"/>
<rect x="-123.137" y="503.457" width="217.436" height="8.5269" rx="4.26345" fill="#F2F2F2" fill-opacity="0.2"/>
<rect x="-110.346" y="523.353" width="217.436" height="8.5269" rx="4.26345" fill="#F2F2F2" fill-opacity="0.2"/>
<rect x="508.564" y="140.354" width="217.436" height="8.5269" rx="4.26345" transform="rotate(-90 508.564 140.354)" fill="#F2F2F2" fill-opacity="0.2"/>
<rect x="528.461" y="168.776" width="217.436" height="8.5269" rx="4.26345" transform="rotate(-90 528.461 168.776)" fill="#F2F2F2" fill-opacity="0.2"/>
<rect x="548.357" y="155.986" width="217.436" height="8.5269" rx="4.26345" transform="rotate(-90 548.357 155.986)" fill="#F2F2F2" fill-opacity="0.2"/>
<path d="M186.355 -81.7943H125.123L18.3515 40.1035L-120.046 -126.04H-187.648L18.3741 120.094L186.355 -81.7943Z" fill="white" fill-opacity="0.12"/>
<path d="M167.809 -0.68457L19.3835 176.815L-85.4723 54.7521H-148.572L19.3495 256.619L237.315 -0.658742L167.809 -0.68457Z" fill="white" fill-opacity="0.12"/>
<path d="M770.277 326.616H709.045L602.273 448.514L463.876 282.371H396.273L602.296 528.505L770.277 326.616Z" fill="white" fill-opacity="0.12"/>
<path d="M751.73 407.726L603.305 585.226L498.45 463.163H435.35L603.271 665.03L821.237 407.752L751.73 407.726Z" fill="white" fill-opacity="0.12"/>
<path d="M273.605 1057.9H212.373L105.601 1179.8L-32.7962 1013.65H-100.398L105.624 1259.79L273.605 1057.9Z" fill="white" fill-opacity="0.12"/>
<path d="M255.059 1139.01L106.633 1316.51L1.77766 1194.44H-61.3223L106.599 1396.31L324.565 1139.03L255.059 1139.01Z" fill="white" fill-opacity="0.12"/>
<path d="M449.828 391.375H388.595L281.824 513.273L143.426 347.129H75.8242L281.847 593.264L449.828 391.375Z" fill="#F9FAF9"/>
<path d="M431.281 463.664L282.856 641.163L178 519.1H114.9L282.822 720.967L500.787 463.689L431.281 463.664Z" fill="#F9FAF9"/>
</g>
<defs>
<clipPath id="clip0_738_44272">
<rect width="608.252" height="1315.98" fill="white" transform="translate(0.503906 0.371094)"/>
</clipPath>
</defs>
</svg>
