<svg width="363" height="76" viewBox="0 0 363 76" fill="none" xmlns="http://www.w3.org/2000/svg">
<path d="M199.332 25.0703L246.332 25.0703" stroke="#767676" stroke-width="3"/>
<line x1="42.2734" y1="24.71" x2="84.2734" y2="24.71" stroke="#4F0774" stroke-width="3"/>
<line x1="119.332" y1="24.5703" x2="162.332" y2="24.5703" stroke="#4F0774" stroke-width="3"/>
<line x1="281.414" y1="24.71" x2="323.414" y2="24.71" stroke="#767676" stroke-width="3"/>
<circle cx="341.286" cy="25.0244" r="18.4541" stroke="#7B7B7B" stroke-width="3"/>
<g clip-path="url(#clip0_738_43720)">
<path d="M336.314 15.2216C337.46 15.2216 338.39 14.2923 338.39 13.146C338.39 11.9996 337.46 11.0703 336.314 11.0703C335.168 11.0703 334.238 11.9996 334.238 13.146C334.238 14.2923 335.168 15.2216 336.314 15.2216Z" fill="#7B7B7B"/>
<path d="M345.365 19.996C346.511 19.996 347.44 19.0667 347.44 17.9204C347.44 16.774 346.511 15.8447 345.365 15.8447C344.218 15.8447 343.289 16.774 343.289 17.9204C343.289 19.0667 344.218 19.996 345.365 19.996Z" fill="#7B7B7B"/>
<path fill-rule="evenodd" clip-rule="evenodd" d="M340.506 35.5282C340.504 35.5283 340.502 35.5285 340.501 35.5286L340.501 35.5286M340.501 35.5285L340.503 35.5284L340.505 35.5283L340.506 35.5282M340.501 35.5285L340.501 35.5286C340.476 35.5304 340.451 35.5313 340.425 35.5313H328.366C327.793 35.5313 327.328 35.0667 327.328 34.4935C327.328 33.9203 327.793 33.4557 328.366 33.4557H340.394C340.4 33.4553 340.408 33.4549 340.416 33.4546C340.452 33.4528 340.502 33.4511 340.562 33.4505C340.683 33.4492 340.849 33.452 341.047 33.4674C341.437 33.4979 341.977 33.5799 342.538 33.7963C343.103 34.0138 343.718 34.3793 344.203 34.9916C344.696 35.6133 345.001 36.4224 345.043 37.429C345.067 38.0017 344.622 38.4852 344.049 38.509C343.476 38.5328 342.993 38.0878 342.969 37.5151C342.943 36.8975 342.767 36.5221 342.576 36.2809C342.378 36.0302 342.106 35.8541 341.792 35.733C341.475 35.6107 341.145 35.5571 340.885 35.5367C340.757 35.5268 340.653 35.5253 340.585 35.526C340.551 35.5264 340.526 35.5273 340.513 35.5279L340.501 35.5285Z" fill="#7B7B7B"/>
<path d="M331.207 25.943C330.937 27.728 328.82 32.1699 328.82 32.1699L328.862 32.1907C328.841 32.2633 328.82 32.336 328.82 32.419C328.82 32.969 329.267 33.4153 329.817 33.4153C330.336 33.4153 330.74 33.0209 330.792 32.5124L333.252 27.5931L331.197 25.9326L331.207 25.943Z" fill="#7B7B7B"/>
<path d="M354.612 23.0678C354.539 22.8083 354.144 22.4762 353.978 22.2583L353.376 21.5007C353.096 21.1478 352.93 20.8261 352.494 20.7119C351.737 20.5044 350.969 20.3176 350.201 20.1204C350.004 20.0685 349.806 20.0166 349.609 20.027C349.454 20.027 349.298 20.0789 349.153 20.1204C347.928 20.4525 346.734 20.8157 345.572 21.3242C344.929 21.6045 344.285 21.9158 343.611 22.113C343.102 22.2583 342.573 22.3413 342.054 22.2998C341.493 22.2479 341.338 22.0715 340.985 21.6564C339.947 20.4421 338.92 19.2278 337.882 18.0136C337.757 17.8683 337.633 17.723 337.477 17.6192C337.353 17.5362 337.207 17.4739 337.062 17.422C335.941 16.9654 334.924 15.9483 333.71 15.7719C332.506 15.6059 331.333 16.1974 330.223 16.571C330.077 16.6229 329.942 16.6644 329.828 16.7578C329.735 16.8305 329.662 16.9343 329.59 17.0277C329.299 17.4428 328.998 17.8579 328.707 18.2731C328.635 18.3768 328.344 18.6778 328.272 18.8542C327.981 19.0099 327.773 19.3109 327.773 19.6741C327.773 20.193 328.199 20.6185 328.718 20.6185C329.206 20.6185 329.6 20.2449 329.642 19.7571L330.648 18.2627C330.7 18.19 330.742 18.1174 330.804 18.0655C330.877 18.0032 330.97 17.9721 331.063 17.9409C331.458 17.806 331.862 17.6711 332.267 17.5673C332.713 17.4428 332.931 17.2975 332.859 17.8475C332.776 18.5533 332.433 19.1863 332.215 19.8505C331.935 20.7223 331.655 21.5941 331.406 22.4659C331.364 22.6215 331.323 22.7772 331.333 22.9329C331.333 23.047 331.375 23.1612 331.416 23.265C331.634 23.9084 331.925 24.5934 332.485 25.0189C333.606 25.8699 334.685 26.7936 335.775 27.6965C335.837 27.7484 335.9 27.8003 335.951 27.8729C336.003 27.9455 336.014 28.039 336.034 28.122C336.346 29.5645 336.668 30.9967 336.979 32.4393C336.979 32.4497 336.979 32.4601 336.979 32.4705C336.979 32.9894 337.342 33.4045 337.788 33.4045C338.235 33.4045 338.598 32.9894 338.598 32.4705C338.598 32.211 338.505 31.9723 338.359 31.8062C338.245 31.0279 338.121 30.2495 338.006 29.4711C337.913 28.8381 337.871 28.1739 337.726 27.5512C337.56 26.8351 337.166 26.202 336.813 25.5689C336.45 24.9462 336.097 24.282 335.993 23.5659C335.92 23.0263 336.066 22.5593 336.201 22.0507C336.346 21.4695 336.418 20.5044 336.761 20.027C337.674 20.7223 338.473 21.7186 339.293 22.5385C339.439 22.6838 339.594 22.8395 339.698 23.0263C339.74 23.0989 339.823 24.033 339.75 24.0122L340.414 24.1783L344.69 23.5452L345.977 23.7009C346.496 24.6349 346.932 25.6935 347.565 26.5549C347.679 26.7209 347.783 26.9181 347.731 27.1153C347.658 27.354 347.388 27.4474 347.16 27.52L345.261 28.0805C344.306 28.3607 343.87 29.1183 343.247 29.8448C342.645 30.5505 342.043 31.2666 341.369 31.8996C340.424 32.7922 340.362 33.5602 340.362 33.5602H342.116C342.863 32.9686 343.611 32.3667 344.358 31.7751C344.856 31.3807 345.333 30.8826 345.873 30.5609C346.485 30.1976 347.201 30.0627 347.886 29.9485C349.153 29.9485 350.606 29.4608 351.861 29.2428C351.934 29.2324 352.017 29.2117 352.069 29.1598C352.121 29.1079 352.141 29.0456 352.152 28.973C352.505 27.5097 351.975 26.6794 351.29 25.4755C350.844 24.6868 350.388 23.898 349.941 23.1093C349.879 23.0055 349.827 22.9017 349.796 22.7876C349.568 21.5629 351.28 22.279 351.83 22.3621C351.913 22.3724 351.996 22.3932 352.058 22.4347C352.131 22.4762 352.173 22.5385 352.225 22.6008C352.515 22.9744 352.806 23.4103 353.117 23.8046C353.159 24.2717 353.532 24.6349 354.01 24.6349C354.508 24.6349 354.923 24.2301 354.923 23.7216C354.923 23.4725 354.819 23.2442 354.653 23.0782L354.612 23.0678Z" fill="#7B7B7B"/>
<path d="M353.541 36.362C352.898 35.1166 352.275 33.8712 351.6 32.6466C351.549 32.5635 351.507 32.4701 351.497 32.3767C351.497 32.2937 351.507 32.221 351.528 32.138C351.6 31.8163 351.673 31.4738 351.787 31.1729C351.735 31.3078 349.38 31.4842 349.089 31.5568C349.079 32.0965 349.006 32.6673 349.193 33.1966C349.514 34.1099 350.272 35.0232 350.781 35.8638C351.082 36.362 351.383 36.8705 351.694 37.3686C351.829 37.7942 352.223 38.1159 352.69 38.1159C353.282 38.1159 353.759 37.6385 353.759 37.0469C353.759 36.7978 353.655 36.5799 353.52 36.3931L353.552 36.362H353.541Z" fill="#7B7B7B"/>
</g>
<path d="M20.5598 34.339C20.0428 34.339 19.5453 34.1244 19.1746 33.7537L11.8874 26.3202C11.1362 25.5495 11.146 24.3106 11.9167 23.5594C12.6873 22.8083 13.9262 22.818 14.6774 23.5887L20.5793 29.6077L38.2851 11.9019C34.6367 7.70712 29.2615 5.03418 23.262 5.03418C12.2483 5.03418 3.33203 13.9505 3.33203 24.9642C3.33203 35.9779 12.2483 44.8942 23.262 44.8942C34.2757 44.8942 43.192 35.9779 43.192 24.9642C43.192 21.384 42.236 18.0379 40.5874 15.1406L21.9353 33.7732C21.5646 34.1439 21.0769 34.3487 20.5598 34.3487V34.339Z" fill="#4F0774"/>
<path d="M43.6115 9.34607C42.8506 8.58516 41.6117 8.58516 40.8508 9.34607L38.2852 11.9117C39.1534 12.9067 39.924 13.9896 40.5776 15.1407L43.6115 12.1068C44.3724 11.3459 44.3724 10.107 43.6115 9.34607Z" fill="#4F0774"/>
<path d="M20.5684 29.6179L14.6665 23.5989C13.9153 22.8282 12.6764 22.8185 11.9057 23.5696C11.1351 24.3208 11.1253 25.5597 11.8765 26.3304L19.1636 33.7639C19.5246 34.1346 20.0221 34.3492 20.5489 34.3492C21.0659 34.3492 21.5634 34.1443 21.9244 33.7736L40.5764 15.1313C39.9228 13.9802 39.1522 12.8974 38.284 11.9023L20.5684 29.6179Z" fill="white"/>
<path d="M98.5598 34.3029C98.0428 34.3029 97.5453 34.0882 97.1746 33.7175L89.8874 26.284C89.1362 25.5134 89.146 24.2744 89.9167 23.5233C90.6873 22.7721 91.9262 22.7819 92.6774 23.5526L98.5793 29.5716L116.285 11.8658C112.637 7.67099 107.262 4.99805 101.262 4.99805C90.2483 4.99805 81.332 13.9144 81.332 24.928C81.332 35.9417 90.2483 44.858 101.262 44.858C112.276 44.858 121.192 35.9417 121.192 24.928C121.192 21.3479 120.236 18.0018 118.587 15.1045L99.9353 33.737C99.5646 34.1077 99.0769 34.3126 98.5598 34.3126V34.3029Z" fill="#4F0774"/>
<path d="M121.612 9.30994C120.851 8.54903 119.612 8.54903 118.851 9.30994L116.285 11.8756C117.153 12.8706 117.924 13.9534 118.578 15.1046L121.612 12.0707C122.372 11.3098 122.372 10.0709 121.612 9.30994Z" fill="#4F0774"/>
<path d="M98.5684 29.5818L92.6665 23.5628C91.9153 22.7921 90.6764 22.7823 89.9057 23.5335C89.1351 24.2847 89.1253 25.5236 89.8765 26.2942L97.1636 33.7278C97.5246 34.0985 98.0221 34.3131 98.5489 34.3131C99.0659 34.3131 99.5634 34.1082 99.9244 33.7375L118.576 15.0952C117.923 13.9441 117.152 12.8612 116.284 11.8662L98.5684 29.5818Z" fill="white"/>
<circle cx="264.332" cy="22.998" r="18.5" stroke="#767676" stroke-width="3"/>
<path d="M267.668 10.998C267.711 11.0023 267.754 11.0109 267.797 11.0152C267.947 11.0195 268.101 11.028 268.251 11.0237C268.478 11.0152 268.662 11.088 268.829 11.255C270.114 12.527 271.407 13.7903 272.696 15.0623C273.15 15.512 273.583 15.9873 274.041 16.437C274.246 16.6383 274.319 16.861 274.319 17.1351C274.319 17.5634 274.332 17.9916 274.332 18.4199C274.332 20.4113 274.323 22.3985 274.319 24.3899C274.319 24.5741 274.293 24.7582 274.272 24.9381C274.259 25.0666 274.195 25.1479 274.067 25.1865C273.758 25.285 273.454 25.285 273.146 25.1908C273.017 25.1522 272.94 25.0666 272.927 24.9338C272.91 24.7625 272.88 24.5912 272.88 24.4199C272.872 22.2614 272.863 20.103 272.859 17.9445C272.859 17.8931 272.859 17.8417 272.859 17.7732C272.799 17.7732 272.747 17.7732 272.696 17.7732C271.368 17.7732 270.041 17.7732 268.709 17.7646C268.52 17.7646 268.332 17.7475 268.148 17.7218C267.857 17.679 267.613 17.4177 267.595 17.1265C267.574 16.6383 267.557 16.1501 267.553 15.6619C267.544 14.6469 267.553 13.6362 267.553 12.6212C267.553 12.5741 267.553 12.527 267.553 12.4713H257.822V33.0666H257.989C260.589 33.0666 263.193 33.0666 265.792 33.0666C266.024 33.0666 266.234 33.2764 266.234 33.5034C266.234 33.7133 266.234 33.9188 266.225 34.1287C266.216 34.3514 266.037 34.5184 265.818 34.5184C263.047 34.5184 260.281 34.5141 257.51 34.5098C257.326 34.5098 257.141 34.497 256.957 34.4927C256.782 34.4927 256.64 34.4285 256.533 34.2871C256.469 34.2015 256.401 34.1201 256.332 34.0387C256.332 27.2636 256.332 20.4884 256.332 13.7133C256.336 13.5377 256.345 13.3621 256.349 13.1865C256.366 12.6426 256.379 12.0987 256.405 11.5548C256.418 11.2593 256.632 11.0494 256.923 11.0366C257.304 11.0237 257.681 11.0237 258.062 11.0152C258.268 11.0152 258.478 11.0023 258.683 10.998H267.668V10.998ZM271.728 16.3L269.086 13.6276V16.3H271.728Z" fill="#767676"/>
<path d="M271.059 28.0041C271.059 28.0597 271.059 28.1154 271.059 28.1711C271.051 30.0426 271.042 31.9098 271.034 33.7814C271.034 34.1325 270.82 34.4152 270.481 34.5137C270.233 34.5865 269.822 34.4366 269.689 34.2096C269.655 34.1497 269.638 34.0726 269.638 34.0041C269.62 33.5587 269.608 33.1176 269.603 32.6722C269.586 31.2118 269.578 29.7514 269.565 28.291C269.565 28.2011 269.565 28.1068 269.565 28.0169L269.53 28.0041C269.492 28.034 269.458 28.0683 269.419 28.0983C268.798 28.7021 268.181 29.306 267.556 29.9056C267.428 30.0298 267.295 30.1497 267.098 30.1754C266.772 30.2139 266.49 30.0726 266.344 29.7985C266.199 29.5287 266.237 29.1989 266.46 28.9634C266.794 28.6036 267.132 28.2439 267.483 27.897C268.267 27.1133 269.055 26.3338 269.843 25.5544C269.907 25.4901 269.98 25.4302 270.049 25.3702C270.229 25.2203 270.361 25.2203 270.541 25.3702C270.674 25.4859 270.807 25.6015 270.931 25.7257C272.002 26.8049 273.068 27.8884 274.139 28.9677C274.417 29.2503 274.357 29.6572 274.181 29.8884C273.929 30.2139 273.483 30.2867 273.175 30.0169C272.85 29.7385 272.55 29.4345 272.241 29.1347C271.882 28.7835 271.53 28.4323 271.179 28.0769C271.149 28.0469 271.132 27.9998 271.111 27.9655L271.059 28.0041Z" fill="#767676"/>
<circle cx="181.332" cy="22.998" r="18.5" stroke="#767676" stroke-width="3"/>
<path d="M177.39 13.9271H177.39C177.388 13.9271 177.385 13.9276 177.383 13.9286L177.19 13.4672L177.383 13.9286C177.38 13.9297 177.378 13.9311 177.376 13.933L177.021 13.5813L177.376 13.933C177.374 13.9349 177.373 13.9371 177.372 13.9395C177.371 13.9419 177.371 13.9445 177.371 13.9471L177.371 13.9523H177.371V14.261V14.6788L176.959 14.7531C176.707 14.7987 176.469 14.9056 176.267 15.0644C176.125 15.1815 176.011 15.3284 175.932 15.4946C175.853 15.6614 175.812 15.8435 175.812 16.0279C175.814 16.2036 175.861 16.3759 175.948 16.5287C176.033 16.6782 176.154 16.8043 176.299 16.8958C176.634 17.0723 176.985 17.2182 177.346 17.3318L177.363 17.3371L177.379 17.3435C177.453 17.3726 177.531 17.3997 177.62 17.4309C177.663 17.4459 177.709 17.4619 177.758 17.4795C177.899 17.5299 178.061 17.5907 178.213 17.6658C178.472 17.7943 178.922 18.072 178.93 18.6143C178.937 18.7978 178.898 18.9802 178.818 19.1456C178.737 19.3127 178.616 19.4572 178.466 19.5664C178.153 19.7981 177.77 19.918 177.38 19.9067C177.379 19.9067 177.377 19.9066 177.376 19.9066L177.391 19.4068C177.169 19.4041 176.951 19.3462 176.757 19.2385C176.563 19.1307 176.399 18.9764 176.279 18.7894L177.39 13.9271ZM177.39 13.9271C177.396 13.9271 177.401 13.9292 177.404 13.9329C177.408 13.9366 177.41 13.9416 177.41 13.9469V14.2741V14.6773L177.804 14.7628C178.044 14.8147 178.271 14.9144 178.471 15.0558C178.67 15.1959 178.839 15.3743 178.968 15.5804C178.971 15.5849 178.971 15.59 178.97 15.595C178.969 15.6003 178.965 15.605 178.96 15.6078L179.218 16.0365M177.39 13.9271L179.218 16.0365M176.871 14.261C176.535 14.3215 176.22 14.4637 175.953 14.675C175.753 14.8394 175.591 15.0464 175.48 15.2808C175.369 15.5153 175.312 15.7714 175.312 16.0308C175.315 16.2922 175.384 16.5486 175.513 16.7759C175.643 17.0031 175.828 17.1938 176.051 17.33C176.417 17.5242 176.801 17.6844 177.196 17.8088C177.279 17.8415 177.371 17.8736 177.466 17.9066C177.913 18.0633 178.428 18.2432 178.43 18.6269L176.871 14.261ZM176.871 14.261V13.9523V14.261ZM179.218 16.0365L178.96 15.6078C178.956 15.6107 178.95 15.6115 178.945 15.6102C178.939 15.6088 178.935 15.6054 178.932 15.6006L178.927 15.5932L178.923 15.586C178.757 15.3306 178.531 15.1204 178.264 14.9743C177.999 14.8295 177.703 14.752 177.402 14.7488M179.218 16.0365L177.402 14.7488M177.402 14.7488C177.014 14.7351 176.632 14.8515 176.318 15.0795L176.317 15.0795L176.313 15.0827C176.163 15.1942 176.042 15.3409 175.962 15.5098C175.883 15.6761 175.845 15.8589 175.851 16.0429C175.861 16.5846 176.318 16.8595 176.572 16.9843C176.723 17.0586 176.884 17.1193 177.025 17.1697C177.069 17.1858 177.111 17.2007 177.151 17.2146C177.244 17.2476 177.325 17.2759 177.4 17.3061L177.418 17.3131L177.436 17.3188C177.797 17.4322 178.146 17.5779 178.481 17.7542C178.627 17.8472 178.748 17.9749 178.833 18.1259C178.921 18.2805 178.968 18.4546 178.97 18.6322C178.97 18.8152 178.929 18.9958 178.85 19.161C178.771 19.3263 178.657 19.4721 178.515 19.5878C178.312 19.7494 178.072 19.8594 177.817 19.9084L177.411 19.9864V20.3994V20.7081C177.411 20.7134 177.409 20.7184 177.405 20.7221L177.759 21.0756L177.405 20.7221C177.402 20.7258 177.397 20.7279 177.391 20.7279C177.386 20.7279 177.381 20.7258 177.377 20.7221L177.024 21.0756L177.377 20.7221C177.374 20.7184 177.372 20.7134 177.372 20.7081V20.3809V19.9799L176.98 19.8928C176.74 19.8393 176.512 19.7383 176.311 19.5957C176.112 19.4541 175.943 19.2745 175.814 19.0671L177.402 14.7488ZM172.973 11.3678L172.473 11.3679V11.8678V33.6945V34.1945H172.973H189.602H190.102V33.6945V16.0237V15.5237H189.602H185.964C185.959 15.5237 185.954 15.5216 185.95 15.518C185.947 15.5143 185.945 15.5092 185.945 15.504V11.8662V11.3661L185.445 11.3662L172.973 11.3678ZM182.327 19.1242H186.485C186.49 19.1242 186.495 19.1263 186.499 19.1299C186.502 19.1336 186.505 19.1387 186.505 19.1439C186.505 19.1492 186.502 19.1542 186.499 19.1579C186.495 19.1616 186.49 19.1637 186.485 19.1637H182.327C182.321 19.1637 182.316 19.1616 182.313 19.1579L181.959 19.5115L182.313 19.1579C182.309 19.1542 182.307 19.1492 182.307 19.1439C182.307 19.1387 182.309 19.1336 182.313 19.1299L181.959 18.7764L182.313 19.1299C182.316 19.1266 182.321 19.1242 182.327 19.1242ZM176.091 22.7619H186.484C186.489 22.7619 186.494 22.764 186.498 22.7677C186.502 22.7715 186.504 22.7765 186.504 22.7817C186.504 22.7869 186.502 22.792 186.498 22.7957C186.494 22.7994 186.489 22.8014 186.484 22.8014H176.091C176.085 22.8014 176.08 22.7994 176.077 22.7957L175.723 23.1492L176.077 22.7957C176.073 22.792 176.071 22.7869 176.071 22.7817C176.071 22.7765 176.073 22.7715 176.077 22.7677L175.723 22.4142L176.077 22.7677C176.08 22.7644 176.085 22.7619 176.091 22.7619ZM176.091 26.3997H186.484C186.489 26.3997 186.494 26.4018 186.498 26.4055C186.502 26.4092 186.504 26.4142 186.504 26.4195C186.504 26.4247 186.502 26.4297 186.498 26.4334C186.494 26.4371 186.489 26.4392 186.484 26.4392H176.091C176.085 26.4392 176.08 26.4371 176.077 26.4334C176.073 26.4297 176.071 26.4247 176.071 26.4195C176.071 26.4142 176.073 26.4092 176.077 26.4055C176.08 26.4022 176.085 26.3997 176.091 26.3997ZM176.091 30.0375H186.484C186.489 30.0375 186.494 30.0396 186.498 30.0433C186.502 30.047 186.504 30.052 186.504 30.0572C186.504 30.0625 186.502 30.0675 186.498 30.0712C186.494 30.0749 186.489 30.077 186.484 30.077H176.091C176.085 30.077 176.08 30.0749 176.077 30.0712L175.723 30.4248L176.077 30.0712C176.073 30.0675 176.071 30.0625 176.071 30.0572C176.071 30.052 176.073 30.047 176.077 30.0433C176.08 30.04 176.085 30.0375 176.091 30.0375Z" stroke="#7B7B7B"/>
<path d="M190.611 15.0682L186.422 10.8584L186.121 15.068L190.611 15.0682Z" fill="#7B7B7B"/>
<path d="M3.03558 59.858C3.36758 59.858 3.65958 59.814 3.91158 59.726C4.16758 59.638 4.38158 59.516 4.55358 59.36C4.72958 59.2 4.86158 59.01 4.94958 58.79C5.03758 58.57 5.08158 58.328 5.08158 58.064C5.08158 57.516 4.91158 57.088 4.57158 56.78C4.23558 56.472 3.72358 56.318 3.03558 56.318H1.65558V59.858H3.03558ZM3.03558 55.4C3.57958 55.4 4.05158 55.464 4.45158 55.592C4.85558 55.716 5.18958 55.894 5.45358 56.126C5.71758 56.358 5.91358 56.638 6.04158 56.966C6.17358 57.294 6.23958 57.66 6.23958 58.064C6.23958 58.464 6.16958 58.83 6.02958 59.162C5.88958 59.494 5.68358 59.78 5.41158 60.02C5.14358 60.26 4.80958 60.448 4.40958 60.584C4.01358 60.716 3.55558 60.782 3.03558 60.782H1.65558V63.998H0.497578V55.4H3.03558ZM10.7962 60.296C10.7962 60.048 10.7602 59.822 10.6882 59.618C10.6202 59.41 10.5182 59.232 10.3822 59.084C10.2502 58.932 10.0882 58.816 9.8962 58.736C9.7042 58.652 9.4862 58.61 9.2422 58.61C8.7302 58.61 8.3242 58.76 8.0242 59.06C7.7282 59.356 7.5442 59.768 7.4722 60.296H10.7962ZM11.6602 63.146C11.5282 63.306 11.3702 63.446 11.1862 63.566C11.0022 63.682 10.8042 63.778 10.5922 63.854C10.3842 63.93 10.1682 63.986 9.9442 64.022C9.7202 64.062 9.4982 64.082 9.2782 64.082C8.8582 64.082 8.4702 64.012 8.1142 63.872C7.7622 63.728 7.4562 63.52 7.1962 63.248C6.9402 62.972 6.7402 62.632 6.5962 62.228C6.4522 61.824 6.3802 61.36 6.3802 60.836C6.3802 60.412 6.4442 60.016 6.5722 59.648C6.7042 59.28 6.8922 58.962 7.1362 58.694C7.3802 58.422 7.6782 58.21 8.0302 58.058C8.3822 57.902 8.7782 57.824 9.2182 57.824C9.5822 57.824 9.9182 57.886 10.2262 58.01C10.5382 58.13 10.8062 58.306 11.0302 58.538C11.2582 58.766 11.4362 59.05 11.5642 59.39C11.6922 59.726 11.7562 60.11 11.7562 60.542C11.7562 60.71 11.7382 60.822 11.7022 60.878C11.6662 60.934 11.5982 60.962 11.4982 60.962H7.4362C7.4482 61.346 7.5002 61.68 7.5922 61.964C7.6882 62.248 7.8202 62.486 7.9882 62.678C8.1562 62.866 8.3562 63.008 8.5882 63.104C8.8202 63.196 9.0802 63.242 9.3682 63.242C9.6362 63.242 9.8662 63.212 10.0582 63.152C10.2542 63.088 10.4222 63.02 10.5622 62.948C10.7022 62.876 10.8182 62.81 10.9102 62.75C11.0062 62.686 11.0882 62.654 11.1562 62.654C11.2442 62.654 11.3122 62.688 11.3602 62.756L11.6602 63.146ZM13.674 59.138C13.866 58.722 14.102 58.398 14.382 58.166C14.662 57.93 15.004 57.812 15.408 57.812C15.536 57.812 15.658 57.826 15.774 57.854C15.894 57.882 16 57.926 16.092 57.986L16.014 58.784C15.99 58.884 15.93 58.934 15.834 58.934C15.778 58.934 15.696 58.922 15.588 58.898C15.48 58.874 15.358 58.862 15.222 58.862C15.03 58.862 14.858 58.89 14.706 58.946C14.558 59.002 14.424 59.086 14.304 59.198C14.188 59.306 14.082 59.442 13.986 59.606C13.894 59.766 13.81 59.95 13.734 60.158V63.998H12.66V57.92H13.272C13.388 57.92 13.468 57.942 13.512 57.986C13.556 58.03 13.586 58.106 13.602 58.214L13.674 59.138ZM20.128 58.922C20.08 59.01 20.006 59.054 19.906 59.054C19.846 59.054 19.778 59.032 19.702 58.988C19.626 58.944 19.532 58.896 19.42 58.844C19.312 58.788 19.182 58.738 19.03 58.694C18.878 58.646 18.698 58.622 18.49 58.622C18.31 58.622 18.148 58.646 18.004 58.694C17.86 58.738 17.736 58.8 17.632 58.88C17.532 58.96 17.454 59.054 17.398 59.162C17.346 59.266 17.32 59.38 17.32 59.504C17.32 59.66 17.364 59.79 17.452 59.894C17.544 59.998 17.664 60.088 17.812 60.164C17.96 60.24 18.128 60.308 18.316 60.368C18.504 60.424 18.696 60.486 18.892 60.554C19.092 60.618 19.286 60.69 19.474 60.77C19.662 60.85 19.83 60.95 19.978 61.07C20.126 61.19 20.244 61.338 20.332 61.514C20.424 61.686 20.47 61.894 20.47 62.138C20.47 62.418 20.42 62.678 20.32 62.918C20.22 63.154 20.072 63.36 19.876 63.536C19.68 63.708 19.44 63.844 19.156 63.944C18.872 64.044 18.544 64.094 18.172 64.094C17.748 64.094 17.364 64.026 17.02 63.89C16.676 63.75 16.384 63.572 16.144 63.356L16.396 62.948C16.428 62.896 16.466 62.856 16.51 62.828C16.554 62.8 16.61 62.786 16.678 62.786C16.75 62.786 16.826 62.814 16.906 62.87C16.986 62.926 17.082 62.988 17.194 63.056C17.31 63.124 17.45 63.186 17.614 63.242C17.778 63.298 17.982 63.326 18.226 63.326C18.434 63.326 18.616 63.3 18.772 63.248C18.928 63.192 19.058 63.118 19.162 63.026C19.266 62.934 19.342 62.828 19.39 62.708C19.442 62.588 19.468 62.46 19.468 62.324C19.468 62.156 19.422 62.018 19.33 61.91C19.242 61.798 19.124 61.704 18.976 61.628C18.828 61.548 18.658 61.48 18.466 61.424C18.278 61.364 18.084 61.302 17.884 61.238C17.688 61.174 17.494 61.102 17.302 61.022C17.114 60.938 16.946 60.834 16.798 60.71C16.65 60.586 16.53 60.434 16.438 60.254C16.35 60.07 16.306 59.848 16.306 59.588C16.306 59.356 16.354 59.134 16.45 58.922C16.546 58.706 16.686 58.518 16.87 58.358C17.054 58.194 17.28 58.064 17.548 57.968C17.816 57.872 18.122 57.824 18.466 57.824C18.866 57.824 19.224 57.888 19.54 58.016C19.86 58.14 20.136 58.312 20.368 58.532L20.128 58.922ZM23.9334 57.824C24.3774 57.824 24.7774 57.898 25.1334 58.046C25.4894 58.194 25.7934 58.404 26.0454 58.676C26.2974 58.948 26.4894 59.278 26.6214 59.666C26.7574 60.05 26.8254 60.48 26.8254 60.956C26.8254 61.436 26.7574 61.868 26.6214 62.252C26.4894 62.636 26.2974 62.964 26.0454 63.236C25.7934 63.508 25.4894 63.718 25.1334 63.866C24.7774 64.01 24.3774 64.082 23.9334 64.082C23.4854 64.082 23.0814 64.01 22.7214 63.866C22.3654 63.718 22.0614 63.508 21.8094 63.236C21.5574 62.964 21.3634 62.636 21.2274 62.252C21.0954 61.868 21.0294 61.436 21.0294 60.956C21.0294 60.48 21.0954 60.05 21.2274 59.666C21.3634 59.278 21.5574 58.948 21.8094 58.676C22.0614 58.404 22.3654 58.194 22.7214 58.046C23.0814 57.898 23.4854 57.824 23.9334 57.824ZM23.9334 63.248C24.5334 63.248 24.9814 63.048 25.2774 62.648C25.5734 62.244 25.7214 61.682 25.7214 60.962C25.7214 60.238 25.5734 59.674 25.2774 59.27C24.9814 58.866 24.5334 58.664 23.9334 58.664C23.6294 58.664 23.3634 58.716 23.1354 58.82C22.9114 58.924 22.7234 59.074 22.5714 59.27C22.4234 59.466 22.3114 59.708 22.2354 59.996C22.1634 60.28 22.1274 60.602 22.1274 60.962C22.1274 61.682 22.2754 62.244 22.5714 62.648C22.8714 63.048 23.3254 63.248 23.9334 63.248ZM28.78 58.802C28.912 58.654 29.052 58.52 29.2 58.4C29.348 58.28 29.504 58.178 29.668 58.094C29.836 58.006 30.012 57.94 30.196 57.896C30.384 57.848 30.586 57.824 30.802 57.824C31.134 57.824 31.426 57.88 31.678 57.992C31.934 58.1 32.146 58.256 32.314 58.46C32.486 58.66 32.616 58.902 32.704 59.186C32.792 59.47 32.836 59.784 32.836 60.128V63.998H31.762V60.128C31.762 59.668 31.656 59.312 31.444 59.06C31.236 58.804 30.918 58.676 30.49 58.676C30.174 58.676 29.878 58.752 29.602 58.904C29.33 59.056 29.078 59.262 28.846 59.522V63.998H27.772V57.92H28.414C28.566 57.92 28.66 57.994 28.696 58.142L28.78 58.802ZM37.3494 61.262C36.8574 61.278 36.4374 61.318 36.0894 61.382C35.7454 61.442 35.4634 61.522 35.2434 61.622C35.0274 61.722 34.8694 61.84 34.7694 61.976C34.6734 62.112 34.6254 62.264 34.6254 62.432C34.6254 62.592 34.6514 62.73 34.7034 62.846C34.7554 62.962 34.8254 63.058 34.9134 63.134C35.0054 63.206 35.1114 63.26 35.2314 63.296C35.3554 63.328 35.4874 63.344 35.6274 63.344C35.8154 63.344 35.9874 63.326 36.1434 63.29C36.2994 63.25 36.4454 63.194 36.5814 63.122C36.7214 63.05 36.8534 62.964 36.9774 62.864C37.1054 62.764 37.2294 62.65 37.3494 62.522V61.262ZM33.8994 58.778C34.2354 58.454 34.5974 58.212 34.9854 58.052C35.3734 57.892 35.8034 57.812 36.2754 57.812C36.6154 57.812 36.9174 57.868 37.1814 57.98C37.4454 58.092 37.6674 58.248 37.8474 58.448C38.0274 58.648 38.1634 58.89 38.2554 59.174C38.3474 59.458 38.3934 59.77 38.3934 60.11V63.998H37.9194C37.8154 63.998 37.7354 63.982 37.6794 63.95C37.6234 63.914 37.5794 63.846 37.5474 63.746L37.4274 63.17C37.2674 63.318 37.1114 63.45 36.9594 63.566C36.8074 63.678 36.6474 63.774 36.4794 63.854C36.3114 63.93 36.1314 63.988 35.9394 64.028C35.7514 64.072 35.5414 64.094 35.3094 64.094C35.0734 64.094 34.8514 64.062 34.6434 63.998C34.4354 63.93 34.2534 63.83 34.0974 63.698C33.9454 63.566 33.8234 63.4 33.7314 63.2C33.6434 62.996 33.5994 62.756 33.5994 62.48C33.5994 62.24 33.6654 62.01 33.7974 61.79C33.9294 61.566 34.1434 61.368 34.4394 61.196C34.7354 61.024 35.1214 60.884 35.5974 60.776C36.0734 60.664 36.6574 60.6 37.3494 60.584V60.11C37.3494 59.638 37.2474 59.282 37.0434 59.042C36.8394 58.798 36.5414 58.676 36.1494 58.676C35.8854 58.676 35.6634 58.71 35.4834 58.778C35.3074 58.842 35.1534 58.916 35.0214 59C34.8934 59.08 34.7814 59.154 34.6854 59.222C34.5934 59.286 34.5014 59.318 34.4094 59.318C34.3374 59.318 34.2754 59.3 34.2234 59.264C34.1714 59.224 34.1274 59.176 34.0914 59.12L33.8994 58.778ZM40.7162 55.16V63.998H39.6482V55.16H40.7162ZM14.3642 74.998H13.2002V66.4H14.3642V74.998ZM16.8178 69.802C16.9498 69.654 17.0898 69.52 17.2378 69.4C17.3858 69.28 17.5418 69.178 17.7058 69.094C17.8738 69.006 18.0498 68.94 18.2338 68.896C18.4218 68.848 18.6238 68.824 18.8398 68.824C19.1718 68.824 19.4638 68.88 19.7158 68.992C19.9718 69.1 20.1838 69.256 20.3518 69.46C20.5238 69.66 20.6538 69.902 20.7418 70.186C20.8298 70.47 20.8738 70.784 20.8738 71.128V74.998H19.7998V71.128C19.7998 70.668 19.6938 70.312 19.4818 70.06C19.2738 69.804 18.9558 69.676 18.5278 69.676C18.2118 69.676 17.9158 69.752 17.6398 69.904C17.3678 70.056 17.1158 70.262 16.8838 70.522V74.998H15.8098V68.92H16.4518C16.6038 68.92 16.6978 68.994 16.7338 69.142L16.8178 69.802ZM22.3954 74.998V69.832L21.7234 69.754C21.6394 69.734 21.5694 69.704 21.5134 69.664C21.4614 69.62 21.4354 69.558 21.4354 69.478V69.04H22.3954V68.452C22.3954 68.104 22.4434 67.796 22.5394 67.528C22.6394 67.256 22.7794 67.028 22.9594 66.844C23.1434 66.656 23.3634 66.514 23.6194 66.418C23.8754 66.322 24.1634 66.274 24.4834 66.274C24.7554 66.274 25.0054 66.314 25.2334 66.394L25.2094 66.928C25.2014 67.024 25.1474 67.076 25.0474 67.084C24.9514 67.092 24.8214 67.096 24.6574 67.096C24.4734 67.096 24.3054 67.12 24.1534 67.168C24.0054 67.216 23.8774 67.294 23.7694 67.402C23.6614 67.51 23.5774 67.652 23.5174 67.828C23.4614 68.004 23.4334 68.222 23.4334 68.482V69.04H25.1854V69.814H23.4694V74.998H22.3954ZM28.1612 68.824C28.6052 68.824 29.0052 68.898 29.3612 69.046C29.7172 69.194 30.0212 69.404 30.2732 69.676C30.5252 69.948 30.7172 70.278 30.8492 70.666C30.9852 71.05 31.0532 71.48 31.0532 71.956C31.0532 72.436 30.9852 72.868 30.8492 73.252C30.7172 73.636 30.5252 73.964 30.2732 74.236C30.0212 74.508 29.7172 74.718 29.3612 74.866C29.0052 75.01 28.6052 75.082 28.1612 75.082C27.7132 75.082 27.3092 75.01 26.9492 74.866C26.5932 74.718 26.2892 74.508 26.0372 74.236C25.7852 73.964 25.5912 73.636 25.4552 73.252C25.3232 72.868 25.2572 72.436 25.2572 71.956C25.2572 71.48 25.3232 71.05 25.4552 70.666C25.5912 70.278 25.7852 69.948 26.0372 69.676C26.2892 69.404 26.5932 69.194 26.9492 69.046C27.3092 68.898 27.7132 68.824 28.1612 68.824ZM28.1612 74.248C28.7612 74.248 29.2092 74.048 29.5052 73.648C29.8012 73.244 29.9492 72.682 29.9492 71.962C29.9492 71.238 29.8012 70.674 29.5052 70.27C29.2092 69.866 28.7612 69.664 28.1612 69.664C27.8572 69.664 27.5912 69.716 27.3632 69.82C27.1392 69.924 26.9512 70.074 26.7992 70.27C26.6512 70.466 26.5392 70.708 26.4632 70.996C26.3912 71.28 26.3552 71.602 26.3552 71.962C26.3552 72.682 26.5032 73.244 26.7992 73.648C27.0992 74.048 27.5532 74.248 28.1612 74.248Z" fill="#767676"/>
<path d="M93.1264 56.378H90.3424V63.998H89.1844V56.378H86.3944V55.4H93.1264V56.378ZM96.3454 60.296C96.3454 60.048 96.3094 59.822 96.2374 59.618C96.1694 59.41 96.0674 59.232 95.9314 59.084C95.7994 58.932 95.6374 58.816 95.4454 58.736C95.2534 58.652 95.0354 58.61 94.7914 58.61C94.2794 58.61 93.8734 58.76 93.5734 59.06C93.2774 59.356 93.0934 59.768 93.0214 60.296H96.3454ZM97.2094 63.146C97.0774 63.306 96.9194 63.446 96.7354 63.566C96.5514 63.682 96.3534 63.778 96.1414 63.854C95.9334 63.93 95.7174 63.986 95.4934 64.022C95.2694 64.062 95.0474 64.082 94.8274 64.082C94.4074 64.082 94.0194 64.012 93.6634 63.872C93.3114 63.728 93.0054 63.52 92.7454 63.248C92.4894 62.972 92.2894 62.632 92.1454 62.228C92.0014 61.824 91.9294 61.36 91.9294 60.836C91.9294 60.412 91.9934 60.016 92.1214 59.648C92.2534 59.28 92.4414 58.962 92.6854 58.694C92.9294 58.422 93.2274 58.21 93.5794 58.058C93.9314 57.902 94.3274 57.824 94.7674 57.824C95.1314 57.824 95.4674 57.886 95.7754 58.01C96.0874 58.13 96.3554 58.306 96.5794 58.538C96.8074 58.766 96.9854 59.05 97.1134 59.39C97.2414 59.726 97.3054 60.11 97.3054 60.542C97.3054 60.71 97.2874 60.822 97.2514 60.878C97.2154 60.934 97.1474 60.962 97.0474 60.962H92.9854C92.9974 61.346 93.0494 61.68 93.1414 61.964C93.2374 62.248 93.3694 62.486 93.5374 62.678C93.7054 62.866 93.9054 63.008 94.1374 63.104C94.3694 63.196 94.6294 63.242 94.9174 63.242C95.1854 63.242 95.4154 63.212 95.6074 63.152C95.8034 63.088 95.9714 63.02 96.1114 62.948C96.2514 62.876 96.3674 62.81 96.4594 62.75C96.5554 62.686 96.6374 62.654 96.7054 62.654C96.7934 62.654 96.8614 62.688 96.9094 62.756L97.2094 63.146ZM101.503 61.262C101.011 61.278 100.591 61.318 100.243 61.382C99.8993 61.442 99.6173 61.522 99.3973 61.622C99.1813 61.722 99.0233 61.84 98.9233 61.976C98.8273 62.112 98.7793 62.264 98.7793 62.432C98.7793 62.592 98.8053 62.73 98.8573 62.846C98.9093 62.962 98.9793 63.058 99.0673 63.134C99.1593 63.206 99.2653 63.26 99.3853 63.296C99.5093 63.328 99.6413 63.344 99.7813 63.344C99.9693 63.344 100.141 63.326 100.297 63.29C100.453 63.25 100.599 63.194 100.735 63.122C100.875 63.05 101.007 62.964 101.131 62.864C101.259 62.764 101.383 62.65 101.503 62.522V61.262ZM98.0533 58.778C98.3893 58.454 98.7513 58.212 99.1393 58.052C99.5273 57.892 99.9573 57.812 100.429 57.812C100.769 57.812 101.071 57.868 101.335 57.98C101.599 58.092 101.821 58.248 102.001 58.448C102.181 58.648 102.317 58.89 102.409 59.174C102.501 59.458 102.547 59.77 102.547 60.11V63.998H102.073C101.969 63.998 101.889 63.982 101.833 63.95C101.777 63.914 101.733 63.846 101.701 63.746L101.581 63.17C101.421 63.318 101.265 63.45 101.113 63.566C100.961 63.678 100.801 63.774 100.633 63.854C100.465 63.93 100.285 63.988 100.093 64.028C99.9053 64.072 99.6953 64.094 99.4633 64.094C99.2273 64.094 99.0053 64.062 98.7973 63.998C98.5893 63.93 98.4073 63.83 98.2513 63.698C98.0993 63.566 97.9773 63.4 97.8853 63.2C97.7973 62.996 97.7533 62.756 97.7533 62.48C97.7533 62.24 97.8193 62.01 97.9513 61.79C98.0833 61.566 98.2973 61.368 98.5933 61.196C98.8893 61.024 99.2753 60.884 99.7513 60.776C100.227 60.664 100.811 60.6 101.503 60.584V60.11C101.503 59.638 101.401 59.282 101.197 59.042C100.993 58.798 100.695 58.676 100.303 58.676C100.039 58.676 99.8173 58.71 99.6373 58.778C99.4613 58.842 99.3073 58.916 99.1753 59C99.0473 59.08 98.9353 59.154 98.8393 59.222C98.7473 59.286 98.6553 59.318 98.5633 59.318C98.4913 59.318 98.4293 59.3 98.3773 59.264C98.3253 59.224 98.2813 59.176 98.2453 59.12L98.0533 58.778ZM103.766 63.998V57.92H104.408C104.56 57.92 104.654 57.994 104.69 58.142L104.768 58.766C104.992 58.49 105.244 58.264 105.524 58.088C105.804 57.912 106.128 57.824 106.496 57.824C106.904 57.824 107.234 57.938 107.486 58.166C107.742 58.394 107.926 58.702 108.038 59.09C108.126 58.87 108.238 58.68 108.374 58.52C108.514 58.36 108.67 58.228 108.842 58.124C109.014 58.02 109.196 57.944 109.388 57.896C109.584 57.848 109.782 57.824 109.982 57.824C110.302 57.824 110.586 57.876 110.834 57.98C111.086 58.08 111.298 58.228 111.47 58.424C111.646 58.62 111.78 58.862 111.872 59.15C111.964 59.434 112.01 59.76 112.01 60.128V63.998H110.936V60.128C110.936 59.652 110.832 59.292 110.624 59.048C110.416 58.8 110.116 58.676 109.724 58.676C109.548 58.676 109.38 58.708 109.22 58.772C109.064 58.832 108.926 58.922 108.806 59.042C108.686 59.162 108.59 59.314 108.518 59.498C108.45 59.678 108.416 59.888 108.416 60.128V63.998H107.342V60.128C107.342 59.64 107.244 59.276 107.048 59.036C106.852 58.796 106.566 58.676 106.19 58.676C105.926 58.676 105.682 58.748 105.458 58.892C105.234 59.032 105.028 59.224 104.84 59.468V63.998H103.766ZM93.3642 74.998H92.2002V66.4H93.3642V74.998ZM95.8178 69.802C95.9498 69.654 96.0898 69.52 96.2378 69.4C96.3858 69.28 96.5418 69.178 96.7058 69.094C96.8738 69.006 97.0498 68.94 97.2338 68.896C97.4218 68.848 97.6238 68.824 97.8398 68.824C98.1718 68.824 98.4638 68.88 98.7158 68.992C98.9718 69.1 99.1838 69.256 99.3518 69.46C99.5238 69.66 99.6538 69.902 99.7418 70.186C99.8298 70.47 99.8738 70.784 99.8738 71.128V74.998H98.7998V71.128C98.7998 70.668 98.6938 70.312 98.4818 70.06C98.2738 69.804 97.9558 69.676 97.5278 69.676C97.2118 69.676 96.9158 69.752 96.6398 69.904C96.3678 70.056 96.1158 70.262 95.8838 70.522V74.998H94.8098V68.92H95.4518C95.6038 68.92 95.6978 68.994 95.7338 69.142L95.8178 69.802ZM101.395 74.998V69.832L100.723 69.754C100.639 69.734 100.569 69.704 100.513 69.664C100.461 69.62 100.435 69.558 100.435 69.478V69.04H101.395V68.452C101.395 68.104 101.443 67.796 101.539 67.528C101.639 67.256 101.779 67.028 101.959 66.844C102.143 66.656 102.363 66.514 102.619 66.418C102.875 66.322 103.163 66.274 103.483 66.274C103.755 66.274 104.005 66.314 104.233 66.394L104.209 66.928C104.201 67.024 104.147 67.076 104.047 67.084C103.951 67.092 103.821 67.096 103.657 67.096C103.473 67.096 103.305 67.12 103.153 67.168C103.005 67.216 102.877 67.294 102.769 67.402C102.661 67.51 102.577 67.652 102.517 67.828C102.461 68.004 102.433 68.222 102.433 68.482V69.04H104.185V69.814H102.469V74.998H101.395ZM107.161 68.824C107.605 68.824 108.005 68.898 108.361 69.046C108.717 69.194 109.021 69.404 109.273 69.676C109.525 69.948 109.717 70.278 109.849 70.666C109.985 71.05 110.053 71.48 110.053 71.956C110.053 72.436 109.985 72.868 109.849 73.252C109.717 73.636 109.525 73.964 109.273 74.236C109.021 74.508 108.717 74.718 108.361 74.866C108.005 75.01 107.605 75.082 107.161 75.082C106.713 75.082 106.309 75.01 105.949 74.866C105.593 74.718 105.289 74.508 105.037 74.236C104.785 73.964 104.591 73.636 104.455 73.252C104.323 72.868 104.257 72.436 104.257 71.956C104.257 71.48 104.323 71.05 104.455 70.666C104.591 70.278 104.785 69.948 105.037 69.676C105.289 69.404 105.593 69.194 105.949 69.046C106.309 68.898 106.713 68.824 107.161 68.824ZM107.161 74.248C107.761 74.248 108.209 74.048 108.505 73.648C108.801 73.244 108.949 72.682 108.949 71.962C108.949 71.238 108.801 70.674 108.505 70.27C108.209 69.866 107.761 69.664 107.161 69.664C106.857 69.664 106.591 69.716 106.363 69.82C106.139 69.924 105.951 70.074 105.799 70.27C105.651 70.466 105.539 70.708 105.463 70.996C105.391 71.28 105.355 71.602 105.355 71.962C105.355 72.682 105.503 73.244 105.799 73.648C106.099 74.048 106.553 74.248 107.161 74.248Z" fill="#767676"/>
<path d="M165.618 62.222C165.682 62.222 165.738 62.248 165.786 62.3L166.248 62.798C165.896 63.206 165.468 63.524 164.964 63.752C164.464 63.98 163.858 64.094 163.146 64.094C162.53 64.094 161.97 63.988 161.466 63.776C160.962 63.56 160.532 63.26 160.176 62.876C159.82 62.488 159.544 62.024 159.348 61.484C159.152 60.944 159.054 60.35 159.054 59.702C159.054 59.054 159.156 58.46 159.36 57.92C159.564 57.38 159.85 56.916 160.218 56.528C160.59 56.14 161.034 55.84 161.55 55.628C162.066 55.412 162.636 55.304 163.26 55.304C163.872 55.304 164.412 55.402 164.88 55.598C165.348 55.794 165.76 56.06 166.116 56.396L165.732 56.93C165.708 56.97 165.676 57.004 165.636 57.032C165.6 57.056 165.55 57.068 165.486 57.068C165.414 57.068 165.326 57.03 165.222 56.954C165.118 56.874 164.982 56.786 164.814 56.69C164.646 56.594 164.436 56.508 164.184 56.432C163.932 56.352 163.622 56.312 163.254 56.312C162.81 56.312 162.404 56.39 162.036 56.546C161.668 56.698 161.35 56.92 161.082 57.212C160.818 57.504 160.612 57.86 160.464 58.28C160.316 58.7 160.242 59.174 160.242 59.702C160.242 60.238 160.318 60.716 160.47 61.136C160.626 61.556 160.836 61.912 161.1 62.204C161.368 62.492 161.682 62.712 162.042 62.864C162.406 63.016 162.798 63.092 163.218 63.092C163.474 63.092 163.704 63.078 163.908 63.05C164.116 63.018 164.306 62.97 164.478 62.906C164.654 62.842 164.816 62.762 164.964 62.666C165.116 62.566 165.266 62.448 165.414 62.312C165.482 62.252 165.55 62.222 165.618 62.222ZM169.382 57.824C169.826 57.824 170.226 57.898 170.582 58.046C170.938 58.194 171.242 58.404 171.494 58.676C171.746 58.948 171.938 59.278 172.07 59.666C172.206 60.05 172.274 60.48 172.274 60.956C172.274 61.436 172.206 61.868 172.07 62.252C171.938 62.636 171.746 62.964 171.494 63.236C171.242 63.508 170.938 63.718 170.582 63.866C170.226 64.01 169.826 64.082 169.382 64.082C168.934 64.082 168.53 64.01 168.17 63.866C167.814 63.718 167.51 63.508 167.258 63.236C167.006 62.964 166.812 62.636 166.676 62.252C166.544 61.868 166.478 61.436 166.478 60.956C166.478 60.48 166.544 60.05 166.676 59.666C166.812 59.278 167.006 58.948 167.258 58.676C167.51 58.404 167.814 58.194 168.17 58.046C168.53 57.898 168.934 57.824 169.382 57.824ZM169.382 63.248C169.982 63.248 170.43 63.048 170.726 62.648C171.022 62.244 171.17 61.682 171.17 60.962C171.17 60.238 171.022 59.674 170.726 59.27C170.43 58.866 169.982 58.664 169.382 58.664C169.078 58.664 168.812 58.716 168.584 58.82C168.36 58.924 168.172 59.074 168.02 59.27C167.872 59.466 167.76 59.708 167.684 59.996C167.612 60.28 167.576 60.602 167.576 60.962C167.576 61.682 167.724 62.244 168.02 62.648C168.32 63.048 168.774 63.248 169.382 63.248ZM174.229 58.802C174.361 58.654 174.501 58.52 174.649 58.4C174.797 58.28 174.953 58.178 175.117 58.094C175.285 58.006 175.461 57.94 175.645 57.896C175.833 57.848 176.035 57.824 176.251 57.824C176.583 57.824 176.875 57.88 177.127 57.992C177.383 58.1 177.595 58.256 177.763 58.46C177.935 58.66 178.065 58.902 178.153 59.186C178.241 59.47 178.285 59.784 178.285 60.128V63.998H177.211V60.128C177.211 59.668 177.105 59.312 176.893 59.06C176.685 58.804 176.367 58.676 175.939 58.676C175.623 58.676 175.327 58.752 175.051 58.904C174.779 59.056 174.527 59.262 174.295 59.522V63.998H173.221V57.92H173.863C174.015 57.92 174.109 57.994 174.145 58.142L174.229 58.802ZM181.288 64.094C180.808 64.094 180.438 63.96 180.178 63.692C179.922 63.424 179.794 63.038 179.794 62.534V58.814H179.062C178.998 58.814 178.944 58.796 178.9 58.76C178.856 58.72 178.834 58.66 178.834 58.58V58.154L179.83 58.028L180.076 56.15C180.088 56.09 180.114 56.042 180.154 56.006C180.198 55.966 180.254 55.946 180.322 55.946H180.862V58.04H182.62V58.814H180.862V62.462C180.862 62.718 180.924 62.908 181.048 63.032C181.172 63.156 181.332 63.218 181.528 63.218C181.64 63.218 181.736 63.204 181.816 63.176C181.9 63.144 181.972 63.11 182.032 63.074C182.092 63.038 182.142 63.006 182.182 62.978C182.226 62.946 182.264 62.93 182.296 62.93C182.352 62.93 182.402 62.964 182.446 63.032L182.758 63.542C182.574 63.714 182.352 63.85 182.092 63.95C181.832 64.046 181.564 64.094 181.288 64.094ZM184.329 59.138C184.521 58.722 184.757 58.398 185.037 58.166C185.317 57.93 185.659 57.812 186.063 57.812C186.191 57.812 186.313 57.826 186.429 57.854C186.549 57.882 186.655 57.926 186.747 57.986L186.669 58.784C186.645 58.884 186.585 58.934 186.489 58.934C186.433 58.934 186.351 58.922 186.243 58.898C186.135 58.874 186.013 58.862 185.877 58.862C185.685 58.862 185.513 58.89 185.361 58.946C185.213 59.002 185.079 59.086 184.959 59.198C184.843 59.306 184.737 59.442 184.641 59.606C184.549 59.766 184.465 59.95 184.389 60.158V63.998H183.315V57.92H183.927C184.043 57.92 184.123 57.942 184.167 57.986C184.211 58.03 184.241 58.106 184.257 58.214L184.329 59.138ZM190.478 61.262C189.986 61.278 189.566 61.318 189.218 61.382C188.874 61.442 188.592 61.522 188.372 61.622C188.156 61.722 187.998 61.84 187.898 61.976C187.802 62.112 187.754 62.264 187.754 62.432C187.754 62.592 187.78 62.73 187.832 62.846C187.884 62.962 187.954 63.058 188.042 63.134C188.134 63.206 188.24 63.26 188.36 63.296C188.484 63.328 188.616 63.344 188.756 63.344C188.944 63.344 189.116 63.326 189.272 63.29C189.428 63.25 189.574 63.194 189.71 63.122C189.85 63.05 189.982 62.964 190.106 62.864C190.234 62.764 190.358 62.65 190.478 62.522V61.262ZM187.028 58.778C187.364 58.454 187.726 58.212 188.114 58.052C188.502 57.892 188.932 57.812 189.404 57.812C189.744 57.812 190.046 57.868 190.31 57.98C190.574 58.092 190.796 58.248 190.976 58.448C191.156 58.648 191.292 58.89 191.384 59.174C191.476 59.458 191.522 59.77 191.522 60.11V63.998H191.048C190.944 63.998 190.864 63.982 190.808 63.95C190.752 63.914 190.708 63.846 190.676 63.746L190.556 63.17C190.396 63.318 190.24 63.45 190.088 63.566C189.936 63.678 189.776 63.774 189.608 63.854C189.44 63.93 189.26 63.988 189.068 64.028C188.88 64.072 188.67 64.094 188.438 64.094C188.202 64.094 187.98 64.062 187.772 63.998C187.564 63.93 187.382 63.83 187.226 63.698C187.074 63.566 186.952 63.4 186.86 63.2C186.772 62.996 186.728 62.756 186.728 62.48C186.728 62.24 186.794 62.01 186.926 61.79C187.058 61.566 187.272 61.368 187.568 61.196C187.864 61.024 188.25 60.884 188.726 60.776C189.202 60.664 189.786 60.6 190.478 60.584V60.11C190.478 59.638 190.376 59.282 190.172 59.042C189.968 58.798 189.67 58.676 189.278 58.676C189.014 58.676 188.792 58.71 188.612 58.778C188.436 58.842 188.282 58.916 188.15 59C188.022 59.08 187.91 59.154 187.814 59.222C187.722 59.286 187.63 59.318 187.538 59.318C187.466 59.318 187.404 59.3 187.352 59.264C187.3 59.224 187.256 59.176 187.22 59.12L187.028 58.778ZM196.971 59C196.939 59.044 196.907 59.078 196.875 59.102C196.843 59.126 196.799 59.138 196.743 59.138C196.683 59.138 196.617 59.114 196.545 59.066C196.473 59.014 196.383 58.958 196.275 58.898C196.171 58.838 196.041 58.784 195.885 58.736C195.733 58.684 195.545 58.658 195.321 58.658C195.021 58.658 194.757 58.712 194.529 58.82C194.301 58.924 194.109 59.076 193.953 59.276C193.801 59.476 193.685 59.718 193.605 60.002C193.529 60.286 193.491 60.604 193.491 60.956C193.491 61.324 193.533 61.652 193.617 61.94C193.701 62.224 193.819 62.464 193.971 62.66C194.127 62.852 194.313 63 194.529 63.104C194.749 63.204 194.995 63.254 195.267 63.254C195.527 63.254 195.741 63.224 195.909 63.164C196.077 63.1 196.215 63.03 196.323 62.954C196.435 62.878 196.527 62.81 196.599 62.75C196.675 62.686 196.749 62.654 196.821 62.654C196.909 62.654 196.977 62.688 197.025 62.756L197.325 63.146C197.193 63.31 197.043 63.45 196.875 63.566C196.707 63.682 196.525 63.78 196.329 63.86C196.137 63.936 195.935 63.992 195.723 64.028C195.511 64.064 195.295 64.082 195.075 64.082C194.695 64.082 194.341 64.012 194.013 63.872C193.689 63.732 193.407 63.53 193.167 63.266C192.927 62.998 192.739 62.67 192.603 62.282C192.467 61.894 192.399 61.452 192.399 60.956C192.399 60.504 192.461 60.086 192.585 59.702C192.713 59.318 192.897 58.988 193.137 58.712C193.381 58.432 193.679 58.214 194.031 58.058C194.387 57.902 194.795 57.824 195.255 57.824C195.683 57.824 196.059 57.894 196.383 58.034C196.711 58.17 197.001 58.364 197.253 58.616L196.971 59ZM199.929 64.094C199.449 64.094 199.079 63.96 198.819 63.692C198.563 63.424 198.435 63.038 198.435 62.534V58.814H197.703C197.639 58.814 197.585 58.796 197.541 58.76C197.497 58.72 197.475 58.66 197.475 58.58V58.154L198.471 58.028L198.717 56.15C198.729 56.09 198.755 56.042 198.795 56.006C198.839 55.966 198.895 55.946 198.963 55.946H199.503V58.04H201.261V58.814H199.503V62.462C199.503 62.718 199.565 62.908 199.689 63.032C199.813 63.156 199.973 63.218 200.169 63.218C200.281 63.218 200.377 63.204 200.457 63.176C200.541 63.144 200.613 63.11 200.673 63.074C200.733 63.038 200.783 63.006 200.823 62.978C200.867 62.946 200.905 62.93 200.937 62.93C200.993 62.93 201.043 62.964 201.087 63.032L201.399 63.542C201.215 63.714 200.993 63.85 200.733 63.95C200.473 64.046 200.205 64.094 199.929 64.094ZM173.864 74.998H172.7V66.4H173.864V74.998ZM176.318 69.802C176.45 69.654 176.59 69.52 176.738 69.4C176.886 69.28 177.042 69.178 177.206 69.094C177.374 69.006 177.55 68.94 177.734 68.896C177.922 68.848 178.124 68.824 178.34 68.824C178.672 68.824 178.964 68.88 179.216 68.992C179.472 69.1 179.684 69.256 179.852 69.46C180.024 69.66 180.154 69.902 180.242 70.186C180.33 70.47 180.374 70.784 180.374 71.128V74.998H179.3V71.128C179.3 70.668 179.194 70.312 178.982 70.06C178.774 69.804 178.456 69.676 178.028 69.676C177.712 69.676 177.416 69.752 177.14 69.904C176.868 70.056 176.616 70.262 176.384 70.522V74.998H175.31V68.92H175.952C176.104 68.92 176.198 68.994 176.234 69.142L176.318 69.802ZM181.895 74.998V69.832L181.223 69.754C181.139 69.734 181.069 69.704 181.013 69.664C180.961 69.62 180.935 69.558 180.935 69.478V69.04H181.895V68.452C181.895 68.104 181.943 67.796 182.039 67.528C182.139 67.256 182.279 67.028 182.459 66.844C182.643 66.656 182.863 66.514 183.119 66.418C183.375 66.322 183.663 66.274 183.983 66.274C184.255 66.274 184.505 66.314 184.733 66.394L184.709 66.928C184.701 67.024 184.647 67.076 184.547 67.084C184.451 67.092 184.321 67.096 184.157 67.096C183.973 67.096 183.805 67.12 183.653 67.168C183.505 67.216 183.377 67.294 183.269 67.402C183.161 67.51 183.077 67.652 183.017 67.828C182.961 68.004 182.933 68.222 182.933 68.482V69.04H184.685V69.814H182.969V74.998H181.895ZM187.661 68.824C188.105 68.824 188.505 68.898 188.861 69.046C189.217 69.194 189.521 69.404 189.773 69.676C190.025 69.948 190.217 70.278 190.349 70.666C190.485 71.05 190.553 71.48 190.553 71.956C190.553 72.436 190.485 72.868 190.349 73.252C190.217 73.636 190.025 73.964 189.773 74.236C189.521 74.508 189.217 74.718 188.861 74.866C188.505 75.01 188.105 75.082 187.661 75.082C187.213 75.082 186.809 75.01 186.449 74.866C186.093 74.718 185.789 74.508 185.537 74.236C185.285 73.964 185.091 73.636 184.955 73.252C184.823 72.868 184.757 72.436 184.757 71.956C184.757 71.48 184.823 71.05 184.955 70.666C185.091 70.278 185.285 69.948 185.537 69.676C185.789 69.404 186.093 69.194 186.449 69.046C186.809 68.898 187.213 68.824 187.661 68.824ZM187.661 74.248C188.261 74.248 188.709 74.048 189.005 73.648C189.301 73.244 189.449 72.682 189.449 71.962C189.449 71.238 189.301 70.674 189.005 70.27C188.709 69.866 188.261 69.664 187.661 69.664C187.357 69.664 187.091 69.716 186.863 69.82C186.639 69.924 186.451 70.074 186.299 70.27C186.151 70.466 186.039 70.708 185.963 70.996C185.891 71.28 185.855 71.602 185.855 71.962C185.855 72.682 186.003 73.244 186.299 73.648C186.599 74.048 187.053 74.248 187.661 74.248Z" fill="#767676"/>
<path d="M247.918 63.074C248.274 63.074 248.592 63.014 248.872 62.894C249.152 62.774 249.388 62.606 249.58 62.39C249.776 62.174 249.924 61.916 250.024 61.616C250.128 61.316 250.18 60.986 250.18 60.626V55.4H251.338V60.626C251.338 61.122 251.258 61.582 251.098 62.006C250.942 62.43 250.716 62.798 250.42 63.11C250.128 63.418 249.77 63.66 249.346 63.836C248.922 64.012 248.446 64.1 247.918 64.1C247.39 64.1 246.914 64.012 246.49 63.836C246.066 63.66 245.706 63.418 245.41 63.11C245.114 62.798 244.886 62.43 244.726 62.006C244.57 61.582 244.492 61.122 244.492 60.626V55.4H245.65V60.62C245.65 60.98 245.7 61.31 245.8 61.61C245.904 61.91 246.052 62.168 246.244 62.384C246.44 62.6 246.678 62.77 246.958 62.894C247.242 63.014 247.562 63.074 247.918 63.074ZM253.663 62.534C253.859 62.798 254.073 62.984 254.305 63.092C254.537 63.2 254.797 63.254 255.085 63.254C255.653 63.254 256.089 63.052 256.393 62.648C256.697 62.244 256.849 61.668 256.849 60.92C256.849 60.524 256.813 60.184 256.741 59.9C256.673 59.616 256.573 59.384 256.441 59.204C256.309 59.02 256.147 58.886 255.955 58.802C255.763 58.718 255.545 58.676 255.301 58.676C254.953 58.676 254.647 58.756 254.383 58.916C254.123 59.076 253.883 59.302 253.663 59.594V62.534ZM253.609 58.862C253.865 58.546 254.161 58.292 254.497 58.1C254.833 57.908 255.217 57.812 255.649 57.812C256.001 57.812 256.319 57.88 256.603 58.016C256.887 58.148 257.129 58.346 257.329 58.61C257.529 58.87 257.683 59.194 257.791 59.582C257.899 59.97 257.953 60.416 257.953 60.92C257.953 61.368 257.893 61.786 257.773 62.174C257.653 62.558 257.479 62.892 257.251 63.176C257.027 63.456 256.751 63.678 256.423 63.842C256.099 64.002 255.733 64.082 255.325 64.082C254.953 64.082 254.633 64.02 254.365 63.896C254.101 63.768 253.867 63.592 253.663 63.368V66.056H252.589V57.92H253.231C253.383 57.92 253.477 57.994 253.513 58.142L253.609 58.862ZM260.011 55.16V63.998H258.943V55.16H260.011ZM263.897 57.824C264.341 57.824 264.741 57.898 265.097 58.046C265.453 58.194 265.757 58.404 266.009 58.676C266.261 58.948 266.453 59.278 266.585 59.666C266.721 60.05 266.789 60.48 266.789 60.956C266.789 61.436 266.721 61.868 266.585 62.252C266.453 62.636 266.261 62.964 266.009 63.236C265.757 63.508 265.453 63.718 265.097 63.866C264.741 64.01 264.341 64.082 263.897 64.082C263.449 64.082 263.045 64.01 262.685 63.866C262.329 63.718 262.025 63.508 261.773 63.236C261.521 62.964 261.327 62.636 261.191 62.252C261.059 61.868 260.993 61.436 260.993 60.956C260.993 60.48 261.059 60.05 261.191 59.666C261.327 59.278 261.521 58.948 261.773 58.676C262.025 58.404 262.329 58.194 262.685 58.046C263.045 57.898 263.449 57.824 263.897 57.824ZM263.897 63.248C264.497 63.248 264.945 63.048 265.241 62.648C265.537 62.244 265.685 61.682 265.685 60.962C265.685 60.238 265.537 59.674 265.241 59.27C264.945 58.866 264.497 58.664 263.897 58.664C263.593 58.664 263.327 58.716 263.099 58.82C262.875 58.924 262.687 59.074 262.535 59.27C262.387 59.466 262.275 59.708 262.199 59.996C262.127 60.28 262.091 60.602 262.091 60.962C262.091 61.682 262.239 62.244 262.535 62.648C262.835 63.048 263.289 63.248 263.897 63.248ZM271.03 61.262C270.538 61.278 270.118 61.318 269.77 61.382C269.426 61.442 269.144 61.522 268.924 61.622C268.708 61.722 268.55 61.84 268.45 61.976C268.354 62.112 268.306 62.264 268.306 62.432C268.306 62.592 268.332 62.73 268.384 62.846C268.436 62.962 268.506 63.058 268.594 63.134C268.686 63.206 268.792 63.26 268.912 63.296C269.036 63.328 269.168 63.344 269.308 63.344C269.496 63.344 269.668 63.326 269.824 63.29C269.98 63.25 270.126 63.194 270.262 63.122C270.402 63.05 270.534 62.964 270.658 62.864C270.786 62.764 270.91 62.65 271.03 62.522V61.262ZM267.58 58.778C267.916 58.454 268.278 58.212 268.666 58.052C269.054 57.892 269.484 57.812 269.956 57.812C270.296 57.812 270.598 57.868 270.862 57.98C271.126 58.092 271.348 58.248 271.528 58.448C271.708 58.648 271.844 58.89 271.936 59.174C272.028 59.458 272.074 59.77 272.074 60.11V63.998H271.6C271.496 63.998 271.416 63.982 271.36 63.95C271.304 63.914 271.26 63.846 271.228 63.746L271.108 63.17C270.948 63.318 270.792 63.45 270.64 63.566C270.488 63.678 270.328 63.774 270.16 63.854C269.992 63.93 269.812 63.988 269.62 64.028C269.432 64.072 269.222 64.094 268.99 64.094C268.754 64.094 268.532 64.062 268.324 63.998C268.116 63.93 267.934 63.83 267.778 63.698C267.626 63.566 267.504 63.4 267.412 63.2C267.324 62.996 267.28 62.756 267.28 62.48C267.28 62.24 267.346 62.01 267.478 61.79C267.61 61.566 267.824 61.368 268.12 61.196C268.416 61.024 268.802 60.884 269.278 60.776C269.754 60.664 270.338 60.6 271.03 60.584V60.11C271.03 59.638 270.928 59.282 270.724 59.042C270.52 58.798 270.222 58.676 269.83 58.676C269.566 58.676 269.344 58.71 269.164 58.778C268.988 58.842 268.834 58.916 268.702 59C268.574 59.08 268.462 59.154 268.366 59.222C268.274 59.286 268.182 59.318 268.09 59.318C268.018 59.318 267.956 59.3 267.904 59.264C267.852 59.224 267.808 59.176 267.772 59.12L267.58 58.778ZM277.253 59.366C277.053 59.098 276.837 58.912 276.605 58.808C276.373 58.7 276.113 58.646 275.825 58.646C275.261 58.646 274.827 58.848 274.523 59.252C274.219 59.656 274.067 60.232 274.067 60.98C274.067 61.376 274.101 61.716 274.169 62C274.237 62.28 274.337 62.512 274.469 62.696C274.601 62.876 274.763 63.008 274.955 63.092C275.147 63.176 275.365 63.218 275.609 63.218C275.961 63.218 276.267 63.138 276.527 62.978C276.791 62.818 277.033 62.592 277.253 62.3V59.366ZM278.321 55.16V63.998H277.685C277.533 63.998 277.437 63.924 277.397 63.776L277.301 63.038C277.041 63.35 276.745 63.602 276.413 63.794C276.081 63.986 275.697 64.082 275.261 64.082C274.913 64.082 274.597 64.016 274.313 63.884C274.029 63.748 273.787 63.55 273.587 63.29C273.387 63.03 273.233 62.706 273.125 62.318C273.017 61.93 272.963 61.484 272.963 60.98C272.963 60.532 273.023 60.116 273.143 59.732C273.263 59.344 273.435 59.008 273.659 58.724C273.883 58.44 274.157 58.218 274.481 58.058C274.809 57.894 275.177 57.812 275.585 57.812C275.957 57.812 276.275 57.876 276.539 58.004C276.807 58.128 277.045 58.302 277.253 58.526V55.16H278.321ZM246.949 73.222C247.013 73.222 247.069 73.248 247.117 73.3L247.579 73.798C247.227 74.206 246.799 74.524 246.295 74.752C245.795 74.98 245.189 75.094 244.477 75.094C243.861 75.094 243.301 74.988 242.797 74.776C242.293 74.56 241.863 74.26 241.507 73.876C241.151 73.488 240.875 73.024 240.679 72.484C240.483 71.944 240.385 71.35 240.385 70.702C240.385 70.054 240.487 69.46 240.691 68.92C240.895 68.38 241.181 67.916 241.549 67.528C241.921 67.14 242.365 66.84 242.881 66.628C243.397 66.412 243.967 66.304 244.591 66.304C245.203 66.304 245.743 66.402 246.211 66.598C246.679 66.794 247.091 67.06 247.447 67.396L247.063 67.93C247.039 67.97 247.007 68.004 246.967 68.032C246.931 68.056 246.881 68.068 246.817 68.068C246.745 68.068 246.657 68.03 246.553 67.954C246.449 67.874 246.313 67.786 246.145 67.69C245.977 67.594 245.767 67.508 245.515 67.432C245.263 67.352 244.953 67.312 244.585 67.312C244.141 67.312 243.735 67.39 243.367 67.546C242.999 67.698 242.681 67.92 242.413 68.212C242.149 68.504 241.943 68.86 241.795 69.28C241.647 69.7 241.573 70.174 241.573 70.702C241.573 71.238 241.649 71.716 241.801 72.136C241.957 72.556 242.167 72.912 242.431 73.204C242.699 73.492 243.013 73.712 243.373 73.864C243.737 74.016 244.129 74.092 244.549 74.092C244.805 74.092 245.035 74.078 245.239 74.05C245.447 74.018 245.637 73.97 245.809 73.906C245.985 73.842 246.147 73.762 246.295 73.666C246.447 73.566 246.597 73.448 246.745 73.312C246.813 73.252 246.881 73.222 246.949 73.222ZM250.713 68.824C251.157 68.824 251.557 68.898 251.913 69.046C252.269 69.194 252.573 69.404 252.825 69.676C253.077 69.948 253.269 70.278 253.401 70.666C253.537 71.05 253.605 71.48 253.605 71.956C253.605 72.436 253.537 72.868 253.401 73.252C253.269 73.636 253.077 73.964 252.825 74.236C252.573 74.508 252.269 74.718 251.913 74.866C251.557 75.01 251.157 75.082 250.713 75.082C250.265 75.082 249.861 75.01 249.501 74.866C249.145 74.718 248.841 74.508 248.589 74.236C248.337 73.964 248.143 73.636 248.007 73.252C247.875 72.868 247.809 72.436 247.809 71.956C247.809 71.48 247.875 71.05 248.007 70.666C248.143 70.278 248.337 69.948 248.589 69.676C248.841 69.404 249.145 69.194 249.501 69.046C249.861 68.898 250.265 68.824 250.713 68.824ZM250.713 74.248C251.313 74.248 251.761 74.048 252.057 73.648C252.353 73.244 252.501 72.682 252.501 71.962C252.501 71.238 252.353 70.674 252.057 70.27C251.761 69.866 251.313 69.664 250.713 69.664C250.409 69.664 250.143 69.716 249.915 69.82C249.691 69.924 249.503 70.074 249.351 70.27C249.203 70.466 249.091 70.708 249.015 70.996C248.943 71.28 248.907 71.602 248.907 71.962C248.907 72.682 249.055 73.244 249.351 73.648C249.651 74.048 250.105 74.248 250.713 74.248ZM255.56 69.802C255.692 69.654 255.832 69.52 255.98 69.4C256.128 69.28 256.284 69.178 256.448 69.094C256.616 69.006 256.792 68.94 256.976 68.896C257.164 68.848 257.366 68.824 257.582 68.824C257.914 68.824 258.206 68.88 258.458 68.992C258.714 69.1 258.926 69.256 259.094 69.46C259.266 69.66 259.396 69.902 259.484 70.186C259.572 70.47 259.616 70.784 259.616 71.128V74.998H258.542V71.128C258.542 70.668 258.436 70.312 258.224 70.06C258.016 69.804 257.698 69.676 257.27 69.676C256.954 69.676 256.658 69.752 256.382 69.904C256.11 70.056 255.858 70.262 255.626 70.522V74.998H254.552V68.92H255.194C255.346 68.92 255.44 68.994 255.476 69.142L255.56 69.802ZM262.619 75.094C262.139 75.094 261.769 74.96 261.509 74.692C261.253 74.424 261.125 74.038 261.125 73.534V69.814H260.393C260.329 69.814 260.275 69.796 260.231 69.76C260.187 69.72 260.165 69.66 260.165 69.58V69.154L261.161 69.028L261.407 67.15C261.419 67.09 261.445 67.042 261.485 67.006C261.529 66.966 261.585 66.946 261.653 66.946H262.193V69.04H263.951V69.814H262.193V73.462C262.193 73.718 262.255 73.908 262.379 74.032C262.503 74.156 262.663 74.218 262.859 74.218C262.971 74.218 263.067 74.204 263.147 74.176C263.231 74.144 263.303 74.11 263.363 74.074C263.423 74.038 263.473 74.006 263.513 73.978C263.557 73.946 263.595 73.93 263.627 73.93C263.683 73.93 263.733 73.964 263.777 74.032L264.089 74.542C263.905 74.714 263.683 74.85 263.423 74.95C263.163 75.046 262.895 75.094 262.619 75.094ZM265.66 70.138C265.852 69.722 266.088 69.398 266.368 69.166C266.648 68.93 266.99 68.812 267.394 68.812C267.522 68.812 267.644 68.826 267.76 68.854C267.88 68.882 267.986 68.926 268.078 68.986L268 69.784C267.976 69.884 267.916 69.934 267.82 69.934C267.764 69.934 267.682 69.922 267.574 69.898C267.466 69.874 267.344 69.862 267.208 69.862C267.016 69.862 266.844 69.89 266.692 69.946C266.544 70.002 266.41 70.086 266.29 70.198C266.174 70.306 266.068 70.442 265.972 70.606C265.88 70.766 265.796 70.95 265.72 71.158V74.998H264.646V68.92H265.258C265.374 68.92 265.454 68.942 265.498 68.986C265.542 69.03 265.572 69.106 265.588 69.214L265.66 70.138ZM271.809 72.262C271.317 72.278 270.897 72.318 270.549 72.382C270.205 72.442 269.923 72.522 269.703 72.622C269.487 72.722 269.329 72.84 269.229 72.976C269.133 73.112 269.085 73.264 269.085 73.432C269.085 73.592 269.111 73.73 269.163 73.846C269.215 73.962 269.285 74.058 269.373 74.134C269.465 74.206 269.571 74.26 269.691 74.296C269.815 74.328 269.947 74.344 270.087 74.344C270.275 74.344 270.447 74.326 270.603 74.29C270.759 74.25 270.905 74.194 271.041 74.122C271.181 74.05 271.313 73.964 271.437 73.864C271.565 73.764 271.689 73.65 271.809 73.522V72.262ZM268.359 69.778C268.695 69.454 269.057 69.212 269.445 69.052C269.833 68.892 270.263 68.812 270.735 68.812C271.075 68.812 271.377 68.868 271.641 68.98C271.905 69.092 272.127 69.248 272.307 69.448C272.487 69.648 272.623 69.89 272.715 70.174C272.807 70.458 272.853 70.77 272.853 71.11V74.998H272.379C272.275 74.998 272.195 74.982 272.139 74.95C272.083 74.914 272.039 74.846 272.007 74.746L271.887 74.17C271.727 74.318 271.571 74.45 271.419 74.566C271.267 74.678 271.107 74.774 270.939 74.854C270.771 74.93 270.591 74.988 270.399 75.028C270.211 75.072 270.001 75.094 269.769 75.094C269.533 75.094 269.311 75.062 269.103 74.998C268.895 74.93 268.713 74.83 268.557 74.698C268.405 74.566 268.283 74.4 268.191 74.2C268.103 73.996 268.059 73.756 268.059 73.48C268.059 73.24 268.125 73.01 268.257 72.79C268.389 72.566 268.603 72.368 268.899 72.196C269.195 72.024 269.581 71.884 270.057 71.776C270.533 71.664 271.117 71.6 271.809 71.584V71.11C271.809 70.638 271.707 70.282 271.503 70.042C271.299 69.798 271.001 69.676 270.609 69.676C270.345 69.676 270.123 69.71 269.943 69.778C269.767 69.842 269.613 69.916 269.481 70C269.353 70.08 269.241 70.154 269.145 70.222C269.053 70.286 268.961 70.318 268.869 70.318C268.797 70.318 268.735 70.3 268.683 70.264C268.631 70.224 268.587 70.176 268.551 70.12L268.359 69.778ZM278.302 70C278.27 70.044 278.238 70.078 278.206 70.102C278.174 70.126 278.13 70.138 278.074 70.138C278.014 70.138 277.948 70.114 277.876 70.066C277.804 70.014 277.714 69.958 277.606 69.898C277.502 69.838 277.372 69.784 277.216 69.736C277.064 69.684 276.876 69.658 276.652 69.658C276.352 69.658 276.088 69.712 275.86 69.82C275.632 69.924 275.44 70.076 275.284 70.276C275.132 70.476 275.016 70.718 274.936 71.002C274.86 71.286 274.822 71.604 274.822 71.956C274.822 72.324 274.864 72.652 274.948 72.94C275.032 73.224 275.15 73.464 275.302 73.66C275.458 73.852 275.644 74 275.86 74.104C276.08 74.204 276.326 74.254 276.598 74.254C276.858 74.254 277.072 74.224 277.24 74.164C277.408 74.1 277.546 74.03 277.654 73.954C277.766 73.878 277.858 73.81 277.93 73.75C278.006 73.686 278.08 73.654 278.152 73.654C278.24 73.654 278.308 73.688 278.356 73.756L278.656 74.146C278.524 74.31 278.374 74.45 278.206 74.566C278.038 74.682 277.856 74.78 277.66 74.86C277.468 74.936 277.266 74.992 277.054 75.028C276.842 75.064 276.626 75.082 276.406 75.082C276.026 75.082 275.672 75.012 275.344 74.872C275.02 74.732 274.738 74.53 274.498 74.266C274.258 73.998 274.07 73.67 273.934 73.282C273.798 72.894 273.73 72.452 273.73 71.956C273.73 71.504 273.792 71.086 273.916 70.702C274.044 70.318 274.228 69.988 274.468 69.712C274.712 69.432 275.01 69.214 275.362 69.058C275.718 68.902 276.126 68.824 276.586 68.824C277.014 68.824 277.39 68.894 277.714 69.034C278.042 69.17 278.332 69.364 278.584 69.616L278.302 70ZM281.261 75.094C280.781 75.094 280.411 74.96 280.151 74.692C279.895 74.424 279.767 74.038 279.767 73.534V69.814H279.035C278.971 69.814 278.917 69.796 278.873 69.76C278.829 69.72 278.807 69.66 278.807 69.58V69.154L279.803 69.028L280.049 67.15C280.061 67.09 280.087 67.042 280.127 67.006C280.171 66.966 280.227 66.946 280.295 66.946H280.835V69.04H282.593V69.814H280.835V73.462C280.835 73.718 280.897 73.908 281.021 74.032C281.145 74.156 281.305 74.218 281.501 74.218C281.613 74.218 281.709 74.204 281.789 74.176C281.873 74.144 281.945 74.11 282.005 74.074C282.065 74.038 282.115 74.006 282.155 73.978C282.199 73.946 282.237 73.93 282.269 73.93C282.325 73.93 282.375 73.964 282.419 74.032L282.731 74.542C282.547 74.714 282.325 74.85 282.065 74.95C281.805 75.046 281.537 75.094 281.261 75.094Z" fill="#767676"/>
<path d="M325.998 61.028C325.998 61.508 325.938 61.938 325.818 62.318C325.702 62.698 325.528 63.02 325.296 63.284C325.068 63.544 324.786 63.744 324.45 63.884C324.114 64.024 323.728 64.094 323.292 64.094C322.896 64.094 322.492 64.038 322.08 63.926C322.088 63.81 322.098 63.696 322.11 63.584C322.122 63.468 322.132 63.354 322.14 63.242C322.148 63.174 322.172 63.12 322.212 63.08C322.256 63.036 322.322 63.014 322.41 63.014C322.482 63.014 322.576 63.032 322.692 63.068C322.812 63.104 322.972 63.122 323.172 63.122C323.436 63.122 323.672 63.082 323.88 63.002C324.088 62.922 324.262 62.798 324.402 62.63C324.542 62.462 324.648 62.248 324.72 61.988C324.796 61.724 324.834 61.412 324.834 61.052V55.4H325.998V61.028ZM329.799 57.824C330.243 57.824 330.643 57.898 330.999 58.046C331.355 58.194 331.659 58.404 331.911 58.676C332.163 58.948 332.355 59.278 332.487 59.666C332.623 60.05 332.691 60.48 332.691 60.956C332.691 61.436 332.623 61.868 332.487 62.252C332.355 62.636 332.163 62.964 331.911 63.236C331.659 63.508 331.355 63.718 330.999 63.866C330.643 64.01 330.243 64.082 329.799 64.082C329.351 64.082 328.947 64.01 328.587 63.866C328.231 63.718 327.927 63.508 327.675 63.236C327.423 62.964 327.229 62.636 327.093 62.252C326.961 61.868 326.895 61.436 326.895 60.956C326.895 60.48 326.961 60.05 327.093 59.666C327.229 59.278 327.423 58.948 327.675 58.676C327.927 58.404 328.231 58.194 328.587 58.046C328.947 57.898 329.351 57.824 329.799 57.824ZM329.799 63.248C330.399 63.248 330.847 63.048 331.143 62.648C331.439 62.244 331.587 61.682 331.587 60.962C331.587 60.238 331.439 59.674 331.143 59.27C330.847 58.866 330.399 58.664 329.799 58.664C329.495 58.664 329.229 58.716 329.001 58.82C328.777 58.924 328.589 59.074 328.437 59.27C328.289 59.466 328.177 59.708 328.101 59.996C328.029 60.28 327.993 60.602 327.993 60.962C327.993 61.682 328.141 62.244 328.437 62.648C328.737 63.048 329.191 63.248 329.799 63.248ZM334.766 57.92V63.998H333.698V57.92H334.766ZM334.994 56.012C334.994 56.116 334.972 56.214 334.928 56.306C334.888 56.394 334.832 56.474 334.76 56.546C334.692 56.614 334.61 56.668 334.514 56.708C334.422 56.748 334.324 56.768 334.22 56.768C334.116 56.768 334.018 56.748 333.926 56.708C333.838 56.668 333.76 56.614 333.692 56.546C333.624 56.474 333.57 56.394 333.53 56.306C333.49 56.214 333.47 56.116 333.47 56.012C333.47 55.908 333.49 55.81 333.53 55.718C333.57 55.622 333.624 55.54 333.692 55.472C333.76 55.4 333.838 55.344 333.926 55.304C334.018 55.264 334.116 55.244 334.22 55.244C334.324 55.244 334.422 55.264 334.514 55.304C334.61 55.344 334.692 55.4 334.76 55.472C334.832 55.54 334.888 55.622 334.928 55.718C334.972 55.81 334.994 55.908 334.994 56.012ZM337.12 58.802C337.252 58.654 337.392 58.52 337.54 58.4C337.688 58.28 337.844 58.178 338.008 58.094C338.176 58.006 338.352 57.94 338.536 57.896C338.724 57.848 338.926 57.824 339.142 57.824C339.474 57.824 339.766 57.88 340.018 57.992C340.274 58.1 340.486 58.256 340.654 58.46C340.826 58.66 340.956 58.902 341.044 59.186C341.132 59.47 341.176 59.784 341.176 60.128V63.998H340.102V60.128C340.102 59.668 339.996 59.312 339.784 59.06C339.576 58.804 339.258 58.676 338.83 58.676C338.514 58.676 338.218 58.752 337.942 58.904C337.67 59.056 337.418 59.262 337.186 59.522V63.998H336.112V57.92H336.754C336.906 57.92 337 57.994 337.036 58.142L337.12 58.802ZM346.924 64.094C346.444 64.094 346.074 63.96 345.814 63.692C345.558 63.424 345.43 63.038 345.43 62.534V58.814H344.698C344.634 58.814 344.58 58.796 344.536 58.76C344.492 58.72 344.47 58.66 344.47 58.58V58.154L345.466 58.028L345.712 56.15C345.724 56.09 345.75 56.042 345.79 56.006C345.834 55.966 345.89 55.946 345.958 55.946H346.498V58.04H348.256V58.814H346.498V62.462C346.498 62.718 346.56 62.908 346.684 63.032C346.808 63.156 346.968 63.218 347.164 63.218C347.276 63.218 347.372 63.204 347.452 63.176C347.536 63.144 347.608 63.11 347.668 63.074C347.728 63.038 347.778 63.006 347.818 62.978C347.862 62.946 347.9 62.93 347.932 62.93C347.988 62.93 348.038 62.964 348.082 63.032L348.394 63.542C348.21 63.714 347.988 63.85 347.728 63.95C347.468 64.046 347.2 64.094 346.924 64.094ZM350.025 58.73C350.285 58.454 350.573 58.234 350.889 58.07C351.205 57.906 351.569 57.824 351.981 57.824C352.313 57.824 352.605 57.88 352.857 57.992C353.113 58.1 353.325 58.256 353.493 58.46C353.665 58.66 353.795 58.902 353.883 59.186C353.971 59.47 354.015 59.784 354.015 60.128V63.998H352.941V60.128C352.941 59.668 352.835 59.312 352.623 59.06C352.415 58.804 352.097 58.676 351.669 58.676C351.353 58.676 351.057 58.752 350.781 58.904C350.509 59.056 350.257 59.262 350.025 59.522V63.998H348.951V55.16H350.025V58.73ZM359.302 60.296C359.302 60.048 359.266 59.822 359.194 59.618C359.126 59.41 359.024 59.232 358.888 59.084C358.756 58.932 358.594 58.816 358.402 58.736C358.21 58.652 357.992 58.61 357.748 58.61C357.236 58.61 356.83 58.76 356.53 59.06C356.234 59.356 356.05 59.768 355.978 60.296H359.302ZM360.166 63.146C360.034 63.306 359.876 63.446 359.692 63.566C359.508 63.682 359.31 63.778 359.098 63.854C358.89 63.93 358.674 63.986 358.45 64.022C358.226 64.062 358.004 64.082 357.784 64.082C357.364 64.082 356.976 64.012 356.62 63.872C356.268 63.728 355.962 63.52 355.702 63.248C355.446 62.972 355.246 62.632 355.102 62.228C354.958 61.824 354.886 61.36 354.886 60.836C354.886 60.412 354.95 60.016 355.078 59.648C355.21 59.28 355.398 58.962 355.642 58.694C355.886 58.422 356.184 58.21 356.536 58.058C356.888 57.902 357.284 57.824 357.724 57.824C358.088 57.824 358.424 57.886 358.732 58.01C359.044 58.13 359.312 58.306 359.536 58.538C359.764 58.766 359.942 59.05 360.07 59.39C360.198 59.726 360.262 60.11 360.262 60.542C360.262 60.71 360.244 60.822 360.208 60.878C360.172 60.934 360.104 60.962 360.004 60.962H355.942C355.954 61.346 356.006 61.68 356.098 61.964C356.194 62.248 356.326 62.486 356.494 62.678C356.662 62.866 356.862 63.008 357.094 63.104C357.326 63.196 357.586 63.242 357.874 63.242C358.142 63.242 358.372 63.212 358.564 63.152C358.76 63.088 358.928 63.02 359.068 62.948C359.208 62.876 359.324 62.81 359.416 62.75C359.512 62.686 359.594 62.654 359.662 62.654C359.75 62.654 359.818 62.688 359.866 62.756L360.166 63.146ZM326.561 73.222C326.625 73.222 326.681 73.248 326.729 73.3L327.191 73.798C326.839 74.206 326.411 74.524 325.907 74.752C325.407 74.98 324.801 75.094 324.089 75.094C323.473 75.094 322.913 74.988 322.409 74.776C321.905 74.56 321.475 74.26 321.119 73.876C320.763 73.488 320.487 73.024 320.291 72.484C320.095 71.944 319.997 71.35 319.997 70.702C319.997 70.054 320.099 69.46 320.303 68.92C320.507 68.38 320.793 67.916 321.161 67.528C321.533 67.14 321.977 66.84 322.493 66.628C323.009 66.412 323.579 66.304 324.203 66.304C324.815 66.304 325.355 66.402 325.823 66.598C326.291 66.794 326.703 67.06 327.059 67.396L326.675 67.93C326.651 67.97 326.619 68.004 326.579 68.032C326.543 68.056 326.493 68.068 326.429 68.068C326.357 68.068 326.269 68.03 326.165 67.954C326.061 67.874 325.925 67.786 325.757 67.69C325.589 67.594 325.379 67.508 325.127 67.432C324.875 67.352 324.565 67.312 324.197 67.312C323.753 67.312 323.347 67.39 322.979 67.546C322.611 67.698 322.293 67.92 322.025 68.212C321.761 68.504 321.555 68.86 321.407 69.28C321.259 69.7 321.185 70.174 321.185 70.702C321.185 71.238 321.261 71.716 321.413 72.136C321.569 72.556 321.779 72.912 322.043 73.204C322.311 73.492 322.625 73.712 322.985 73.864C323.349 74.016 323.741 74.092 324.161 74.092C324.417 74.092 324.647 74.078 324.851 74.05C325.059 74.018 325.249 73.97 325.421 73.906C325.597 73.842 325.759 73.762 325.907 73.666C326.059 73.566 326.209 73.448 326.357 73.312C326.425 73.252 326.493 73.222 326.561 73.222ZM330.325 68.824C330.769 68.824 331.169 68.898 331.525 69.046C331.881 69.194 332.185 69.404 332.437 69.676C332.689 69.948 332.881 70.278 333.013 70.666C333.149 71.05 333.217 71.48 333.217 71.956C333.217 72.436 333.149 72.868 333.013 73.252C332.881 73.636 332.689 73.964 332.437 74.236C332.185 74.508 331.881 74.718 331.525 74.866C331.169 75.01 330.769 75.082 330.325 75.082C329.877 75.082 329.473 75.01 329.113 74.866C328.757 74.718 328.453 74.508 328.201 74.236C327.949 73.964 327.755 73.636 327.619 73.252C327.487 72.868 327.421 72.436 327.421 71.956C327.421 71.48 327.487 71.05 327.619 70.666C327.755 70.278 327.949 69.948 328.201 69.676C328.453 69.404 328.757 69.194 329.113 69.046C329.473 68.898 329.877 68.824 330.325 68.824ZM330.325 74.248C330.925 74.248 331.373 74.048 331.669 73.648C331.965 73.244 332.113 72.682 332.113 71.962C332.113 71.238 331.965 70.674 331.669 70.27C331.373 69.866 330.925 69.664 330.325 69.664C330.021 69.664 329.755 69.716 329.527 69.82C329.303 69.924 329.115 70.074 328.963 70.27C328.815 70.466 328.703 70.708 328.627 70.996C328.555 71.28 328.519 71.602 328.519 71.962C328.519 72.682 328.667 73.244 328.963 73.648C329.263 74.048 329.717 74.248 330.325 74.248ZM337.458 72.262C336.966 72.278 336.546 72.318 336.198 72.382C335.854 72.442 335.572 72.522 335.352 72.622C335.136 72.722 334.978 72.84 334.878 72.976C334.782 73.112 334.734 73.264 334.734 73.432C334.734 73.592 334.76 73.73 334.812 73.846C334.864 73.962 334.934 74.058 335.022 74.134C335.114 74.206 335.22 74.26 335.34 74.296C335.464 74.328 335.596 74.344 335.736 74.344C335.924 74.344 336.096 74.326 336.252 74.29C336.408 74.25 336.554 74.194 336.69 74.122C336.83 74.05 336.962 73.964 337.086 73.864C337.214 73.764 337.338 73.65 337.458 73.522V72.262ZM334.008 69.778C334.344 69.454 334.706 69.212 335.094 69.052C335.482 68.892 335.912 68.812 336.384 68.812C336.724 68.812 337.026 68.868 337.29 68.98C337.554 69.092 337.776 69.248 337.956 69.448C338.136 69.648 338.272 69.89 338.364 70.174C338.456 70.458 338.502 70.77 338.502 71.11V74.998H338.028C337.924 74.998 337.844 74.982 337.788 74.95C337.732 74.914 337.688 74.846 337.656 74.746L337.536 74.17C337.376 74.318 337.22 74.45 337.068 74.566C336.916 74.678 336.756 74.774 336.588 74.854C336.42 74.93 336.24 74.988 336.048 75.028C335.86 75.072 335.65 75.094 335.418 75.094C335.182 75.094 334.96 75.062 334.752 74.998C334.544 74.93 334.362 74.83 334.206 74.698C334.054 74.566 333.932 74.4 333.84 74.2C333.752 73.996 333.708 73.756 333.708 73.48C333.708 73.24 333.774 73.01 333.906 72.79C334.038 72.566 334.252 72.368 334.548 72.196C334.844 72.024 335.23 71.884 335.706 71.776C336.182 71.664 336.766 71.6 337.458 71.584V71.11C337.458 70.638 337.356 70.282 337.152 70.042C336.948 69.798 336.65 69.676 336.258 69.676C335.994 69.676 335.772 69.71 335.592 69.778C335.416 69.842 335.262 69.916 335.13 70C335.002 70.08 334.89 70.154 334.794 70.222C334.702 70.286 334.61 70.318 334.518 70.318C334.446 70.318 334.384 70.3 334.332 70.264C334.28 70.224 334.236 70.176 334.2 70.12L334.008 69.778ZM340.825 66.16V74.998H339.757V66.16H340.825ZM343.277 68.92V74.998H342.209V68.92H343.277ZM343.505 67.012C343.505 67.116 343.483 67.214 343.439 67.306C343.399 67.394 343.343 67.474 343.271 67.546C343.203 67.614 343.121 67.668 343.025 67.708C342.933 67.748 342.835 67.768 342.731 67.768C342.627 67.768 342.529 67.748 342.437 67.708C342.349 67.668 342.271 67.614 342.203 67.546C342.135 67.474 342.081 67.394 342.041 67.306C342.001 67.214 341.981 67.116 341.981 67.012C341.981 66.908 342.001 66.81 342.041 66.718C342.081 66.622 342.135 66.54 342.203 66.472C342.271 66.4 342.349 66.344 342.437 66.304C342.529 66.264 342.627 66.244 342.731 66.244C342.835 66.244 342.933 66.264 343.025 66.304C343.121 66.344 343.203 66.4 343.271 66.472C343.343 66.54 343.399 66.622 343.439 66.718C343.483 66.81 343.505 66.908 343.505 67.012ZM346.49 75.094C346.01 75.094 345.64 74.96 345.38 74.692C345.124 74.424 344.996 74.038 344.996 73.534V69.814H344.264C344.2 69.814 344.146 69.796 344.102 69.76C344.058 69.72 344.036 69.66 344.036 69.58V69.154L345.032 69.028L345.278 67.15C345.29 67.09 345.316 67.042 345.356 67.006C345.4 66.966 345.456 66.946 345.524 66.946H346.064V69.04H347.822V69.814H346.064V73.462C346.064 73.718 346.126 73.908 346.25 74.032C346.374 74.156 346.534 74.218 346.73 74.218C346.842 74.218 346.938 74.204 347.018 74.176C347.102 74.144 347.174 74.11 347.234 74.074C347.294 74.038 347.344 74.006 347.384 73.978C347.428 73.946 347.466 73.93 347.498 73.93C347.554 73.93 347.604 73.964 347.648 74.032L347.96 74.542C347.776 74.714 347.554 74.85 347.294 74.95C347.034 75.046 346.766 75.094 346.49 75.094ZM349.644 68.92V74.998H348.576V68.92H349.644ZM349.872 67.012C349.872 67.116 349.85 67.214 349.806 67.306C349.766 67.394 349.71 67.474 349.638 67.546C349.57 67.614 349.488 67.668 349.392 67.708C349.3 67.748 349.202 67.768 349.098 67.768C348.994 67.768 348.896 67.748 348.804 67.708C348.716 67.668 348.638 67.614 348.57 67.546C348.502 67.474 348.448 67.394 348.408 67.306C348.368 67.214 348.348 67.116 348.348 67.012C348.348 66.908 348.368 66.81 348.408 66.718C348.448 66.622 348.502 66.54 348.57 66.472C348.638 66.4 348.716 66.344 348.804 66.304C348.896 66.264 348.994 66.244 349.098 66.244C349.202 66.244 349.3 66.264 349.392 66.304C349.488 66.344 349.57 66.4 349.638 66.472C349.71 66.54 349.766 66.622 349.806 66.718C349.85 66.81 349.872 66.908 349.872 67.012ZM353.553 68.824C353.997 68.824 354.397 68.898 354.753 69.046C355.109 69.194 355.413 69.404 355.665 69.676C355.917 69.948 356.109 70.278 356.241 70.666C356.377 71.05 356.445 71.48 356.445 71.956C356.445 72.436 356.377 72.868 356.241 73.252C356.109 73.636 355.917 73.964 355.665 74.236C355.413 74.508 355.109 74.718 354.753 74.866C354.397 75.01 353.997 75.082 353.553 75.082C353.105 75.082 352.701 75.01 352.341 74.866C351.985 74.718 351.681 74.508 351.429 74.236C351.177 73.964 350.983 73.636 350.847 73.252C350.715 72.868 350.649 72.436 350.649 71.956C350.649 71.48 350.715 71.05 350.847 70.666C350.983 70.278 351.177 69.948 351.429 69.676C351.681 69.404 351.985 69.194 352.341 69.046C352.701 68.898 353.105 68.824 353.553 68.824ZM353.553 74.248C354.153 74.248 354.601 74.048 354.897 73.648C355.193 73.244 355.341 72.682 355.341 71.962C355.341 71.238 355.193 70.674 354.897 70.27C354.601 69.866 354.153 69.664 353.553 69.664C353.249 69.664 352.983 69.716 352.755 69.82C352.531 69.924 352.343 70.074 352.191 70.27C352.043 70.466 351.931 70.708 351.855 70.996C351.783 71.28 351.747 71.602 351.747 71.962C351.747 72.682 351.895 73.244 352.191 73.648C352.491 74.048 352.945 74.248 353.553 74.248ZM358.4 69.802C358.532 69.654 358.672 69.52 358.82 69.4C358.968 69.28 359.124 69.178 359.288 69.094C359.456 69.006 359.632 68.94 359.816 68.896C360.004 68.848 360.206 68.824 360.422 68.824C360.754 68.824 361.046 68.88 361.298 68.992C361.554 69.1 361.766 69.256 361.934 69.46C362.106 69.66 362.236 69.902 362.324 70.186C362.412 70.47 362.456 70.784 362.456 71.128V74.998H361.382V71.128C361.382 70.668 361.276 70.312 361.064 70.06C360.856 69.804 360.538 69.676 360.11 69.676C359.794 69.676 359.498 69.752 359.222 69.904C358.95 70.056 358.698 70.262 358.466 70.522V74.998H357.392V68.92H358.034C358.186 68.92 358.28 68.994 358.316 69.142L358.4 69.802Z" fill="#767676"/>
<defs>
<clipPath id="clip0_738_43720">
<rect width="27.5645" height="27.44" fill="white" transform="translate(327.328 11.0703)"/>
</clipPath>
</defs>
</svg>
