<svg width="363" height="76" viewBox="0 0 363 76" fill="none" xmlns="http://www.w3.org/2000/svg">
<path d="M198.332 25.1094L245.332 25.1094" stroke="#4F0774" stroke-width="3"/>
<line x1="43.2734" y1="24.749" x2="85.2734" y2="24.749" stroke="#4F0774" stroke-width="3"/>
<line x1="120.332" y1="24.6094" x2="163.332" y2="24.6094" stroke="#4F0774" stroke-width="3"/>
<line x1="281.414" y1="24.749" x2="323.414" y2="24.749" stroke="#767676" stroke-width="3"/>
<circle cx="342.286" cy="25.0635" r="18.4541" stroke="#7B7B7B" stroke-width="3"/>
<g clip-path="url(#clip0_738_43774)">
<path d="M337.314 15.2607C338.46 15.2607 339.39 14.3314 339.39 13.185C339.39 12.0387 338.46 11.1094 337.314 11.1094C336.168 11.1094 335.238 12.0387 335.238 13.185C335.238 14.3314 336.168 15.2607 337.314 15.2607Z" fill="#7B7B7B"/>
<path d="M346.365 20.0351C347.511 20.0351 348.44 19.1058 348.44 17.9594C348.44 16.8131 347.511 15.8838 346.365 15.8838C345.218 15.8838 344.289 16.8131 344.289 17.9594C344.289 19.1058 345.218 20.0351 346.365 20.0351Z" fill="#7B7B7B"/>
<path fill-rule="evenodd" clip-rule="evenodd" d="M341.506 35.5673C341.504 35.5674 341.502 35.5675 341.501 35.5676L341.501 35.5676M341.501 35.5676L341.503 35.5675L341.505 35.5673L341.506 35.5673M341.501 35.5676L341.501 35.5676C341.476 35.5695 341.451 35.5704 341.425 35.5704H329.366C328.793 35.5704 328.328 35.1057 328.328 34.5326C328.328 33.9594 328.793 33.4947 329.366 33.4947H341.394C341.4 33.4944 341.408 33.494 341.416 33.4936C341.452 33.4919 341.502 33.4902 341.562 33.4895C341.683 33.4882 341.849 33.491 342.047 33.5065C342.437 33.537 342.977 33.619 343.538 33.8353C344.103 34.0528 344.718 34.4183 345.203 35.0307C345.696 35.6524 346.001 36.4615 346.043 37.468C346.067 38.0407 345.622 38.5242 345.049 38.548C344.476 38.5718 343.993 38.1269 343.969 37.5542C343.943 36.9365 343.767 36.5612 343.576 36.3199C343.378 36.0692 343.106 35.8931 342.792 35.772C342.475 35.6498 342.145 35.5962 341.885 35.5758C341.757 35.5658 341.653 35.5643 341.585 35.5651C341.551 35.5654 341.526 35.5664 341.513 35.567L341.501 35.5676Z" fill="#7B7B7B"/>
<path d="M332.207 25.9821C331.937 27.7671 329.82 32.209 329.82 32.209L329.862 32.2297C329.841 32.3024 329.82 32.375 329.82 32.4581C329.82 33.0081 330.267 33.4544 330.817 33.4544C331.336 33.4544 331.74 33.06 331.792 32.5515L334.252 27.6322L332.197 25.9717L332.207 25.9821Z" fill="#7B7B7B"/>
<path d="M355.612 23.1069C355.539 22.8474 355.144 22.5153 354.978 22.2973L354.376 21.5397C354.096 21.1869 353.93 20.8652 353.494 20.751C352.737 20.5434 351.969 20.3566 351.201 20.1594C351.004 20.1075 350.806 20.0557 350.609 20.066C350.454 20.066 350.298 20.1179 350.153 20.1594C348.928 20.4915 347.734 20.8548 346.572 21.3633C345.929 21.6435 345.285 21.9549 344.611 22.1521C344.102 22.2973 343.573 22.3804 343.054 22.3389C342.493 22.287 342.338 22.1105 341.985 21.6954C340.947 20.4812 339.92 19.2669 338.882 18.0527C338.757 17.9074 338.633 17.7621 338.477 17.6583C338.353 17.5753 338.207 17.513 338.062 17.4611C336.941 17.0045 335.924 15.9874 334.71 15.811C333.506 15.6449 332.333 16.2365 331.223 16.6101C331.077 16.662 330.942 16.7035 330.828 16.7969C330.735 16.8695 330.662 16.9733 330.59 17.0667C330.299 17.4819 329.998 17.897 329.707 18.3121C329.635 18.4159 329.344 18.7169 329.272 18.8933C328.981 19.049 328.773 19.3499 328.773 19.7132C328.773 20.2321 329.199 20.6576 329.718 20.6576C330.206 20.6576 330.6 20.284 330.642 19.7962L331.648 18.3017C331.7 18.2291 331.742 18.1564 331.804 18.1046C331.877 18.0423 331.97 18.0111 332.063 17.98C332.458 17.8451 332.862 17.7102 333.267 17.6064C333.713 17.4819 333.931 17.3366 333.859 17.8866C333.776 18.5923 333.433 19.2254 333.215 19.8896C332.935 20.7614 332.655 21.6331 332.406 22.5049C332.364 22.6606 332.323 22.8163 332.333 22.9719C332.333 23.0861 332.375 23.2003 332.416 23.304C332.634 23.9475 332.925 24.6324 333.485 25.058C334.606 25.909 335.685 26.8326 336.775 27.7355C336.837 27.7874 336.9 27.8393 336.951 27.912C337.003 27.9846 337.014 28.078 337.034 28.161C337.346 29.6036 337.668 31.0358 337.979 32.4784C337.979 32.4888 337.979 32.4991 337.979 32.5095C337.979 33.0284 338.342 33.4436 338.788 33.4436C339.235 33.4436 339.598 33.0284 339.598 32.5095C339.598 32.2501 339.505 32.0114 339.359 31.8453C339.245 31.0669 339.121 30.2886 339.006 29.5102C338.913 28.8771 338.871 28.2129 338.726 27.5902C338.56 26.8741 338.166 26.2411 337.813 25.608C337.45 24.9853 337.097 24.3211 336.993 23.605C336.92 23.0653 337.066 22.5983 337.201 22.0898C337.346 21.5086 337.418 20.5434 337.761 20.066C338.674 20.7614 339.473 21.7577 340.293 22.5776C340.439 22.7229 340.594 22.8785 340.698 23.0653C340.74 23.138 340.823 24.072 340.75 24.0513L341.414 24.2173L345.69 23.5842L346.977 23.7399C347.496 24.674 347.932 25.7325 348.565 26.5939C348.679 26.76 348.783 26.9572 348.731 27.1544C348.658 27.3931 348.388 27.4865 348.16 27.5591L346.261 28.1195C345.306 28.3997 344.87 29.1573 344.247 29.8838C343.645 30.5895 343.043 31.3056 342.369 31.9387C341.424 32.8312 341.362 33.5992 341.362 33.5992H343.116C343.863 33.0077 344.611 32.4057 345.358 31.8142C345.856 31.4198 346.333 30.9216 346.873 30.5999C347.485 30.2367 348.201 30.1018 348.886 29.9876C350.153 29.9876 351.606 29.4998 352.861 29.2819C352.934 29.2715 353.017 29.2508 353.069 29.1989C353.121 29.147 353.141 29.0847 353.152 29.0121C353.505 27.5487 352.975 26.7185 352.29 25.5146C351.844 24.7259 351.388 23.9371 350.941 23.1484C350.879 23.0446 350.827 22.9408 350.796 22.8266C350.568 21.602 352.28 22.3181 352.83 22.4011C352.913 22.4115 352.996 22.4323 353.058 22.4738C353.131 22.5153 353.173 22.5776 353.225 22.6398C353.515 23.0134 353.806 23.4493 354.117 23.8437C354.159 24.3107 354.532 24.674 355.01 24.674C355.508 24.674 355.923 24.2692 355.923 23.7607C355.923 23.5116 355.819 23.2833 355.653 23.1172L355.612 23.1069Z" fill="#7B7B7B"/>
<path d="M354.541 36.401C353.898 35.1556 353.275 33.9102 352.6 32.6856C352.549 32.6026 352.507 32.5092 352.497 32.4158C352.497 32.3328 352.507 32.2601 352.528 32.1771C352.6 31.8554 352.673 31.5129 352.787 31.2119C352.735 31.3468 350.38 31.5233 350.089 31.5959C350.079 32.1356 350.006 32.7064 350.193 33.2357C350.514 34.1489 351.272 35.0622 351.781 35.9029C352.082 36.401 352.383 36.9096 352.694 37.4077C352.829 37.8332 353.223 38.1549 353.69 38.1549C354.282 38.1549 354.759 37.6775 354.759 37.086C354.759 36.8369 354.655 36.619 354.52 36.4322L354.552 36.401H354.541Z" fill="#7B7B7B"/>
</g>
<path d="M21.5598 34.378C21.0428 34.378 20.5453 34.1634 20.1746 33.7927L12.8874 26.3592C12.1362 25.5886 12.146 24.3496 12.9167 23.5985C13.6873 22.8473 14.9262 22.8571 15.6774 23.6278L21.5793 29.6467L39.2851 11.9409C35.6367 7.74618 30.2615 5.07324 24.262 5.07324C13.2483 5.07324 4.33203 13.9896 4.33203 25.0032C4.33203 36.0169 13.2483 44.9332 24.262 44.9332C35.2757 44.9332 44.192 36.0169 44.192 25.0032C44.192 21.4231 43.236 18.077 41.5874 15.1797L22.9353 33.8122C22.5646 34.1829 22.0769 34.3878 21.5598 34.3878V34.378Z" fill="#4F0774"/>
<path d="M44.6115 9.38514C43.8506 8.62423 42.6117 8.62423 41.8508 9.38514L39.2852 11.9508C40.1534 12.9458 40.924 14.0286 41.5776 15.1798L44.6115 12.1459C45.3724 11.385 45.3724 10.146 44.6115 9.38514Z" fill="#4F0774"/>
<path d="M21.5684 29.657L15.6665 23.638C14.9153 22.8673 13.6764 22.8575 12.9057 23.6087C12.1351 24.3599 12.1253 25.5988 12.8765 26.3694L20.1636 33.8029C20.5246 34.1736 21.0221 34.3883 21.5489 34.3883C22.0659 34.3883 22.5634 34.1834 22.9244 33.8127L41.5764 15.1704C40.9228 14.0193 40.1522 12.9364 39.284 11.9414L21.5684 29.657Z" fill="white"/>
<path d="M99.5598 34.3419C99.0428 34.3419 98.5453 34.1273 98.1746 33.7566L90.8874 26.3231C90.1362 25.5524 90.146 24.3135 90.9167 23.5624C91.6873 22.8112 92.9262 22.821 93.6774 23.5916L99.5793 29.6106L117.285 11.9048C113.637 7.71005 108.262 5.03711 102.262 5.03711C91.2483 5.03711 82.332 13.9534 82.332 24.9671C82.332 35.9808 91.2483 44.8971 102.262 44.8971C113.276 44.8971 122.192 35.9808 122.192 24.9671C122.192 21.3869 121.236 18.0409 119.587 15.1436L100.935 33.7761C100.565 34.1468 100.077 34.3517 99.5598 34.3517V34.3419Z" fill="#4F0774"/>
<path d="M122.612 9.349C121.851 8.58809 120.612 8.58809 119.851 9.349L117.285 11.9146C118.153 12.9097 118.924 13.9925 119.578 15.1436L122.612 12.1097C123.372 11.3488 123.372 10.1099 122.612 9.349Z" fill="#4F0774"/>
<path d="M99.5684 29.6208L93.6665 23.6018C92.9153 22.8312 91.6764 22.8214 90.9057 23.5726C90.1351 24.3237 90.1253 25.5626 90.8765 26.3333L98.1636 33.7668C98.5246 34.1375 99.0221 34.3521 99.5489 34.3521C100.066 34.3521 100.563 34.1473 100.924 33.7766L119.576 15.1343C118.923 13.9831 118.152 12.9003 117.284 11.9053L99.5684 29.6208Z" fill="white"/>
<path d="M177.56 34.3068C177.043 34.3068 176.545 34.0921 176.175 33.7214L168.887 26.2879C168.136 25.5173 168.146 24.2784 168.917 23.5272C169.687 22.776 170.926 22.7858 171.677 23.5565L177.579 29.5755L195.285 11.8697C191.637 7.67489 186.262 5.00195 180.262 5.00195C169.248 5.00195 160.332 13.9183 160.332 24.932C160.332 35.9456 169.248 44.862 180.262 44.862C191.276 44.862 200.192 35.9456 200.192 24.932C200.192 21.3518 199.236 18.0057 197.587 15.1084L178.935 33.741C178.565 34.1117 178.077 34.3165 177.56 34.3165V34.3068Z" fill="#4F0774"/>
<path d="M200.612 9.31385C199.851 8.55294 198.612 8.55294 197.851 9.31385L195.285 11.8795C196.153 12.8745 196.924 13.9574 197.578 15.1085L200.612 12.0746C201.372 11.3137 201.372 10.0748 200.612 9.31385Z" fill="#4F0774"/>
<path d="M177.568 29.5857L171.666 23.5667C170.915 22.796 169.676 22.7863 168.906 23.5374C168.135 24.2886 168.125 25.5275 168.876 26.2981L176.164 33.7317C176.525 34.1024 177.022 34.317 177.549 34.317C178.066 34.317 178.563 34.1121 178.924 33.7414L197.576 15.0991C196.923 13.948 196.152 12.8652 195.284 11.8701L177.568 29.5857Z" fill="white"/>
<circle cx="262.332" cy="25.002" r="18.5" stroke="#767676" stroke-width="3"/>
<path d="M265.668 13.002C265.711 13.0062 265.754 13.0148 265.797 13.0191C265.947 13.0234 266.101 13.0319 266.251 13.0276C266.478 13.0191 266.662 13.0919 266.829 13.2589C268.114 14.5309 269.407 15.7942 270.696 17.0662C271.15 17.5159 271.583 17.9912 272.041 18.4409C272.246 18.6422 272.319 18.8649 272.319 19.139C272.319 19.5673 272.332 19.9955 272.332 20.4238C272.332 22.4152 272.323 24.4024 272.319 26.3938C272.319 26.578 272.293 26.7621 272.272 26.942C272.259 27.0705 272.195 27.1518 272.067 27.1904C271.758 27.2889 271.454 27.2889 271.146 27.1947C271.017 27.1561 270.94 27.0705 270.927 26.9377C270.91 26.7664 270.88 26.5951 270.88 26.4238C270.872 24.2653 270.863 22.1069 270.859 19.9484C270.859 19.897 270.859 19.8456 270.859 19.7771C270.799 19.7771 270.747 19.7771 270.696 19.7771C269.368 19.7771 268.041 19.7771 266.709 19.7685C266.52 19.7685 266.332 19.7514 266.148 19.7257C265.857 19.6829 265.613 19.4217 265.595 19.1304C265.574 18.6422 265.557 18.154 265.553 17.6658C265.544 16.6508 265.553 15.6401 265.553 14.6251C265.553 14.578 265.553 14.5309 265.553 14.4752H255.822V35.0705H255.989C258.589 35.0705 261.193 35.0705 263.792 35.0705C264.024 35.0705 264.234 35.2803 264.234 35.5073C264.234 35.7172 264.234 35.9227 264.225 36.1326C264.216 36.3553 264.037 36.5223 263.818 36.5223C261.047 36.5223 258.281 36.518 255.51 36.5137C255.326 36.5137 255.141 36.5009 254.957 36.4966C254.782 36.4966 254.64 36.4324 254.533 36.291C254.469 36.2054 254.401 36.124 254.332 36.0426C254.332 29.2675 254.332 22.4923 254.332 15.7172C254.336 15.5416 254.345 15.366 254.349 15.1904C254.366 14.6465 254.379 14.1026 254.405 13.5587C254.418 13.2632 254.632 13.0533 254.923 13.0405C255.304 13.0276 255.681 13.0276 256.062 13.0191C256.268 13.0191 256.478 13.0062 256.683 13.002H265.668V13.002ZM269.728 18.3039L267.086 15.6315V18.3039H269.728Z" fill="#767676"/>
<path d="M269.059 30.008C269.059 30.0636 269.059 30.1193 269.059 30.175C269.051 32.0465 269.042 33.9138 269.034 35.7853C269.034 36.1365 268.82 36.4191 268.481 36.5176C268.233 36.5904 267.822 36.4405 267.689 36.2135C267.655 36.1536 267.638 36.0765 267.638 36.008C267.62 35.5626 267.608 35.1215 267.603 34.6761C267.586 33.2157 267.578 31.7553 267.565 30.2949C267.565 30.205 267.565 30.1108 267.565 30.0208L267.53 30.008C267.492 30.0379 267.458 30.0722 267.419 30.1022C266.798 30.706 266.181 31.3099 265.556 31.9095C265.428 32.0337 265.295 32.1536 265.098 32.1793C264.772 32.2178 264.49 32.0765 264.344 31.8024C264.199 31.5326 264.237 31.2028 264.46 30.9673C264.794 30.6075 265.132 30.2478 265.483 29.9009C266.267 29.1172 267.055 28.3377 267.843 27.5583C267.907 27.4941 267.98 27.4341 268.049 27.3741C268.229 27.2242 268.361 27.2242 268.541 27.3741C268.674 27.4898 268.807 27.6054 268.931 27.7296C270.002 28.8088 271.068 29.8923 272.139 30.9716C272.417 31.2542 272.357 31.6611 272.181 31.8923C271.929 32.2178 271.483 32.2906 271.175 32.0208C270.85 31.7424 270.55 31.4384 270.241 31.1386C269.882 30.7874 269.53 30.4362 269.179 30.0808C269.149 30.0508 269.132 30.0037 269.111 29.9694L269.059 30.008Z" fill="#767676"/>
<path d="M3.03558 58.862C3.36758 58.862 3.65958 58.818 3.91158 58.73C4.16758 58.642 4.38158 58.52 4.55358 58.364C4.72958 58.204 4.86158 58.014 4.94958 57.794C5.03758 57.574 5.08158 57.332 5.08158 57.068C5.08158 56.52 4.91158 56.092 4.57158 55.784C4.23558 55.476 3.72358 55.322 3.03558 55.322H1.65558V58.862H3.03558ZM3.03558 54.404C3.57958 54.404 4.05158 54.468 4.45158 54.596C4.85558 54.72 5.18958 54.898 5.45358 55.13C5.71758 55.362 5.91358 55.642 6.04158 55.97C6.17358 56.298 6.23958 56.664 6.23958 57.068C6.23958 57.468 6.16958 57.834 6.02958 58.166C5.88958 58.498 5.68358 58.784 5.41158 59.024C5.14358 59.264 4.80958 59.452 4.40958 59.588C4.01358 59.72 3.55558 59.786 3.03558 59.786H1.65558V63.002H0.497578V54.404H3.03558ZM10.7962 59.3C10.7962 59.052 10.7602 58.826 10.6882 58.622C10.6202 58.414 10.5182 58.236 10.3822 58.088C10.2502 57.936 10.0882 57.82 9.8962 57.74C9.7042 57.656 9.4862 57.614 9.2422 57.614C8.7302 57.614 8.3242 57.764 8.0242 58.064C7.7282 58.36 7.5442 58.772 7.4722 59.3H10.7962ZM11.6602 62.15C11.5282 62.31 11.3702 62.45 11.1862 62.57C11.0022 62.686 10.8042 62.782 10.5922 62.858C10.3842 62.934 10.1682 62.99 9.9442 63.026C9.7202 63.066 9.4982 63.086 9.2782 63.086C8.8582 63.086 8.4702 63.016 8.1142 62.876C7.7622 62.732 7.4562 62.524 7.1962 62.252C6.9402 61.976 6.7402 61.636 6.5962 61.232C6.4522 60.828 6.3802 60.364 6.3802 59.84C6.3802 59.416 6.4442 59.02 6.5722 58.652C6.7042 58.284 6.8922 57.966 7.1362 57.698C7.3802 57.426 7.6782 57.214 8.0302 57.062C8.3822 56.906 8.7782 56.828 9.2182 56.828C9.5822 56.828 9.9182 56.89 10.2262 57.014C10.5382 57.134 10.8062 57.31 11.0302 57.542C11.2582 57.77 11.4362 58.054 11.5642 58.394C11.6922 58.73 11.7562 59.114 11.7562 59.546C11.7562 59.714 11.7382 59.826 11.7022 59.882C11.6662 59.938 11.5982 59.966 11.4982 59.966H7.4362C7.4482 60.35 7.5002 60.684 7.5922 60.968C7.6882 61.252 7.8202 61.49 7.9882 61.682C8.1562 61.87 8.3562 62.012 8.5882 62.108C8.8202 62.2 9.0802 62.246 9.3682 62.246C9.6362 62.246 9.8662 62.216 10.0582 62.156C10.2542 62.092 10.4222 62.024 10.5622 61.952C10.7022 61.88 10.8182 61.814 10.9102 61.754C11.0062 61.69 11.0882 61.658 11.1562 61.658C11.2442 61.658 11.3122 61.692 11.3602 61.76L11.6602 62.15ZM13.674 58.142C13.866 57.726 14.102 57.402 14.382 57.17C14.662 56.934 15.004 56.816 15.408 56.816C15.536 56.816 15.658 56.83 15.774 56.858C15.894 56.886 16 56.93 16.092 56.99L16.014 57.788C15.99 57.888 15.93 57.938 15.834 57.938C15.778 57.938 15.696 57.926 15.588 57.902C15.48 57.878 15.358 57.866 15.222 57.866C15.03 57.866 14.858 57.894 14.706 57.95C14.558 58.006 14.424 58.09 14.304 58.202C14.188 58.31 14.082 58.446 13.986 58.61C13.894 58.77 13.81 58.954 13.734 59.162V63.002H12.66V56.924H13.272C13.388 56.924 13.468 56.946 13.512 56.99C13.556 57.034 13.586 57.11 13.602 57.218L13.674 58.142ZM20.128 57.926C20.08 58.014 20.006 58.058 19.906 58.058C19.846 58.058 19.778 58.036 19.702 57.992C19.626 57.948 19.532 57.9 19.42 57.848C19.312 57.792 19.182 57.742 19.03 57.698C18.878 57.65 18.698 57.626 18.49 57.626C18.31 57.626 18.148 57.65 18.004 57.698C17.86 57.742 17.736 57.804 17.632 57.884C17.532 57.964 17.454 58.058 17.398 58.166C17.346 58.27 17.32 58.384 17.32 58.508C17.32 58.664 17.364 58.794 17.452 58.898C17.544 59.002 17.664 59.092 17.812 59.168C17.96 59.244 18.128 59.312 18.316 59.372C18.504 59.428 18.696 59.49 18.892 59.558C19.092 59.622 19.286 59.694 19.474 59.774C19.662 59.854 19.83 59.954 19.978 60.074C20.126 60.194 20.244 60.342 20.332 60.518C20.424 60.69 20.47 60.898 20.47 61.142C20.47 61.422 20.42 61.682 20.32 61.922C20.22 62.158 20.072 62.364 19.876 62.54C19.68 62.712 19.44 62.848 19.156 62.948C18.872 63.048 18.544 63.098 18.172 63.098C17.748 63.098 17.364 63.03 17.02 62.894C16.676 62.754 16.384 62.576 16.144 62.36L16.396 61.952C16.428 61.9 16.466 61.86 16.51 61.832C16.554 61.804 16.61 61.79 16.678 61.79C16.75 61.79 16.826 61.818 16.906 61.874C16.986 61.93 17.082 61.992 17.194 62.06C17.31 62.128 17.45 62.19 17.614 62.246C17.778 62.302 17.982 62.33 18.226 62.33C18.434 62.33 18.616 62.304 18.772 62.252C18.928 62.196 19.058 62.122 19.162 62.03C19.266 61.938 19.342 61.832 19.39 61.712C19.442 61.592 19.468 61.464 19.468 61.328C19.468 61.16 19.422 61.022 19.33 60.914C19.242 60.802 19.124 60.708 18.976 60.632C18.828 60.552 18.658 60.484 18.466 60.428C18.278 60.368 18.084 60.306 17.884 60.242C17.688 60.178 17.494 60.106 17.302 60.026C17.114 59.942 16.946 59.838 16.798 59.714C16.65 59.59 16.53 59.438 16.438 59.258C16.35 59.074 16.306 58.852 16.306 58.592C16.306 58.36 16.354 58.138 16.45 57.926C16.546 57.71 16.686 57.522 16.87 57.362C17.054 57.198 17.28 57.068 17.548 56.972C17.816 56.876 18.122 56.828 18.466 56.828C18.866 56.828 19.224 56.892 19.54 57.02C19.86 57.144 20.136 57.316 20.368 57.536L20.128 57.926ZM23.9334 56.828C24.3774 56.828 24.7774 56.902 25.1334 57.05C25.4894 57.198 25.7934 57.408 26.0454 57.68C26.2974 57.952 26.4894 58.282 26.6214 58.67C26.7574 59.054 26.8254 59.484 26.8254 59.96C26.8254 60.44 26.7574 60.872 26.6214 61.256C26.4894 61.64 26.2974 61.968 26.0454 62.24C25.7934 62.512 25.4894 62.722 25.1334 62.87C24.7774 63.014 24.3774 63.086 23.9334 63.086C23.4854 63.086 23.0814 63.014 22.7214 62.87C22.3654 62.722 22.0614 62.512 21.8094 62.24C21.5574 61.968 21.3634 61.64 21.2274 61.256C21.0954 60.872 21.0294 60.44 21.0294 59.96C21.0294 59.484 21.0954 59.054 21.2274 58.67C21.3634 58.282 21.5574 57.952 21.8094 57.68C22.0614 57.408 22.3654 57.198 22.7214 57.05C23.0814 56.902 23.4854 56.828 23.9334 56.828ZM23.9334 62.252C24.5334 62.252 24.9814 62.052 25.2774 61.652C25.5734 61.248 25.7214 60.686 25.7214 59.966C25.7214 59.242 25.5734 58.678 25.2774 58.274C24.9814 57.87 24.5334 57.668 23.9334 57.668C23.6294 57.668 23.3634 57.72 23.1354 57.824C22.9114 57.928 22.7234 58.078 22.5714 58.274C22.4234 58.47 22.3114 58.712 22.2354 59C22.1634 59.284 22.1274 59.606 22.1274 59.966C22.1274 60.686 22.2754 61.248 22.5714 61.652C22.8714 62.052 23.3254 62.252 23.9334 62.252ZM28.78 57.806C28.912 57.658 29.052 57.524 29.2 57.404C29.348 57.284 29.504 57.182 29.668 57.098C29.836 57.01 30.012 56.944 30.196 56.9C30.384 56.852 30.586 56.828 30.802 56.828C31.134 56.828 31.426 56.884 31.678 56.996C31.934 57.104 32.146 57.26 32.314 57.464C32.486 57.664 32.616 57.906 32.704 58.19C32.792 58.474 32.836 58.788 32.836 59.132V63.002H31.762V59.132C31.762 58.672 31.656 58.316 31.444 58.064C31.236 57.808 30.918 57.68 30.49 57.68C30.174 57.68 29.878 57.756 29.602 57.908C29.33 58.06 29.078 58.266 28.846 58.526V63.002H27.772V56.924H28.414C28.566 56.924 28.66 56.998 28.696 57.146L28.78 57.806ZM37.3494 60.266C36.8574 60.282 36.4374 60.322 36.0894 60.386C35.7454 60.446 35.4634 60.526 35.2434 60.626C35.0274 60.726 34.8694 60.844 34.7694 60.98C34.6734 61.116 34.6254 61.268 34.6254 61.436C34.6254 61.596 34.6514 61.734 34.7034 61.85C34.7554 61.966 34.8254 62.062 34.9134 62.138C35.0054 62.21 35.1114 62.264 35.2314 62.3C35.3554 62.332 35.4874 62.348 35.6274 62.348C35.8154 62.348 35.9874 62.33 36.1434 62.294C36.2994 62.254 36.4454 62.198 36.5814 62.126C36.7214 62.054 36.8534 61.968 36.9774 61.868C37.1054 61.768 37.2294 61.654 37.3494 61.526V60.266ZM33.8994 57.782C34.2354 57.458 34.5974 57.216 34.9854 57.056C35.3734 56.896 35.8034 56.816 36.2754 56.816C36.6154 56.816 36.9174 56.872 37.1814 56.984C37.4454 57.096 37.6674 57.252 37.8474 57.452C38.0274 57.652 38.1634 57.894 38.2554 58.178C38.3474 58.462 38.3934 58.774 38.3934 59.114V63.002H37.9194C37.8154 63.002 37.7354 62.986 37.6794 62.954C37.6234 62.918 37.5794 62.85 37.5474 62.75L37.4274 62.174C37.2674 62.322 37.1114 62.454 36.9594 62.57C36.8074 62.682 36.6474 62.778 36.4794 62.858C36.3114 62.934 36.1314 62.992 35.9394 63.032C35.7514 63.076 35.5414 63.098 35.3094 63.098C35.0734 63.098 34.8514 63.066 34.6434 63.002C34.4354 62.934 34.2534 62.834 34.0974 62.702C33.9454 62.57 33.8234 62.404 33.7314 62.204C33.6434 62 33.5994 61.76 33.5994 61.484C33.5994 61.244 33.6654 61.014 33.7974 60.794C33.9294 60.57 34.1434 60.372 34.4394 60.2C34.7354 60.028 35.1214 59.888 35.5974 59.78C36.0734 59.668 36.6574 59.604 37.3494 59.588V59.114C37.3494 58.642 37.2474 58.286 37.0434 58.046C36.8394 57.802 36.5414 57.68 36.1494 57.68C35.8854 57.68 35.6634 57.714 35.4834 57.782C35.3074 57.846 35.1534 57.92 35.0214 58.004C34.8934 58.084 34.7814 58.158 34.6854 58.226C34.5934 58.29 34.5014 58.322 34.4094 58.322C34.3374 58.322 34.2754 58.304 34.2234 58.268C34.1714 58.228 34.1274 58.18 34.0914 58.124L33.8994 57.782ZM40.7162 54.164V63.002H39.6482V54.164H40.7162ZM14.3642 74.002H13.2002V65.404H14.3642V74.002ZM16.8178 68.806C16.9498 68.658 17.0898 68.524 17.2378 68.404C17.3858 68.284 17.5418 68.182 17.7058 68.098C17.8738 68.01 18.0498 67.944 18.2338 67.9C18.4218 67.852 18.6238 67.828 18.8398 67.828C19.1718 67.828 19.4638 67.884 19.7158 67.996C19.9718 68.104 20.1838 68.26 20.3518 68.464C20.5238 68.664 20.6538 68.906 20.7418 69.19C20.8298 69.474 20.8738 69.788 20.8738 70.132V74.002H19.7998V70.132C19.7998 69.672 19.6938 69.316 19.4818 69.064C19.2738 68.808 18.9558 68.68 18.5278 68.68C18.2118 68.68 17.9158 68.756 17.6398 68.908C17.3678 69.06 17.1158 69.266 16.8838 69.526V74.002H15.8098V67.924H16.4518C16.6038 67.924 16.6978 67.998 16.7338 68.146L16.8178 68.806ZM22.3954 74.002V68.836L21.7234 68.758C21.6394 68.738 21.5694 68.708 21.5134 68.668C21.4614 68.624 21.4354 68.562 21.4354 68.482V68.044H22.3954V67.456C22.3954 67.108 22.4434 66.8 22.5394 66.532C22.6394 66.26 22.7794 66.032 22.9594 65.848C23.1434 65.66 23.3634 65.518 23.6194 65.422C23.8754 65.326 24.1634 65.278 24.4834 65.278C24.7554 65.278 25.0054 65.318 25.2334 65.398L25.2094 65.932C25.2014 66.028 25.1474 66.08 25.0474 66.088C24.9514 66.096 24.8214 66.1 24.6574 66.1C24.4734 66.1 24.3054 66.124 24.1534 66.172C24.0054 66.22 23.8774 66.298 23.7694 66.406C23.6614 66.514 23.5774 66.656 23.5174 66.832C23.4614 67.008 23.4334 67.226 23.4334 67.486V68.044H25.1854V68.818H23.4694V74.002H22.3954ZM28.1612 67.828C28.6052 67.828 29.0052 67.902 29.3612 68.05C29.7172 68.198 30.0212 68.408 30.2732 68.68C30.5252 68.952 30.7172 69.282 30.8492 69.67C30.9852 70.054 31.0532 70.484 31.0532 70.96C31.0532 71.44 30.9852 71.872 30.8492 72.256C30.7172 72.64 30.5252 72.968 30.2732 73.24C30.0212 73.512 29.7172 73.722 29.3612 73.87C29.0052 74.014 28.6052 74.086 28.1612 74.086C27.7132 74.086 27.3092 74.014 26.9492 73.87C26.5932 73.722 26.2892 73.512 26.0372 73.24C25.7852 72.968 25.5912 72.64 25.4552 72.256C25.3232 71.872 25.2572 71.44 25.2572 70.96C25.2572 70.484 25.3232 70.054 25.4552 69.67C25.5912 69.282 25.7852 68.952 26.0372 68.68C26.2892 68.408 26.5932 68.198 26.9492 68.05C27.3092 67.902 27.7132 67.828 28.1612 67.828ZM28.1612 73.252C28.7612 73.252 29.2092 73.052 29.5052 72.652C29.8012 72.248 29.9492 71.686 29.9492 70.966C29.9492 70.242 29.8012 69.678 29.5052 69.274C29.2092 68.87 28.7612 68.668 28.1612 68.668C27.8572 68.668 27.5912 68.72 27.3632 68.824C27.1392 68.928 26.9512 69.078 26.7992 69.274C26.6512 69.47 26.5392 69.712 26.4632 70C26.3912 70.284 26.3552 70.606 26.3552 70.966C26.3552 71.686 26.5032 72.248 26.7992 72.652C27.0992 73.052 27.5532 73.252 28.1612 73.252Z" fill="#767676"/>
<path d="M93.1264 56.382H90.3424V64.002H89.1844V56.382H86.3944V55.404H93.1264V56.382ZM96.3454 60.3C96.3454 60.052 96.3094 59.826 96.2374 59.622C96.1694 59.414 96.0674 59.236 95.9314 59.088C95.7994 58.936 95.6374 58.82 95.4454 58.74C95.2534 58.656 95.0354 58.614 94.7914 58.614C94.2794 58.614 93.8734 58.764 93.5734 59.064C93.2774 59.36 93.0934 59.772 93.0214 60.3H96.3454ZM97.2094 63.15C97.0774 63.31 96.9194 63.45 96.7354 63.57C96.5514 63.686 96.3534 63.782 96.1414 63.858C95.9334 63.934 95.7174 63.99 95.4934 64.026C95.2694 64.066 95.0474 64.086 94.8274 64.086C94.4074 64.086 94.0194 64.016 93.6634 63.876C93.3114 63.732 93.0054 63.524 92.7454 63.252C92.4894 62.976 92.2894 62.636 92.1454 62.232C92.0014 61.828 91.9294 61.364 91.9294 60.84C91.9294 60.416 91.9934 60.02 92.1214 59.652C92.2534 59.284 92.4414 58.966 92.6854 58.698C92.9294 58.426 93.2274 58.214 93.5794 58.062C93.9314 57.906 94.3274 57.828 94.7674 57.828C95.1314 57.828 95.4674 57.89 95.7754 58.014C96.0874 58.134 96.3554 58.31 96.5794 58.542C96.8074 58.77 96.9854 59.054 97.1134 59.394C97.2414 59.73 97.3054 60.114 97.3054 60.546C97.3054 60.714 97.2874 60.826 97.2514 60.882C97.2154 60.938 97.1474 60.966 97.0474 60.966H92.9854C92.9974 61.35 93.0494 61.684 93.1414 61.968C93.2374 62.252 93.3694 62.49 93.5374 62.682C93.7054 62.87 93.9054 63.012 94.1374 63.108C94.3694 63.2 94.6294 63.246 94.9174 63.246C95.1854 63.246 95.4154 63.216 95.6074 63.156C95.8034 63.092 95.9714 63.024 96.1114 62.952C96.2514 62.88 96.3674 62.814 96.4594 62.754C96.5554 62.69 96.6374 62.658 96.7054 62.658C96.7934 62.658 96.8614 62.692 96.9094 62.76L97.2094 63.15ZM101.503 61.266C101.011 61.282 100.591 61.322 100.243 61.386C99.8993 61.446 99.6173 61.526 99.3973 61.626C99.1813 61.726 99.0233 61.844 98.9233 61.98C98.8273 62.116 98.7793 62.268 98.7793 62.436C98.7793 62.596 98.8053 62.734 98.8573 62.85C98.9093 62.966 98.9793 63.062 99.0673 63.138C99.1593 63.21 99.2653 63.264 99.3853 63.3C99.5093 63.332 99.6413 63.348 99.7813 63.348C99.9693 63.348 100.141 63.33 100.297 63.294C100.453 63.254 100.599 63.198 100.735 63.126C100.875 63.054 101.007 62.968 101.131 62.868C101.259 62.768 101.383 62.654 101.503 62.526V61.266ZM98.0533 58.782C98.3893 58.458 98.7513 58.216 99.1393 58.056C99.5273 57.896 99.9573 57.816 100.429 57.816C100.769 57.816 101.071 57.872 101.335 57.984C101.599 58.096 101.821 58.252 102.001 58.452C102.181 58.652 102.317 58.894 102.409 59.178C102.501 59.462 102.547 59.774 102.547 60.114V64.002H102.073C101.969 64.002 101.889 63.986 101.833 63.954C101.777 63.918 101.733 63.85 101.701 63.75L101.581 63.174C101.421 63.322 101.265 63.454 101.113 63.57C100.961 63.682 100.801 63.778 100.633 63.858C100.465 63.934 100.285 63.992 100.093 64.032C99.9053 64.076 99.6953 64.098 99.4633 64.098C99.2273 64.098 99.0053 64.066 98.7973 64.002C98.5893 63.934 98.4073 63.834 98.2513 63.702C98.0993 63.57 97.9773 63.404 97.8853 63.204C97.7973 63 97.7533 62.76 97.7533 62.484C97.7533 62.244 97.8193 62.014 97.9513 61.794C98.0833 61.57 98.2973 61.372 98.5933 61.2C98.8893 61.028 99.2753 60.888 99.7513 60.78C100.227 60.668 100.811 60.604 101.503 60.588V60.114C101.503 59.642 101.401 59.286 101.197 59.046C100.993 58.802 100.695 58.68 100.303 58.68C100.039 58.68 99.8173 58.714 99.6373 58.782C99.4613 58.846 99.3073 58.92 99.1753 59.004C99.0473 59.084 98.9353 59.158 98.8393 59.226C98.7473 59.29 98.6553 59.322 98.5633 59.322C98.4913 59.322 98.4293 59.304 98.3773 59.268C98.3253 59.228 98.2813 59.18 98.2453 59.124L98.0533 58.782ZM103.766 64.002V57.924H104.408C104.56 57.924 104.654 57.998 104.69 58.146L104.768 58.77C104.992 58.494 105.244 58.268 105.524 58.092C105.804 57.916 106.128 57.828 106.496 57.828C106.904 57.828 107.234 57.942 107.486 58.17C107.742 58.398 107.926 58.706 108.038 59.094C108.126 58.874 108.238 58.684 108.374 58.524C108.514 58.364 108.67 58.232 108.842 58.128C109.014 58.024 109.196 57.948 109.388 57.9C109.584 57.852 109.782 57.828 109.982 57.828C110.302 57.828 110.586 57.88 110.834 57.984C111.086 58.084 111.298 58.232 111.47 58.428C111.646 58.624 111.78 58.866 111.872 59.154C111.964 59.438 112.01 59.764 112.01 60.132V64.002H110.936V60.132C110.936 59.656 110.832 59.296 110.624 59.052C110.416 58.804 110.116 58.68 109.724 58.68C109.548 58.68 109.38 58.712 109.22 58.776C109.064 58.836 108.926 58.926 108.806 59.046C108.686 59.166 108.59 59.318 108.518 59.502C108.45 59.682 108.416 59.892 108.416 60.132V64.002H107.342V60.132C107.342 59.644 107.244 59.28 107.048 59.04C106.852 58.8 106.566 58.68 106.19 58.68C105.926 58.68 105.682 58.752 105.458 58.896C105.234 59.036 105.028 59.228 104.84 59.472V64.002H103.766ZM93.3642 75.002H92.2002V66.404H93.3642V75.002ZM95.8178 69.806C95.9498 69.658 96.0898 69.524 96.2378 69.404C96.3858 69.284 96.5418 69.182 96.7058 69.098C96.8738 69.01 97.0498 68.944 97.2338 68.9C97.4218 68.852 97.6238 68.828 97.8398 68.828C98.1718 68.828 98.4638 68.884 98.7158 68.996C98.9718 69.104 99.1838 69.26 99.3518 69.464C99.5238 69.664 99.6538 69.906 99.7418 70.19C99.8298 70.474 99.8738 70.788 99.8738 71.132V75.002H98.7998V71.132C98.7998 70.672 98.6938 70.316 98.4818 70.064C98.2738 69.808 97.9558 69.68 97.5278 69.68C97.2118 69.68 96.9158 69.756 96.6398 69.908C96.3678 70.06 96.1158 70.266 95.8838 70.526V75.002H94.8098V68.924H95.4518C95.6038 68.924 95.6978 68.998 95.7338 69.146L95.8178 69.806ZM101.395 75.002V69.836L100.723 69.758C100.639 69.738 100.569 69.708 100.513 69.668C100.461 69.624 100.435 69.562 100.435 69.482V69.044H101.395V68.456C101.395 68.108 101.443 67.8 101.539 67.532C101.639 67.26 101.779 67.032 101.959 66.848C102.143 66.66 102.363 66.518 102.619 66.422C102.875 66.326 103.163 66.278 103.483 66.278C103.755 66.278 104.005 66.318 104.233 66.398L104.209 66.932C104.201 67.028 104.147 67.08 104.047 67.088C103.951 67.096 103.821 67.1 103.657 67.1C103.473 67.1 103.305 67.124 103.153 67.172C103.005 67.22 102.877 67.298 102.769 67.406C102.661 67.514 102.577 67.656 102.517 67.832C102.461 68.008 102.433 68.226 102.433 68.486V69.044H104.185V69.818H102.469V75.002H101.395ZM107.161 68.828C107.605 68.828 108.005 68.902 108.361 69.05C108.717 69.198 109.021 69.408 109.273 69.68C109.525 69.952 109.717 70.282 109.849 70.67C109.985 71.054 110.053 71.484 110.053 71.96C110.053 72.44 109.985 72.872 109.849 73.256C109.717 73.64 109.525 73.968 109.273 74.24C109.021 74.512 108.717 74.722 108.361 74.87C108.005 75.014 107.605 75.086 107.161 75.086C106.713 75.086 106.309 75.014 105.949 74.87C105.593 74.722 105.289 74.512 105.037 74.24C104.785 73.968 104.591 73.64 104.455 73.256C104.323 72.872 104.257 72.44 104.257 71.96C104.257 71.484 104.323 71.054 104.455 70.67C104.591 70.282 104.785 69.952 105.037 69.68C105.289 69.408 105.593 69.198 105.949 69.05C106.309 68.902 106.713 68.828 107.161 68.828ZM107.161 74.252C107.761 74.252 108.209 74.052 108.505 73.652C108.801 73.248 108.949 72.686 108.949 71.966C108.949 71.242 108.801 70.678 108.505 70.274C108.209 69.87 107.761 69.668 107.161 69.668C106.857 69.668 106.591 69.72 106.363 69.824C106.139 69.928 105.951 70.078 105.799 70.274C105.651 70.47 105.539 70.712 105.463 71C105.391 71.284 105.355 71.606 105.355 71.966C105.355 72.686 105.503 73.248 105.799 73.652C106.099 74.052 106.553 74.252 107.161 74.252Z" fill="#767676"/>
<path d="M165.618 61.226C165.682 61.226 165.738 61.252 165.786 61.304L166.248 61.802C165.896 62.21 165.468 62.528 164.964 62.756C164.464 62.984 163.858 63.098 163.146 63.098C162.53 63.098 161.97 62.992 161.466 62.78C160.962 62.564 160.532 62.264 160.176 61.88C159.82 61.492 159.544 61.028 159.348 60.488C159.152 59.948 159.054 59.354 159.054 58.706C159.054 58.058 159.156 57.464 159.36 56.924C159.564 56.384 159.85 55.92 160.218 55.532C160.59 55.144 161.034 54.844 161.55 54.632C162.066 54.416 162.636 54.308 163.26 54.308C163.872 54.308 164.412 54.406 164.88 54.602C165.348 54.798 165.76 55.064 166.116 55.4L165.732 55.934C165.708 55.974 165.676 56.008 165.636 56.036C165.6 56.06 165.55 56.072 165.486 56.072C165.414 56.072 165.326 56.034 165.222 55.958C165.118 55.878 164.982 55.79 164.814 55.694C164.646 55.598 164.436 55.512 164.184 55.436C163.932 55.356 163.622 55.316 163.254 55.316C162.81 55.316 162.404 55.394 162.036 55.55C161.668 55.702 161.35 55.924 161.082 56.216C160.818 56.508 160.612 56.864 160.464 57.284C160.316 57.704 160.242 58.178 160.242 58.706C160.242 59.242 160.318 59.72 160.47 60.14C160.626 60.56 160.836 60.916 161.1 61.208C161.368 61.496 161.682 61.716 162.042 61.868C162.406 62.02 162.798 62.096 163.218 62.096C163.474 62.096 163.704 62.082 163.908 62.054C164.116 62.022 164.306 61.974 164.478 61.91C164.654 61.846 164.816 61.766 164.964 61.67C165.116 61.57 165.266 61.452 165.414 61.316C165.482 61.256 165.55 61.226 165.618 61.226ZM169.382 56.828C169.826 56.828 170.226 56.902 170.582 57.05C170.938 57.198 171.242 57.408 171.494 57.68C171.746 57.952 171.938 58.282 172.07 58.67C172.206 59.054 172.274 59.484 172.274 59.96C172.274 60.44 172.206 60.872 172.07 61.256C171.938 61.64 171.746 61.968 171.494 62.24C171.242 62.512 170.938 62.722 170.582 62.87C170.226 63.014 169.826 63.086 169.382 63.086C168.934 63.086 168.53 63.014 168.17 62.87C167.814 62.722 167.51 62.512 167.258 62.24C167.006 61.968 166.812 61.64 166.676 61.256C166.544 60.872 166.478 60.44 166.478 59.96C166.478 59.484 166.544 59.054 166.676 58.67C166.812 58.282 167.006 57.952 167.258 57.68C167.51 57.408 167.814 57.198 168.17 57.05C168.53 56.902 168.934 56.828 169.382 56.828ZM169.382 62.252C169.982 62.252 170.43 62.052 170.726 61.652C171.022 61.248 171.17 60.686 171.17 59.966C171.17 59.242 171.022 58.678 170.726 58.274C170.43 57.87 169.982 57.668 169.382 57.668C169.078 57.668 168.812 57.72 168.584 57.824C168.36 57.928 168.172 58.078 168.02 58.274C167.872 58.47 167.76 58.712 167.684 59C167.612 59.284 167.576 59.606 167.576 59.966C167.576 60.686 167.724 61.248 168.02 61.652C168.32 62.052 168.774 62.252 169.382 62.252ZM174.229 57.806C174.361 57.658 174.501 57.524 174.649 57.404C174.797 57.284 174.953 57.182 175.117 57.098C175.285 57.01 175.461 56.944 175.645 56.9C175.833 56.852 176.035 56.828 176.251 56.828C176.583 56.828 176.875 56.884 177.127 56.996C177.383 57.104 177.595 57.26 177.763 57.464C177.935 57.664 178.065 57.906 178.153 58.19C178.241 58.474 178.285 58.788 178.285 59.132V63.002H177.211V59.132C177.211 58.672 177.105 58.316 176.893 58.064C176.685 57.808 176.367 57.68 175.939 57.68C175.623 57.68 175.327 57.756 175.051 57.908C174.779 58.06 174.527 58.266 174.295 58.526V63.002H173.221V56.924H173.863C174.015 56.924 174.109 56.998 174.145 57.146L174.229 57.806ZM181.288 63.098C180.808 63.098 180.438 62.964 180.178 62.696C179.922 62.428 179.794 62.042 179.794 61.538V57.818H179.062C178.998 57.818 178.944 57.8 178.9 57.764C178.856 57.724 178.834 57.664 178.834 57.584V57.158L179.83 57.032L180.076 55.154C180.088 55.094 180.114 55.046 180.154 55.01C180.198 54.97 180.254 54.95 180.322 54.95H180.862V57.044H182.62V57.818H180.862V61.466C180.862 61.722 180.924 61.912 181.048 62.036C181.172 62.16 181.332 62.222 181.528 62.222C181.64 62.222 181.736 62.208 181.816 62.18C181.9 62.148 181.972 62.114 182.032 62.078C182.092 62.042 182.142 62.01 182.182 61.982C182.226 61.95 182.264 61.934 182.296 61.934C182.352 61.934 182.402 61.968 182.446 62.036L182.758 62.546C182.574 62.718 182.352 62.854 182.092 62.954C181.832 63.05 181.564 63.098 181.288 63.098ZM184.329 58.142C184.521 57.726 184.757 57.402 185.037 57.17C185.317 56.934 185.659 56.816 186.063 56.816C186.191 56.816 186.313 56.83 186.429 56.858C186.549 56.886 186.655 56.93 186.747 56.99L186.669 57.788C186.645 57.888 186.585 57.938 186.489 57.938C186.433 57.938 186.351 57.926 186.243 57.902C186.135 57.878 186.013 57.866 185.877 57.866C185.685 57.866 185.513 57.894 185.361 57.95C185.213 58.006 185.079 58.09 184.959 58.202C184.843 58.31 184.737 58.446 184.641 58.61C184.549 58.77 184.465 58.954 184.389 59.162V63.002H183.315V56.924H183.927C184.043 56.924 184.123 56.946 184.167 56.99C184.211 57.034 184.241 57.11 184.257 57.218L184.329 58.142ZM190.478 60.266C189.986 60.282 189.566 60.322 189.218 60.386C188.874 60.446 188.592 60.526 188.372 60.626C188.156 60.726 187.998 60.844 187.898 60.98C187.802 61.116 187.754 61.268 187.754 61.436C187.754 61.596 187.78 61.734 187.832 61.85C187.884 61.966 187.954 62.062 188.042 62.138C188.134 62.21 188.24 62.264 188.36 62.3C188.484 62.332 188.616 62.348 188.756 62.348C188.944 62.348 189.116 62.33 189.272 62.294C189.428 62.254 189.574 62.198 189.71 62.126C189.85 62.054 189.982 61.968 190.106 61.868C190.234 61.768 190.358 61.654 190.478 61.526V60.266ZM187.028 57.782C187.364 57.458 187.726 57.216 188.114 57.056C188.502 56.896 188.932 56.816 189.404 56.816C189.744 56.816 190.046 56.872 190.31 56.984C190.574 57.096 190.796 57.252 190.976 57.452C191.156 57.652 191.292 57.894 191.384 58.178C191.476 58.462 191.522 58.774 191.522 59.114V63.002H191.048C190.944 63.002 190.864 62.986 190.808 62.954C190.752 62.918 190.708 62.85 190.676 62.75L190.556 62.174C190.396 62.322 190.24 62.454 190.088 62.57C189.936 62.682 189.776 62.778 189.608 62.858C189.44 62.934 189.26 62.992 189.068 63.032C188.88 63.076 188.67 63.098 188.438 63.098C188.202 63.098 187.98 63.066 187.772 63.002C187.564 62.934 187.382 62.834 187.226 62.702C187.074 62.57 186.952 62.404 186.86 62.204C186.772 62 186.728 61.76 186.728 61.484C186.728 61.244 186.794 61.014 186.926 60.794C187.058 60.57 187.272 60.372 187.568 60.2C187.864 60.028 188.25 59.888 188.726 59.78C189.202 59.668 189.786 59.604 190.478 59.588V59.114C190.478 58.642 190.376 58.286 190.172 58.046C189.968 57.802 189.67 57.68 189.278 57.68C189.014 57.68 188.792 57.714 188.612 57.782C188.436 57.846 188.282 57.92 188.15 58.004C188.022 58.084 187.91 58.158 187.814 58.226C187.722 58.29 187.63 58.322 187.538 58.322C187.466 58.322 187.404 58.304 187.352 58.268C187.3 58.228 187.256 58.18 187.22 58.124L187.028 57.782ZM196.971 58.004C196.939 58.048 196.907 58.082 196.875 58.106C196.843 58.13 196.799 58.142 196.743 58.142C196.683 58.142 196.617 58.118 196.545 58.07C196.473 58.018 196.383 57.962 196.275 57.902C196.171 57.842 196.041 57.788 195.885 57.74C195.733 57.688 195.545 57.662 195.321 57.662C195.021 57.662 194.757 57.716 194.529 57.824C194.301 57.928 194.109 58.08 193.953 58.28C193.801 58.48 193.685 58.722 193.605 59.006C193.529 59.29 193.491 59.608 193.491 59.96C193.491 60.328 193.533 60.656 193.617 60.944C193.701 61.228 193.819 61.468 193.971 61.664C194.127 61.856 194.313 62.004 194.529 62.108C194.749 62.208 194.995 62.258 195.267 62.258C195.527 62.258 195.741 62.228 195.909 62.168C196.077 62.104 196.215 62.034 196.323 61.958C196.435 61.882 196.527 61.814 196.599 61.754C196.675 61.69 196.749 61.658 196.821 61.658C196.909 61.658 196.977 61.692 197.025 61.76L197.325 62.15C197.193 62.314 197.043 62.454 196.875 62.57C196.707 62.686 196.525 62.784 196.329 62.864C196.137 62.94 195.935 62.996 195.723 63.032C195.511 63.068 195.295 63.086 195.075 63.086C194.695 63.086 194.341 63.016 194.013 62.876C193.689 62.736 193.407 62.534 193.167 62.27C192.927 62.002 192.739 61.674 192.603 61.286C192.467 60.898 192.399 60.456 192.399 59.96C192.399 59.508 192.461 59.09 192.585 58.706C192.713 58.322 192.897 57.992 193.137 57.716C193.381 57.436 193.679 57.218 194.031 57.062C194.387 56.906 194.795 56.828 195.255 56.828C195.683 56.828 196.059 56.898 196.383 57.038C196.711 57.174 197.001 57.368 197.253 57.62L196.971 58.004ZM199.929 63.098C199.449 63.098 199.079 62.964 198.819 62.696C198.563 62.428 198.435 62.042 198.435 61.538V57.818H197.703C197.639 57.818 197.585 57.8 197.541 57.764C197.497 57.724 197.475 57.664 197.475 57.584V57.158L198.471 57.032L198.717 55.154C198.729 55.094 198.755 55.046 198.795 55.01C198.839 54.97 198.895 54.95 198.963 54.95H199.503V57.044H201.261V57.818H199.503V61.466C199.503 61.722 199.565 61.912 199.689 62.036C199.813 62.16 199.973 62.222 200.169 62.222C200.281 62.222 200.377 62.208 200.457 62.18C200.541 62.148 200.613 62.114 200.673 62.078C200.733 62.042 200.783 62.01 200.823 61.982C200.867 61.95 200.905 61.934 200.937 61.934C200.993 61.934 201.043 61.968 201.087 62.036L201.399 62.546C201.215 62.718 200.993 62.854 200.733 62.954C200.473 63.05 200.205 63.098 199.929 63.098ZM173.864 74.002H172.7V65.404H173.864V74.002ZM176.318 68.806C176.45 68.658 176.59 68.524 176.738 68.404C176.886 68.284 177.042 68.182 177.206 68.098C177.374 68.01 177.55 67.944 177.734 67.9C177.922 67.852 178.124 67.828 178.34 67.828C178.672 67.828 178.964 67.884 179.216 67.996C179.472 68.104 179.684 68.26 179.852 68.464C180.024 68.664 180.154 68.906 180.242 69.19C180.33 69.474 180.374 69.788 180.374 70.132V74.002H179.3V70.132C179.3 69.672 179.194 69.316 178.982 69.064C178.774 68.808 178.456 68.68 178.028 68.68C177.712 68.68 177.416 68.756 177.14 68.908C176.868 69.06 176.616 69.266 176.384 69.526V74.002H175.31V67.924H175.952C176.104 67.924 176.198 67.998 176.234 68.146L176.318 68.806ZM181.895 74.002V68.836L181.223 68.758C181.139 68.738 181.069 68.708 181.013 68.668C180.961 68.624 180.935 68.562 180.935 68.482V68.044H181.895V67.456C181.895 67.108 181.943 66.8 182.039 66.532C182.139 66.26 182.279 66.032 182.459 65.848C182.643 65.66 182.863 65.518 183.119 65.422C183.375 65.326 183.663 65.278 183.983 65.278C184.255 65.278 184.505 65.318 184.733 65.398L184.709 65.932C184.701 66.028 184.647 66.08 184.547 66.088C184.451 66.096 184.321 66.1 184.157 66.1C183.973 66.1 183.805 66.124 183.653 66.172C183.505 66.22 183.377 66.298 183.269 66.406C183.161 66.514 183.077 66.656 183.017 66.832C182.961 67.008 182.933 67.226 182.933 67.486V68.044H184.685V68.818H182.969V74.002H181.895ZM187.661 67.828C188.105 67.828 188.505 67.902 188.861 68.05C189.217 68.198 189.521 68.408 189.773 68.68C190.025 68.952 190.217 69.282 190.349 69.67C190.485 70.054 190.553 70.484 190.553 70.96C190.553 71.44 190.485 71.872 190.349 72.256C190.217 72.64 190.025 72.968 189.773 73.24C189.521 73.512 189.217 73.722 188.861 73.87C188.505 74.014 188.105 74.086 187.661 74.086C187.213 74.086 186.809 74.014 186.449 73.87C186.093 73.722 185.789 73.512 185.537 73.24C185.285 72.968 185.091 72.64 184.955 72.256C184.823 71.872 184.757 71.44 184.757 70.96C184.757 70.484 184.823 70.054 184.955 69.67C185.091 69.282 185.285 68.952 185.537 68.68C185.789 68.408 186.093 68.198 186.449 68.05C186.809 67.902 187.213 67.828 187.661 67.828ZM187.661 73.252C188.261 73.252 188.709 73.052 189.005 72.652C189.301 72.248 189.449 71.686 189.449 70.966C189.449 70.242 189.301 69.678 189.005 69.274C188.709 68.87 188.261 68.668 187.661 68.668C187.357 68.668 187.091 68.72 186.863 68.824C186.639 68.928 186.451 69.078 186.299 69.274C186.151 69.47 186.039 69.712 185.963 70C185.891 70.284 185.855 70.606 185.855 70.966C185.855 71.686 186.003 72.248 186.299 72.652C186.599 73.052 187.053 73.252 187.661 73.252Z" fill="#767676"/>
<path d="M247.918 62.078C248.274 62.078 248.592 62.018 248.872 61.898C249.152 61.778 249.388 61.61 249.58 61.394C249.776 61.178 249.924 60.92 250.024 60.62C250.128 60.32 250.18 59.99 250.18 59.63V54.404H251.338V59.63C251.338 60.126 251.258 60.586 251.098 61.01C250.942 61.434 250.716 61.802 250.42 62.114C250.128 62.422 249.77 62.664 249.346 62.84C248.922 63.016 248.446 63.104 247.918 63.104C247.39 63.104 246.914 63.016 246.49 62.84C246.066 62.664 245.706 62.422 245.41 62.114C245.114 61.802 244.886 61.434 244.726 61.01C244.57 60.586 244.492 60.126 244.492 59.63V54.404H245.65V59.624C245.65 59.984 245.7 60.314 245.8 60.614C245.904 60.914 246.052 61.172 246.244 61.388C246.44 61.604 246.678 61.774 246.958 61.898C247.242 62.018 247.562 62.078 247.918 62.078ZM253.663 61.538C253.859 61.802 254.073 61.988 254.305 62.096C254.537 62.204 254.797 62.258 255.085 62.258C255.653 62.258 256.089 62.056 256.393 61.652C256.697 61.248 256.849 60.672 256.849 59.924C256.849 59.528 256.813 59.188 256.741 58.904C256.673 58.62 256.573 58.388 256.441 58.208C256.309 58.024 256.147 57.89 255.955 57.806C255.763 57.722 255.545 57.68 255.301 57.68C254.953 57.68 254.647 57.76 254.383 57.92C254.123 58.08 253.883 58.306 253.663 58.598V61.538ZM253.609 57.866C253.865 57.55 254.161 57.296 254.497 57.104C254.833 56.912 255.217 56.816 255.649 56.816C256.001 56.816 256.319 56.884 256.603 57.02C256.887 57.152 257.129 57.35 257.329 57.614C257.529 57.874 257.683 58.198 257.791 58.586C257.899 58.974 257.953 59.42 257.953 59.924C257.953 60.372 257.893 60.79 257.773 61.178C257.653 61.562 257.479 61.896 257.251 62.18C257.027 62.46 256.751 62.682 256.423 62.846C256.099 63.006 255.733 63.086 255.325 63.086C254.953 63.086 254.633 63.024 254.365 62.9C254.101 62.772 253.867 62.596 253.663 62.372V65.06H252.589V56.924H253.231C253.383 56.924 253.477 56.998 253.513 57.146L253.609 57.866ZM260.011 54.164V63.002H258.943V54.164H260.011ZM263.897 56.828C264.341 56.828 264.741 56.902 265.097 57.05C265.453 57.198 265.757 57.408 266.009 57.68C266.261 57.952 266.453 58.282 266.585 58.67C266.721 59.054 266.789 59.484 266.789 59.96C266.789 60.44 266.721 60.872 266.585 61.256C266.453 61.64 266.261 61.968 266.009 62.24C265.757 62.512 265.453 62.722 265.097 62.87C264.741 63.014 264.341 63.086 263.897 63.086C263.449 63.086 263.045 63.014 262.685 62.87C262.329 62.722 262.025 62.512 261.773 62.24C261.521 61.968 261.327 61.64 261.191 61.256C261.059 60.872 260.993 60.44 260.993 59.96C260.993 59.484 261.059 59.054 261.191 58.67C261.327 58.282 261.521 57.952 261.773 57.68C262.025 57.408 262.329 57.198 262.685 57.05C263.045 56.902 263.449 56.828 263.897 56.828ZM263.897 62.252C264.497 62.252 264.945 62.052 265.241 61.652C265.537 61.248 265.685 60.686 265.685 59.966C265.685 59.242 265.537 58.678 265.241 58.274C264.945 57.87 264.497 57.668 263.897 57.668C263.593 57.668 263.327 57.72 263.099 57.824C262.875 57.928 262.687 58.078 262.535 58.274C262.387 58.47 262.275 58.712 262.199 59C262.127 59.284 262.091 59.606 262.091 59.966C262.091 60.686 262.239 61.248 262.535 61.652C262.835 62.052 263.289 62.252 263.897 62.252ZM271.03 60.266C270.538 60.282 270.118 60.322 269.77 60.386C269.426 60.446 269.144 60.526 268.924 60.626C268.708 60.726 268.55 60.844 268.45 60.98C268.354 61.116 268.306 61.268 268.306 61.436C268.306 61.596 268.332 61.734 268.384 61.85C268.436 61.966 268.506 62.062 268.594 62.138C268.686 62.21 268.792 62.264 268.912 62.3C269.036 62.332 269.168 62.348 269.308 62.348C269.496 62.348 269.668 62.33 269.824 62.294C269.98 62.254 270.126 62.198 270.262 62.126C270.402 62.054 270.534 61.968 270.658 61.868C270.786 61.768 270.91 61.654 271.03 61.526V60.266ZM267.58 57.782C267.916 57.458 268.278 57.216 268.666 57.056C269.054 56.896 269.484 56.816 269.956 56.816C270.296 56.816 270.598 56.872 270.862 56.984C271.126 57.096 271.348 57.252 271.528 57.452C271.708 57.652 271.844 57.894 271.936 58.178C272.028 58.462 272.074 58.774 272.074 59.114V63.002H271.6C271.496 63.002 271.416 62.986 271.36 62.954C271.304 62.918 271.26 62.85 271.228 62.75L271.108 62.174C270.948 62.322 270.792 62.454 270.64 62.57C270.488 62.682 270.328 62.778 270.16 62.858C269.992 62.934 269.812 62.992 269.62 63.032C269.432 63.076 269.222 63.098 268.99 63.098C268.754 63.098 268.532 63.066 268.324 63.002C268.116 62.934 267.934 62.834 267.778 62.702C267.626 62.57 267.504 62.404 267.412 62.204C267.324 62 267.28 61.76 267.28 61.484C267.28 61.244 267.346 61.014 267.478 60.794C267.61 60.57 267.824 60.372 268.12 60.2C268.416 60.028 268.802 59.888 269.278 59.78C269.754 59.668 270.338 59.604 271.03 59.588V59.114C271.03 58.642 270.928 58.286 270.724 58.046C270.52 57.802 270.222 57.68 269.83 57.68C269.566 57.68 269.344 57.714 269.164 57.782C268.988 57.846 268.834 57.92 268.702 58.004C268.574 58.084 268.462 58.158 268.366 58.226C268.274 58.29 268.182 58.322 268.09 58.322C268.018 58.322 267.956 58.304 267.904 58.268C267.852 58.228 267.808 58.18 267.772 58.124L267.58 57.782ZM277.253 58.37C277.053 58.102 276.837 57.916 276.605 57.812C276.373 57.704 276.113 57.65 275.825 57.65C275.261 57.65 274.827 57.852 274.523 58.256C274.219 58.66 274.067 59.236 274.067 59.984C274.067 60.38 274.101 60.72 274.169 61.004C274.237 61.284 274.337 61.516 274.469 61.7C274.601 61.88 274.763 62.012 274.955 62.096C275.147 62.18 275.365 62.222 275.609 62.222C275.961 62.222 276.267 62.142 276.527 61.982C276.791 61.822 277.033 61.596 277.253 61.304V58.37ZM278.321 54.164V63.002H277.685C277.533 63.002 277.437 62.928 277.397 62.78L277.301 62.042C277.041 62.354 276.745 62.606 276.413 62.798C276.081 62.99 275.697 63.086 275.261 63.086C274.913 63.086 274.597 63.02 274.313 62.888C274.029 62.752 273.787 62.554 273.587 62.294C273.387 62.034 273.233 61.71 273.125 61.322C273.017 60.934 272.963 60.488 272.963 59.984C272.963 59.536 273.023 59.12 273.143 58.736C273.263 58.348 273.435 58.012 273.659 57.728C273.883 57.444 274.157 57.222 274.481 57.062C274.809 56.898 275.177 56.816 275.585 56.816C275.957 56.816 276.275 56.88 276.539 57.008C276.807 57.132 277.045 57.306 277.253 57.53V54.164H278.321ZM246.949 72.226C247.013 72.226 247.069 72.252 247.117 72.304L247.579 72.802C247.227 73.21 246.799 73.528 246.295 73.756C245.795 73.984 245.189 74.098 244.477 74.098C243.861 74.098 243.301 73.992 242.797 73.78C242.293 73.564 241.863 73.264 241.507 72.88C241.151 72.492 240.875 72.028 240.679 71.488C240.483 70.948 240.385 70.354 240.385 69.706C240.385 69.058 240.487 68.464 240.691 67.924C240.895 67.384 241.181 66.92 241.549 66.532C241.921 66.144 242.365 65.844 242.881 65.632C243.397 65.416 243.967 65.308 244.591 65.308C245.203 65.308 245.743 65.406 246.211 65.602C246.679 65.798 247.091 66.064 247.447 66.4L247.063 66.934C247.039 66.974 247.007 67.008 246.967 67.036C246.931 67.06 246.881 67.072 246.817 67.072C246.745 67.072 246.657 67.034 246.553 66.958C246.449 66.878 246.313 66.79 246.145 66.694C245.977 66.598 245.767 66.512 245.515 66.436C245.263 66.356 244.953 66.316 244.585 66.316C244.141 66.316 243.735 66.394 243.367 66.55C242.999 66.702 242.681 66.924 242.413 67.216C242.149 67.508 241.943 67.864 241.795 68.284C241.647 68.704 241.573 69.178 241.573 69.706C241.573 70.242 241.649 70.72 241.801 71.14C241.957 71.56 242.167 71.916 242.431 72.208C242.699 72.496 243.013 72.716 243.373 72.868C243.737 73.02 244.129 73.096 244.549 73.096C244.805 73.096 245.035 73.082 245.239 73.054C245.447 73.022 245.637 72.974 245.809 72.91C245.985 72.846 246.147 72.766 246.295 72.67C246.447 72.57 246.597 72.452 246.745 72.316C246.813 72.256 246.881 72.226 246.949 72.226ZM250.713 67.828C251.157 67.828 251.557 67.902 251.913 68.05C252.269 68.198 252.573 68.408 252.825 68.68C253.077 68.952 253.269 69.282 253.401 69.67C253.537 70.054 253.605 70.484 253.605 70.96C253.605 71.44 253.537 71.872 253.401 72.256C253.269 72.64 253.077 72.968 252.825 73.24C252.573 73.512 252.269 73.722 251.913 73.87C251.557 74.014 251.157 74.086 250.713 74.086C250.265 74.086 249.861 74.014 249.501 73.87C249.145 73.722 248.841 73.512 248.589 73.24C248.337 72.968 248.143 72.64 248.007 72.256C247.875 71.872 247.809 71.44 247.809 70.96C247.809 70.484 247.875 70.054 248.007 69.67C248.143 69.282 248.337 68.952 248.589 68.68C248.841 68.408 249.145 68.198 249.501 68.05C249.861 67.902 250.265 67.828 250.713 67.828ZM250.713 73.252C251.313 73.252 251.761 73.052 252.057 72.652C252.353 72.248 252.501 71.686 252.501 70.966C252.501 70.242 252.353 69.678 252.057 69.274C251.761 68.87 251.313 68.668 250.713 68.668C250.409 68.668 250.143 68.72 249.915 68.824C249.691 68.928 249.503 69.078 249.351 69.274C249.203 69.47 249.091 69.712 249.015 70C248.943 70.284 248.907 70.606 248.907 70.966C248.907 71.686 249.055 72.248 249.351 72.652C249.651 73.052 250.105 73.252 250.713 73.252ZM255.56 68.806C255.692 68.658 255.832 68.524 255.98 68.404C256.128 68.284 256.284 68.182 256.448 68.098C256.616 68.01 256.792 67.944 256.976 67.9C257.164 67.852 257.366 67.828 257.582 67.828C257.914 67.828 258.206 67.884 258.458 67.996C258.714 68.104 258.926 68.26 259.094 68.464C259.266 68.664 259.396 68.906 259.484 69.19C259.572 69.474 259.616 69.788 259.616 70.132V74.002H258.542V70.132C258.542 69.672 258.436 69.316 258.224 69.064C258.016 68.808 257.698 68.68 257.27 68.68C256.954 68.68 256.658 68.756 256.382 68.908C256.11 69.06 255.858 69.266 255.626 69.526V74.002H254.552V67.924H255.194C255.346 67.924 255.44 67.998 255.476 68.146L255.56 68.806ZM262.619 74.098C262.139 74.098 261.769 73.964 261.509 73.696C261.253 73.428 261.125 73.042 261.125 72.538V68.818H260.393C260.329 68.818 260.275 68.8 260.231 68.764C260.187 68.724 260.165 68.664 260.165 68.584V68.158L261.161 68.032L261.407 66.154C261.419 66.094 261.445 66.046 261.485 66.01C261.529 65.97 261.585 65.95 261.653 65.95H262.193V68.044H263.951V68.818H262.193V72.466C262.193 72.722 262.255 72.912 262.379 73.036C262.503 73.16 262.663 73.222 262.859 73.222C262.971 73.222 263.067 73.208 263.147 73.18C263.231 73.148 263.303 73.114 263.363 73.078C263.423 73.042 263.473 73.01 263.513 72.982C263.557 72.95 263.595 72.934 263.627 72.934C263.683 72.934 263.733 72.968 263.777 73.036L264.089 73.546C263.905 73.718 263.683 73.854 263.423 73.954C263.163 74.05 262.895 74.098 262.619 74.098ZM265.66 69.142C265.852 68.726 266.088 68.402 266.368 68.17C266.648 67.934 266.99 67.816 267.394 67.816C267.522 67.816 267.644 67.83 267.76 67.858C267.88 67.886 267.986 67.93 268.078 67.99L268 68.788C267.976 68.888 267.916 68.938 267.82 68.938C267.764 68.938 267.682 68.926 267.574 68.902C267.466 68.878 267.344 68.866 267.208 68.866C267.016 68.866 266.844 68.894 266.692 68.95C266.544 69.006 266.41 69.09 266.29 69.202C266.174 69.31 266.068 69.446 265.972 69.61C265.88 69.77 265.796 69.954 265.72 70.162V74.002H264.646V67.924H265.258C265.374 67.924 265.454 67.946 265.498 67.99C265.542 68.034 265.572 68.11 265.588 68.218L265.66 69.142ZM271.809 71.266C271.317 71.282 270.897 71.322 270.549 71.386C270.205 71.446 269.923 71.526 269.703 71.626C269.487 71.726 269.329 71.844 269.229 71.98C269.133 72.116 269.085 72.268 269.085 72.436C269.085 72.596 269.111 72.734 269.163 72.85C269.215 72.966 269.285 73.062 269.373 73.138C269.465 73.21 269.571 73.264 269.691 73.3C269.815 73.332 269.947 73.348 270.087 73.348C270.275 73.348 270.447 73.33 270.603 73.294C270.759 73.254 270.905 73.198 271.041 73.126C271.181 73.054 271.313 72.968 271.437 72.868C271.565 72.768 271.689 72.654 271.809 72.526V71.266ZM268.359 68.782C268.695 68.458 269.057 68.216 269.445 68.056C269.833 67.896 270.263 67.816 270.735 67.816C271.075 67.816 271.377 67.872 271.641 67.984C271.905 68.096 272.127 68.252 272.307 68.452C272.487 68.652 272.623 68.894 272.715 69.178C272.807 69.462 272.853 69.774 272.853 70.114V74.002H272.379C272.275 74.002 272.195 73.986 272.139 73.954C272.083 73.918 272.039 73.85 272.007 73.75L271.887 73.174C271.727 73.322 271.571 73.454 271.419 73.57C271.267 73.682 271.107 73.778 270.939 73.858C270.771 73.934 270.591 73.992 270.399 74.032C270.211 74.076 270.001 74.098 269.769 74.098C269.533 74.098 269.311 74.066 269.103 74.002C268.895 73.934 268.713 73.834 268.557 73.702C268.405 73.57 268.283 73.404 268.191 73.204C268.103 73 268.059 72.76 268.059 72.484C268.059 72.244 268.125 72.014 268.257 71.794C268.389 71.57 268.603 71.372 268.899 71.2C269.195 71.028 269.581 70.888 270.057 70.78C270.533 70.668 271.117 70.604 271.809 70.588V70.114C271.809 69.642 271.707 69.286 271.503 69.046C271.299 68.802 271.001 68.68 270.609 68.68C270.345 68.68 270.123 68.714 269.943 68.782C269.767 68.846 269.613 68.92 269.481 69.004C269.353 69.084 269.241 69.158 269.145 69.226C269.053 69.29 268.961 69.322 268.869 69.322C268.797 69.322 268.735 69.304 268.683 69.268C268.631 69.228 268.587 69.18 268.551 69.124L268.359 68.782ZM278.302 69.004C278.27 69.048 278.238 69.082 278.206 69.106C278.174 69.13 278.13 69.142 278.074 69.142C278.014 69.142 277.948 69.118 277.876 69.07C277.804 69.018 277.714 68.962 277.606 68.902C277.502 68.842 277.372 68.788 277.216 68.74C277.064 68.688 276.876 68.662 276.652 68.662C276.352 68.662 276.088 68.716 275.86 68.824C275.632 68.928 275.44 69.08 275.284 69.28C275.132 69.48 275.016 69.722 274.936 70.006C274.86 70.29 274.822 70.608 274.822 70.96C274.822 71.328 274.864 71.656 274.948 71.944C275.032 72.228 275.15 72.468 275.302 72.664C275.458 72.856 275.644 73.004 275.86 73.108C276.08 73.208 276.326 73.258 276.598 73.258C276.858 73.258 277.072 73.228 277.24 73.168C277.408 73.104 277.546 73.034 277.654 72.958C277.766 72.882 277.858 72.814 277.93 72.754C278.006 72.69 278.08 72.658 278.152 72.658C278.24 72.658 278.308 72.692 278.356 72.76L278.656 73.15C278.524 73.314 278.374 73.454 278.206 73.57C278.038 73.686 277.856 73.784 277.66 73.864C277.468 73.94 277.266 73.996 277.054 74.032C276.842 74.068 276.626 74.086 276.406 74.086C276.026 74.086 275.672 74.016 275.344 73.876C275.02 73.736 274.738 73.534 274.498 73.27C274.258 73.002 274.07 72.674 273.934 72.286C273.798 71.898 273.73 71.456 273.73 70.96C273.73 70.508 273.792 70.09 273.916 69.706C274.044 69.322 274.228 68.992 274.468 68.716C274.712 68.436 275.01 68.218 275.362 68.062C275.718 67.906 276.126 67.828 276.586 67.828C277.014 67.828 277.39 67.898 277.714 68.038C278.042 68.174 278.332 68.368 278.584 68.62L278.302 69.004ZM281.261 74.098C280.781 74.098 280.411 73.964 280.151 73.696C279.895 73.428 279.767 73.042 279.767 72.538V68.818H279.035C278.971 68.818 278.917 68.8 278.873 68.764C278.829 68.724 278.807 68.664 278.807 68.584V68.158L279.803 68.032L280.049 66.154C280.061 66.094 280.087 66.046 280.127 66.01C280.171 65.97 280.227 65.95 280.295 65.95H280.835V68.044H282.593V68.818H280.835V72.466C280.835 72.722 280.897 72.912 281.021 73.036C281.145 73.16 281.305 73.222 281.501 73.222C281.613 73.222 281.709 73.208 281.789 73.18C281.873 73.148 281.945 73.114 282.005 73.078C282.065 73.042 282.115 73.01 282.155 72.982C282.199 72.95 282.237 72.934 282.269 72.934C282.325 72.934 282.375 72.968 282.419 73.036L282.731 73.546C282.547 73.718 282.325 73.854 282.065 73.954C281.805 74.05 281.537 74.098 281.261 74.098Z" fill="#767676"/>
<path d="M325.998 60.032C325.998 60.512 325.938 60.942 325.818 61.322C325.702 61.702 325.528 62.024 325.296 62.288C325.068 62.548 324.786 62.748 324.45 62.888C324.114 63.028 323.728 63.098 323.292 63.098C322.896 63.098 322.492 63.042 322.08 62.93C322.088 62.814 322.098 62.7 322.11 62.588C322.122 62.472 322.132 62.358 322.14 62.246C322.148 62.178 322.172 62.124 322.212 62.084C322.256 62.04 322.322 62.018 322.41 62.018C322.482 62.018 322.576 62.036 322.692 62.072C322.812 62.108 322.972 62.126 323.172 62.126C323.436 62.126 323.672 62.086 323.88 62.006C324.088 61.926 324.262 61.802 324.402 61.634C324.542 61.466 324.648 61.252 324.72 60.992C324.796 60.728 324.834 60.416 324.834 60.056V54.404H325.998V60.032ZM329.799 56.828C330.243 56.828 330.643 56.902 330.999 57.05C331.355 57.198 331.659 57.408 331.911 57.68C332.163 57.952 332.355 58.282 332.487 58.67C332.623 59.054 332.691 59.484 332.691 59.96C332.691 60.44 332.623 60.872 332.487 61.256C332.355 61.64 332.163 61.968 331.911 62.24C331.659 62.512 331.355 62.722 330.999 62.87C330.643 63.014 330.243 63.086 329.799 63.086C329.351 63.086 328.947 63.014 328.587 62.87C328.231 62.722 327.927 62.512 327.675 62.24C327.423 61.968 327.229 61.64 327.093 61.256C326.961 60.872 326.895 60.44 326.895 59.96C326.895 59.484 326.961 59.054 327.093 58.67C327.229 58.282 327.423 57.952 327.675 57.68C327.927 57.408 328.231 57.198 328.587 57.05C328.947 56.902 329.351 56.828 329.799 56.828ZM329.799 62.252C330.399 62.252 330.847 62.052 331.143 61.652C331.439 61.248 331.587 60.686 331.587 59.966C331.587 59.242 331.439 58.678 331.143 58.274C330.847 57.87 330.399 57.668 329.799 57.668C329.495 57.668 329.229 57.72 329.001 57.824C328.777 57.928 328.589 58.078 328.437 58.274C328.289 58.47 328.177 58.712 328.101 59C328.029 59.284 327.993 59.606 327.993 59.966C327.993 60.686 328.141 61.248 328.437 61.652C328.737 62.052 329.191 62.252 329.799 62.252ZM334.766 56.924V63.002H333.698V56.924H334.766ZM334.994 55.016C334.994 55.12 334.972 55.218 334.928 55.31C334.888 55.398 334.832 55.478 334.76 55.55C334.692 55.618 334.61 55.672 334.514 55.712C334.422 55.752 334.324 55.772 334.22 55.772C334.116 55.772 334.018 55.752 333.926 55.712C333.838 55.672 333.76 55.618 333.692 55.55C333.624 55.478 333.57 55.398 333.53 55.31C333.49 55.218 333.47 55.12 333.47 55.016C333.47 54.912 333.49 54.814 333.53 54.722C333.57 54.626 333.624 54.544 333.692 54.476C333.76 54.404 333.838 54.348 333.926 54.308C334.018 54.268 334.116 54.248 334.22 54.248C334.324 54.248 334.422 54.268 334.514 54.308C334.61 54.348 334.692 54.404 334.76 54.476C334.832 54.544 334.888 54.626 334.928 54.722C334.972 54.814 334.994 54.912 334.994 55.016ZM337.12 57.806C337.252 57.658 337.392 57.524 337.54 57.404C337.688 57.284 337.844 57.182 338.008 57.098C338.176 57.01 338.352 56.944 338.536 56.9C338.724 56.852 338.926 56.828 339.142 56.828C339.474 56.828 339.766 56.884 340.018 56.996C340.274 57.104 340.486 57.26 340.654 57.464C340.826 57.664 340.956 57.906 341.044 58.19C341.132 58.474 341.176 58.788 341.176 59.132V63.002H340.102V59.132C340.102 58.672 339.996 58.316 339.784 58.064C339.576 57.808 339.258 57.68 338.83 57.68C338.514 57.68 338.218 57.756 337.942 57.908C337.67 58.06 337.418 58.266 337.186 58.526V63.002H336.112V56.924H336.754C336.906 56.924 337 56.998 337.036 57.146L337.12 57.806ZM346.924 63.098C346.444 63.098 346.074 62.964 345.814 62.696C345.558 62.428 345.43 62.042 345.43 61.538V57.818H344.698C344.634 57.818 344.58 57.8 344.536 57.764C344.492 57.724 344.47 57.664 344.47 57.584V57.158L345.466 57.032L345.712 55.154C345.724 55.094 345.75 55.046 345.79 55.01C345.834 54.97 345.89 54.95 345.958 54.95H346.498V57.044H348.256V57.818H346.498V61.466C346.498 61.722 346.56 61.912 346.684 62.036C346.808 62.16 346.968 62.222 347.164 62.222C347.276 62.222 347.372 62.208 347.452 62.18C347.536 62.148 347.608 62.114 347.668 62.078C347.728 62.042 347.778 62.01 347.818 61.982C347.862 61.95 347.9 61.934 347.932 61.934C347.988 61.934 348.038 61.968 348.082 62.036L348.394 62.546C348.21 62.718 347.988 62.854 347.728 62.954C347.468 63.05 347.2 63.098 346.924 63.098ZM350.025 57.734C350.285 57.458 350.573 57.238 350.889 57.074C351.205 56.91 351.569 56.828 351.981 56.828C352.313 56.828 352.605 56.884 352.857 56.996C353.113 57.104 353.325 57.26 353.493 57.464C353.665 57.664 353.795 57.906 353.883 58.19C353.971 58.474 354.015 58.788 354.015 59.132V63.002H352.941V59.132C352.941 58.672 352.835 58.316 352.623 58.064C352.415 57.808 352.097 57.68 351.669 57.68C351.353 57.68 351.057 57.756 350.781 57.908C350.509 58.06 350.257 58.266 350.025 58.526V63.002H348.951V54.164H350.025V57.734ZM359.302 59.3C359.302 59.052 359.266 58.826 359.194 58.622C359.126 58.414 359.024 58.236 358.888 58.088C358.756 57.936 358.594 57.82 358.402 57.74C358.21 57.656 357.992 57.614 357.748 57.614C357.236 57.614 356.83 57.764 356.53 58.064C356.234 58.36 356.05 58.772 355.978 59.3H359.302ZM360.166 62.15C360.034 62.31 359.876 62.45 359.692 62.57C359.508 62.686 359.31 62.782 359.098 62.858C358.89 62.934 358.674 62.99 358.45 63.026C358.226 63.066 358.004 63.086 357.784 63.086C357.364 63.086 356.976 63.016 356.62 62.876C356.268 62.732 355.962 62.524 355.702 62.252C355.446 61.976 355.246 61.636 355.102 61.232C354.958 60.828 354.886 60.364 354.886 59.84C354.886 59.416 354.95 59.02 355.078 58.652C355.21 58.284 355.398 57.966 355.642 57.698C355.886 57.426 356.184 57.214 356.536 57.062C356.888 56.906 357.284 56.828 357.724 56.828C358.088 56.828 358.424 56.89 358.732 57.014C359.044 57.134 359.312 57.31 359.536 57.542C359.764 57.77 359.942 58.054 360.07 58.394C360.198 58.73 360.262 59.114 360.262 59.546C360.262 59.714 360.244 59.826 360.208 59.882C360.172 59.938 360.104 59.966 360.004 59.966H355.942C355.954 60.35 356.006 60.684 356.098 60.968C356.194 61.252 356.326 61.49 356.494 61.682C356.662 61.87 356.862 62.012 357.094 62.108C357.326 62.2 357.586 62.246 357.874 62.246C358.142 62.246 358.372 62.216 358.564 62.156C358.76 62.092 358.928 62.024 359.068 61.952C359.208 61.88 359.324 61.814 359.416 61.754C359.512 61.69 359.594 61.658 359.662 61.658C359.75 61.658 359.818 61.692 359.866 61.76L360.166 62.15ZM326.561 72.226C326.625 72.226 326.681 72.252 326.729 72.304L327.191 72.802C326.839 73.21 326.411 73.528 325.907 73.756C325.407 73.984 324.801 74.098 324.089 74.098C323.473 74.098 322.913 73.992 322.409 73.78C321.905 73.564 321.475 73.264 321.119 72.88C320.763 72.492 320.487 72.028 320.291 71.488C320.095 70.948 319.997 70.354 319.997 69.706C319.997 69.058 320.099 68.464 320.303 67.924C320.507 67.384 320.793 66.92 321.161 66.532C321.533 66.144 321.977 65.844 322.493 65.632C323.009 65.416 323.579 65.308 324.203 65.308C324.815 65.308 325.355 65.406 325.823 65.602C326.291 65.798 326.703 66.064 327.059 66.4L326.675 66.934C326.651 66.974 326.619 67.008 326.579 67.036C326.543 67.06 326.493 67.072 326.429 67.072C326.357 67.072 326.269 67.034 326.165 66.958C326.061 66.878 325.925 66.79 325.757 66.694C325.589 66.598 325.379 66.512 325.127 66.436C324.875 66.356 324.565 66.316 324.197 66.316C323.753 66.316 323.347 66.394 322.979 66.55C322.611 66.702 322.293 66.924 322.025 67.216C321.761 67.508 321.555 67.864 321.407 68.284C321.259 68.704 321.185 69.178 321.185 69.706C321.185 70.242 321.261 70.72 321.413 71.14C321.569 71.56 321.779 71.916 322.043 72.208C322.311 72.496 322.625 72.716 322.985 72.868C323.349 73.02 323.741 73.096 324.161 73.096C324.417 73.096 324.647 73.082 324.851 73.054C325.059 73.022 325.249 72.974 325.421 72.91C325.597 72.846 325.759 72.766 325.907 72.67C326.059 72.57 326.209 72.452 326.357 72.316C326.425 72.256 326.493 72.226 326.561 72.226ZM330.325 67.828C330.769 67.828 331.169 67.902 331.525 68.05C331.881 68.198 332.185 68.408 332.437 68.68C332.689 68.952 332.881 69.282 333.013 69.67C333.149 70.054 333.217 70.484 333.217 70.96C333.217 71.44 333.149 71.872 333.013 72.256C332.881 72.64 332.689 72.968 332.437 73.24C332.185 73.512 331.881 73.722 331.525 73.87C331.169 74.014 330.769 74.086 330.325 74.086C329.877 74.086 329.473 74.014 329.113 73.87C328.757 73.722 328.453 73.512 328.201 73.24C327.949 72.968 327.755 72.64 327.619 72.256C327.487 71.872 327.421 71.44 327.421 70.96C327.421 70.484 327.487 70.054 327.619 69.67C327.755 69.282 327.949 68.952 328.201 68.68C328.453 68.408 328.757 68.198 329.113 68.05C329.473 67.902 329.877 67.828 330.325 67.828ZM330.325 73.252C330.925 73.252 331.373 73.052 331.669 72.652C331.965 72.248 332.113 71.686 332.113 70.966C332.113 70.242 331.965 69.678 331.669 69.274C331.373 68.87 330.925 68.668 330.325 68.668C330.021 68.668 329.755 68.72 329.527 68.824C329.303 68.928 329.115 69.078 328.963 69.274C328.815 69.47 328.703 69.712 328.627 70C328.555 70.284 328.519 70.606 328.519 70.966C328.519 71.686 328.667 72.248 328.963 72.652C329.263 73.052 329.717 73.252 330.325 73.252ZM337.458 71.266C336.966 71.282 336.546 71.322 336.198 71.386C335.854 71.446 335.572 71.526 335.352 71.626C335.136 71.726 334.978 71.844 334.878 71.98C334.782 72.116 334.734 72.268 334.734 72.436C334.734 72.596 334.76 72.734 334.812 72.85C334.864 72.966 334.934 73.062 335.022 73.138C335.114 73.21 335.22 73.264 335.34 73.3C335.464 73.332 335.596 73.348 335.736 73.348C335.924 73.348 336.096 73.33 336.252 73.294C336.408 73.254 336.554 73.198 336.69 73.126C336.83 73.054 336.962 72.968 337.086 72.868C337.214 72.768 337.338 72.654 337.458 72.526V71.266ZM334.008 68.782C334.344 68.458 334.706 68.216 335.094 68.056C335.482 67.896 335.912 67.816 336.384 67.816C336.724 67.816 337.026 67.872 337.29 67.984C337.554 68.096 337.776 68.252 337.956 68.452C338.136 68.652 338.272 68.894 338.364 69.178C338.456 69.462 338.502 69.774 338.502 70.114V74.002H338.028C337.924 74.002 337.844 73.986 337.788 73.954C337.732 73.918 337.688 73.85 337.656 73.75L337.536 73.174C337.376 73.322 337.22 73.454 337.068 73.57C336.916 73.682 336.756 73.778 336.588 73.858C336.42 73.934 336.24 73.992 336.048 74.032C335.86 74.076 335.65 74.098 335.418 74.098C335.182 74.098 334.96 74.066 334.752 74.002C334.544 73.934 334.362 73.834 334.206 73.702C334.054 73.57 333.932 73.404 333.84 73.204C333.752 73 333.708 72.76 333.708 72.484C333.708 72.244 333.774 72.014 333.906 71.794C334.038 71.57 334.252 71.372 334.548 71.2C334.844 71.028 335.23 70.888 335.706 70.78C336.182 70.668 336.766 70.604 337.458 70.588V70.114C337.458 69.642 337.356 69.286 337.152 69.046C336.948 68.802 336.65 68.68 336.258 68.68C335.994 68.68 335.772 68.714 335.592 68.782C335.416 68.846 335.262 68.92 335.13 69.004C335.002 69.084 334.89 69.158 334.794 69.226C334.702 69.29 334.61 69.322 334.518 69.322C334.446 69.322 334.384 69.304 334.332 69.268C334.28 69.228 334.236 69.18 334.2 69.124L334.008 68.782ZM340.825 65.164V74.002H339.757V65.164H340.825ZM343.277 67.924V74.002H342.209V67.924H343.277ZM343.505 66.016C343.505 66.12 343.483 66.218 343.439 66.31C343.399 66.398 343.343 66.478 343.271 66.55C343.203 66.618 343.121 66.672 343.025 66.712C342.933 66.752 342.835 66.772 342.731 66.772C342.627 66.772 342.529 66.752 342.437 66.712C342.349 66.672 342.271 66.618 342.203 66.55C342.135 66.478 342.081 66.398 342.041 66.31C342.001 66.218 341.981 66.12 341.981 66.016C341.981 65.912 342.001 65.814 342.041 65.722C342.081 65.626 342.135 65.544 342.203 65.476C342.271 65.404 342.349 65.348 342.437 65.308C342.529 65.268 342.627 65.248 342.731 65.248C342.835 65.248 342.933 65.268 343.025 65.308C343.121 65.348 343.203 65.404 343.271 65.476C343.343 65.544 343.399 65.626 343.439 65.722C343.483 65.814 343.505 65.912 343.505 66.016ZM346.49 74.098C346.01 74.098 345.64 73.964 345.38 73.696C345.124 73.428 344.996 73.042 344.996 72.538V68.818H344.264C344.2 68.818 344.146 68.8 344.102 68.764C344.058 68.724 344.036 68.664 344.036 68.584V68.158L345.032 68.032L345.278 66.154C345.29 66.094 345.316 66.046 345.356 66.01C345.4 65.97 345.456 65.95 345.524 65.95H346.064V68.044H347.822V68.818H346.064V72.466C346.064 72.722 346.126 72.912 346.25 73.036C346.374 73.16 346.534 73.222 346.73 73.222C346.842 73.222 346.938 73.208 347.018 73.18C347.102 73.148 347.174 73.114 347.234 73.078C347.294 73.042 347.344 73.01 347.384 72.982C347.428 72.95 347.466 72.934 347.498 72.934C347.554 72.934 347.604 72.968 347.648 73.036L347.96 73.546C347.776 73.718 347.554 73.854 347.294 73.954C347.034 74.05 346.766 74.098 346.49 74.098ZM349.644 67.924V74.002H348.576V67.924H349.644ZM349.872 66.016C349.872 66.12 349.85 66.218 349.806 66.31C349.766 66.398 349.71 66.478 349.638 66.55C349.57 66.618 349.488 66.672 349.392 66.712C349.3 66.752 349.202 66.772 349.098 66.772C348.994 66.772 348.896 66.752 348.804 66.712C348.716 66.672 348.638 66.618 348.57 66.55C348.502 66.478 348.448 66.398 348.408 66.31C348.368 66.218 348.348 66.12 348.348 66.016C348.348 65.912 348.368 65.814 348.408 65.722C348.448 65.626 348.502 65.544 348.57 65.476C348.638 65.404 348.716 65.348 348.804 65.308C348.896 65.268 348.994 65.248 349.098 65.248C349.202 65.248 349.3 65.268 349.392 65.308C349.488 65.348 349.57 65.404 349.638 65.476C349.71 65.544 349.766 65.626 349.806 65.722C349.85 65.814 349.872 65.912 349.872 66.016ZM353.553 67.828C353.997 67.828 354.397 67.902 354.753 68.05C355.109 68.198 355.413 68.408 355.665 68.68C355.917 68.952 356.109 69.282 356.241 69.67C356.377 70.054 356.445 70.484 356.445 70.96C356.445 71.44 356.377 71.872 356.241 72.256C356.109 72.64 355.917 72.968 355.665 73.24C355.413 73.512 355.109 73.722 354.753 73.87C354.397 74.014 353.997 74.086 353.553 74.086C353.105 74.086 352.701 74.014 352.341 73.87C351.985 73.722 351.681 73.512 351.429 73.24C351.177 72.968 350.983 72.64 350.847 72.256C350.715 71.872 350.649 71.44 350.649 70.96C350.649 70.484 350.715 70.054 350.847 69.67C350.983 69.282 351.177 68.952 351.429 68.68C351.681 68.408 351.985 68.198 352.341 68.05C352.701 67.902 353.105 67.828 353.553 67.828ZM353.553 73.252C354.153 73.252 354.601 73.052 354.897 72.652C355.193 72.248 355.341 71.686 355.341 70.966C355.341 70.242 355.193 69.678 354.897 69.274C354.601 68.87 354.153 68.668 353.553 68.668C353.249 68.668 352.983 68.72 352.755 68.824C352.531 68.928 352.343 69.078 352.191 69.274C352.043 69.47 351.931 69.712 351.855 70C351.783 70.284 351.747 70.606 351.747 70.966C351.747 71.686 351.895 72.248 352.191 72.652C352.491 73.052 352.945 73.252 353.553 73.252ZM358.4 68.806C358.532 68.658 358.672 68.524 358.82 68.404C358.968 68.284 359.124 68.182 359.288 68.098C359.456 68.01 359.632 67.944 359.816 67.9C360.004 67.852 360.206 67.828 360.422 67.828C360.754 67.828 361.046 67.884 361.298 67.996C361.554 68.104 361.766 68.26 361.934 68.464C362.106 68.664 362.236 68.906 362.324 69.19C362.412 69.474 362.456 69.788 362.456 70.132V74.002H361.382V70.132C361.382 69.672 361.276 69.316 361.064 69.064C360.856 68.808 360.538 68.68 360.11 68.68C359.794 68.68 359.498 68.756 359.222 68.908C358.95 69.06 358.698 69.266 358.466 69.526V74.002H357.392V67.924H358.034C358.186 67.924 358.28 67.998 358.316 68.146L358.4 68.806Z" fill="#767676"/>
<defs>
<clipPath id="clip0_738_43774">
<rect width="27.5645" height="27.44" fill="white" transform="translate(328.328 11.1094)"/>
</clipPath>
</defs>
</svg>
