<svg width="23" height="17" viewBox="0 0 23 17" fill="none" xmlns="http://www.w3.org/2000/svg">
<path id="Wifi" d="M10.81 16.241L7.95916 13.3674C7.9153 13.325 7.88077 13.2739 7.85777 13.2174C7.83477 13.1608 7.8238 13.1002 7.82557 13.0392C7.82611 12.9785 7.83899 12.9187 7.86342 12.8632C7.88785 12.8078 7.92333 12.7579 7.96768 12.7166C8.84928 11.9715 9.96625 11.5627 11.1205 11.5627C12.2748 11.5627 13.3917 11.9715 14.2733 12.7166C14.3185 12.7575 14.3548 12.8073 14.38 12.8628C14.4052 12.9182 14.4188 12.9783 14.42 13.0392C14.4212 13.1002 14.41 13.1607 14.3869 13.2172C14.3639 13.2736 14.3296 13.3247 14.2861 13.3674L11.441 16.241C11.3996 16.2828 11.3504 16.316 11.2961 16.3387C11.2418 16.3613 11.1836 16.373 11.1248 16.373C11.066 16.373 11.0077 16.3613 10.9534 16.3387C10.8992 16.316 10.8499 16.2828 10.8086 16.241H10.81ZM15.8266 11.2073C14.539 10.0425 12.8646 9.39749 11.1283 9.39749C9.39202 9.39749 7.71761 10.0425 6.43 11.2073C6.34648 11.2872 6.235 11.3311 6.11945 11.3298C6.0039 11.3285 5.89346 11.282 5.8118 11.2002L4.16327 9.53744C4.11978 9.49483 4.08523 9.44397 4.06165 9.38785C4.03806 9.33172 4.02592 9.27145 4.02592 9.21057C4.02592 9.14969 4.03806 9.08943 4.06165 9.0333C4.08523 8.97717 4.11978 8.92632 4.16327 8.88371C6.0542 7.12716 8.53959 6.1509 11.1205 6.1509C13.7014 6.1509 16.1868 7.12716 18.0777 8.88371C18.1212 8.92632 18.1558 8.97717 18.1794 9.0333C18.2029 9.08943 18.2151 9.14969 18.2151 9.21057C18.2151 9.27145 18.2029 9.33172 18.1794 9.38785C18.1558 9.44397 18.1212 9.49483 18.0777 9.53744L16.4434 11.2002C16.3618 11.282 16.2513 11.3285 16.1358 11.3298C16.0202 11.3311 15.9087 11.2872 15.8252 11.2073H15.8266ZM19.6197 7.37018C17.3273 5.19295 14.2864 3.97904 11.1248 3.97904C7.96318 3.97904 4.92228 5.19295 2.62985 7.37018C2.54779 7.45202 2.43663 7.49798 2.32075 7.49798C2.20486 7.49798 2.0937 7.45202 2.01164 7.37018L0.363111 5.71455C0.320442 5.67192 0.286592 5.62129 0.263498 5.56557C0.240403 5.50985 0.228516 5.45013 0.228516 5.38981C0.228516 5.3295 0.240403 5.26977 0.263498 5.21405C0.286592 5.15833 0.320442 5.10771 0.363111 5.06508C3.25883 2.29268 7.11301 0.745117 11.1219 0.745117C15.1308 0.745117 18.985 2.29268 21.8807 5.06508C21.9234 5.10771 21.9573 5.15833 21.9804 5.21405C22.0034 5.26977 22.0153 5.3295 22.0153 5.38981C22.0153 5.45013 22.0034 5.50985 21.9804 5.56557C21.9573 5.62129 21.9234 5.67192 21.8807 5.71455L20.2308 7.37729C20.1487 7.45913 20.0376 7.50508 19.9217 7.50508C19.8058 7.50508 19.6946 7.45913 19.6126 7.37729L19.6197 7.37018Z" fill="#78707C"/>
</svg>
